<svg width="246" height="215" viewBox="0 0 246 215" fill="none" xmlns="http://www.w3.org/2000/svg">
<path fill-rule="evenodd" clip-rule="evenodd" d="M121.775 11.5264C140.386 16.1766 151.529 34.5615 164.207 48.9725C173.721 59.7878 175.937 75.3585 186.522 85.1258C203.607 100.891 237.037 100.34 243.944 122.55C250.103 142.359 228.511 160.735 214.896 176.375C202.88 190.178 188.057 201.989 170.457 206.967C154.51 211.477 138.33 201.967 121.775 202.712C104.154 203.505 85.458 220.825 70.4985 211.467C55.3596 201.996 66.1235 175.161 55.172 161.048C41.4365 143.347 6.44496 144.412 1.50265 122.55C-3.00961 102.59 24.0463 89.6613 35.1493 72.4789C45.6019 56.3031 49.313 35.2755 65.057 24.1976C81.1801 12.8529 102.655 6.74868 121.775 11.5264Z" fill="url(#paint0_linear_946_319730)" fill-opacity="0.5"/>
<path fill-rule="evenodd" clip-rule="evenodd" d="M121.759 2.63867C140.369 7.2889 151.513 25.6738 164.19 40.0848C173.704 50.9001 175.92 66.4708 186.505 76.2381C203.59 92.0033 237.021 91.452 243.927 113.662C250.087 133.471 228.495 151.847 214.879 167.488C202.864 181.291 188.04 193.101 170.441 198.079C154.494 202.589 138.313 193.079 121.759 193.824C104.137 194.618 85.4414 211.937 70.4819 202.579C55.3429 193.109 66.1069 166.274 55.1554 152.16C41.4199 134.459 6.42836 135.524 1.48604 113.662C-3.02621 93.7027 24.0297 80.7736 35.1327 63.5912C45.5853 47.4154 49.2964 26.3878 65.0404 15.3099C81.1635 3.9652 102.638 -2.13901 121.759 2.63867Z" stroke="black" stroke-opacity="0.1"/>
<g opacity="0.8" clip-path="url(#clip0_946_319730)">
<path d="M127.064 116.943C132.317 112.901 136.5 107.702 139.347 101.635C145.337 101.322 148.009 93.8577 148.733 88.8944C154.631 93.5904 163.228 93.9917 169.531 89.8536C173.486 87.2574 176.188 83.2802 177.141 78.6543C177.712 75.882 177.608 73.0772 176.876 70.4249C181.135 71.5629 186.215 71.925 190.074 69.3914C192.97 67.4908 193.851 63.3465 191.928 60.4277C193.7 56.2138 190.561 51.4874 185.999 51.4516C184.033 48.4749 180.005 47.6468 177.02 49.6063C172.913 52.3025 171.4 57.5107 170.848 61.2997C165.015 56.6554 156.611 56.0291 150.05 60.3368C145.517 63.3128 142.58 68.2846 142.137 73.6853C141.225 69.9938 139.807 66.4391 137.886 63.0598C132.376 53.3649 123.429 46.4125 112.693 43.4825C101.956 40.5528 90.7177 41.9967 81.0464 47.5486C61.0878 59.0053 54.1022 84.6028 65.4737 104.609C70.984 114.304 79.9313 121.257 90.6673 124.187C94.3009 125.178 97.9909 125.669 101.659 125.669C106.955 125.669 112.203 124.643 117.163 122.629L145.294 172.122C148.981 178.607 158.795 172.772 155.204 166.452L127.064 116.943ZM140.423 97.3269C137.391 99.316 136.973 94.7109 134.715 94.7109C132.738 94.7109 129.448 93.5083 131.565 90.7191C132.175 89.9165 132.071 88.7819 131.327 88.1027C130.209 87.0816 130.344 84.9093 131.645 84.0555C135.158 81.749 141.957 82.5295 145.144 85.0296C145.111 87.0769 144.69 94.5255 140.423 97.3269ZM174.969 60.3511C175.494 57.845 176.647 54.5114 179.158 52.8628C180.352 52.0789 181.963 52.4095 182.748 53.5989C182.86 53.7691 182.952 53.9563 183.027 54.1717C183.357 55.1203 184.356 55.6621 185.331 55.4218C186.425 55.1535 187.443 55.6922 188.116 56.505C188.714 57.411 188.674 58.6027 188.015 59.4703C187.064 60.7236 188.037 61.6078 188.672 62.5694C189.414 63.9611 189.169 65.1492 187.935 66.1339C183.662 68.9394 176.619 66.3739 174.726 65.598L174.435 65.1578C174.448 64.2881 174.532 62.4379 174.969 60.3511ZM146.256 72.3214C146.999 68.7168 149.105 65.617 152.188 63.5933C154.523 62.06 157.158 61.3272 159.765 61.3272C164.262 61.3272 168.677 63.5086 171.33 67.5256C173.357 70.5956 174.066 74.2687 173.325 77.8683C172.582 81.4728 170.476 84.5727 167.393 86.5964C161.029 90.7742 152.442 89.01 148.251 82.664C146.223 79.5941 145.515 75.921 146.256 72.3214ZM91.693 120.428C81.9639 117.773 73.8555 111.471 68.8611 102.684C58.5467 84.5374 64.8828 61.3192 82.9855 50.9271C91.7517 45.895 101.937 44.5859 111.666 47.2411C121.395 49.8959 129.504 56.1975 134.498 64.9848C136.999 69.3859 138.566 74.1126 139.173 79.0652C136.014 78.6686 132.433 78.8774 129.506 80.7988C126.612 82.6994 125.729 86.8439 127.653 89.7625C126.829 91.721 127.007 94.0057 128.213 95.8318C129.416 97.6165 131.422 98.7215 133.581 98.7383C133.655 98.8503 133.733 98.9586 133.812 99.0643C125.586 110.141 111.42 115.116 98.047 111.467C91.2312 109.607 85.5505 105.192 82.0514 99.0355C78.5508 92.8766 77.6523 85.7119 79.5217 78.8616C80.1848 76.4316 76.426 75.4059 75.7629 77.8358C73.6202 85.687 74.6506 93.8995 78.664 100.961C82.6789 108.025 89.1984 113.091 97.021 115.225C100.286 116.116 103.592 116.547 106.863 116.547C115.667 116.547 124.208 113.425 130.952 107.756C128.041 111.345 124.48 114.384 120.373 116.741C111.608 121.774 101.422 123.083 91.693 120.428ZM151.138 170.867C150.133 171.325 149.314 171.102 148.682 170.196L120.713 120.989C121.251 120.71 121.785 120.424 122.314 120.12C122.837 119.82 123.351 119.508 123.858 119.188L151.817 168.377C152.313 169.25 152.008 170.367 151.138 170.867Z" fill="#474747"/>
<path d="M80.6379 71.5771C81.4768 72.2498 82.7031 72.1153 83.3764 71.2758C88.5706 64.7974 97.0815 62.0183 105.059 64.195C109.24 65.3361 112.725 68.0443 114.871 71.821C117.02 75.6003 117.571 79.9971 116.423 84.2009C114.586 90.9338 107.64 94.9233 100.941 93.0957C95.7885 91.6895 92.7463 86.3321 94.1596 81.153C94.7214 79.0945 96.1758 77.2843 98.0499 76.3105C99.6704 75.4687 101.449 75.3248 103.059 75.9053C105.049 76.6227 106.225 77.8809 106.37 79.4485C106.492 80.7675 105.847 82.1561 104.835 82.7507C104.253 83.0923 102.13 83.2136 102 82.1772C102.985 82.5058 104.062 82.0024 104.436 81.0236C104.819 80.0184 104.316 78.8927 103.31 78.509C101.469 77.8059 99.4725 78.5545 98.5636 80.2886C97.7249 81.8883 97.9649 84.2544 100.046 85.6809C102.244 87.1877 104.709 87.3441 106.809 86.11C109.13 84.7464 110.513 81.9247 110.249 79.0885C109.961 75.977 107.822 73.4811 104.381 72.2402C101.736 71.2867 98.8501 71.5044 96.2534 72.853C93.3894 74.3411 91.2561 76.9923 90.4005 80.127C88.4215 87.3787 92.6897 94.8825 99.9146 96.854C101.357 97.2478 102.808 97.4356 104.237 97.4356C111.496 97.4356 118.174 92.5838 120.182 85.2264C121.602 80.0215 120.919 74.5767 118.258 69.8955C115.596 65.2112 111.272 61.8518 106.085 60.4362C96.6088 57.8504 86.5019 61.1484 80.3363 68.8386C79.6635 69.6781 79.7983 70.9041 80.6379 71.5771Z" fill="#474747"/>
<path d="M182.199 153.046C187.866 148.201 190.077 140.07 187.094 132.81C186.686 131.815 185.547 131.34 184.552 131.748C183.557 132.157 183.081 133.296 183.49 134.291C186.383 141.331 183.022 149.424 175.998 152.335L175.99 152.339C172.592 153.744 168.853 153.742 165.461 152.331C162.063 150.918 159.42 148.261 158.019 144.85C155.125 137.808 158.488 129.713 165.515 126.803C169.649 125.092 174.372 125.503 178.15 127.904C179.058 128.481 180.262 128.213 180.839 127.304C181.417 126.396 181.148 125.192 180.24 124.615C176.978 122.543 173.168 121.628 169.409 121.918C171.087 118.466 172.773 113.298 170.906 108.754C170.248 107.152 169.005 105.903 167.407 105.238C165.812 104.574 164.055 104.573 162.457 105.232C160.691 104.051 158.414 103.792 156.392 104.629C154.371 105.466 152.939 107.261 152.519 109.348C149.222 110.714 147.644 114.511 149.001 117.813C150.868 122.357 155.695 124.832 159.31 126.094C153.642 130.938 151.431 139.07 154.414 146.33C156.212 150.706 159.604 154.114 163.964 155.928C166.146 156.836 168.439 157.289 170.733 157.289C171.187 157.289 171.641 157.266 172.095 157.231C170.419 160.682 168.737 165.845 170.602 170.386C171.261 171.988 172.503 173.237 174.101 173.902C175.696 174.565 177.453 174.567 179.051 173.908C180.121 174.623 181.379 175 182.653 175C183.482 175 184.319 174.841 185.116 174.511C187.137 173.674 188.569 171.879 188.989 169.792C192.286 168.427 193.864 164.63 192.507 161.327C190.64 156.783 185.814 154.308 182.199 153.046ZM152.606 116.332C152.063 115.011 152.693 113.493 154.011 112.947C154.198 112.869 154.399 112.815 154.626 112.782C155.62 112.637 156.341 111.761 156.29 110.757C156.236 109.662 156.876 108.646 157.883 108.229C158.199 108.098 158.53 108.035 158.859 108.035C159.574 108.035 160.277 108.335 160.775 108.891C161.448 109.642 162.582 109.755 163.39 109.154C163.574 109.017 163.754 108.912 163.943 108.834C164.577 108.572 165.276 108.572 165.911 108.835C166.546 109.099 167.04 109.597 167.302 110.235C169.245 114.964 165.389 121.391 164.267 123.102L163.782 123.303C161.778 122.881 154.545 121.053 152.606 116.332ZM187.497 166.193C187.31 166.27 187.109 166.324 186.883 166.357C185.889 166.502 185.168 167.379 185.218 168.382C185.272 169.478 184.632 170.494 183.625 170.911C182.623 171.326 181.46 171.06 180.733 170.248C180.35 169.821 179.818 169.6 179.281 169.6C178.875 169.6 178.467 169.727 178.118 169.986C177.935 170.122 177.754 170.227 177.566 170.305C176.93 170.568 176.231 170.567 175.597 170.304C174.963 170.04 174.468 169.543 174.206 168.904C172.263 164.175 176.119 157.748 177.241 156.037L177.726 155.836C179.73 156.258 186.963 158.086 188.903 162.807C189.446 164.129 188.815 165.647 187.497 166.193Z" fill="#474747"/>
<path d="M129.684 160.996C131.011 157.747 129.362 153.859 126.145 152.544C121.61 150.692 116.465 152.393 113.026 154.085C113.593 146.535 109.083 139.264 102.095 136.409C94.8424 133.446 86.7359 135.689 81.9178 141.382C80.6471 137.765 78.1632 132.944 73.6264 131.091C70.3229 129.741 66.5345 131.336 65.1819 134.647V134.647C63.1014 135.078 61.3148 136.518 60.4867 138.546C59.6586 140.573 59.9251 142.852 61.1093 144.616V144.617C60.4545 146.219 60.4615 147.981 61.1288 149.576C63.8271 156.028 72.9877 153.879 77.7676 151.528C77.5611 154.279 78 157.058 79.0941 159.674C80.9178 164.034 84.3286 167.418 88.6981 169.203C95.6861 172.058 104.003 169.99 108.876 164.232C110.147 167.849 112.631 172.669 117.167 174.522C120.602 175.925 124.054 174.079 125.611 170.965C127.692 170.535 129.479 169.094 130.307 167.067C131.135 165.04 130.868 162.76 129.684 160.996C129.684 160.996 129.684 160.996 129.684 160.996ZM66.1212 149.461C64.6773 148.871 64.1365 146.752 65.0334 145.533C65.6287 144.724 65.5116 143.595 64.7627 142.925C62.9873 141.338 64.2274 138.302 66.6064 138.413C67.6096 138.458 68.4839 137.735 68.6252 136.741C68.8379 135.244 70.7086 134.107 72.1526 134.697C76.8719 136.625 78.7169 143.88 79.1416 145.879C76.5504 148.928 69.9642 151.031 66.1212 149.461ZM95.3471 166.616C93.6203 166.616 91.8652 166.288 90.1713 165.596C86.7671 164.206 84.1096 161.568 82.6882 158.17C81.2661 154.77 81.2518 151.016 82.648 147.599C84.8348 142.245 90.0059 138.996 95.4458 138.996C97.1726 138.996 98.9277 139.324 100.622 140.016C104.026 141.407 106.683 144.044 108.105 147.442C109.527 150.842 109.541 154.596 108.145 158.014C105.958 163.367 100.787 166.617 95.3471 166.616ZM126.7 165.593C126.287 166.605 125.278 167.249 124.186 167.2C123.181 167.149 122.309 167.877 122.167 168.871C121.954 170.369 120.084 171.505 118.64 170.915C113.92 168.987 112.075 161.732 111.651 159.734C113.977 156.634 121.032 154.665 124.671 156.151C126.115 156.741 126.656 158.861 125.759 160.08C125.164 160.889 125.281 162.018 126.03 162.687C126.867 163.435 126.992 164.585 126.7 165.593Z" fill="#474747"/>
</g>
<defs>
<linearGradient id="paint0_linear_946_319730" x1="123.012" y1="9.8877" x2="123.012" y2="214.233" gradientUnits="userSpaceOnUse">
<stop stop-color="#53BFCD"/>
<stop offset="0.739583" stop-color="#BAD694" stop-opacity="0.15"/>
<stop offset="1" stop-color="#BAD694"/>
</linearGradient>
<clipPath id="clip0_946_319730">
<rect width="133" height="133" fill="white" transform="translate(60 42)"/>
</clipPath>
</defs>
</svg>
