<svg width="246" height="215" viewBox="0 0 246 215" fill="none" xmlns="http://www.w3.org/2000/svg">
<path fill-rule="evenodd" clip-rule="evenodd" d="M121.775 11.5264C140.386 16.1766 151.529 34.5615 164.207 48.9725C173.721 59.7878 175.937 75.3585 186.522 85.1258C203.607 100.891 237.037 100.34 243.944 122.55C250.103 142.359 228.511 160.735 214.896 176.375C202.88 190.178 188.057 201.989 170.457 206.967C154.51 211.477 138.33 201.967 121.775 202.712C104.154 203.505 85.458 220.825 70.4985 211.467C55.3596 201.996 66.1235 175.161 55.172 161.048C41.4365 143.347 6.44496 144.412 1.50265 122.55C-3.00961 102.59 24.0463 89.6613 35.1493 72.4789C45.6019 56.3031 49.313 35.2755 65.057 24.1976C81.1801 12.8529 102.655 6.74868 121.775 11.5264Z" fill="url(#paint0_linear_946_323403)" fill-opacity="0.5"/>
<path fill-rule="evenodd" clip-rule="evenodd" d="M121.759 2.63867C140.369 7.2889 151.513 25.6738 164.19 40.0848C173.704 50.9001 175.92 66.4708 186.505 76.2381C203.59 92.0033 237.021 91.452 243.927 113.662C250.087 133.471 228.495 151.847 214.879 167.488C202.864 181.291 188.04 193.101 170.441 198.079C154.494 202.589 138.313 193.079 121.759 193.824C104.137 194.618 85.4414 211.937 70.4819 202.579C55.3429 193.109 66.1069 166.274 55.1554 152.16C41.4199 134.459 6.42836 135.524 1.48604 113.662C-3.02621 93.7027 24.0297 80.7736 35.1327 63.5912C45.5853 47.4154 49.2964 26.3878 65.0404 15.3099C81.1635 3.9652 102.638 -2.13901 121.759 2.63867Z" stroke="black" stroke-opacity="0.1"/>
<g opacity="0.8" clip-path="url(#clip0_946_323403)">
<path d="M116.902 103.32C116.902 98.8492 113.264 95.2114 108.792 95.2114C104.321 95.2114 100.684 98.8492 100.684 103.32C100.684 107.792 104.321 111.429 108.792 111.429C113.264 111.429 116.902 107.792 116.902 103.32ZM104.58 103.32C104.58 100.998 106.469 99.1079 108.792 99.1079C111.115 99.1079 113.005 100.997 113.005 103.32C113.005 105.643 111.115 107.532 108.792 107.532C106.469 107.532 104.58 105.643 104.58 103.32Z" fill="#474747"/>
<path d="M138.351 129.328C142.822 129.328 146.459 125.69 146.459 121.219C146.459 116.748 142.822 113.11 138.351 113.11C133.879 113.11 130.241 116.748 130.241 121.219C130.241 125.69 133.879 129.328 138.351 129.328ZM138.351 117.007C140.672 117.007 142.563 118.897 142.563 121.219C142.563 123.541 140.673 125.431 138.351 125.431C136.027 125.431 134.138 123.542 134.138 121.219C134.138 118.897 136.027 117.007 138.351 117.007Z" fill="#474747"/>
<path d="M191.794 93.9754L158.191 80.1074C156.284 79.32 154.081 79.8263 152.71 81.3677L144.865 90.1794V87.5249C144.865 87.2966 144.821 87.0622 144.751 86.8674C138.66 69.871 128.058 61.9766 123.783 59.3719C122.326 58.484 120.529 58.3815 118.976 59.0979L110.636 62.9406C109.307 63.5535 108.542 64.9345 108.731 66.3764C108.96 68.1136 107.934 69.3048 106.897 69.8406C106.4 70.0983 104.652 70.8208 103.038 69.3261C101.773 68.1572 99.9572 67.8629 98.4087 68.5763L61.1324 85.7553C60.4536 86.0678 60 86.7608 60 87.5249V118.722C60 121.174 61.9939 123.168 64.4454 123.168H101.236C102.312 123.168 103.184 122.295 103.184 121.219C103.184 120.143 102.312 119.27 101.236 119.27H96.0779C95.6426 113.882 91.1211 109.63 85.6234 109.63C80.1247 109.63 75.6042 113.882 75.1689 119.27H64.4454C64.1431 119.27 63.8965 119.024 63.8965 118.722V89.4731H140.969V94.5568L118.97 119.27H110.328C109.252 119.27 108.38 120.143 108.38 121.219C108.38 122.295 109.252 123.168 110.328 123.168H115.501L114.227 124.599C113.258 125.687 113.207 127.306 114.105 128.447C115.059 129.661 115.269 131.239 114.665 132.668C113.6 135.192 110.665 135.921 108.573 134.622C107.354 133.865 105.775 134.093 104.821 135.165L102.257 138.046C100.371 140.165 101.141 143.52 103.764 144.602L136.444 158.089C136.854 158.26 137.334 158.29 137.796 158.138C137.798 158.137 137.799 158.137 137.801 158.137L188.873 141.186C191.342 140.366 193 138.069 193 135.468V123.429C193 122.354 192.128 121.481 191.051 121.481C189.975 121.481 189.103 122.354 189.103 123.429V135.468C189.103 136.386 188.518 137.198 187.646 137.487L179.869 140.068C178.795 136.849 175.754 134.521 172.178 134.521C167.707 134.521 164.069 138.158 164.069 142.63C164.069 143.506 164.208 144.363 164.479 145.177L143.483 152.146L189.103 100.896V114.337C189.103 115.413 189.975 116.285 191.051 116.285C192.128 116.285 193 115.413 193 114.337V95.7765C193 95.0124 192.531 94.2798 191.794 93.9754ZM85.6234 113.527C88.9709 113.527 91.7451 116.035 92.1642 119.27H79.0826C79.5017 116.034 82.2749 113.527 85.6234 113.527ZM100.039 72.1146C100.152 72.0638 100.289 72.0912 100.391 72.1866C102.667 74.2931 105.925 74.7305 108.688 73.3018C111.334 71.9329 112.851 69.2216 112.64 66.3084L120.606 62.6362C120.98 62.4647 121.41 62.488 121.756 62.6991C125.456 64.9538 134.328 71.5473 140.083 85.5757H70.831L100.039 72.1146ZM172.178 138.418C174.034 138.418 175.614 139.624 176.173 141.295L168.179 143.949C168.038 143.527 167.966 143.082 167.966 142.63C167.966 140.307 169.855 138.418 172.178 138.418ZM172.567 90.2555C171.789 92.364 169.771 93.8283 167.417 93.8283C163.423 93.8283 160.769 89.6741 162.416 86.0668L172.567 90.2555ZM105.168 140.637L107.226 138.325C111.366 140.361 116.424 138.52 118.254 134.184C119.319 131.665 119.07 128.905 117.611 126.657L155.62 83.9582C155.891 83.6538 156.328 83.5544 156.705 83.7086L158.819 84.5812C156.096 90.8186 160.707 97.7248 167.417 97.7248C171.393 97.7248 174.807 95.2803 176.17 91.743L187.771 96.5304L136.651 153.959L105.251 141C105.104 140.939 105.061 140.756 105.168 140.637Z" fill="#474747"/>
<path d="M83.3584 97.9713C83.3584 101.139 85.9358 103.718 89.1037 103.718C92.2726 103.718 94.85 101.139 94.85 97.9713C94.85 94.8034 92.2726 92.2261 89.1037 92.2261C85.9358 92.2251 83.3584 94.8034 83.3584 97.9713ZM90.9535 97.9713C90.9535 98.9911 90.1235 99.8201 89.1037 99.8201C88.0839 99.8201 87.2549 98.9911 87.2549 97.9713C87.2549 96.9516 88.0839 96.1226 89.1037 96.1226C90.1235 96.1226 90.9535 96.9516 90.9535 97.9713Z" fill="#474747"/>
<path d="M158.892 118.983C162.061 118.983 164.638 116.405 164.638 113.236C164.638 110.069 162.061 107.491 158.892 107.491C155.724 107.491 153.146 110.069 153.146 113.236C153.146 116.405 155.724 118.983 158.892 118.983ZM158.892 111.388C159.912 111.388 160.742 112.218 160.742 113.236C160.742 114.256 159.912 115.086 158.892 115.086C157.873 115.086 157.043 114.256 157.043 113.236C157.043 112.218 157.873 111.388 158.892 111.388Z" fill="#474747"/>
<path d="M139.014 140.85C139.014 137.681 136.436 135.104 133.268 135.104C130.1 135.104 127.522 137.681 127.522 140.85C127.522 144.018 130.1 146.595 133.268 146.595C136.436 146.595 139.014 144.018 139.014 140.85ZM133.268 142.699C132.248 142.699 131.419 141.869 131.419 140.85C131.419 139.83 132.248 139 133.268 139C134.288 139 135.117 139.83 135.117 140.85C135.117 141.87 134.288 142.699 133.268 142.699Z" fill="#474747"/>
<path d="M118.723 69.4897C115.555 69.4897 112.978 72.0671 112.978 75.236C112.978 78.404 115.555 80.9813 118.723 80.9813C121.892 80.9813 124.469 78.404 124.469 75.236C124.469 72.0671 121.892 69.4897 118.723 69.4897ZM118.723 77.0848C117.703 77.0848 116.874 76.2548 116.874 75.236C116.874 74.2163 117.703 73.3862 118.723 73.3862C119.743 73.3862 120.573 74.2163 120.573 75.236C120.573 76.2548 119.743 77.0848 118.723 77.0848Z" fill="#474747"/>
</g>
<defs>
<linearGradient id="paint0_linear_946_323403" x1="123.012" y1="9.8877" x2="123.012" y2="214.233" gradientUnits="userSpaceOnUse">
<stop stop-color="#53BFCD"/>
<stop offset="0.739583" stop-color="#BAD694" stop-opacity="0.15"/>
<stop offset="1" stop-color="#BAD694"/>
</linearGradient>
<clipPath id="clip0_946_323403">
<rect width="133" height="133" fill="white" transform="translate(60 42)"/>
</clipPath>
</defs>
</svg>
