<svg width="246" height="215" viewBox="0 0 246 215" fill="none" xmlns="http://www.w3.org/2000/svg">
<path fill-rule="evenodd" clip-rule="evenodd" d="M121.775 11.5264C140.386 16.1766 151.529 34.5615 164.207 48.9725C173.721 59.7878 175.937 75.3585 186.522 85.1258C203.607 100.891 237.037 100.34 243.944 122.55C250.103 142.359 228.511 160.735 214.896 176.375C202.88 190.178 188.057 201.989 170.457 206.967C154.51 211.477 138.33 201.967 121.775 202.712C104.154 203.505 85.458 220.825 70.4985 211.467C55.3596 201.996 66.1235 175.161 55.172 161.048C41.4365 143.347 6.44496 144.412 1.50265 122.55C-3.00961 102.59 24.0463 89.6613 35.1493 72.4789C45.6019 56.3031 49.313 35.2755 65.057 24.1976C81.1801 12.8529 102.655 6.74868 121.775 11.5264Z" fill="url(#paint0_linear_946_323450)" fill-opacity="0.5"/>
<path fill-rule="evenodd" clip-rule="evenodd" d="M121.759 2.63867C140.369 7.2889 151.513 25.6738 164.19 40.0848C173.704 50.9001 175.92 66.4708 186.505 76.2381C203.59 92.0033 237.021 91.452 243.927 113.662C250.087 133.471 228.495 151.847 214.879 167.488C202.864 181.291 188.04 193.101 170.441 198.079C154.494 202.589 138.313 193.079 121.759 193.824C104.137 194.618 85.4414 211.937 70.4819 202.579C55.3429 193.109 66.1069 166.274 55.1554 152.16C41.4199 134.459 6.42836 135.524 1.48604 113.662C-3.02621 93.7027 24.0297 80.7736 35.1327 63.5912C45.5853 47.4154 49.2964 26.3878 65.0404 15.3099C81.1635 3.9652 102.638 -2.13901 121.759 2.63867Z" stroke="black" stroke-opacity="0.1"/>
<g opacity="0.8" clip-path="url(#clip0_946_323450)">
<path d="M169.05 42H146.884C145.66 42 144.667 42.9925 144.667 44.2167V50.8667C144.667 51.9198 145.408 52.8279 146.44 53.039L148.561 53.4643C150.369 53.8312 152.069 54.6051 153.534 55.7254V56.1691C153.538 60.4217 151.412 64.394 147.87 66.7492L150.331 70.4378C153.801 68.1248 156.307 64.6245 157.375 60.5938C157.649 61.2021 157.872 61.8331 158.041 62.4793C158.283 63.4675 159.167 64.1623 160.184 64.1667H164.617V70.4909L158.614 90.4982L162.861 91.7733L168.483 73.0333H178.283L182.35 95.3992V146.183C182.35 149.856 179.373 152.833 175.7 152.833H169.975V157.267H175.7C181.819 157.259 186.776 152.302 186.784 146.183V95.2C186.784 95.0669 186.771 94.9337 186.746 94.8028L182.35 70.624V64.1667H186.784C188.008 64.1667 189 63.1741 189 61.95C188.988 50.937 180.063 42.0119 169.05 42ZM177.917 68.6H169.05V64.1667H177.917V68.6ZM180.134 59.7333H161.817C159.811 54.288 155.127 50.2703 149.439 49.1176L149.1 49.0494V46.4333H169.05C176.76 46.4431 183.297 52.1038 184.41 59.7333H180.134Z" fill="#434040"/>
<path d="M67.0833 157.267H82.6V152.833H67.0833C63.4109 152.833 60.4333 149.856 60.4333 146.183V114.443C60.4333 112.177 60.7494 109.922 61.3728 107.745L64.7822 95.8094C64.9056 95.3797 64.8948 94.9229 64.7519 94.4997L60.8587 82.8222C59.7774 79.5686 60.7981 75.986 63.4325 73.791L72.3187 66.3833H92.8813L99.3094 71.7432L102.148 68.3381L95.9 63.1265V57.5167C95.9 56.9289 95.6662 56.365 95.2506 55.9494L91.4667 52.1655V44.2167C91.4667 42.9925 90.4741 42 89.25 42H75.95C74.7259 42 73.7333 42.9925 73.7333 44.2167V52.1655L69.9494 55.9494C69.5338 56.365 69.3 56.9289 69.3 57.5167V63.1265L60.5924 70.3848C56.5585 73.7488 54.9999 79.2428 56.6646 84.2249L60.3381 95.2509L57.1083 106.525C56.3723 109.1 55.9989 111.764 56 114.443V146.183C56.0076 152.302 60.9648 157.259 67.0833 157.267ZM78.1667 46.4333H87.0333V50.8667H78.1667V46.4333ZM73.7333 58.4345L76.8678 55.3H88.3322L91.4667 58.4345V61.95H73.7333V58.4345Z" fill="#434040"/>
<path d="M95.8998 79.6836C95.8998 74.7112 90.0562 70.8169 82.5998 70.8169C75.1434 70.8169 69.2998 74.7112 69.2998 79.6836C69.2998 84.6559 75.1434 88.5502 82.5998 88.5502C90.0562 88.5502 95.8998 84.6559 95.8998 79.6836ZM73.7331 79.6836C73.7331 77.5914 77.5257 75.2502 82.5998 75.2502C87.6739 75.2502 91.4665 77.5914 91.4665 79.6836C91.4665 81.7758 87.6739 84.1169 82.5998 84.1169C77.5257 84.1169 73.7331 81.7758 73.7331 79.6836Z" fill="#434040"/>
<path d="M80.161 115.523L81.6503 111.349L67.8275 106.412C67.1489 106.17 66.3945 106.273 65.8057 106.688C65.2169 107.104 64.8662 107.779 64.8662 108.5V135.1C64.8738 141.219 69.831 146.176 75.9495 146.184H80.3829V141.75H75.9495C72.2771 141.75 69.2995 138.773 69.2995 135.1V111.646L80.161 115.523Z" fill="#434040"/>
<path d="M139.838 113.831C145.98 121.935 147.964 132.452 145.196 142.238C144.136 145.684 146.05 149.34 149.485 150.435C152.92 151.529 156.596 149.652 157.725 146.228C162.697 132.146 160.103 116.5 150.853 104.776L149.967 103.643C147.555 100.559 143.104 100.002 140.008 102.398C136.91 104.794 136.331 109.241 138.71 112.35L139.838 113.831ZM141.745 107.413C141.978 106.408 142.768 105.625 143.777 105.401C144.784 105.178 145.831 105.553 146.468 106.365L147.355 107.498C155.669 118.032 158.002 132.094 153.533 144.749C153.236 145.46 152.591 145.966 151.829 146.085C151.068 146.204 150.3 145.919 149.8 145.333C149.395 144.796 149.265 144.1 149.452 143.455C152.6 132.325 150.343 120.363 143.357 111.144L142.215 109.646C141.733 109.01 141.56 108.19 141.745 107.413Z" fill="#434040"/>
<path d="M96.2719 174.014C96.6832 174.63 97.3749 175 98.1163 175H151.316C151.99 175 152.627 174.695 153.047 174.169L158.589 167.239C168.225 155.189 172.65 139.791 170.878 124.465C169.107 109.137 161.287 95.1533 149.157 85.6199L140.233 78.6062V70.8165C140.233 69.5923 139.24 68.5998 138.016 68.5998H135.8V59.7331C135.8 57.2848 133.815 55.2998 131.366 55.2998H113.633C111.185 55.2998 109.2 57.2848 109.2 59.7331V68.5998H106.983C105.759 68.5998 104.766 69.5923 104.766 70.8165V78.8627L101.809 82.3143C79.7194 108.225 77.4606 145.632 96.2719 174.014ZM113.633 59.7331H131.366V68.5998H113.633V59.7331ZM105.174 85.1977L108.665 81.1259C109.01 80.7244 109.2 80.2124 109.2 79.6831V73.0331H135.8V77.4665H113.633V81.8998H137.249L146.42 89.104C157.621 97.9079 164.841 110.82 166.477 124.973C168.112 139.125 164.026 153.344 155.129 164.471L150.252 170.566H99.3134C82.2771 143.919 84.6561 109.267 105.174 85.1977Z" fill="#434040"/>
<path d="M119.175 157.267C127.728 157.272 135.712 152.98 140.424 145.844C140.736 145.375 140.857 144.805 140.763 144.25C138.076 128.291 132.043 115.761 122.824 107.011C122.461 106.665 121.993 106.452 121.494 106.408C120.727 106.33 119.96 106.283 119.175 106.283C105.097 106.283 93.6836 117.697 93.6836 131.775C93.6836 145.853 105.097 157.267 119.175 157.267ZM119.175 110.717C119.563 110.717 119.949 110.732 120.33 110.757C128.359 118.657 133.706 129.867 136.24 144.104C130.413 152.172 119.735 155.06 110.637 151.028C101.538 146.996 96.5042 137.147 98.5661 127.411C100.628 117.676 109.224 110.713 119.175 110.717Z" fill="#434040"/>
</g>
<defs>
<linearGradient id="paint0_linear_946_323450" x1="123.012" y1="9.8877" x2="123.012" y2="214.233" gradientUnits="userSpaceOnUse">
<stop stop-color="#53BFCD"/>
<stop offset="0.739583" stop-color="#BAD694" stop-opacity="0.15"/>
<stop offset="1" stop-color="#BAD694"/>
</linearGradient>
<clipPath id="clip0_946_323450">
<rect width="133" height="133" fill="white" transform="translate(56 42)"/>
</clipPath>
</defs>
</svg>
