<svg width="246" height="215" viewBox="0 0 246 215" fill="none" xmlns="http://www.w3.org/2000/svg">
<path fill-rule="evenodd" clip-rule="evenodd" d="M121.775 11.5264C140.386 16.1766 151.529 34.5615 164.207 48.9725C173.721 59.7878 175.937 75.3585 186.522 85.1258C203.607 100.891 237.037 100.34 243.944 122.55C250.103 142.359 228.511 160.735 214.896 176.375C202.88 190.178 188.057 201.989 170.457 206.967C154.51 211.477 138.33 201.967 121.775 202.712C104.154 203.505 85.458 220.825 70.4985 211.467C55.3596 201.996 66.1235 175.161 55.172 161.048C41.4365 143.347 6.44496 144.412 1.50265 122.55C-3.00961 102.59 24.0463 89.6613 35.1493 72.4789C45.6019 56.3031 49.313 35.2755 65.057 24.1976C81.1801 12.8529 102.655 6.74868 121.775 11.5264Z" fill="url(#paint0_linear_946_319734)" fill-opacity="0.5"/>
<path fill-rule="evenodd" clip-rule="evenodd" d="M121.759 2.63867C140.369 7.2889 151.513 25.6738 164.19 40.0848C173.704 50.9001 175.92 66.4708 186.505 76.2381C203.59 92.0033 237.021 91.452 243.927 113.662C250.087 133.471 228.495 151.847 214.879 167.488C202.864 181.291 188.04 193.101 170.441 198.079C154.494 202.589 138.313 193.079 121.759 193.824C104.137 194.618 85.4414 211.937 70.4819 202.579C55.3429 193.109 66.1069 166.274 55.1554 152.16C41.4199 134.459 6.42836 135.524 1.48604 113.662C-3.02621 93.7027 24.0297 80.7736 35.1327 63.5912C45.5853 47.4154 49.2964 26.3878 65.0404 15.3099C81.1635 3.9652 102.638 -2.13901 121.759 2.63867Z" stroke="black" stroke-opacity="0.1"/>
<g opacity="0.8" clip-path="url(#clip0_946_319734)">
<path d="M89.25 108.5H85.0938V112.656H89.25V108.5Z" fill="#474747"/>
<path d="M80.9375 112.656H76.7812V116.812H80.9375V112.656Z" fill="#474747"/>
<path d="M87.1719 120.969H83.0156V125.125H87.1719V120.969Z" fill="#474747"/>
<path d="M78.8594 104.344H74.7031V108.5H78.8594V104.344Z" fill="#474747"/>
<path d="M185.675 88.87L176.866 71.2538C177.717 70.3746 178.29 69.2638 178.514 68.0604C178.737 66.857 178.601 65.6144 178.121 64.4882C177.642 63.362 176.841 62.4022 175.819 61.729C174.797 61.0557 173.599 60.6989 172.375 60.7031H164.062C162.839 60.7009 161.643 61.0592 160.622 61.7333C159.601 62.4074 158.802 63.3673 158.324 64.493C157.846 65.6188 157.71 66.8605 157.934 68.0629C158.158 69.2654 158.731 70.3752 159.582 71.2538L150.773 88.87C148.589 93.2609 147.451 98.0974 147.448 103.001V146.347C147.449 148.429 148.108 150.457 149.332 152.141H143.281V125.125C143.277 124.878 143.227 124.633 143.135 124.404C143.065 124.26 142.996 124.116 142.928 123.972L134.968 112.033V106.422C134.968 105.871 134.749 105.342 134.36 104.952C133.97 104.563 133.441 104.344 132.89 104.344H112.109C111.558 104.344 111.029 104.563 110.64 104.952C110.25 105.342 110.031 105.871 110.031 106.422V112.033L102.068 123.978C102.027 124.052 101.991 124.128 101.96 124.206C101.807 124.489 101.724 124.804 101.718 125.125V152.141H92.9488L91.4026 145.954L91.7372 144.811C98.3591 122.217 101.72 98.794 101.718 75.25C101.718 74.6988 101.499 74.1703 101.11 73.7805C100.72 73.3908 100.191 73.1719 99.6403 73.1719H89.364L92.7825 53.0141L108.539 48.1367L107.309 44.1675L90.3386 49.4251C89.9716 49.5388 89.6433 49.7521 89.3901 50.0412C89.137 50.3303 88.969 50.6839 88.9047 51.0627L85.1454 73.1719H80.7502C80.3891 70.9871 79.4528 68.9378 78.0373 67.2348C76.6219 65.5318 74.7785 64.2365 72.6965 63.482C70.6146 62.7275 68.3693 62.5411 66.1914 62.9419C64.0136 63.3427 61.9818 64.3163 60.3049 65.7625C58.6279 67.2088 57.3664 69.0755 56.65 71.1709C55.9336 73.2662 55.7882 75.5145 56.2286 77.6847C56.6691 79.8549 57.6795 81.8686 59.1561 83.5189C60.6327 85.1692 62.5221 86.3964 64.6301 87.0745C65.5513 106.635 68.793 126.017 74.2872 144.813L74.6218 145.954L73.0819 152.141H58.0778C57.5267 152.141 56.9981 152.36 56.6084 152.749C56.2186 153.139 55.9997 153.668 55.9997 154.219V162.531C55.9997 163.082 56.2186 163.611 56.6084 164.001C56.9981 164.39 57.5267 164.609 58.0778 164.609H62.2341V168.766C62.2341 169.317 62.453 169.845 62.8427 170.235C63.2325 170.625 63.761 170.844 64.3122 170.844H180.687C181.238 170.844 181.767 170.625 182.157 170.235C182.546 169.845 182.765 169.317 182.765 168.766V164.609H186.922C187.473 164.609 188.001 164.39 188.391 164.001C188.781 163.611 189 163.082 189 162.531V154.219C188.997 153.698 188.797 153.198 188.441 152.819C188.085 152.439 187.599 152.208 187.079 152.172C188.321 150.485 188.994 148.447 189 146.353V102.999C188.996 98.0961 187.858 93.2602 185.675 88.87ZM151.593 112.656H184.843V129.281H151.593V112.656ZM164.062 64.8594H172.375C172.926 64.8594 173.454 65.0783 173.844 65.468C174.234 65.8578 174.453 66.3863 174.453 66.9375C174.453 67.4886 174.234 68.0172 173.844 68.407C173.454 68.7967 172.926 69.0156 172.375 69.0156H164.062C163.511 69.0156 162.982 68.7967 162.593 68.407C162.203 68.0172 161.984 67.4886 161.984 66.9375C161.984 66.3863 162.203 65.8578 162.593 65.468C162.982 65.0783 163.511 64.8594 164.062 64.8594ZM154.503 90.7279L163.268 73.1719H173.169L181.944 90.7279C183.846 94.5393 184.839 98.7397 184.843 102.999V108.5H151.593V102.999C151.601 98.7388 152.597 94.5384 154.503 90.7279ZM151.593 146.347V133.438H184.843V146.347C184.842 147.883 184.232 149.355 183.146 150.442C182.06 151.528 180.588 152.139 179.052 152.141H157.385C155.849 152.139 154.377 151.528 153.291 150.442C152.205 149.355 151.595 147.883 151.593 146.347ZM113.221 114.734H131.779L137.321 123.047H107.679L113.221 114.734ZM105.875 127.203H139.125V139.672H105.875V127.203ZM114.187 108.5H130.812V110.578H114.187V108.5ZM105.875 143.828H139.125V152.141H105.875V143.828ZM97.5622 77.3281C97.5082 83.5791 97.1902 89.8177 96.6561 96.0312H85.4779L88.6574 77.3281H97.5622ZM81.2676 96.0312H69.3828C68.8487 89.8177 68.5308 83.5791 68.4768 77.3281H84.4388L81.2676 96.0312ZM60.1559 75.25C60.1534 73.2294 60.8885 71.2773 62.2231 69.7602C63.5577 68.2431 65.4001 67.2652 67.4045 67.0102C69.409 66.7551 71.4376 67.2403 73.1096 68.3748C74.7817 69.5093 75.9822 71.215 76.4858 73.1719H66.3903C65.8392 73.1719 65.3106 73.3908 64.9209 73.7805C64.5311 74.1703 64.3122 74.6988 64.3122 75.25C64.3122 77.671 64.3704 80.0879 64.441 82.5047C63.1451 81.787 62.0646 80.736 61.3112 79.4605C60.5578 78.185 60.159 76.7314 60.1559 75.25ZM69.7777 100.187H96.253C94.7456 114.901 91.8985 129.445 87.7472 143.641L87.6932 143.828H78.3416L78.2876 143.643C74.1351 129.447 71.2866 114.901 69.7777 100.187ZM78.404 147.984H87.6267L88.6657 152.141H77.3649L78.404 147.984ZM178.609 166.688H66.3903V164.609H178.609V166.688ZM184.843 160.453H60.1559V156.297H184.843V160.453Z" fill="#474747"/>
</g>
<defs>
<linearGradient id="paint0_linear_946_319734" x1="123.012" y1="9.8877" x2="123.012" y2="214.233" gradientUnits="userSpaceOnUse">
<stop stop-color="#53BFCD"/>
<stop offset="0.739583" stop-color="#BAD694" stop-opacity="0.15"/>
<stop offset="1" stop-color="#BAD694"/>
</linearGradient>
<clipPath id="clip0_946_319734">
<rect width="133" height="133" fill="white" transform="translate(56 42)"/>
</clipPath>
</defs>
</svg>
