<svg width="246" height="215" viewBox="0 0 246 215" fill="none" xmlns="http://www.w3.org/2000/svg">
<path fill-rule="evenodd" clip-rule="evenodd" d="M121.775 11.5264C140.386 16.1766 151.529 34.5615 164.207 48.9725C173.721 59.7878 175.937 75.3585 186.522 85.1258C203.607 100.891 237.037 100.34 243.944 122.55C250.103 142.359 228.511 160.735 214.896 176.375C202.88 190.178 188.057 201.989 170.457 206.967C154.51 211.477 138.33 201.967 121.775 202.712C104.154 203.505 85.458 220.825 70.4985 211.467C55.3596 201.996 66.1235 175.161 55.172 161.048C41.4365 143.347 6.44496 144.412 1.50265 122.55C-3.00961 102.59 24.0463 89.6613 35.1493 72.4789C45.6019 56.3031 49.313 35.2755 65.057 24.1976C81.1801 12.8529 102.655 6.74868 121.775 11.5264Z" fill="url(#paint0_linear_946_323465)" fill-opacity="0.5"/>
<path fill-rule="evenodd" clip-rule="evenodd" d="M121.759 2.63867C140.369 7.2889 151.513 25.6738 164.19 40.0848C173.704 50.9001 175.92 66.4708 186.505 76.2381C203.59 92.0033 237.021 91.452 243.927 113.662C250.087 133.471 228.495 151.847 214.879 167.488C202.864 181.291 188.04 193.101 170.441 198.079C154.494 202.589 138.313 193.079 121.759 193.824C104.137 194.618 85.4414 211.937 70.4819 202.579C55.3429 193.109 66.1069 166.274 55.1554 152.16C41.4199 134.459 6.42836 135.524 1.48604 113.662C-3.02621 93.7027 24.0297 80.7736 35.1327 63.5912C45.5853 47.4154 49.2964 26.3878 65.0404 15.3099C81.1635 3.9652 102.638 -2.13901 121.759 2.63867Z" stroke="black" stroke-opacity="0.1"/>
<g opacity="0.8">
<path d="M184.728 108.501C187.564 106.553 189 104.459 189 102.266C189 99.867 187.952 97.5974 186.125 96.0388C184.3 94.4812 181.878 93.8077 179.485 94.1895C176.246 94.7064 173.646 97.1259 172.86 100.353C172.719 100.935 172.159 101.357 171.528 101.357H156.91C156.544 98.0798 153.973 95.4403 150.646 95.0673C142.735 94.1755 136.451 90.8328 128.876 85.7284C127.984 85.1276 126.773 85.3632 126.172 86.2555C125.571 87.1478 125.807 88.3586 126.699 88.9599C134.539 94.2428 141.537 97.9616 150.21 98.9393C151.834 99.1217 153.059 100.508 153.059 102.165V114.836C153.059 116.493 151.834 117.879 150.209 118.062C138.478 119.384 129.757 125.682 116.555 135.215C115.689 135.84 114.803 136.48 113.893 137.136C104.607 143.823 93.2717 146.973 85.4746 148.434C87.3576 146.211 89.0726 143.295 90.5592 139.744C94.0661 131.367 95.9972 120.271 95.9972 108.501C95.9972 96.7305 94.0658 85.6346 90.5592 77.2575C89.0726 73.7062 87.3579 70.7903 85.4748 68.5673C93.2709 70.0287 104.605 73.1784 113.893 79.866C115.918 81.3238 118.016 82.8445 119.845 84.1576C120.719 84.785 121.936 84.5855 122.564 83.7113C123.191 82.8372 122.991 81.62 122.118 80.9924C120.3 79.6873 118.241 78.195 116.17 76.7039C102.917 67.1604 83.4775 63.4307 75.9986 63.4307C75.9975 63.4307 75.9968 63.4307 75.9957 63.4307C75.9903 63.4307 75.9845 63.4307 75.9791 63.4307C70.3292 63.4421 65.1658 68.3509 61.4379 77.2564C57.9314 85.6336 56 96.7295 56 108.5C56 120.876 58.1049 132.371 61.9266 140.869C62.3679 141.851 63.521 142.288 64.5024 141.847C65.4838 141.406 65.9215 140.252 65.4801 139.271C61.9317 131.381 59.8965 120.165 59.8965 108.5C59.8965 97.2342 61.7203 86.6729 65.0323 78.7613C68.064 71.519 72.0444 67.3552 75.9596 67.3277C81.2955 67.6064 84.8997 73.8267 86.9654 78.7613C90.2771 86.6729 92.1012 97.2345 92.1012 108.5C92.1012 119.766 90.2774 130.327 86.9654 138.239C84.8997 143.174 81.2957 149.393 75.9601 149.672C73.7589 149.658 71.5763 148.386 69.4727 145.891C68.7794 145.069 67.5502 144.964 66.7275 145.658C65.9049 146.351 65.8004 147.581 66.4943 148.403C69.34 151.778 72.6214 153.564 75.9843 153.569C75.9892 153.569 75.9944 153.569 75.9994 153.569C76.0077 153.569 76.016 153.569 76.0243 153.569C83.525 153.55 102.865 149.88 116.17 140.297C117.081 139.641 117.969 139 118.836 138.374C131.991 128.875 139.931 123.141 150.645 121.933C153.973 121.56 156.544 118.92 156.911 115.644H158.835C159.911 115.644 160.783 114.771 160.783 113.695C160.783 112.619 159.911 111.747 158.835 111.747H156.956V105.253H171.528C173.972 105.253 176.077 103.617 176.647 101.275C177.053 99.6028 178.441 98.3019 180.099 98.0374C181.385 97.8322 182.626 98.1754 183.597 99.0032C184.555 99.8204 185.104 101.01 185.104 102.266C185.104 102.934 184.248 104.243 181.833 105.737C180.868 106.334 180.292 107.367 180.292 108.5C180.292 109.633 180.868 110.666 181.833 111.264C184.247 112.758 185.104 114.067 185.104 114.734C185.104 117.098 183.181 119.021 180.817 119.021C178.83 119.021 177.113 117.672 176.643 115.741C176.07 113.39 173.963 111.747 171.52 111.747H167.18C166.104 111.747 165.231 112.619 165.231 113.695C165.231 114.771 166.104 115.644 167.18 115.644H171.52C172.161 115.644 172.711 116.063 172.857 116.664C173.754 120.346 177.028 122.917 180.817 122.917C185.329 122.917 189 119.246 189 114.734C189 112.542 187.564 110.449 184.728 108.501Z" fill="#434040"/>
<path d="M75.4824 121.629C80.5775 121.629 82.3662 113.665 82.3662 108.5C82.3662 103.283 80.5564 95.3706 75.4824 95.3706C70.3874 95.3706 68.5986 103.334 68.5986 108.5C68.5986 113.717 70.4084 121.629 75.4824 121.629ZM75.4824 99.2673C76.3493 99.2673 78.4697 102.503 78.4697 108.5C78.4697 114.497 76.3493 117.733 75.4824 117.733C74.6156 117.733 72.4951 114.497 72.4951 108.5C72.4951 102.503 74.6156 99.2673 75.4824 99.2673Z" fill="#434040"/>
</g>
<defs>
<linearGradient id="paint0_linear_946_323465" x1="123.012" y1="9.8877" x2="123.012" y2="214.233" gradientUnits="userSpaceOnUse">
<stop stop-color="#53BFCD"/>
<stop offset="0.739583" stop-color="#BAD694" stop-opacity="0.15"/>
<stop offset="1" stop-color="#BAD694"/>
</linearGradient>
</defs>
</svg>
