<svg width="246" height="215" viewBox="0 0 246 215" fill="none" xmlns="http://www.w3.org/2000/svg">
<path fill-rule="evenodd" clip-rule="evenodd" d="M121.775 11.5264C140.386 16.1766 151.529 34.5615 164.207 48.9725C173.721 59.7878 175.937 75.3585 186.522 85.1258C203.607 100.891 237.037 100.34 243.944 122.55C250.103 142.359 228.511 160.735 214.896 176.375C202.88 190.178 188.057 201.989 170.457 206.967C154.51 211.477 138.33 201.967 121.775 202.712C104.154 203.505 85.458 220.825 70.4985 211.467C55.3596 201.996 66.1235 175.161 55.172 161.048C41.4365 143.347 6.44496 144.412 1.50265 122.55C-3.00961 102.59 24.0463 89.6613 35.1493 72.4789C45.6019 56.3031 49.313 35.2755 65.057 24.1976C81.1801 12.8529 102.655 6.74868 121.775 11.5264Z" fill="url(#paint0_linear_946_323394)" fill-opacity="0.5"/>
<path fill-rule="evenodd" clip-rule="evenodd" d="M121.759 2.63867C140.369 7.2889 151.513 25.6738 164.19 40.0848C173.704 50.9001 175.92 66.4708 186.505 76.2381C203.59 92.0033 237.021 91.452 243.927 113.662C250.087 133.471 228.495 151.847 214.879 167.488C202.864 181.291 188.04 193.101 170.441 198.079C154.494 202.589 138.313 193.079 121.759 193.824C104.137 194.618 85.4414 211.937 70.4819 202.579C55.3429 193.109 66.1069 166.274 55.1554 152.16C41.4199 134.459 6.42836 135.524 1.48604 113.662C-3.02621 93.7027 24.0297 80.7736 35.1327 63.5912C45.5853 47.4154 49.2964 26.3878 65.0404 15.3099C81.1635 3.9652 102.638 -2.13901 121.759 2.63867Z" stroke="black" stroke-opacity="0.1"/>
<g opacity="0.8" clip-path="url(#clip0_946_323394)">
<path d="M192.961 77.325L192.366 73.0389C192.216 71.9633 191.654 71.0125 190.783 70.3641C189.912 69.7147 188.841 69.4468 187.766 69.6122L118.038 80.2768C118.283 78.1337 118.896 76.8248 119.677 75.1657C119.809 74.8856 119.945 74.5843 120.082 74.2636L184.032 55.0552C185.072 54.7426 185.924 54.0415 186.434 53.0816C186.941 52.1217 187.041 51.0217 186.715 49.9857L185.414 45.8589C185.087 44.8228 184.375 43.9796 183.408 43.4844C182.441 42.9883 181.34 42.904 180.308 43.245L161.25 49.5392C160.23 49.8761 159.676 50.976 160.013 51.9968C160.35 53.0166 161.448 53.5707 162.47 53.2338L181.529 46.9395C181.543 46.9345 181.584 46.9213 181.634 46.9476C181.686 46.973 181.698 47.0146 181.702 47.0278L183.004 51.1556C183.008 51.1688 183.021 51.2104 182.994 51.2612C182.967 51.3119 182.926 51.3241 182.913 51.3281L121.633 69.734C121.66 69.6355 121.682 69.5351 121.707 69.4367C121.73 69.3463 121.752 69.2571 121.773 69.1667C121.812 69.0064 121.849 68.8461 121.886 68.6848C121.908 68.5833 121.931 68.4818 121.953 68.3793C121.985 68.2271 122.017 68.0749 122.046 67.9227C122.071 67.803 122.094 67.6822 122.116 67.5605C122.142 67.4225 122.167 67.2855 122.191 67.1475C122.216 67.0064 122.239 66.8634 122.261 66.7203C122.273 66.6472 122.287 66.5742 122.298 66.5021L153.805 56.0963C154.824 55.7594 155.378 54.6584 155.042 53.6386C154.705 52.6178 153.605 52.0638 152.584 52.4007L122.099 62.4697C121.887 62.1023 121.607 61.7715 121.263 61.4996C120.368 60.7944 119.188 60.5853 118.106 60.9435L114.902 62.0019C113.605 62.4291 112.698 63.5838 112.59 64.9435C112.571 65.184 112.547 65.4123 112.519 65.6335L108.234 67.049C108.063 66.7507 107.847 66.4757 107.587 66.2373C106.686 65.4123 105.405 65.1383 104.244 65.5219L100.678 66.7C99.7136 67.0176 98.9505 67.7462 98.5832 68.6949C98.3437 69.3118 98.0637 69.9136 97.7887 70.498L93.2123 72.01C93.0997 71.8141 92.9678 71.6274 92.8136 71.4539C91.9156 70.4402 90.5041 70.0597 89.2185 70.4838L85.3007 71.7776C84.3063 72.1064 83.5341 72.8562 83.182 73.8344C82.9841 74.3803 82.8136 74.9344 82.6594 75.4945L78.2829 76.9404C78.1003 76.6238 77.8629 76.3336 77.5767 76.082C76.6665 75.2844 75.4367 75.0358 74.288 75.4153L71.0775 76.4757C69.8132 76.8938 68.9081 78.0221 68.7711 79.3504C68.7457 79.598 68.7234 79.8496 68.7031 80.1043L64.4129 81.5218C62.3317 82.2088 61.175 84.4686 61.8335 86.5589L62.1369 87.5198C62.489 88.638 63.2957 89.4944 64.2901 89.9561C63.8213 90.7232 63.6032 91.6497 63.7351 92.6025L63.8741 93.6009C64.1531 95.605 65.8903 97.0743 67.867 97.0743C68.0313 97.0743 68.1967 97.0641 68.3642 97.0439L72.3256 96.5477C72.8208 97.8891 73.1313 99.3686 73.1313 101.707C73.1313 105.316 72.3956 106.88 71.3758 109.047C70.7487 110.38 70.0557 111.857 69.5189 113.761H63.0725C62.2059 113.761 61.3759 114.13 60.7944 114.771C60.214 115.413 59.9299 116.276 60.0162 117.138C61.1942 128.931 66.3469 150.695 87.5888 164.448V167.777C87.5888 171.053 90.2545 173.718 93.531 173.718H144.251C147.527 173.718 150.192 171.053 150.192 167.777V164.434C171.415 150.68 176.567 128.926 177.745 117.137C177.831 116.276 177.547 115.413 176.965 114.771C176.385 114.13 175.555 113.761 174.689 113.761H119.59C119.619 113.698 119.647 113.638 119.677 113.573C120.907 110.958 122.439 107.702 122.439 101.707C122.439 96.2595 121.174 93.0743 120.02 90.5751L189.473 81.877C190.55 81.742 191.508 81.1931 192.169 80.3306C192.83 79.4691 193.111 78.4016 192.961 77.325ZM65.8477 86.3498L65.5453 85.3889C65.523 85.3169 65.5626 85.2408 65.6326 85.2174L68.6584 84.2179C68.6635 84.3174 68.6706 84.4128 68.6767 84.5112C68.6808 84.571 68.6838 84.6309 68.6879 84.6908C68.698 84.8328 68.7082 84.9739 68.7203 85.1149C68.7203 85.123 68.7213 85.1301 68.7224 85.1383C68.7355 85.2976 68.7477 85.4579 68.764 85.6152L66.0182 86.4401C65.9461 86.4614 65.871 86.4209 65.8477 86.3498ZM67.8812 93.1829C67.8071 93.191 67.7381 93.1393 67.7279 93.0652L67.5899 92.0667C67.5788 91.9926 67.6305 91.9236 67.7046 91.9125L70.143 91.5401C70.1511 91.5624 70.1602 91.5837 70.1693 91.607C70.2393 91.7917 70.3114 91.9713 70.3834 92.1479C70.3956 92.1773 70.4068 92.2077 70.42 92.2372C70.5001 92.434 70.5823 92.6258 70.6645 92.8135C70.6665 92.8196 70.6696 92.8267 70.6726 92.8328L67.8812 93.1829ZM113.057 75.5269C113.058 75.5239 113.059 75.5209 113.06 75.5178C113.262 74.9212 113.484 74.3651 113.715 73.8334C113.715 73.8324 113.716 73.8314 113.716 73.8293C113.946 73.2986 114.184 72.7923 114.419 72.2941C114.443 72.2413 114.468 72.1875 114.493 72.1348C114.53 72.0546 114.569 71.9734 114.606 71.8923C114.635 71.8324 114.662 71.7725 114.691 71.7116C114.761 71.5594 114.832 71.4062 114.901 71.251C114.91 71.2307 114.919 71.2094 114.929 71.188C114.991 71.048 115.053 70.9049 115.115 70.7609C115.133 70.7192 115.15 70.6766 115.169 70.634C115.236 70.4737 115.302 70.3113 115.366 70.1449C115.382 70.1074 115.395 70.0688 115.41 70.0313C115.462 69.8953 115.513 69.7573 115.562 69.6173C115.581 69.5635 115.6 69.5097 115.619 69.4549C115.676 69.2895 115.731 69.1211 115.784 68.9476C115.803 68.8857 115.821 68.8217 115.839 68.7578C115.878 68.6259 115.915 68.4909 115.952 68.355C115.969 68.288 115.987 68.221 116.005 68.153C116.05 67.9694 116.094 67.7807 116.135 67.5868C116.141 67.5584 116.148 67.5331 116.154 67.5036C116.157 67.4915 116.157 67.4793 116.16 67.4661C116.278 66.8908 116.373 66.2718 116.439 65.5919L118.586 64.8826C118.555 65.1546 118.521 65.4265 118.482 65.6975C118.476 65.7421 118.468 65.7847 118.462 65.8284C118.427 66.0648 118.389 66.2992 118.348 66.5346C118.337 66.6005 118.325 66.6665 118.313 66.7314C118.263 67.0024 118.212 67.2733 118.155 67.5422C118.152 67.5564 118.148 67.5706 118.145 67.5848C118.091 67.8354 118.033 68.084 117.972 68.3327C117.953 68.4108 117.934 68.4879 117.914 68.566C117.853 68.8106 117.789 69.0541 117.721 69.2966C117.712 69.325 117.704 69.3545 117.696 69.3829C117.624 69.6325 117.549 69.8811 117.471 70.1297C117.456 70.1784 117.44 70.2291 117.424 70.2779C117.339 70.5427 117.25 70.8055 117.157 71.0673C117.151 71.0856 117.145 71.1028 117.138 71.1201C117.039 71.3991 116.935 71.6771 116.826 71.9521C116.825 71.9552 116.825 71.9572 116.824 71.9602C116.596 72.5356 116.37 73.0541 116.156 73.5087C115.063 75.8314 114.031 78.0252 114.031 82.5021C114.031 82.5234 114.032 82.5416 114.032 82.5619V82.565C114.032 82.7902 114.036 83.0094 114.042 83.2245C114.045 83.3656 114.052 83.5005 114.058 83.6375C114.062 83.7177 114.065 83.7989 114.069 83.878C114.077 84.0353 114.087 84.1895 114.098 84.3417C114.101 84.3772 114.104 84.4128 114.106 84.4483C114.218 85.8699 114.451 87.0307 114.757 88.0495C114.76 88.0616 114.764 88.0738 114.768 88.086C114.873 88.4361 114.987 88.7709 115.108 89.0926C115.11 89.0966 115.112 89.1017 115.113 89.1058C115.429 89.949 115.789 90.7171 116.156 91.4985C117.332 93.9977 118.548 96.5832 118.548 101.707C118.548 106.833 117.332 109.417 116.156 111.917C115.878 112.51 115.593 113.114 115.329 113.761H113.119C113.512 112.632 113.97 111.658 114.419 110.703C115.512 108.38 116.544 106.185 116.544 101.707C116.544 97.2306 115.512 95.0357 114.419 92.7121C113.901 91.6131 113.377 90.4959 112.951 89.1555C112.95 89.1514 112.949 89.1484 112.948 89.1454C112.402 87.4153 112.104 85.537 112.041 83.4021C112.041 83.4001 112.04 83.397 112.04 83.394C112.032 83.1058 112.028 82.8095 112.028 82.5031C112.027 79.4488 112.459 77.2966 113.057 75.5269ZM106.504 113.573C107.734 110.958 109.265 107.702 109.265 101.707C109.265 97.329 108.448 94.4127 107.529 92.1387L109.787 91.8567C110.152 92.7831 110.537 93.604 110.897 94.3691C111.916 96.5345 112.652 98.0992 112.652 101.707C112.652 105.316 111.916 106.88 110.897 109.047C110.27 110.38 109.577 111.857 109.041 113.761H106.417C106.446 113.697 106.474 113.637 106.504 113.573ZM105.859 88.4259C105.845 88.3945 105.831 88.363 105.818 88.3305C105.782 88.2433 105.745 88.155 105.71 88.0657C105.677 87.9855 105.646 87.9054 105.615 87.8252C105.563 87.6903 105.513 87.5533 105.465 87.4143C105.453 87.3808 105.442 87.3463 105.43 87.3128C105.313 86.9597 105.205 86.5903 105.114 86.1905L108.295 85.7045C108.298 85.7278 108.302 85.7501 108.304 85.7735C108.344 86.1408 108.389 86.4959 108.441 86.8389C108.446 86.8755 108.451 86.912 108.457 86.9485C108.513 87.3087 108.575 87.6558 108.643 87.9906C108.648 88.019 108.652 88.0485 108.657 88.0759L105.859 88.4259ZM108.141 71.1779L111.103 70.1997C111.092 70.222 111.081 70.2433 111.071 70.2657C111.028 70.3611 110.983 70.4564 110.937 70.5518C110.924 70.5802 110.911 70.6086 110.897 70.6381C110.615 71.2367 110.317 71.8709 110.026 72.563C110.019 72.5782 110.013 72.5934 110.006 72.6097C109.917 72.8227 109.828 73.0409 109.741 73.2652C109.735 73.2814 109.729 73.2966 109.723 73.3128L106.982 74.1358C107.381 73.2581 107.785 72.2951 108.141 71.1779ZM105.125 78.7568L108.509 77.74C108.308 78.9313 108.176 80.2697 108.144 81.7907L104.751 82.3093C104.763 80.8471 104.897 79.7228 105.125 78.7568ZM99.0266 79.3808C99.0276 79.3757 99.0287 79.3717 99.0297 79.3676C99.2641 77.4082 99.7116 75.9014 100.223 74.6015C100.229 74.5863 100.234 74.5721 100.24 74.5569C100.326 74.3397 100.415 74.1277 100.503 73.9207C100.518 73.8862 100.532 73.8527 100.548 73.8182C100.577 73.7492 100.608 73.6812 100.637 73.6132C100.652 73.5807 100.666 73.5462 100.682 73.5138C100.723 73.4194 100.766 73.326 100.807 73.2337C100.818 73.2124 100.828 73.1911 100.838 73.1698C100.873 73.0916 100.909 73.0135 100.944 72.9364C101.045 72.7213 101.144 72.5072 101.245 72.2941C101.525 71.6995 101.839 71.0318 102.126 70.3195L104.573 69.5107C104.129 71.048 103.548 72.3052 103.023 73.4224C103.009 73.4519 102.995 73.4803 102.982 73.5097C102.964 73.5462 102.947 73.5828 102.93 73.6203C102.889 73.7066 102.848 73.7938 102.807 73.8821C102.773 73.9552 102.738 74.0292 102.704 74.1033C102.68 74.1561 102.655 74.2088 102.631 74.2626C102.585 74.361 102.541 74.4605 102.496 74.5599C102.486 74.5812 102.476 74.6036 102.466 74.6259C101.586 76.5934 100.857 78.7426 100.857 82.5021C100.857 83.3158 100.892 84.0515 100.955 84.7293V84.7415C100.956 84.7466 100.956 84.7517 100.957 84.7557C100.966 84.8521 100.977 84.9424 100.987 85.0358C100.998 85.1413 101.009 85.2479 101.022 85.3503C101.039 85.4843 101.057 85.6142 101.076 85.743C101.082 85.7887 101.09 85.8354 101.097 85.881C101.324 87.3564 101.695 88.5294 102.131 89.5979C102.146 89.6344 102.16 89.672 102.175 89.7075C102.194 89.7532 102.213 89.7968 102.232 89.8414C102.277 89.95 102.322 90.0566 102.369 90.1621C102.378 90.1824 102.386 90.2027 102.395 90.223C102.57 90.6197 102.747 90.9962 102.918 91.3615C102.918 91.3625 102.919 91.3635 102.919 91.3635C102.94 91.4082 102.961 91.4528 102.982 91.4964C104.158 93.9967 105.374 96.5811 105.374 101.706C105.374 106.833 104.158 109.417 102.982 111.916C102.703 112.509 102.419 113.113 102.154 113.76H99.9439C100.338 112.631 100.795 111.657 101.244 110.702C102.337 108.379 103.37 106.185 103.37 101.706C103.37 97.2285 102.338 95.0347 101.245 92.711C100.922 92.0261 100.596 91.3331 100.294 90.5842C100.294 90.5832 100.294 90.5822 100.293 90.5812C99.5878 88.8349 99.1849 87.192 98.9871 85.256C98.986 85.2499 98.985 85.2438 98.984 85.2377C98.8998 84.4107 98.8531 83.5056 98.8531 82.5021C98.8531 81.3412 98.916 80.3103 99.0266 79.3808ZM97.7237 94.3691C98.7425 96.5345 99.4782 98.0992 99.4782 101.707C99.4782 105.316 98.7425 106.88 97.7237 109.047C97.0967 110.38 96.4026 111.858 95.8668 113.761H93.2428C93.2722 113.697 93.3006 113.637 93.3301 113.573C94.5609 110.958 96.0921 107.701 96.0921 101.707C96.0921 98.2777 95.5908 95.746 94.9313 93.7166L97.2834 93.4224C97.4315 93.7481 97.5797 94.0637 97.7237 94.3691ZM92.9272 88.9739C92.9252 88.9708 92.9242 88.9678 92.9221 88.9647C92.7933 88.6796 92.6705 88.3975 92.5548 88.1114L95.4051 87.6761C95.4112 87.7085 95.4193 87.74 95.4254 87.7735C95.4802 88.0596 95.5391 88.3387 95.601 88.6086C95.6152 88.6695 95.6304 88.7303 95.6446 88.7922C95.7116 89.0733 95.7816 89.3453 95.8557 89.6091C95.8618 89.6314 95.8668 89.6547 95.8729 89.6771L93.398 89.9865C93.3757 89.9378 93.3524 89.8891 93.3301 89.8414C93.326 89.8333 93.323 89.8252 93.3189 89.8171C93.1839 89.5299 93.052 89.2499 92.9272 88.9739ZM92.8379 76.2322L95.9044 75.2195C95.8303 75.4732 95.7613 75.739 95.6943 76.0089C95.6893 76.0282 95.6842 76.0475 95.6791 76.0668C95.5908 76.426 95.5086 76.7994 95.4335 77.19C95.4295 77.2124 95.4254 77.2357 95.4204 77.258C95.397 77.3818 95.3737 77.5026 95.3514 77.6294L91.9815 78.6411C92.1946 77.7776 92.4848 77.0247 92.8379 76.2322ZM94.9698 81.807C94.9658 82.0353 94.9627 82.2656 94.9627 82.5031C94.9627 82.9516 94.9719 83.3838 94.9881 83.8029L91.6487 84.3133C91.6091 83.8587 91.5868 83.3625 91.5797 82.8247L94.9698 81.807ZM89.8222 73.4813L89.8557 73.4975C89.8506 73.5056 89.8445 73.5148 89.8395 73.5229L89.81 73.5097C89.8131 73.4996 89.8171 73.4904 89.8222 73.4813ZM85.6873 81.8455C85.6903 81.7146 85.6954 81.5888 85.6994 81.462C85.7025 81.3838 85.7045 81.3037 85.7076 81.2266C85.7147 81.0733 85.7228 80.9252 85.7319 80.7781C85.735 80.7304 85.737 80.6827 85.74 80.636C85.7502 80.4797 85.7624 80.3275 85.7745 80.1784C85.7776 80.1418 85.7806 80.1063 85.7837 80.0708C85.7979 79.9166 85.8121 79.7664 85.8283 79.6193C85.8314 79.5909 85.8344 79.5614 85.8385 79.533C85.8851 79.117 85.9409 78.7294 86.0018 78.3651C86.0171 78.2768 86.0313 78.1885 86.0475 78.1013C86.0607 78.0302 86.0739 77.9612 86.0871 77.8922C86.1134 77.7583 86.1398 77.6254 86.1693 77.4924C86.3519 76.6451 86.5619 75.9541 86.7558 75.395L89.327 74.5457C88.431 76.5356 87.6832 78.6918 87.6832 82.5031C87.6832 86.3265 88.4361 88.4848 89.3362 90.4807C89.3372 90.4827 89.3382 90.4848 89.3392 90.4868C89.4153 90.6532 89.4904 90.8196 89.5675 90.985C89.5706 90.9901 89.5726 90.9962 89.5756 91.0013C89.6517 91.1667 89.7299 91.3321 89.808 91.4975C89.8161 91.5147 89.8232 91.5309 89.8313 91.5472C89.9247 91.7461 90.0191 91.948 90.1144 92.153C90.1185 92.1621 90.1226 92.1712 90.1266 92.1804C90.2322 92.4087 90.3377 92.641 90.4422 92.8785H90.4432C91.3838 95.0175 92.1997 97.5106 92.1997 101.707C92.1997 106.832 90.983 109.417 89.808 111.917C89.529 112.509 89.2448 113.114 88.98 113.76H86.77C87.1637 112.631 87.6213 111.657 88.0708 110.702C89.1637 108.379 90.1956 106.184 90.1956 101.707C90.1956 97.2306 89.1637 95.0357 88.0698 92.7121C87.9683 92.4949 87.8659 92.2767 87.7644 92.0576C87.7644 92.0576 87.7644 92.0566 87.7634 92.0566C87.6893 91.8962 87.6142 91.7329 87.5391 91.5644C87.5371 91.5593 87.5351 91.5543 87.533 91.5502C86.9922 90.3468 86.429 88.914 86.0749 87.0601C86.0729 87.053 86.0708 87.0459 86.0688 87.0388C85.8557 85.9135 85.7157 84.6289 85.6863 83.1129C85.6863 83.1119 85.6863 83.1109 85.6863 83.1099C85.6822 82.911 85.6792 82.7091 85.6792 82.5021C85.6802 82.2808 85.6822 82.0617 85.6873 81.8455ZM84.8359 94.9809C85.7035 96.8551 86.3052 98.4482 86.3052 101.707C86.3052 105.316 85.5686 106.88 84.5498 109.047C83.9227 110.38 83.2296 111.857 82.6929 113.761H80.0688C80.0993 113.698 80.1267 113.638 80.1571 113.573C81.3869 110.958 82.9181 107.702 82.9181 101.707C82.9181 99.121 82.633 97.0449 82.2099 95.3097L84.8359 94.9809ZM82.6837 89.6213C82.6898 89.6436 82.6969 89.6639 82.703 89.6852C82.7761 89.9429 82.8512 90.1925 82.9293 90.4351C82.9384 90.4614 82.9476 90.4878 82.9557 90.5142C83.0379 90.7658 83.1221 91.0104 83.2083 91.2478C83.2104 91.2519 83.2124 91.258 83.2134 91.262L80.9344 91.5482C80.9334 91.5462 80.9323 91.5441 80.9323 91.5431C80.6969 90.9952 80.4585 90.4838 80.2292 89.9967L82.6837 89.6213ZM81.9592 85.7958L81.4103 85.879L81.9511 85.7167C81.9531 85.743 81.9562 85.7694 81.9592 85.7958ZM78.4138 81.7826C78.4149 81.7512 78.4149 81.7197 78.4159 81.6893C78.424 81.462 78.4362 81.2408 78.4514 81.0246C78.4524 81.0104 78.4534 80.9962 78.4544 80.982L81.8963 79.8455C81.8912 79.8973 81.8892 79.9511 81.8852 80.0028C81.876 80.1266 81.8679 80.2514 81.8598 80.3762C81.8446 80.6096 81.8314 80.846 81.8212 81.0845C81.8151 81.2113 81.8101 81.3392 81.807 81.467C81.804 81.5452 81.7999 81.6213 81.7979 81.7004L78.4047 82.7192C78.4037 82.6461 78.4017 82.5771 78.4017 82.5031C78.4017 82.2555 78.4067 82.017 78.4138 81.7826ZM72.834 86.6938C72.8329 86.6867 72.8329 86.6806 72.8319 86.6735C72.7223 86.0343 72.6422 85.3737 72.5874 84.6837C72.5874 84.6725 72.5864 84.6603 72.5854 84.6492C72.5742 84.5051 72.564 84.359 72.5559 84.2129C72.5529 84.1601 72.5498 84.1073 72.5468 84.0535C72.5417 83.944 72.5356 83.8323 72.5316 83.7207C72.5285 83.6598 72.5265 83.599 72.5245 83.5371C72.5204 83.4234 72.5174 83.3077 72.5153 83.1921C72.5143 83.1362 72.5123 83.0804 72.5113 83.0246C72.5082 82.8521 72.5062 82.6786 72.5062 82.5031C72.5062 82.3346 72.5093 82.1682 72.5123 82.0018C72.5143 81.88 72.5174 81.7593 72.5204 81.6395C72.5366 81.1007 72.5661 80.5741 72.6117 80.0667L74.7122 79.3737C74.6888 79.5361 74.6706 79.7035 74.6523 79.8709C74.6462 79.9257 74.6381 79.9795 74.632 80.0353C74.6117 80.2291 74.5955 80.429 74.5813 80.6289C74.5762 80.6959 74.5691 80.7608 74.5651 80.8278C74.5519 81.0246 74.5427 81.2266 74.5346 81.4305C74.5316 81.5036 74.5265 81.5746 74.5245 81.6497C74.5153 81.9277 74.5113 82.2118 74.5113 82.5031C74.5113 82.7781 74.5153 83.047 74.5224 83.3108C74.629 86.9079 75.4478 88.9424 76.3682 90.9262C76.3773 90.9454 76.3865 90.9657 76.3956 90.986C76.4757 91.1565 76.5549 91.327 76.6361 91.4985C76.6401 91.5066 76.6442 91.5147 76.6482 91.5238C76.7467 91.7329 76.8461 91.9439 76.9445 92.159C76.9466 92.1621 76.9486 92.1661 76.9496 92.1702C77.2632 92.848 77.5747 93.5543 77.8558 94.3285C77.8558 94.3295 77.8568 94.3295 77.8568 94.3305C78.5265 96.1763 79.0277 98.4178 79.0277 101.707C79.0277 106.833 77.8121 109.417 76.6361 111.917C76.357 112.51 76.0729 113.114 75.8081 113.761H73.598C73.9917 112.632 74.4494 111.658 74.8989 110.703C75.9907 108.38 77.0237 106.185 77.0237 101.707C77.0237 97.2377 75.9948 95.0428 74.904 92.7242C74.9019 92.7202 74.9009 92.7161 74.8989 92.7121C74.8441 92.5974 74.7903 92.4817 74.7365 92.366C74.7173 92.3265 74.699 92.2859 74.6797 92.2453C74.6229 92.1235 74.5661 91.9997 74.5082 91.8749C74.4961 91.8485 74.4839 91.8222 74.4717 91.7958C74.4108 91.6628 74.3509 91.5279 74.2901 91.3909C74.283 91.3747 74.2748 91.3574 74.2677 91.3402C74.2038 91.1951 74.1399 91.0479 74.077 90.8978C74.0739 90.8907 74.0719 90.8846 74.0689 90.8775C73.802 90.2412 73.5493 89.5644 73.3281 88.8176C73.3271 88.8125 73.3251 88.8085 73.3241 88.8034C73.1333 88.1601 72.9669 87.464 72.834 86.6938ZM173.777 117.653C172.493 128.972 167.361 148.815 147.817 161.334H107.998C106.923 161.334 106.052 162.205 106.052 163.28C106.052 164.355 106.923 165.225 107.998 165.225H146.301V167.776C146.301 168.908 145.382 169.827 144.251 169.827H93.531C92.4006 169.827 91.4802 168.908 91.4802 167.776V165.225H98.9444C100.019 165.225 100.891 164.355 100.891 163.28C100.891 162.205 100.019 161.334 98.9444 161.334H89.944C70.3997 148.813 65.2693 128.972 63.9847 117.653H173.777ZM189.081 77.9633C189.045 78.0089 189.003 78.014 188.989 78.016L118.459 86.8481C118.25 86.1286 118.08 85.2834 117.991 84.221L188.355 73.458C188.37 73.4559 188.412 73.4498 188.458 73.4843C188.504 73.5178 188.51 73.5604 188.512 73.5746L189.107 77.8618C189.109 77.875 189.115 77.9186 189.081 77.9633Z" fill="#474747"/>
</g>
<defs>
<linearGradient id="paint0_linear_946_323394" x1="123.012" y1="9.8877" x2="123.012" y2="214.233" gradientUnits="userSpaceOnUse">
<stop stop-color="#53BFCD"/>
<stop offset="0.739583" stop-color="#BAD694" stop-opacity="0.15"/>
<stop offset="1" stop-color="#BAD694"/>
</linearGradient>
<clipPath id="clip0_946_323394">
<rect width="133" height="133" fill="white" transform="translate(60 42)"/>
</clipPath>
</defs>
</svg>
