<svg width="246" height="215" viewBox="0 0 246 215" fill="none" xmlns="http://www.w3.org/2000/svg">
<path fill-rule="evenodd" clip-rule="evenodd" d="M121.775 11.5264C140.386 16.1766 151.529 34.5615 164.207 48.9725C173.721 59.7878 175.937 75.3585 186.522 85.1258C203.607 100.891 237.037 100.34 243.944 122.55C250.103 142.359 228.511 160.735 214.896 176.375C202.88 190.178 188.057 201.989 170.457 206.967C154.51 211.477 138.33 201.967 121.775 202.712C104.154 203.505 85.458 220.825 70.4985 211.467C55.3596 201.996 66.1235 175.161 55.172 161.048C41.4365 143.347 6.44496 144.412 1.50265 122.55C-3.00961 102.59 24.0463 89.6613 35.1493 72.4789C45.6019 56.3031 49.313 35.2755 65.057 24.1976C81.1801 12.8529 102.655 6.74868 121.775 11.5264Z" fill="url(#paint0_linear_946_319732)" fill-opacity="0.5"/>
<path fill-rule="evenodd" clip-rule="evenodd" d="M121.759 2.63867C140.369 7.2889 151.513 25.6738 164.19 40.0848C173.704 50.9001 175.92 66.4708 186.505 76.2381C203.59 92.0033 237.021 91.452 243.927 113.662C250.087 133.471 228.495 151.847 214.879 167.488C202.864 181.291 188.04 193.101 170.441 198.079C154.494 202.589 138.313 193.079 121.759 193.824C104.137 194.618 85.4414 211.937 70.4819 202.579C55.3429 193.109 66.1069 166.274 55.1554 152.16C41.4199 134.459 6.42836 135.524 1.48604 113.662C-3.02621 93.7027 24.0297 80.7736 35.1327 63.5912C45.5853 47.4154 49.2964 26.3878 65.0404 15.3099C81.1635 3.9652 102.638 -2.13901 121.759 2.63867Z" stroke="black" stroke-opacity="0.1"/>
<g opacity="0.8" clip-path="url(#clip0_946_319732)">
<path d="M144.812 91.1379C141.291 85.0355 140.836 80.8754 140.956 78.6987C143.832 77.3099 145.762 74.3607 145.762 71.0494C145.762 67.0848 143.031 63.7467 139.351 62.8167V48.3324C139.351 44.8407 136.51 42 133.018 42H119.982C116.49 42 113.65 44.8407 113.65 48.3324V62.8167C109.97 63.7464 107.238 67.0845 107.238 71.0494C107.238 74.3607 109.168 77.3099 112.044 78.6987C112.163 80.8756 111.709 85.036 108.188 91.1379C100.111 105.135 93.1348 117.223 93.1348 134.271C93.1348 153.237 102.31 165.178 107.779 170.607C110.716 173.522 117.014 175 126.5 175C135.986 175 142.285 173.522 145.222 170.607C150.691 165.178 159.866 153.237 159.866 134.271C159.866 117.223 152.89 105.135 144.812 91.1379ZM119.982 47.7568H133.018C133.336 47.7568 133.594 48.0149 133.594 48.3324V62.5582H119.406V48.3324C119.406 48.0149 119.664 47.7568 119.982 47.7568ZM141.166 166.521C139.84 167.837 135.291 169.244 126.5 169.244C117.709 169.244 113.16 167.837 111.834 166.522C107 161.723 98.8912 151.152 98.8912 134.271C98.8912 118.765 105.194 107.843 113.174 94.0154C116.849 87.6464 117.812 82.7702 117.826 79.4327H124.214C125.803 79.4327 127.092 78.1441 127.092 76.5543C127.092 74.9646 125.803 73.676 124.214 73.676H114.97C113.812 73.3435 112.994 72.2739 112.994 71.0497C112.994 69.542 114.221 68.3153 115.729 68.3153H137.271C138.779 68.3153 140.006 69.542 140.006 71.0497C140.006 72.3513 139.081 73.4788 137.806 73.7304C136.712 73.9468 135.841 74.7758 135.571 75.8586C134.87 78.6717 134.491 84.7712 139.826 94.0154C147.806 107.843 154.109 118.765 154.109 134.271C154.109 151.152 146 161.723 141.166 166.521Z" fill="#474747"/>
<path d="M140.749 113.923C138.214 109.511 132.992 102.108 126.5 102.108C120.008 102.108 114.786 109.511 112.25 113.923C108.449 120.54 106.087 128.337 106.087 134.271C106.087 147.738 112.236 156.407 115.902 160.375C116.278 160.783 116.765 161.073 117.302 161.211C118.792 161.592 121.597 162.047 126.5 162.047C131.404 162.047 134.208 161.592 135.698 161.211C136.235 161.073 136.721 160.783 137.098 160.375C140.763 156.407 146.913 147.738 146.913 134.271C146.913 128.337 144.551 120.541 140.749 113.923ZM126.5 107.865C128.982 107.865 132.349 111.205 135.229 115.901H117.771C120.651 111.206 124.018 107.865 126.5 107.865ZM133.463 155.807C132.288 156.022 130.097 156.291 126.5 156.291C122.903 156.291 120.713 156.022 119.537 155.807C115.895 151.621 111.844 144.635 111.844 134.271C111.844 130.298 113.034 125.8 114.804 121.657H138.195C139.966 125.8 141.156 130.298 141.156 134.271C141.156 144.635 137.105 151.621 133.463 155.807Z" fill="#474747"/>
</g>
<defs>
<linearGradient id="paint0_linear_946_319732" x1="123.012" y1="9.8877" x2="123.012" y2="214.233" gradientUnits="userSpaceOnUse">
<stop stop-color="#53BFCD"/>
<stop offset="0.739583" stop-color="#BAD694" stop-opacity="0.15"/>
<stop offset="1" stop-color="#BAD694"/>
</linearGradient>
<clipPath id="clip0_946_319732">
<rect width="133" height="133" fill="white" transform="translate(60 42)"/>
</clipPath>
</defs>
</svg>
