<svg width="246" height="215" viewBox="0 0 246 215" fill="none" xmlns="http://www.w3.org/2000/svg">
<path fill-rule="evenodd" clip-rule="evenodd" d="M121.775 11.5264C140.386 16.1766 151.529 34.5615 164.207 48.9725C173.721 59.7878 175.937 75.3585 186.522 85.1258C203.607 100.891 237.037 100.34 243.944 122.55C250.103 142.359 228.511 160.735 214.896 176.375C202.88 190.178 188.057 201.989 170.457 206.967C154.51 211.477 138.33 201.967 121.775 202.712C104.154 203.505 85.458 220.825 70.4985 211.467C55.3596 201.996 66.1235 175.161 55.172 161.048C41.4365 143.347 6.44496 144.412 1.50265 122.55C-3.00961 102.59 24.0463 89.6613 35.1493 72.4789C45.6019 56.3031 49.313 35.2755 65.057 24.1976C81.1801 12.8529 102.655 6.74868 121.775 11.5264Z" fill="url(#paint0_linear_946_319733)" fill-opacity="0.5"/>
<path fill-rule="evenodd" clip-rule="evenodd" d="M121.759 2.63867C140.369 7.2889 151.513 25.6738 164.19 40.0848C173.704 50.9001 175.92 66.4708 186.505 76.2381C203.59 92.0033 237.021 91.452 243.927 113.662C250.087 133.471 228.495 151.847 214.879 167.488C202.864 181.291 188.04 193.101 170.441 198.079C154.494 202.589 138.313 193.079 121.759 193.824C104.137 194.618 85.4414 211.937 70.4819 202.579C55.3429 193.109 66.1069 166.274 55.1554 152.16C41.4199 134.459 6.42836 135.524 1.48604 113.662C-3.02621 93.7027 24.0297 80.7736 35.1327 63.5912C45.5853 47.4154 49.2964 26.3878 65.0404 15.3099C81.1635 3.9652 102.638 -2.13901 121.759 2.63867Z" stroke="black" stroke-opacity="0.1"/>
<g opacity="0.8">
<path d="M124.549 125.089C124.419 125.089 124.289 125.101 124.168 125.117C118.347 125.621 113.729 132.861 113.729 141.714C113.729 143.244 114.97 144.486 116.501 144.486C118.031 144.486 119.273 143.244 119.273 141.714C119.273 138.406 120.117 135.24 121.586 133.032C122.503 131.656 123.591 130.791 124.549 130.653V130.629C126.079 130.629 127.321 129.387 127.321 127.861C127.321 126.331 126.079 125.089 124.549 125.089Z" fill="#474747"/>
<path d="M166.529 111.518C166.558 109.639 166.404 106.962 165.616 104.125C164.8 101.19 163.209 97.7608 160.137 94.9682C166.464 94.4832 173.255 94.2803 180.098 94.6069V94.6027C180.143 94.6048 180.183 94.6108 180.228 94.6108C181.758 94.6108 183 93.3688 183 91.8385C183 90.3528 181.827 89.1436 180.362 89.0745V89.0724C166.996 88.4351 153.959 89.7158 143.922 91.2477C123.863 52.2894 72.3115 50.3491 72.3115 50.3491C86.5619 76.685 115.055 88.4598 132.236 93.3547C128.486 94.14 126.05 94.7632 125.397 94.9337C121.809 94.3757 118.33 94.1177 114.97 94.1177C73.8621 94.1177 50 132.707 50 132.707C53.4662 133.178 56.8593 133.401 60.1631 133.401C92.0291 133.401 116.127 112.876 126.4 102.335C127.256 107.067 124.671 113.452 122.852 116.902C113.062 118.168 105.416 128.795 105.416 141.714C105.416 155.486 114.101 166.651 124.813 166.651C135.524 166.651 144.21 155.486 144.21 141.714C144.21 129.704 137.602 119.674 128.807 117.308C129.452 115.895 130.162 114.158 130.755 112.259C132.342 107.185 132.512 102.759 131.29 99.2277C135.418 98.3206 142.221 96.9794 150.456 95.9483C155.522 97.3303 158.809 100.525 160.23 105.448C160.896 107.753 161.013 109.968 160.989 111.461C151.511 113.103 144.21 123.542 144.21 136.173C144.21 149.945 152.891 161.111 163.603 161.111C174.314 161.111 183 149.945 183 136.173C183 123.681 175.853 113.331 166.529 111.518ZM108.533 110.556C101.645 115.619 94.4728 119.646 87.2238 122.52C78.4201 126.011 69.4581 127.805 60.5775 127.861C63.2119 124.756 66.6941 121.05 70.956 117.377C76.9752 112.184 83.3597 108.06 89.9351 105.118C98.0245 101.495 106.447 99.6582 114.97 99.6582C116.947 99.6582 118.939 99.7577 120.945 99.9546C117.811 103.05 113.618 106.818 108.533 110.556ZM134.152 127.484C137.062 131.226 138.665 136.279 138.665 141.714C138.665 147.149 137.062 152.206 134.152 155.948C131.562 159.277 128.247 161.111 124.813 161.111C121.379 161.111 118.063 159.277 115.473 155.948C112.559 152.206 110.96 147.149 110.96 141.714C110.96 136.279 112.559 131.226 115.473 127.484C118.063 124.152 121.379 122.317 124.813 122.317C128.247 122.317 131.562 124.152 134.152 127.484ZM119.15 82.9035C110.448 79.2363 102.692 74.7692 96.0964 69.6249C91.3231 65.901 87.1547 61.8096 83.6234 57.3958C88.5308 58.3291 94.5905 59.8249 100.971 62.2156C109.775 65.5134 117.466 69.8504 123.826 75.1043C128.644 79.082 132.711 83.6096 135.994 88.6367C131.27 87.3825 125.409 85.5397 119.15 82.9035ZM172.946 150.404C170.353 153.732 167.037 155.567 163.603 155.567C160.169 155.567 156.853 153.733 154.264 150.404C151.353 146.662 149.75 141.609 149.75 136.174C149.75 130.735 151.353 125.686 154.264 121.944C156.853 118.611 160.169 116.777 163.603 116.777C167.037 116.777 170.353 118.611 172.946 121.944C175.857 125.686 177.46 130.735 177.46 136.174C177.46 141.609 175.857 146.661 172.946 150.404Z" fill="#474747"/>
<path d="M163.339 119.548C163.21 119.548 163.084 119.561 162.958 119.577C157.138 120.08 152.522 127.317 152.522 136.173C152.522 137.7 153.761 138.942 155.291 138.942C156.821 138.942 158.063 137.7 158.063 136.173C158.063 132.861 158.907 129.695 160.376 127.492C161.294 126.116 162.381 125.247 163.339 125.109V125.089C164.87 125.089 166.111 123.851 166.111 122.316C166.112 120.791 164.87 119.548 163.339 119.548Z" fill="#474747"/>
</g>
<defs>
<linearGradient id="paint0_linear_946_319733" x1="123.012" y1="9.8877" x2="123.012" y2="214.233" gradientUnits="userSpaceOnUse">
<stop stop-color="#53BFCD"/>
<stop offset="0.739583" stop-color="#BAD694" stop-opacity="0.15"/>
<stop offset="1" stop-color="#BAD694"/>
</linearGradient>
</defs>
</svg>
