<svg width="246" height="215" viewBox="0 0 246 215" fill="none" xmlns="http://www.w3.org/2000/svg">
<path fill-rule="evenodd" clip-rule="evenodd" d="M121.775 11.5264C140.386 16.1766 151.529 34.5615 164.207 48.9725C173.721 59.7878 175.937 75.3585 186.522 85.1258C203.607 100.891 237.037 100.34 243.944 122.55C250.103 142.359 228.511 160.735 214.896 176.375C202.88 190.178 188.057 201.989 170.457 206.967C154.51 211.477 138.33 201.967 121.775 202.712C104.154 203.505 85.458 220.825 70.4985 211.467C55.3596 201.996 66.1235 175.161 55.172 161.048C41.4365 143.347 6.44496 144.412 1.50265 122.55C-3.00961 102.59 24.0463 89.6613 35.1493 72.4789C45.6019 56.3031 49.313 35.2755 65.057 24.1976C81.1801 12.8529 102.655 6.74868 121.775 11.5264Z" fill="url(#paint0_linear_946_319731)" fill-opacity="0.5"/>
<path fill-rule="evenodd" clip-rule="evenodd" d="M121.759 2.63867C140.369 7.2889 151.513 25.6738 164.19 40.0848C173.704 50.9001 175.92 66.4708 186.505 76.2381C203.59 92.0033 237.021 91.452 243.927 113.662C250.087 133.471 228.495 151.847 214.879 167.488C202.864 181.291 188.04 193.101 170.441 198.079C154.494 202.589 138.313 193.079 121.759 193.824C104.137 194.618 85.4414 211.937 70.4819 202.579C55.3429 193.109 66.1069 166.274 55.1554 152.16C41.4199 134.459 6.42836 135.524 1.48604 113.662C-3.02621 93.7027 24.0297 80.7736 35.1327 63.5912C45.5853 47.4154 49.2964 26.3878 65.0404 15.3099C81.1635 3.9652 102.638 -2.13901 121.759 2.63867Z" stroke="black" stroke-opacity="0.1"/>
<g opacity="0.8">
<path d="M188.768 118.335L179.12 83.5625H180.531C181.083 83.5625 181.611 83.3436 182.001 82.9538C182.391 82.5641 182.61 82.0355 182.61 81.4844V69.0156C182.61 68.4645 182.391 67.9359 182.001 67.5462C181.611 67.1564 181.083 66.9375 180.531 66.9375H178.453V60.7031C178.453 60.152 178.234 59.6234 177.845 59.2337C177.455 58.8439 176.926 58.625 176.375 58.625H175.612L174.281 47.9767C174.218 47.4741 173.974 47.0117 173.594 46.6765C173.215 46.3413 172.725 46.1563 172.219 46.1562H163.906C163.4 46.1563 162.911 46.3413 162.531 46.6765C162.151 47.0117 161.907 47.4741 161.844 47.9767L160.513 58.625H159.75C159.199 58.625 158.67 58.8439 158.281 59.2337C157.891 59.6234 157.672 60.152 157.672 60.7031V66.9375H155.594C155.043 66.9375 154.514 67.1564 154.124 67.5462C153.735 67.9359 153.516 68.4645 153.516 69.0156V81.4844C153.516 82.0355 153.735 82.5641 154.124 82.9538C154.514 83.3436 155.043 83.5625 155.594 83.5625H157.016L151.252 104.312C150.793 101.878 149.475 99.6905 147.538 98.1473L141.047 92.9543V87.3613C142.262 86.9303 143.313 86.1342 144.057 85.082C144.801 84.0298 145.202 82.7731 145.203 81.4844V77.3281C145.201 75.6753 144.544 74.0906 143.375 72.9219C142.206 71.7531 140.622 71.0957 138.969 71.0938H114.031C112.379 71.0957 110.794 71.7531 109.625 72.9219C108.456 74.0906 107.799 75.6753 107.797 77.3281V81.4844C107.799 82.7731 108.199 84.0298 108.943 85.082C109.687 86.1342 110.739 86.9303 111.953 87.3613V92.9543L105.463 98.1473C103.35 99.8293 101.981 102.272 101.647 104.951C97.1241 97.5543 95.0231 85.1985 94.0513 75.1967C95.5525 75.0005 96.9312 74.2654 97.9307 73.1283C98.9302 71.9912 99.4824 70.5296 99.4845 69.0156V64.8594C99.4826 63.2065 98.8252 61.6219 97.6564 60.4531C96.4877 59.2844 94.903 58.6269 93.2502 58.625H76.6252C74.9723 58.6269 73.3877 59.2844 72.2189 60.4531C71.0502 61.6219 70.3927 63.2065 70.3908 64.8594V69.0156C70.3926 70.5298 70.9447 71.9917 71.9442 73.1291C72.9438 74.2665 74.3226 75.0018 75.824 75.198C74.7988 85.7399 72.525 98.9017 67.4765 106.11C65.2998 109.228 64.1402 112.942 64.1564 116.745V160.453C64.1595 163.208 65.2552 165.849 67.2032 167.797C69.1511 169.745 71.7922 170.841 74.547 170.844H95.3283C96.9421 170.844 98.5337 170.467 99.9767 169.745C101.42 169.022 102.674 167.973 103.641 166.68C104.607 167.973 105.862 169.022 107.305 169.745C108.748 170.467 110.339 170.844 111.953 170.844H141.047C142.661 170.844 144.252 170.467 145.695 169.745C147.138 169.022 148.393 167.973 149.36 166.68C150.326 167.973 151.581 169.022 153.024 169.745C154.467 170.467 156.058 170.844 157.672 170.844H178.453C181.208 170.841 183.849 169.745 185.797 167.797C187.745 165.849 188.841 163.208 188.844 160.453V118.891C188.844 118.703 188.818 118.516 188.768 118.335ZM159.021 91.875H177.113L184.033 116.812H152.094L159.021 91.875ZM151.438 120.969H184.688V150.062H151.438V120.969ZM165.741 50.3125H170.384L171.424 58.625H164.702L165.741 50.3125ZM161.828 62.7812H174.297V66.9375H161.828V62.7812ZM157.672 71.0938H178.453V79.4062H157.672V71.0938ZM174.806 83.5625L175.96 87.7188H160.175L161.33 83.5625H174.806ZM111.953 77.3281C111.954 76.7772 112.173 76.2489 112.563 75.8594C112.952 75.4698 113.48 75.2506 114.031 75.25H138.969C139.52 75.2506 140.048 75.4698 140.438 75.8594C140.827 76.2489 141.046 76.7772 141.047 77.3281V81.4844C141.046 82.0353 140.827 82.5636 140.438 82.9531C140.048 83.3427 139.52 83.5619 138.969 83.5625H114.031C113.48 83.5619 112.952 83.3427 112.563 82.9531C112.173 82.5636 111.954 82.0353 111.953 81.4844V77.3281ZM101.563 154.219H68.3127V116.812H101.563V154.219ZM90.3317 79.4062H79.5436C79.7159 77.9874 79.8652 76.5966 79.9938 75.25H89.8815C90.0101 76.5966 90.159 77.9874 90.3317 79.4062ZM74.547 69.0156V64.8594C74.5477 64.3084 74.7668 63.7802 75.1564 63.3906C75.546 63.001 76.0742 62.7819 76.6252 62.7812H93.2502C93.8011 62.7819 94.3294 63.001 94.7189 63.3906C95.1085 63.7802 95.3277 64.3084 95.3283 64.8594V69.0156C95.3277 69.5666 95.1085 70.0948 94.7189 70.4844C94.3294 70.874 93.8011 71.0931 93.2502 71.0938H76.6252C76.0742 71.0931 75.546 70.874 75.1564 70.4844C74.7668 70.0948 74.5477 69.5666 74.547 69.0156ZM78.9792 83.5625H90.8962C92.2825 92.7294 94.7178 102.385 98.9938 108.493C99.8816 109.762 100.554 111.169 100.985 112.656H68.8906C69.3211 111.168 69.9937 109.762 70.8815 108.493C75.1575 102.385 77.5928 92.7294 78.9792 83.5625ZM95.3283 166.688H74.547C72.8942 166.686 71.3096 166.028 70.1408 164.859C68.972 163.691 68.3146 162.106 68.3127 160.453V158.375H101.563V160.453C101.561 162.106 100.903 163.691 99.7345 164.859C98.5658 166.028 96.9812 166.686 95.3283 166.688ZM141.047 166.688H111.953C110.3 166.686 108.716 166.028 107.547 164.859C106.378 163.691 105.721 162.106 105.719 160.453V106.261C105.717 105.325 105.926 104.402 106.331 103.559C106.736 102.716 107.327 101.975 108.059 101.393L115.33 95.5759C115.573 95.3811 115.77 95.1342 115.905 94.8533C116.04 94.5724 116.11 94.2647 116.11 93.9531V87.7188H136.891V93.9531C136.891 94.2647 136.961 94.5724 137.096 94.8533C137.23 95.1342 137.427 95.3811 137.67 95.5759L144.941 101.393C145.673 101.975 146.264 102.716 146.669 103.559C147.074 104.402 147.284 105.325 147.281 106.261V160.453C147.279 162.106 146.622 163.691 145.453 164.859C144.285 166.028 142.7 166.686 141.047 166.688ZM178.453 166.688H157.672C156.019 166.686 154.435 166.028 153.266 164.859C152.097 163.691 151.44 162.106 151.438 160.453V154.219H184.688V160.453C184.686 162.106 184.028 163.691 182.86 164.859C181.691 166.028 180.106 166.686 178.453 166.688Z" fill="#474747"/>
<path d="M141.047 104.344H111.953C111.402 104.344 110.873 104.563 110.484 104.952C110.094 105.342 109.875 105.871 109.875 106.422V156.297C109.875 156.848 110.094 157.377 110.484 157.766C110.873 158.156 111.402 158.375 111.953 158.375H141.047C141.598 158.375 142.127 158.156 142.516 157.766C142.906 157.377 143.125 156.848 143.125 156.297V106.422C143.125 105.871 142.906 105.342 142.516 104.952C142.127 104.563 141.598 104.344 141.047 104.344ZM138.969 154.219H114.031V108.5H138.969V154.219Z" fill="#474747"/>
<path d="M74.5469 137.594C74.5459 139.419 75.0255 141.212 75.9376 142.793C76.8497 144.373 78.162 145.686 79.7425 146.598C81.323 147.511 83.116 147.991 84.941 147.99C86.7659 147.99 88.5586 147.508 90.1385 146.595C91.7184 145.681 93.0298 144.368 93.9409 142.787C94.8519 141.205 95.3304 139.412 95.3281 137.587C95.3259 135.762 94.843 133.97 93.9281 132.391C93.0132 130.811 91.6986 129.501 90.1164 128.592C90.8057 127.567 91.1732 126.36 91.1719 125.125C91.1719 124.574 90.9529 124.045 90.5632 123.656C90.1735 123.266 89.6449 123.047 89.0938 123.047C88.5426 123.047 88.014 123.266 87.6243 123.656C87.2346 124.045 87.0156 124.574 87.0156 125.125C87.0156 125.676 86.7967 126.205 86.407 126.594C86.0172 126.984 85.4887 127.203 84.9375 127.203C84.3863 127.203 83.8578 126.984 83.468 126.594C83.0783 126.205 82.8594 125.676 82.8594 125.125C82.8594 124.574 82.6404 124.045 82.2507 123.656C81.861 123.266 81.3324 123.047 80.7813 123.047C80.2301 123.047 79.7015 123.266 79.3118 123.656C78.9221 124.045 78.7031 124.574 78.7031 125.125C78.7018 126.36 79.0693 127.567 79.7586 128.592C78.1757 129.502 76.8606 130.814 75.9457 132.394C75.0307 133.974 74.5483 135.768 74.5469 137.594ZM84.9375 131.359C86.1705 131.359 87.3759 131.725 88.4011 132.41C89.4264 133.095 90.2254 134.069 90.6973 135.208C91.1692 136.347 91.2926 137.601 91.0521 138.81C90.8115 140.019 90.2178 141.13 89.3459 142.002C88.474 142.874 87.3631 143.468 86.1538 143.708C84.9444 143.949 83.6909 143.825 82.5517 143.354C81.4125 142.882 80.4389 142.083 79.7538 141.057C79.0688 140.032 78.7031 138.827 78.7031 137.594C78.7051 135.941 79.3625 134.356 80.5313 133.188C81.7 132.019 83.2846 131.361 84.9375 131.359Z" fill="#474747"/>
<path d="M122.344 123.047H130.656C131.207 123.047 131.736 122.828 132.126 122.438C132.515 122.048 132.734 121.52 132.734 120.969C132.734 120.418 132.515 119.889 132.126 119.499C131.736 119.11 131.207 118.891 130.656 118.891H122.344C121.793 118.891 121.264 119.11 120.874 119.499C120.485 119.889 120.266 120.418 120.266 120.969C120.266 121.52 120.485 122.048 120.874 122.438C121.264 122.828 121.793 123.047 122.344 123.047Z" fill="#474747"/>
<path d="M122.344 143.828H130.656C131.207 143.828 131.736 143.609 132.126 143.219C132.515 142.83 132.734 142.301 132.734 141.75C132.734 141.199 132.515 140.67 132.126 140.281C131.736 139.891 131.207 139.672 130.656 139.672H122.344C121.793 139.672 121.264 139.891 120.874 140.281C120.485 140.67 120.266 141.199 120.266 141.75C120.266 142.301 120.485 142.83 120.874 143.219C121.264 143.609 121.793 143.828 122.344 143.828Z" fill="#474747"/>
<path d="M122.344 133.438H130.656C131.207 133.438 131.736 133.219 132.126 132.829C132.515 132.439 132.734 131.911 132.734 131.359C132.734 130.808 132.515 130.28 132.126 129.89C131.736 129.5 131.207 129.281 130.656 129.281H122.344C121.793 129.281 121.264 129.5 120.874 129.89C120.485 130.28 120.266 130.808 120.266 131.359C120.266 131.911 120.485 132.439 120.874 132.829C121.264 133.219 121.793 133.438 122.344 133.438Z" fill="#474747"/>
<path d="M168.062 127.203C162.333 127.203 157.672 130.932 157.672 135.516C157.672 140.099 162.333 143.828 168.062 143.828C173.792 143.828 178.453 140.099 178.453 135.516C178.453 130.932 173.792 127.203 168.062 127.203ZM168.062 139.672C164.683 139.672 161.828 137.769 161.828 135.516C161.828 133.263 164.683 131.359 168.062 131.359C171.442 131.359 174.297 133.263 174.297 135.516C174.297 137.769 171.442 139.672 168.062 139.672Z" fill="#474747"/>
</g>
<defs>
<linearGradient id="paint0_linear_946_319731" x1="123.012" y1="9.8877" x2="123.012" y2="214.233" gradientUnits="userSpaceOnUse">
<stop stop-color="#53BFCD"/>
<stop offset="0.739583" stop-color="#BAD694" stop-opacity="0.15"/>
<stop offset="1" stop-color="#BAD694"/>
</linearGradient>
</defs>
</svg>
