<svg width="246" height="215" viewBox="0 0 246 215" fill="none" xmlns="http://www.w3.org/2000/svg">
<path fill-rule="evenodd" clip-rule="evenodd" d="M121.775 11.5264C140.386 16.1766 151.529 34.5615 164.207 48.9725C173.721 59.7878 175.937 75.3585 186.522 85.1258C203.607 100.891 237.037 100.34 243.944 122.55C250.103 142.359 228.511 160.735 214.896 176.375C202.88 190.178 188.057 201.989 170.457 206.967C154.51 211.477 138.33 201.967 121.775 202.712C104.154 203.505 85.458 220.825 70.4985 211.467C55.3596 201.996 66.1235 175.161 55.172 161.048C41.4365 143.347 6.44496 144.412 1.50265 122.55C-3.00961 102.59 24.0463 89.6613 35.1493 72.4789C45.6019 56.3031 49.313 35.2755 65.057 24.1976C81.1801 12.8529 102.655 6.74868 121.775 11.5264Z" fill="url(#paint0_linear_946_323418)" fill-opacity="0.5"/>
<path fill-rule="evenodd" clip-rule="evenodd" d="M121.759 2.63867C140.369 7.2889 151.513 25.6738 164.19 40.0848C173.704 50.9001 175.92 66.4708 186.505 76.2381C203.59 92.0033 237.021 91.452 243.927 113.662C250.087 133.471 228.495 151.847 214.879 167.488C202.864 181.291 188.04 193.101 170.441 198.079C154.494 202.589 138.313 193.079 121.759 193.824C104.137 194.618 85.4414 211.937 70.4819 202.579C55.3429 193.109 66.1069 166.274 55.1554 152.16C41.4199 134.459 6.42836 135.524 1.48604 113.662C-3.02621 93.7027 24.0297 80.7736 35.1327 63.5912C45.5853 47.4154 49.2964 26.3878 65.0404 15.3099C81.1635 3.9652 102.638 -2.13901 121.759 2.63867Z" stroke="black" stroke-opacity="0.1"/>
<g opacity="0.8">
<path d="M184.679 60.8631C184.682 60.8301 184.688 48.2343 184.688 48.2343C184.687 47.8801 184.597 47.5317 184.424 47.2223C184.252 46.913 184.003 46.6528 183.702 46.4666C183.401 46.2804 183.057 46.1743 182.703 46.1583C182.349 46.1424 181.997 46.2173 181.68 46.3757L178.453 47.9891L175.226 46.3757C174.938 46.2314 174.62 46.1563 174.297 46.1563C173.974 46.1563 173.656 46.2314 173.367 46.3757L170.141 47.9891L166.914 46.3757C166.625 46.2314 166.307 46.1563 165.984 46.1563C165.662 46.1563 165.344 46.2314 165.055 46.3757L161.828 47.9891L158.601 46.3757C158.313 46.2314 157.995 46.1563 157.672 46.1563C157.349 46.1563 157.031 46.2314 156.742 46.3757L153.516 47.9891L150.289 46.3757C150 46.2314 149.682 46.1563 149.359 46.1563C149.037 46.1563 148.719 46.2314 148.43 46.3757L145.203 47.9891L141.976 46.3757C141.688 46.2314 141.37 46.1563 141.047 46.1563C140.724 46.1563 140.406 46.2314 140.117 46.3757L136.891 47.9891L133.664 46.3757C133.375 46.2314 133.057 46.1563 132.734 46.1563C132.412 46.1563 132.094 46.2314 131.805 46.3757L128.578 47.9891L125.351 46.3757C125.063 46.2314 124.745 46.1563 124.422 46.1563C124.099 46.1563 123.781 46.2314 123.492 46.3757L120.266 47.9891L117.039 46.3757C116.722 46.2173 116.37 46.1424 116.016 46.1583C115.662 46.1743 115.318 46.2804 115.017 46.4666C114.716 46.6528 114.467 46.913 114.294 47.2223C114.122 47.5317 114.031 47.8801 114.031 48.2343V59.4188L111.953 60.4578L108.726 58.8444C108.438 58.7001 108.12 58.625 107.797 58.625C107.474 58.625 107.156 58.7001 106.867 58.8444L103.641 60.4578L100.414 58.8444C100.125 58.7001 99.807 58.625 99.4844 58.625C99.1617 58.625 98.8435 58.7001 98.5549 58.8444L95.3281 60.4578L92.1013 58.8444C91.8127 58.7001 91.4945 58.625 91.1719 58.625C90.8492 58.625 90.531 58.7001 90.2424 58.8444L87.0156 60.4578L83.7888 58.8444C83.5002 58.7001 83.182 58.625 82.8594 58.625C82.5367 58.625 82.2185 58.7001 81.9299 58.8444L78.7031 60.4578L75.4763 58.8444C75.1877 58.7001 74.8695 58.625 74.5469 58.625C74.2242 58.625 73.906 58.7001 73.6174 58.8444L70.3906 60.4578L67.1638 58.8444C66.847 58.686 66.4949 58.6112 66.141 58.6271C65.7872 58.643 65.4432 58.7491 65.1419 58.9353C64.8406 59.1215 64.5918 59.3817 64.4193 59.6911C64.2468 60.0005 64.1563 60.3488 64.1562 60.7031C64.1562 60.7031 64.216 71.5872 64.2183 71.5976L66.2344 79.662V137.338C66.2344 137.338 64.1562 145.862 64.1562 145.887C64.1562 145.893 64.1562 156.297 64.1562 156.297C64.1563 156.651 64.2468 156.999 64.4193 157.309C64.5918 157.618 64.8406 157.878 65.1419 158.065C65.4432 158.251 65.7872 158.357 66.141 158.373C66.4949 158.389 66.847 158.314 67.1638 158.155L70.3906 156.542L73.6174 158.155C73.906 158.3 74.2242 158.375 74.5469 158.375C74.8695 158.375 75.1877 158.3 75.4763 158.155L78.7031 156.542L81.9299 158.155C82.2185 158.3 82.5367 158.375 82.8594 158.375C83.182 158.375 83.5002 158.3 83.7888 158.155L87.0156 156.542L90.2424 158.155C90.5304 158.3 90.8481 158.375 91.1703 158.375H91.1719V168.766C91.1719 169.106 91.2551 169.44 91.4143 169.74C91.5734 170.04 91.8037 170.297 92.0849 170.487C92.3661 170.677 92.6897 170.796 93.0274 170.832C93.365 170.869 93.7064 170.822 94.0218 170.696L104.041 166.687H142.634L150.508 170.624C150.825 170.783 151.177 170.857 151.531 170.842C151.885 170.826 152.229 170.719 152.53 170.533C152.831 170.347 153.08 170.087 153.253 169.778C153.425 169.468 153.516 169.12 153.516 168.766V152.386L156.742 153.999C157.031 154.143 157.349 154.219 157.672 154.219C157.995 154.219 158.313 154.143 158.601 153.999L161.828 152.386L165.055 153.999C165.344 154.143 165.662 154.219 165.984 154.219C166.307 154.219 166.625 154.143 166.914 153.999L170.141 152.386L173.367 153.999C173.656 154.143 173.974 154.219 174.297 154.219C174.62 154.219 174.938 154.143 175.226 153.999L178.453 152.386L181.68 153.999C181.997 154.158 182.349 154.232 182.703 154.217C183.057 154.201 183.401 154.094 183.702 153.908C184.003 153.722 184.252 153.462 184.424 153.153C184.597 152.843 184.687 152.495 184.688 152.141C184.688 152.141 184.669 139.39 184.667 139.378L182.622 125.064L183.644 112.805C184.34 104.411 184.366 95.9755 183.722 87.5776L182.622 73.2645C182.622 73.2645 184.676 60.9059 184.679 60.8631ZM153.516 137.594V131.359C153.516 131.005 153.425 130.657 153.253 130.347C153.08 130.038 152.831 129.778 152.53 129.592C152.229 129.405 151.885 129.299 151.531 129.283C151.177 129.267 150.825 129.342 150.508 129.501L142.634 133.437H132.734V118.768C136.322 121.979 140.762 124.083 145.52 124.826C150.277 125.569 155.147 124.919 159.543 122.954C163.939 120.99 167.672 117.794 170.291 113.754C172.911 109.714 174.305 105.002 174.305 100.187C174.305 95.3725 172.911 90.6606 170.291 86.6206C167.672 82.5806 163.939 79.3853 159.543 77.4206C155.147 75.4558 150.277 74.8056 145.52 75.5486C140.762 76.2915 136.322 78.3957 132.734 81.6072V79.662L134.75 71.5976C134.753 71.588 134.754 71.5779 134.756 71.5683C134.768 71.5171 134.812 62.7812 134.812 62.7812H180.156C180.156 62.7812 178.446 73.1638 178.459 73.331L179.579 87.8966C180.206 96.0736 180.18 104.288 179.501 112.46C179.501 112.46 178.453 125.264 178.474 125.419L180.214 137.594H153.516ZM92.085 129.638C91.8037 129.829 91.5734 130.085 91.4143 130.385C91.2551 130.685 91.1719 131.02 91.1719 131.359V143.828H68.8959L70.3285 138.098C70.3698 137.933 70.3906 79.4062 70.3906 79.4062C70.3906 79.2363 68.8959 73.1718 68.8959 73.1718H130.073C130.073 73.1718 128.578 79.2363 128.578 79.4062V133.437H104.041L94.0218 129.43C93.7065 129.304 93.365 129.257 93.0274 129.293C92.6898 129.329 92.3662 129.448 92.085 129.638ZM132.734 87.721C135.351 84.2312 138.999 81.6531 143.163 80.3521C147.326 79.0511 151.793 79.0931 155.931 80.4721C160.069 81.8512 163.669 84.4974 166.219 88.0358C168.77 91.5743 170.142 95.8256 170.142 100.187C170.142 104.549 168.77 108.801 166.219 112.339C163.669 115.877 160.069 118.524 155.931 119.903C151.793 121.282 147.326 121.324 143.163 120.023C138.999 118.722 135.351 116.144 132.734 112.654V87.721ZM119.336 52.1711C119.625 52.3154 119.943 52.3905 120.266 52.3905C120.588 52.3905 120.906 52.3154 121.195 52.1711L124.422 50.5576L127.649 52.1711C127.937 52.3154 128.255 52.3905 128.578 52.3905C128.901 52.3905 129.219 52.3154 129.508 52.1711L132.734 50.5576L135.961 52.1711C136.25 52.3154 136.568 52.3905 136.891 52.3905C137.213 52.3905 137.531 52.3154 137.82 52.1711L141.047 50.5576L144.274 52.1711C144.562 52.3154 144.88 52.3905 145.203 52.3905C145.526 52.3905 145.844 52.3154 146.133 52.1711L149.359 50.5576L152.586 52.1711C152.875 52.3154 153.193 52.3905 153.516 52.3905C153.838 52.3905 154.156 52.3154 154.445 52.1711L157.672 50.5576L160.899 52.1711C161.187 52.3154 161.505 52.3905 161.828 52.3905C162.151 52.3905 162.469 52.3154 162.758 52.1711L165.984 50.5576L169.211 52.1711C169.5 52.3154 169.818 52.3905 170.141 52.3905C170.463 52.3905 170.781 52.3154 171.07 52.1711L174.297 50.5576L177.524 52.1711C177.812 52.3154 178.13 52.3905 178.453 52.3905C178.776 52.3905 179.094 52.3154 179.383 52.1711L180.531 51.5967V58.6249H176.375V54.4687H172.219V58.6249H168.062V54.4687H163.906V58.6249H159.75V54.4687H155.594V58.6249H151.438V54.4687H147.281V58.6249H143.125V54.4687H138.969V58.6249H134.812V54.4687H130.656V58.6249H126.5V54.4687H122.344V58.6249H118.188V51.5967L119.336 52.1711ZM69.4612 64.6398C69.7498 64.7841 70.068 64.8592 70.3906 64.8592C70.7133 64.8592 71.0315 64.7841 71.3201 64.6398L74.5469 63.0264L77.7737 64.6398C78.0623 64.7841 78.3805 64.8592 78.7031 64.8592C79.0258 64.8592 79.344 64.7841 79.6326 64.6398L82.8594 63.0264L86.0862 64.6398C86.3748 64.7841 86.693 64.8592 87.0156 64.8592C87.3383 64.8592 87.6565 64.7841 87.9451 64.6398L91.1719 63.0264L94.3987 64.6398C94.6873 64.7841 95.0055 64.8592 95.3281 64.8592C95.6508 64.8592 95.969 64.7841 96.2576 64.6398L99.4844 63.0264L102.711 64.6398C103 64.7841 103.318 64.8592 103.641 64.8592C103.963 64.8592 104.281 64.7841 104.57 64.6398L107.797 63.0264L111.024 64.6398C111.312 64.7841 111.63 64.8592 111.953 64.8592C112.276 64.8592 112.594 64.7841 112.883 64.6398L116.109 63.0264L119.336 64.6398C119.625 64.7841 119.943 64.8592 120.266 64.8592C120.588 64.8592 120.906 64.7841 121.195 64.6398L124.422 63.0264L127.649 64.6398C127.937 64.7841 128.255 64.8592 128.578 64.8592C128.901 64.8592 129.219 64.7841 129.508 64.6398L130.656 64.0655V69.0156H68.3125V64.0655L69.4612 64.6398ZM87.9451 152.36C87.6565 152.216 87.3383 152.141 87.0156 152.141C86.693 152.141 86.3748 152.216 86.0862 152.36L82.8594 153.973L79.6326 152.36C79.344 152.216 79.0258 152.141 78.7031 152.141C78.3805 152.141 78.0623 152.216 77.7737 152.36L74.5469 153.973L71.3201 152.36C71.0315 152.216 70.7133 152.141 70.3906 152.141C70.068 152.141 69.7498 152.216 69.4612 152.36L68.3125 152.934V147.984H91.1719V153.973L87.9451 152.36ZM144.054 162.751C143.766 162.606 143.448 162.531 143.125 162.531H103.641C103.376 162.531 103.114 162.582 102.869 162.68L95.3281 165.696V160.453H99.4844V156.297H95.3281V152.141H99.4844V147.984H95.3281V143.828H99.4844V139.672H95.3281V134.429L102.869 137.445C103.114 137.543 103.376 137.594 103.641 137.594H143.125C143.448 137.594 143.766 137.519 144.054 137.374L149.359 134.722V139.672H145.203V143.828H149.359V147.984H145.203V152.141H149.359V156.297H145.203V160.453H149.359V165.403L144.054 162.751ZM180.531 148.778L179.383 148.204C179.094 148.06 178.776 147.984 178.453 147.984C178.13 147.984 177.812 148.06 177.524 148.204L174.297 149.817L171.07 148.204C170.781 148.06 170.463 147.984 170.141 147.984C169.818 147.984 169.5 148.06 169.211 148.204L165.984 149.817L162.758 148.204C162.469 148.06 162.151 147.984 161.828 147.984C161.505 147.984 161.187 148.06 160.899 148.204L157.672 149.817L154.445 148.204C154.156 148.059 153.838 147.984 153.516 147.984V141.75H155.594V145.906H159.75V141.75H163.906V145.906H168.062V141.75H172.219V145.906H176.375V141.75H180.531V148.778Z" fill="#434040"/>
<path d="M144.164 112.656C145.708 112.652 147.232 112.312 148.632 111.66C150.528 112.467 152.595 112.792 154.647 112.605C156.7 112.419 158.674 111.726 160.393 110.589C162.112 109.453 163.523 107.908 164.498 106.092C165.474 104.277 165.985 102.248 165.984 100.188C165.984 99.6363 165.765 99.1078 165.376 98.718C164.986 98.3283 164.457 98.1094 163.906 98.1094H155.432C154.523 92.2202 149.817 87.7188 144.164 87.7188C137.862 87.7188 132.734 93.3123 132.734 100.188C132.734 107.063 137.862 112.656 144.164 112.656ZM153.516 108.5C151.673 108.498 149.884 107.885 148.427 106.756C146.97 105.628 145.929 104.049 145.466 102.266H161.565C161.102 104.049 160.061 105.628 158.604 106.756C157.148 107.885 155.358 108.498 153.516 108.5ZM144.164 91.875C147.547 91.875 150.398 94.5282 151.207 98.1094H143.125C142.574 98.1094 142.045 98.3283 141.656 98.718C141.266 99.1078 141.047 99.6363 141.047 100.188C141.045 103.256 142.179 106.216 144.23 108.498C144.208 108.498 144.186 108.5 144.164 108.5C140.154 108.5 136.891 104.771 136.891 100.188C136.891 95.6039 140.154 91.875 144.164 91.875Z" fill="#434040"/>
<path d="M122.344 139.672C120.289 139.672 118.28 140.281 116.571 141.423C114.862 142.565 113.531 144.188 112.744 146.086C111.958 147.985 111.752 150.074 112.153 152.09C112.554 154.105 113.543 155.957 114.996 157.41C116.45 158.863 118.301 159.853 120.317 160.253C122.332 160.654 124.421 160.449 126.32 159.662C128.219 158.876 129.842 157.544 130.983 155.835C132.125 154.126 132.734 152.118 132.734 150.062C132.731 147.308 131.636 144.667 129.688 142.719C127.74 140.771 125.099 139.675 122.344 139.672ZM122.344 156.297C121.111 156.297 119.905 155.931 118.88 155.246C117.855 154.561 117.056 153.587 116.584 152.448C116.112 151.309 115.989 150.056 116.229 148.846C116.47 147.637 117.063 146.526 117.935 145.654C118.807 144.782 119.918 144.188 121.127 143.948C122.337 143.707 123.59 143.831 124.73 144.303C125.869 144.775 126.842 145.574 127.527 146.599C128.212 147.624 128.578 148.829 128.578 150.062C128.576 151.715 127.919 153.3 126.75 154.469C125.581 155.637 123.997 156.295 122.344 156.297Z" fill="#434040"/>
<path d="M115.038 116.812H115.59C117.931 116.81 120.176 115.878 121.832 114.223C123.488 112.567 124.419 110.322 124.422 107.98V91.8748C124.422 91.4986 124.32 91.1295 124.126 90.8068C123.933 90.4842 123.656 90.22 123.324 90.0425C122.993 89.865 122.619 89.7809 122.243 89.7991C121.868 89.8173 121.504 89.9371 121.191 90.1457L120.561 90.5658C118.306 92.0711 115.77 93.1049 113.105 93.605C111.329 91.7173 109.18 90.2193 106.795 89.2061C104.409 88.1929 101.839 87.6866 99.2474 87.7193C96.6557 87.752 94.0991 88.323 91.7398 89.3961C89.3805 90.4692 87.27 92.0209 85.5422 93.9529H83.3789C81.0373 93.9555 78.7924 94.8868 77.1366 96.5426C75.4808 98.1984 74.5495 100.443 74.5469 102.785V120.968C74.5469 121.376 74.6669 121.775 74.8919 122.115C75.1169 122.455 75.4371 122.722 75.8125 122.881C76.1878 123.041 76.6018 123.086 77.0028 123.012C77.4039 122.938 77.7742 122.747 78.0677 122.464C80.0274 120.571 82.3512 119.096 84.898 118.128C86.737 120.419 89.0898 122.245 91.7659 123.458C94.442 124.67 97.3661 125.235 100.301 125.107C103.236 124.979 106.1 124.161 108.66 122.72C111.221 121.279 113.406 119.255 115.038 116.812ZM99.4844 91.8748C102.125 91.8728 104.717 92.5913 106.98 93.9529H91.9881C94.2508 92.5901 96.8429 91.8715 99.4844 91.8748ZM78.7031 102.785C78.7046 101.545 79.1977 100.357 80.0742 99.4802C80.9508 98.6037 82.1393 98.1106 83.3789 98.1091H109.374C113.156 98.1132 116.885 97.2325 120.266 95.5374V107.98C120.264 109.22 119.771 110.408 118.895 111.285C118.018 112.161 116.829 112.655 115.59 112.656H92.0681C87.3175 112.647 82.6693 114.036 78.7031 116.651V102.785ZM89.4863 116.981C90.3424 116.87 91.2048 116.814 92.0681 116.812H109.659C106.973 119.447 103.369 120.936 99.6068 120.968C95.8443 120.999 92.2163 119.57 89.4863 116.981Z" fill="#434040"/>
</g>
<defs>
<linearGradient id="paint0_linear_946_323418" x1="123.012" y1="9.8877" x2="123.012" y2="214.233" gradientUnits="userSpaceOnUse">
<stop stop-color="#53BFCD"/>
<stop offset="0.739583" stop-color="#BAD694" stop-opacity="0.15"/>
<stop offset="1" stop-color="#BAD694"/>
</linearGradient>
</defs>
</svg>
