<svg width="246" height="215" viewBox="0 0 246 215" fill="none" xmlns="http://www.w3.org/2000/svg">
<path fill-rule="evenodd" clip-rule="evenodd" d="M121.775 11.5264C140.386 16.1766 151.529 34.5615 164.207 48.9725C173.721 59.7878 175.937 75.3585 186.522 85.1258C203.607 100.891 237.037 100.34 243.944 122.55C250.103 142.359 228.511 160.735 214.896 176.375C202.88 190.178 188.057 201.989 170.457 206.967C154.51 211.477 138.33 201.967 121.775 202.712C104.154 203.505 85.458 220.825 70.4985 211.467C55.3596 201.996 66.1235 175.161 55.172 161.048C41.4365 143.347 6.44496 144.412 1.50265 122.55C-3.00961 102.59 24.0463 89.6613 35.1493 72.4789C45.6019 56.3031 49.313 35.2755 65.057 24.1976C81.1801 12.8529 102.655 6.74868 121.775 11.5264Z" fill="url(#paint0_linear_946_323431)" fill-opacity="0.5"/>
<path fill-rule="evenodd" clip-rule="evenodd" d="M121.759 2.63867C140.369 7.2889 151.513 25.6738 164.19 40.0848C173.704 50.9001 175.92 66.4708 186.505 76.2381C203.59 92.0033 237.021 91.452 243.927 113.662C250.087 133.471 228.495 151.847 214.879 167.488C202.864 181.291 188.04 193.101 170.441 198.079C154.494 202.589 138.313 193.079 121.759 193.824C104.137 194.618 85.4414 211.937 70.4819 202.579C55.3429 193.109 66.1069 166.274 55.1554 152.16C41.4199 134.459 6.42836 135.524 1.48604 113.662C-3.02621 93.7027 24.0297 80.7736 35.1327 63.5912C45.5853 47.4154 49.2964 26.3878 65.0404 15.3099C81.1635 3.9652 102.638 -2.13901 121.759 2.63867Z" stroke="black" stroke-opacity="0.1"/>
<g opacity="0.8">
<path d="M180.828 121.617H72.1728C70.0507 121.617 68.3242 123.343 68.3242 125.465C68.3242 152.779 90.5455 175 117.859 175H135.141C162.454 175 184.676 152.779 184.676 125.465C184.676 123.343 182.949 121.617 180.828 121.617ZM175.698 146.355H169.975C168.896 146.355 168.021 147.23 168.021 148.309C168.021 149.387 168.896 150.262 169.975 150.262H173.425C165.282 162.79 151.164 171.093 135.141 171.093H117.859C101.837 171.093 87.7183 162.79 79.5758 150.262H160.599C161.678 150.262 162.552 149.387 162.552 148.309C162.552 147.23 161.678 146.355 160.599 146.355H77.3018C74.0712 140.108 72.2405 133.026 72.2309 125.523H180.769C180.76 133.025 178.929 140.108 175.698 146.355Z" fill="#434040"/>
<path d="M72.6724 64.2999C74.154 65.7816 76.1243 66.5978 78.2199 66.5978C78.616 66.5978 79.0077 66.5684 79.3924 66.5111C79.2351 69.1166 80.1477 71.7753 82.1341 73.7617L89.2836 80.9114C91.1245 82.7523 93.5427 83.6727 95.9607 83.6727C96.3691 83.6727 96.7769 83.6443 97.1824 83.5917C96.8147 86.3938 97.7031 89.3306 99.8512 91.4788C101.628 93.2558 103.991 94.2346 106.504 94.2346C109.017 94.2346 111.38 93.2558 113.157 91.4788L120.688 83.9477C122.466 82.1707 123.444 79.8079 123.444 77.2946C123.444 74.7813 122.466 72.4186 120.688 70.6415C118.911 68.8645 116.548 67.8858 114.035 67.8858C113.619 67.8858 113.208 67.9152 112.802 67.9681C113.164 65.1625 112.272 62.2247 110.121 60.0742L102.972 52.9247C100.985 50.938 98.3263 50.0257 95.7208 50.1827C95.7781 49.798 95.8075 49.4063 95.8075 49.0102C95.8075 46.9146 94.9916 44.9446 93.5099 43.4627L93.1872 43.14C92.4522 42.4047 91.4748 42 90.4351 42C89.3959 42 88.4184 42.4047 87.6834 43.1397L82.9464 47.877C82.1836 48.6398 82.1836 49.8767 82.9464 50.6393C83.7096 51.4021 84.9462 51.4021 85.709 50.6393L90.4244 45.902L90.7473 46.225C91.4909 46.9688 91.9009 47.958 91.9009 49.0099C91.9009 50.0619 91.4912 51.0508 90.7471 51.7949L81.0046 61.5374C80.261 62.2812 79.2718 62.6909 78.2199 62.6909C77.1679 62.6909 76.1788 62.2812 75.4352 61.5374L75.1125 61.2358L79.8495 56.4988C80.6123 55.7359 80.6123 54.4993 79.8495 53.7365C79.0864 52.9736 77.8498 52.9736 77.0869 53.7365L72.3497 58.4735C71.615 59.2085 71.21 60.1857 71.21 61.2251C71.21 62.2645 71.615 63.2417 72.3497 63.9767L72.6724 64.2999ZM117.926 73.4038C118.965 74.443 119.538 75.8247 119.538 77.2944C119.538 78.7641 118.966 80.1457 117.926 81.1849L110.395 88.7162C109.356 89.7554 107.974 90.3279 106.505 90.3279C105.035 90.3279 103.653 89.7554 102.614 88.7162C100.469 86.5709 100.469 83.0804 102.614 80.9352L102.637 80.9125C102.637 80.912 102.637 80.9117 102.638 80.9112L105.13 78.4192L110.146 73.4038C111.185 72.3646 112.566 71.7922 114.036 71.7922C115.506 71.7922 116.887 72.3646 117.926 73.4038ZM100.209 55.6867L107.359 62.8362C109.517 64.9945 109.517 68.5067 107.359 70.665L105.494 72.53L99.8731 78.1505C98.8279 79.1949 97.4387 79.7699 95.961 79.7699C94.4821 79.7699 93.0919 79.1941 92.0467 78.1486L84.8972 70.9989C82.7386 68.8405 82.7386 65.3284 84.8972 63.1701L92.3806 55.6865C93.4599 54.6072 94.8772 54.0675 96.2948 54.0675C97.7122 54.068 99.1301 54.6077 100.209 55.6867Z" fill="#434040"/>
<path d="M139.843 104.937C141.62 106.714 143.983 107.692 146.496 107.692C149.009 107.692 151.372 106.714 153.149 104.937C154.926 103.16 155.905 100.797 155.905 98.2834C155.905 97.8673 155.875 97.456 155.823 97.05C156.227 97.1021 156.633 97.1302 157.04 97.1302C159.457 97.1299 161.876 96.2095 163.716 94.3689L170.866 87.2192C172.854 85.2312 173.767 82.5705 173.608 79.9631C173.996 80.0215 174.388 80.0514 174.78 80.0514C176.789 80.0514 178.798 79.2868 180.328 77.7574L180.651 77.4347C181.385 76.6997 181.79 75.7225 181.79 74.6831C181.79 73.6437 181.385 72.6662 180.651 71.9315L165.317 56.5977C164.582 55.8627 163.604 55.458 162.565 55.458C161.526 55.458 160.548 55.8627 159.813 56.5977L159.491 56.9204C158.009 58.4021 157.193 60.3724 157.193 62.4679C157.193 62.8641 157.222 63.2558 157.28 63.6404C154.674 63.4831 152.016 64.3957 150.029 66.3822L142.879 73.5319C140.728 75.6837 139.836 78.6237 140.199 81.4307C137.397 81.0633 134.46 81.9514 132.312 84.0993C128.643 87.7677 128.643 93.7368 132.312 97.4055L139.843 104.937ZM162.253 59.683L162.554 59.3595L177.888 74.6727L177.565 74.9954C176.029 76.531 173.531 76.531 171.995 74.9954L162.253 65.2529C161.509 64.509 161.099 63.5199 161.099 62.4679C161.099 61.416 161.509 60.4268 162.253 59.683ZM145.641 76.2945L152.791 69.1447C153.837 68.0993 155.227 67.5234 156.705 67.5234C158.184 67.5234 159.574 68.0993 160.619 69.1447L168.103 76.6284C170.262 78.7867 170.262 82.2988 168.103 84.4571L160.953 91.6069C159.908 92.6523 158.518 93.2282 157.039 93.2282C155.561 93.2282 154.17 92.6523 153.125 91.6069L149.383 87.8651L145.64 84.1219C143.483 81.9634 143.483 78.4523 145.641 76.2945ZM135.074 86.8618C136.147 85.7893 137.556 85.2528 138.964 85.2528C140.373 85.2528 141.782 85.7891 142.855 86.8616L142.875 86.8816C142.876 86.8829 142.877 86.8842 142.879 86.8855L150.362 94.3692C150.363 94.3697 150.363 94.37 150.364 94.3705L150.386 94.3932C151.425 95.4323 151.998 96.814 151.998 98.2837C151.998 99.7534 151.426 101.135 150.386 102.174C149.347 103.213 147.965 103.786 146.496 103.786C145.026 103.786 143.644 103.213 142.605 102.174L135.074 94.6429C132.929 92.4976 132.929 89.0071 135.074 86.8618Z" fill="#434040"/>
<path d="M121.072 94.7775C121.199 94.7775 121.327 94.7644 121.455 94.7384C121.577 94.7124 121.702 94.6759 121.819 94.6264C121.936 94.5769 122.051 94.517 122.155 94.4467C122.262 94.3764 122.364 94.293 122.452 94.2045C122.543 94.1133 122.624 94.0144 122.697 93.9076C122.765 93.8008 122.827 93.6888 122.874 93.5716C122.923 93.4518 122.963 93.3294 122.986 93.2044C123.012 93.0794 123.025 92.9491 123.025 92.8241C123.025 92.6965 123.012 92.5663 122.986 92.4413C122.963 92.3162 122.924 92.1938 122.874 92.0766C122.827 91.9568 122.765 91.8448 122.697 91.7381C122.624 91.6313 122.543 91.5323 122.452 91.4411C122.364 91.3526 122.262 91.2692 122.155 91.1989C122.051 91.1286 121.936 91.0687 121.819 91.0192C121.702 90.9697 121.577 90.9333 121.455 90.9072C121.202 90.8577 120.942 90.8577 120.689 90.9072C120.567 90.9333 120.442 90.9697 120.325 91.0192C120.208 91.0687 120.093 91.1286 119.989 91.1989C119.882 91.2692 119.78 91.3526 119.692 91.4411C119.6 91.5323 119.52 91.6313 119.447 91.7381C119.376 91.8448 119.317 91.9568 119.267 92.0766C119.22 92.1938 119.181 92.3162 119.158 92.4413C119.132 92.5663 119.119 92.6965 119.119 92.8241C119.119 92.9491 119.132 93.0794 119.158 93.2044C119.181 93.3294 119.22 93.4518 119.267 93.5716C119.317 93.6888 119.377 93.8008 119.447 93.9076C119.52 94.0144 119.601 94.1133 119.692 94.2045C119.78 94.293 119.882 94.3764 119.989 94.4467C120.093 94.517 120.208 94.5769 120.325 94.6264C120.442 94.6759 120.567 94.7124 120.689 94.7384C120.817 94.7644 120.944 94.7775 121.072 94.7775Z" fill="#434040"/>
<path d="M109.498 100.088C109.427 99.9813 109.347 99.8823 109.256 99.7911C109.164 99.7 109.065 99.6192 108.958 99.5489C108.852 99.4786 108.74 99.4187 108.622 99.3692C108.503 99.3197 108.38 99.2833 108.255 99.2572C107.62 99.1296 106.945 99.338 106.495 99.7911C106.403 99.8823 106.323 99.9813 106.25 100.088C106.179 100.195 106.12 100.307 106.07 100.424C106.023 100.544 105.984 100.666 105.961 100.791C105.935 100.916 105.922 101.044 105.922 101.172C105.922 101.299 105.935 101.429 105.961 101.554C105.984 101.679 106.023 101.802 106.07 101.919C106.12 102.036 106.18 102.151 106.25 102.258C106.323 102.364 106.404 102.463 106.495 102.554C106.857 102.916 107.359 103.125 107.875 103.125C108.003 103.125 108.13 103.112 108.255 103.088C108.38 103.062 108.503 103.026 108.622 102.976C108.74 102.927 108.852 102.867 108.958 102.797C109.065 102.726 109.164 102.643 109.256 102.554C109.347 102.463 109.427 102.364 109.498 102.258C109.568 102.151 109.631 102.036 109.678 101.919C109.727 101.802 109.763 101.679 109.79 101.554C109.816 101.427 109.828 101.299 109.828 101.172C109.828 101.044 109.815 100.916 109.79 100.791C109.763 100.666 109.727 100.544 109.678 100.424C109.631 100.307 109.568 100.195 109.498 100.088Z" fill="#434040"/>
<path d="M141.749 114.181C141.631 114.134 141.509 114.095 141.384 114.071C141.131 114.019 140.874 114.019 140.621 114.071C140.496 114.095 140.374 114.134 140.256 114.181C140.137 114.23 140.025 114.29 139.918 114.36C139.811 114.433 139.712 114.514 139.621 114.605C139.256 114.967 139.048 115.472 139.048 115.986C139.048 116.113 139.061 116.241 139.087 116.368C139.113 116.491 139.149 116.616 139.199 116.733C139.246 116.85 139.308 116.965 139.379 117.069C139.449 117.176 139.529 117.277 139.621 117.366C139.712 117.457 139.811 117.538 139.918 117.611C140.025 117.681 140.137 117.741 140.256 117.788C140.374 117.837 140.496 117.876 140.621 117.9C140.746 117.926 140.874 117.939 141.001 117.939C141.517 117.939 142.02 117.731 142.384 117.366C142.473 117.277 142.556 117.176 142.627 117.069C142.697 116.965 142.757 116.85 142.806 116.733C142.856 116.616 142.892 116.491 142.918 116.368C142.942 116.241 142.955 116.113 142.955 115.986C142.955 115.47 142.746 114.967 142.384 114.605C142.293 114.514 142.195 114.433 142.088 114.36C141.98 114.29 141.866 114.23 141.749 114.181Z" fill="#434040"/>
<path d="M120.18 104.734C120.134 104.617 120.071 104.502 120.001 104.398C119.93 104.291 119.85 104.19 119.759 104.101C119.67 104.01 119.569 103.929 119.462 103.856C119.355 103.786 119.243 103.726 119.126 103.677C119.006 103.63 118.883 103.591 118.758 103.567C118.508 103.515 118.248 103.515 117.995 103.567C117.871 103.591 117.748 103.63 117.631 103.677C117.514 103.726 117.399 103.786 117.292 103.856C117.185 103.929 117.086 104.01 116.995 104.101C116.633 104.463 116.425 104.966 116.425 105.482C116.425 105.609 116.438 105.737 116.462 105.862C116.488 105.987 116.524 106.109 116.574 106.229C116.623 106.346 116.683 106.461 116.753 106.565C116.826 106.672 116.907 106.773 116.995 106.862C117.087 106.953 117.185 107.034 117.292 107.107C117.399 107.177 117.514 107.237 117.631 107.284C117.748 107.333 117.871 107.373 117.996 107.396C118.123 107.422 118.251 107.435 118.378 107.435C118.892 107.435 119.394 107.227 119.759 106.862C119.85 106.773 119.931 106.672 120.001 106.565C120.072 106.461 120.134 106.346 120.181 106.229C120.23 106.109 120.267 105.987 120.293 105.862C120.319 105.737 120.332 105.609 120.332 105.482C120.332 105.354 120.319 105.226 120.293 105.099C120.266 104.974 120.23 104.851 120.18 104.734Z" fill="#434040"/>
<path d="M123.017 114.181C122.9 114.23 122.785 114.29 122.681 114.36C122.574 114.433 122.473 114.514 122.384 114.605C122.293 114.694 122.212 114.793 122.139 114.902C122.069 115.006 122.009 115.121 121.96 115.238C121.913 115.355 121.874 115.48 121.85 115.603C121.824 115.73 121.812 115.858 121.812 115.986C121.812 116.113 121.825 116.241 121.85 116.366C121.874 116.491 121.913 116.613 121.96 116.733C122.009 116.85 122.069 116.965 122.139 117.069C122.212 117.176 122.293 117.277 122.384 117.366C122.473 117.457 122.574 117.538 122.681 117.608C122.785 117.678 122.9 117.741 123.017 117.788C123.134 117.837 123.259 117.876 123.381 117.9C123.509 117.926 123.637 117.939 123.765 117.939C123.892 117.939 124.02 117.926 124.147 117.9C124.27 117.876 124.395 117.837 124.512 117.788C124.629 117.741 124.744 117.678 124.848 117.608C124.957 117.538 125.056 117.457 125.145 117.366C125.236 117.277 125.317 117.176 125.39 117.069C125.46 116.965 125.52 116.85 125.569 116.733C125.616 116.613 125.655 116.491 125.679 116.366C125.705 116.241 125.718 116.113 125.718 115.986C125.718 115.858 125.705 115.73 125.679 115.603C125.655 115.48 125.616 115.355 125.569 115.238C125.52 115.121 125.46 115.006 125.39 114.902C125.317 114.793 125.236 114.694 125.145 114.605C125.056 114.514 124.957 114.433 124.848 114.36C124.744 114.29 124.629 114.23 124.512 114.181C124.395 114.134 124.27 114.095 124.147 114.071C123.895 114.019 123.634 114.019 123.382 114.071C123.259 114.095 123.134 114.134 123.017 114.181Z" fill="#434040"/>
<path d="M127.616 106.229C127.666 106.346 127.726 106.461 127.796 106.565C127.867 106.672 127.95 106.773 128.038 106.862C128.13 106.953 128.228 107.034 128.335 107.104C128.442 107.175 128.557 107.237 128.674 107.284C128.791 107.333 128.914 107.373 129.039 107.396C129.166 107.422 129.294 107.435 129.421 107.435C129.549 107.435 129.677 107.422 129.802 107.396C129.927 107.373 130.049 107.333 130.169 107.284C130.286 107.237 130.398 107.175 130.505 107.104C130.612 107.034 130.711 106.953 130.802 106.862C130.89 106.773 130.974 106.672 131.044 106.565C131.115 106.461 131.174 106.346 131.224 106.229C131.273 106.112 131.31 105.987 131.336 105.862C131.362 105.737 131.375 105.609 131.375 105.482C131.375 105.354 131.362 105.226 131.336 105.099C131.31 104.976 131.273 104.851 131.224 104.734C131.174 104.617 131.114 104.502 131.044 104.398C130.974 104.291 130.89 104.19 130.802 104.101C130.711 104.01 130.612 103.929 130.505 103.856C130.398 103.786 130.286 103.726 130.169 103.677C130.049 103.63 129.927 103.591 129.802 103.567C129.552 103.515 129.291 103.515 129.039 103.567C128.914 103.591 128.791 103.63 128.674 103.677C128.557 103.726 128.442 103.786 128.335 103.856C128.229 103.929 128.13 104.01 128.038 104.101C127.95 104.19 127.867 104.291 127.796 104.398C127.726 104.502 127.666 104.617 127.616 104.734C127.567 104.851 127.531 104.976 127.504 105.099C127.481 105.226 127.468 105.354 127.468 105.482C127.468 105.609 127.481 105.737 127.504 105.862C127.531 105.987 127.567 106.112 127.616 106.229Z" fill="#434040"/>
<path d="M114.076 114.902C114.006 114.795 113.925 114.694 113.834 114.605C113.381 114.15 112.706 113.944 112.07 114.071C111.946 114.095 111.823 114.134 111.706 114.181C111.589 114.23 111.474 114.29 111.367 114.361C111.261 114.433 111.162 114.514 111.07 114.605C110.982 114.694 110.901 114.795 110.828 114.902C110.758 115.006 110.698 115.121 110.648 115.238C110.599 115.355 110.563 115.48 110.539 115.603C110.513 115.73 110.5 115.858 110.5 115.986C110.5 116.113 110.513 116.241 110.539 116.369C110.563 116.491 110.599 116.616 110.648 116.733C110.698 116.85 110.758 116.965 110.828 117.069C110.901 117.176 110.982 117.278 111.07 117.366C111.162 117.457 111.26 117.538 111.367 117.611C111.474 117.681 111.589 117.741 111.706 117.788C111.823 117.837 111.946 117.877 112.07 117.9C112.198 117.926 112.326 117.939 112.453 117.939C112.581 117.939 112.709 117.926 112.834 117.9C112.959 117.877 113.081 117.837 113.201 117.788C113.318 117.741 113.43 117.681 113.537 117.611C113.644 117.538 113.745 117.457 113.834 117.366C113.925 117.278 114.006 117.176 114.076 117.069C114.147 116.965 114.209 116.85 114.256 116.733C114.305 116.616 114.342 116.491 114.368 116.369C114.394 116.241 114.407 116.113 114.407 115.986C114.407 115.858 114.394 115.73 114.368 115.603C114.342 115.48 114.305 115.355 114.256 115.238C114.209 115.121 114.146 115.006 114.076 114.902Z" fill="#434040"/>
</g>
<defs>
<linearGradient id="paint0_linear_946_323431" x1="123.012" y1="9.8877" x2="123.012" y2="214.233" gradientUnits="userSpaceOnUse">
<stop stop-color="#53BFCD"/>
<stop offset="0.739583" stop-color="#BAD694" stop-opacity="0.15"/>
<stop offset="1" stop-color="#BAD694"/>
</linearGradient>
</defs>
</svg>
