<svg width="246" height="215" viewBox="0 0 246 215" fill="none" xmlns="http://www.w3.org/2000/svg">
<path fill-rule="evenodd" clip-rule="evenodd" d="M121.775 11.5264C140.386 16.1766 151.529 34.5615 164.207 48.9725C173.721 59.7878 175.937 75.3585 186.522 85.1258C203.607 100.891 237.037 100.34 243.944 122.55C250.103 142.359 228.511 160.735 214.896 176.375C202.88 190.178 188.057 201.989 170.457 206.967C154.51 211.477 138.33 201.967 121.775 202.712C104.154 203.505 85.458 220.825 70.4985 211.467C55.3596 201.996 66.1235 175.161 55.172 161.048C41.4365 143.347 6.44496 144.412 1.50265 122.55C-3.00961 102.59 24.0463 89.6613 35.1493 72.4789C45.6019 56.3031 49.313 35.2755 65.057 24.1976C81.1801 12.8529 102.655 6.74868 121.775 11.5264Z" fill="url(#paint0_linear_946_319735)" fill-opacity="0.5"/>
<path fill-rule="evenodd" clip-rule="evenodd" d="M121.759 2.63867C140.369 7.2889 151.513 25.6738 164.19 40.0848C173.704 50.9001 175.92 66.4708 186.505 76.2381C203.59 92.0033 237.021 91.452 243.927 113.662C250.087 133.471 228.495 151.847 214.879 167.488C202.864 181.291 188.04 193.101 170.441 198.079C154.494 202.589 138.313 193.079 121.759 193.824C104.137 194.618 85.4414 211.937 70.4819 202.579C55.3429 193.109 66.1069 166.274 55.1554 152.16C41.4199 134.459 6.42836 135.524 1.48604 113.662C-3.02621 93.7027 24.0297 80.7736 35.1327 63.5912C45.5853 47.4154 49.2964 26.3878 65.0404 15.3099C81.1635 3.9652 102.638 -2.13901 121.759 2.63867Z" stroke="black" stroke-opacity="0.1"/>
<g opacity="0.8" clip-path="url(#clip0_946_319735)">
<path d="M173.828 89.189C179.572 88.6481 184.083 83.7978 184.083 77.9105C184.083 71.6639 179.003 66.5812 172.76 66.5812H172.358C171.894 63.9349 170.716 61.597 168.926 59.8375C166.543 57.4955 163.161 56.2982 159.144 56.3661L158.267 56.3824C146.254 56.5995 143.756 56.6452 123.948 46.488C111.445 40.074 97.0064 40.1643 86.2668 46.7254C78.7193 51.3352 74.0842 58.4717 73.2693 66.5802H72.5185C66.2749 66.5802 61.1953 71.6629 61.1953 77.9105C61.1953 83.7978 65.7057 88.6481 71.45 89.189L69.0258 144.424C62.9579 155.097 61.4673 163.256 64.5946 168.679C66.1897 171.444 69.7554 174.74 77.6914 174.74H167.594C175.53 174.74 179.096 171.444 180.691 168.679C183.817 163.256 182.323 155.095 176.252 144.423L173.828 89.189ZM66.3856 77.9105C66.3856 74.5254 69.1364 71.7715 72.5185 71.7715H112.271C113.703 71.7715 114.865 70.6096 114.865 69.1758C114.865 67.7431 113.703 66.5812 112.271 66.5812H78.4961C79.3018 60.3164 83.0187 54.7913 88.972 51.1546C98.1795 45.5301 110.674 45.5118 121.58 51.1069C142.549 61.8588 145.898 61.7969 158.361 61.5716L159.237 61.5554C161.861 61.5097 163.902 62.1774 165.288 63.5391C166.088 64.3245 166.681 65.3768 167.031 66.5802H133.007C131.575 66.5802 130.413 67.7431 130.413 69.1758C130.413 70.6086 131.575 71.7705 133.007 71.7705H172.76C176.142 71.7705 178.893 74.5254 178.893 77.9105C178.893 81.2955 176.142 84.0495 172.76 84.0495H72.5185C69.1364 84.0505 66.3856 81.2966 66.3856 77.9105ZM176.193 166.087C174.543 168.949 170.606 169.55 167.594 169.55H77.6914C74.6788 169.55 70.7417 168.949 69.0908 166.087C66.9639 162.399 68.6494 155.431 73.8366 146.467C74.0466 146.105 74.1653 145.698 74.1836 145.281L76.6422 89.2407H168.635L171.094 145.281C171.113 145.699 171.231 146.106 171.44 146.467C176.632 155.432 178.32 162.4 176.193 166.087Z" fill="#474747"/>
<path d="M139.457 112.253C137.628 110.423 134.814 109.992 131.494 111.011C131.532 110.49 131.555 109.963 131.555 109.432C131.555 101.766 127.613 95.7603 122.58 95.7603C117.551 95.7603 113.612 101.766 113.612 109.432C113.612 109.963 113.636 110.49 113.674 111.011C110.354 109.992 107.538 110.423 105.711 112.253C103.063 114.903 103.409 119.558 106.405 124.441C106.161 124.619 105.928 124.813 105.711 125.032C102.15 128.594 104.147 135.965 110.356 142.18C113.241 145.059 116.506 147.15 119.571 148.084C119.706 148.139 119.845 148.188 119.985 148.235V155.095C119.985 156.528 121.147 157.69 122.58 157.69C124.013 157.69 125.175 156.528 125.175 155.095V148.236C125.317 148.189 125.457 148.14 125.593 148.083C128.66 147.149 131.927 145.059 134.814 142.178C141.021 135.965 143.018 128.594 139.457 125.032C139.24 124.813 139.007 124.619 138.763 124.441C141.758 119.557 142.105 114.903 139.457 112.253ZM135.786 115.922C136.438 116.574 136.05 119.632 133.199 123.385C132.495 123.499 131.763 123.682 131.005 123.944C129.085 124.606 127.087 125.721 125.176 127.177V121.43C125.43 121.15 125.7 120.865 125.99 120.571C127.035 119.526 128.161 118.597 129.291 117.836C129.293 117.835 129.295 117.834 129.296 117.832C130.452 117.054 131.613 116.449 132.699 116.075C134.354 115.502 135.459 115.595 135.786 115.922ZM122.58 100.95C124.087 100.95 126.365 104.334 126.365 109.432C126.365 111.068 126.129 112.638 125.682 114.024C124.62 114.794 123.578 115.672 122.583 116.639C121.591 115.672 120.549 114.794 119.484 114.023C119.038 112.637 118.803 111.067 118.803 109.432C118.803 104.334 121.077 100.95 122.58 100.95ZM109.382 115.922C109.709 115.595 110.815 115.502 112.47 116.075C113.542 116.445 114.689 117.04 115.832 117.804C115.843 117.812 115.854 117.82 115.866 117.828C116.997 118.589 118.123 119.516 119.165 120.557C119.448 120.844 119.722 121.135 119.985 121.428V127.172C118.076 125.718 116.081 124.605 114.162 123.944C113.404 123.682 112.673 123.499 111.969 123.385C109.118 119.632 108.73 116.574 109.382 115.922ZM114.025 138.509C109.334 133.814 108.633 129.449 109.382 128.7C109.71 128.372 110.815 128.28 112.47 128.85C114.617 129.591 117.061 131.229 119.177 133.347C119.453 133.622 119.722 133.909 119.985 134.202V142.714C118.034 141.884 115.922 140.401 114.025 138.509ZM131.146 138.507C129.246 140.402 127.129 141.886 125.176 142.716V134.203C125.434 133.918 125.706 133.633 125.991 133.347C128.106 131.229 130.551 129.591 132.698 128.85C134.353 128.28 135.459 128.372 135.786 128.7C136.535 129.449 135.833 133.814 131.146 138.507Z" fill="#474747"/>
<path d="M122.639 71.7718H122.69C124.123 71.7718 125.285 70.6099 125.285 69.1762C125.285 67.7434 124.123 66.5815 122.69 66.5815H122.639C121.205 66.5815 120.044 67.7434 120.044 69.1762C120.044 70.6099 121.205 71.7718 122.639 71.7718Z" fill="#474747"/>
</g>
<defs>
<linearGradient id="paint0_linear_946_319735" x1="123.012" y1="9.8877" x2="123.012" y2="214.233" gradientUnits="userSpaceOnUse">
<stop stop-color="#53BFCD"/>
<stop offset="0.739583" stop-color="#BAD694" stop-opacity="0.15"/>
<stop offset="1" stop-color="#BAD694"/>
</linearGradient>
<clipPath id="clip0_946_319735">
<rect width="133" height="133" fill="white" transform="translate(56 42)"/>
</clipPath>
</defs>
</svg>
