<svg width="28" height="32" viewBox="0 0 28 32" fill="none" xmlns="http://www.w3.org/2000/svg">
<g clip-path="url(#clip0_600_8740)">
<path d="M19.8054 8.88013V22.2991H11.4654C11.4313 21.6937 11.1968 21.1257 10.8095 20.7107C10.4223 20.2957 9.91128 20.0648 9.3804 20.0648C8.84952 20.0648 8.33854 20.2957 7.95128 20.7107C7.56401 21.1257 7.32951 21.6937 7.2954 22.2991H5.18018V8.88013H19.8054Z" fill="#F4F4F4" stroke="#535353" stroke-linecap="round" stroke-linejoin="round"/>
<path d="M26.7638 17.563V22.2991H25.3738C25.3397 21.6937 25.1052 21.1257 24.7179 20.7107C24.3307 20.2957 23.8197 20.0648 23.2888 20.0648C22.7579 20.0648 22.247 20.2957 21.8597 20.7107C21.4724 21.1257 21.2379 21.6937 21.2038 22.2991H19.8052V12.8269H22.7147L26.7638 17.563Z" fill="#F4F4F4" stroke="#535353" stroke-linecap="round" stroke-linejoin="round"/>
<path d="M26.7638 17.5632V22.2994H25.3738C25.3397 21.6939 25.1052 21.126 24.7179 20.7109C24.3307 20.2959 23.8197 20.065 23.2888 20.065C22.7579 20.065 22.247 20.2959 21.8597 20.7109C21.4724 21.126 21.2379 21.6939 21.2038 22.2994H19.8052V17.5632H26.7638Z" stroke="#535353" stroke-linecap="round" stroke-linejoin="round"/>
<path d="M9.37594 24.6673C10.5298 24.6673 11.4653 23.6071 11.4653 22.2992C11.4653 20.9914 10.5298 19.9312 9.37594 19.9312C8.22204 19.9312 7.28662 20.9914 7.28662 22.2992C7.28662 23.6071 8.22204 24.6673 9.37594 24.6673Z" fill="#F4F4F4" stroke="#535353" stroke-linecap="round" stroke-linejoin="round"/>
<path d="M23.2846 24.6673C24.4385 24.6673 25.374 23.6071 25.374 22.2992C25.374 20.9914 24.4385 19.9312 23.2846 19.9312C22.1307 19.9312 21.1953 20.9914 21.1953 22.2992C21.1953 23.6071 22.1307 24.6673 23.2846 24.6673Z" fill="#F4F4F4" stroke="#535353" stroke-linecap="round" stroke-linejoin="round"/>
<path d="M0.863281 10.459H3.11664" stroke="#535353" stroke-linecap="round" stroke-linejoin="round"/>
<path d="M0.863281 13.6165H3.11664" stroke="#535353" stroke-linecap="round" stroke-linejoin="round"/>
<path d="M0.863281 16.7737H3.11664" stroke="#535353" stroke-linecap="round" stroke-linejoin="round"/>
</g>
<defs>
<clipPath id="clip0_600_8740">
<rect width="27.6274" height="31.5741" rx="13.8137" fill="white"/>
</clipPath>
</defs>
</svg>
