<svg width="189" height="64" viewBox="0 0 189 64" fill="none" xmlns="http://www.w3.org/2000/svg">
<path fill-rule="evenodd" clip-rule="evenodd" d="M0 11.7329C0.0135194 11.7638 0.0405584 11.7928 0.0424898 11.8256C0.2588 15.4121 0.303221 18.9986 0.0193139 22.5832C0.0135198 18.9658 0.00772537 15.3503 0 11.7329Z" fill="white"/>
<path fill-rule="evenodd" clip-rule="evenodd" d="M170.115 9.06765C170.115 8.43996 169.522 8.13867 168.338 8.13867C167.152 8.13867 166.561 8.43996 166.561 9.06765V25.2909C166.561 25.9186 167.154 26.2199 168.338 26.2199C169.524 26.2199 170.115 25.9186 170.115 25.2909V9.06765ZM183.485 20.4452C183.485 22.4789 182.064 23.7594 179.959 23.7594C177.855 23.7594 176.432 22.4789 176.432 20.4452V13.9153C176.432 11.8816 177.853 10.6011 179.959 10.6011C182.062 10.6011 183.485 11.8816 183.485 13.9153V20.4452ZM187.012 13.8149C187.012 12.0825 186.33 10.6765 184.997 9.62001C183.665 8.5655 181.975 8.03824 179.961 8.03824C177.946 8.03824 176.256 8.5655 174.924 9.62001C173.591 10.6745 172.909 12.0805 172.909 13.8149V20.5456C172.909 22.278 173.591 23.684 174.924 24.7405C176.256 25.795 177.946 26.3223 179.961 26.3223C181.975 26.3223 183.665 25.795 184.997 24.7405C186.33 23.686 187.012 22.28 187.012 20.5456V13.8149ZM186.328 0.0193131C179.256 0.0270385 171.907 0.0309022 164.834 0.0309022C164.757 0.0309022 164.705 1.31331 164.707 1.41567C164.711 1.56825 164.734 2.92791 164.742 3.07856C164.761 3.57298 164.786 4.06934 164.788 4.56569C164.805 8.49404 164.471 12.235 164.011 16.2967C163.695 19.0952 164 20.8257 164.591 23.0351C165.584 26.7414 167.637 29.4858 170.13 32.3577C170.709 33.024 171.577 34.0959 171.88 34.2137C177.345 34.2311 182.811 34.2485 188.277 34.2659C188.277 22.8439 188.277 11.422 188.277 0C187.626 0.00772537 186.977 0.0173818 186.328 0.0193131Z" fill="#55BECC"/>
<path fill-rule="evenodd" clip-rule="evenodd" d="M40.3399 20.8255C40.3399 22.5579 41.0217 23.9639 42.3543 25.0203C43.687 26.0749 45.3769 26.6021 47.3913 26.6021C49.4057 26.6021 51.0956 26.1 52.4282 25.0706C53.7608 24.0412 54.4426 22.6854 54.4426 20.9761V20.7753C54.4426 20.1476 53.8497 19.8463 52.6658 19.8463C51.4799 19.8463 50.8889 20.1476 50.8889 20.7753V20.8506C50.8889 22.7839 49.4366 24.0392 47.3932 24.0392C45.29 24.0392 43.8975 22.7587 43.8975 20.725V14.1952C43.8975 12.1615 45.29 10.881 47.3932 10.881C49.4385 10.881 50.8889 12.1364 50.8889 14.0696V14.145C50.8889 14.7726 51.4818 15.0739 52.6658 15.0739C53.8516 15.0739 54.4426 14.7726 54.4426 14.145V13.9441C54.4426 12.2368 53.7608 10.881 52.4282 9.84966C51.0956 8.82026 49.4057 8.31811 47.3913 8.31811C45.3769 8.31811 43.6889 8.84536 42.3543 9.89988C41.0217 10.9544 40.3399 12.3604 40.3399 14.0947V20.8255ZM68.7017 25.5727C68.7017 26.2004 69.2946 26.5017 70.4785 26.5017C71.6644 26.5017 72.2554 26.2004 72.2554 25.5727V14.0967C72.2554 12.3643 71.5736 10.9582 70.2101 9.90181C68.8774 8.84729 67.1875 8.32004 65.1731 8.32004C63.1587 8.32004 61.4688 8.84729 60.1072 9.90181C58.7746 10.9563 58.0928 12.3623 58.0928 14.0967V25.5727C58.0928 26.2004 58.6857 26.5017 59.8697 26.5017C61.0555 26.5017 61.6465 26.2004 61.6465 25.5727V20.0974H68.6978V25.5727H68.7017ZM61.6504 14.1952C61.6504 12.1615 63.0718 10.881 65.177 10.881C67.2802 10.881 68.7036 12.1615 68.7036 14.1952V17.5345H61.6523V14.1952H61.6504ZM73.841 1.23395C73.8429 0.391881 73.615 0.117631 72.7517 0.123425C66.3937 0.156258 60.0338 -0.0774342 53.6778 0.221924C49.3767 0.424715 45.4928 1.77472 42.6827 5.14491C39.0633 9.48464 34.43 11.4585 28.9315 11.5029C19.6649 11.5763 10.3983 11.5203 1.13177 11.5338C0.757086 11.5338 0.312877 11.3291 0 11.7366C0.142919 15.354 0.104293 18.9695 0.0193139 22.5869C0.407514 22.919 0.871036 22.753 1.29593 22.7549C10.9391 22.7858 20.5842 22.695 30.2236 22.8708C42.4992 23.0948 41.4524 33.665 53.4634 33.8794C59.887 33.9934 66.3107 34.1363 72.7343 34.2927C73.6015 34.314 73.841 33.9702 73.8391 33.1416C73.8178 22.5038 73.8159 11.8679 73.841 1.23395Z" fill="#55BECC"/>
<path fill-rule="evenodd" clip-rule="evenodd" d="M82.6958 11.1824C84.799 11.1824 85.8361 12.1113 85.8361 13.9693C85.8361 15.8272 84.799 16.7562 82.6958 16.7562H79.8818V11.1804H82.6958V11.1824ZM99.2068 11.1824C101.399 11.1824 102.496 12.1867 102.496 14.2204C102.496 16.2541 101.399 17.2584 99.2068 17.2584H96.7482V11.1804H99.2068V11.1824ZM99.5332 19.8213C103.562 19.8213 106.051 17.8378 106.051 14.2204C106.051 10.6049 103.562 8.61948 99.5332 8.61948H94.3186C93.5769 8.61948 93.1926 8.94588 93.1926 9.57356V25.5709C93.1926 26.1986 93.7855 26.4998 94.9694 26.4998C96.1553 26.4998 96.7463 26.1986 96.7463 25.5709V19.8193H99.5332V19.8213ZM119.749 25.5728C119.749 26.2005 120.341 26.5018 121.525 26.5018C122.711 26.5018 123.302 26.2005 123.302 25.5728V14.0968C123.302 12.3644 122.62 10.9583 121.259 9.90189C119.926 8.84738 118.236 8.32012 116.222 8.32012C114.208 8.32012 112.518 8.84738 111.156 9.90189C109.823 10.9564 109.142 12.3624 109.142 14.0968V25.5728C109.142 26.2005 109.735 26.5018 110.918 26.5018C112.104 26.5018 112.695 26.2005 112.695 25.5728V20.0974H119.747V25.5728H119.749ZM112.697 14.1953C112.697 12.1616 114.119 10.8811 116.224 10.8811C118.327 10.8811 119.749 12.1616 119.749 14.1953V17.5346H112.697V14.1953ZM127.074 20.8256C127.074 22.558 127.756 23.964 129.089 25.0204C130.421 26.0749 132.111 26.6022 134.125 26.6022C136.14 26.6022 137.83 26.1001 139.162 25.0706C140.495 24.0412 141.177 22.6854 141.177 20.9762V20.7753C141.177 20.1477 140.584 19.8464 139.4 19.8464C138.214 19.8464 137.623 20.1477 137.623 20.7753V20.8507C137.623 22.7839 136.171 24.0393 134.127 24.0393C132.024 24.0393 130.632 22.7588 130.632 20.7251V14.1953C130.632 12.1616 132.024 10.8811 134.127 10.8811C136.173 10.8811 137.623 12.1365 137.623 14.0697V14.145C137.623 14.7727 138.216 15.074 139.4 15.074C140.586 15.074 141.177 14.7727 141.177 14.145V13.9442C141.177 12.2369 140.495 10.8811 139.162 9.84975C137.83 8.82034 136.14 8.31819 134.125 8.31819C132.111 8.31819 130.421 8.84545 129.089 9.89996C127.756 10.9545 127.074 12.3605 127.074 14.0948V20.8256ZM162.561 26.0749C161.348 23.3189 160.515 20.1071 160.894 17.0479C161.431 12.712 161.912 8.73536 161.834 4.35894C161.809 2.92782 161.647 1.51794 161.79 0.0790895C134.761 0.0790895 107.626 0.0675004 80.5945 0.0675004C79.399 0.0675004 78.2035 0.046256 77.008 0.034668C76.641 0.283811 76.8303 0.658492 76.8264 0.967506C76.809 3.14799 76.7955 5.84221 76.7859 8.74695C76.9597 8.66197 77.1798 8.61948 77.4483 8.61948H82.9893C86.9293 8.61948 89.3898 10.4774 89.3898 13.9191C89.3898 15.8775 88.4705 17.2835 86.6048 18.1371C88.4705 19.041 89.3898 20.7483 89.3898 23.2359V25.5709C89.3898 26.1986 88.7969 26.4998 87.613 26.4998C86.4271 26.4998 85.8361 26.1986 85.8361 25.5709V24.1146C85.8361 20.926 84.7391 19.3172 82.576 19.3172H79.8799V25.5709C79.8799 26.1986 79.2869 26.4998 78.103 26.4998C77.5314 26.4998 77.0987 26.4303 76.8032 26.2874C76.8245 30.2215 76.8612 33.2364 76.9153 34.2252C76.9172 34.2484 76.9655 34.2696 76.9906 34.2909C106.658 34.287 136.327 34.2851 165.995 34.2793C166.815 34.2793 167.634 34.2561 168.453 34.2426C166.022 31.8593 163.942 29.2153 162.561 26.0749ZM144.533 20.8256C144.533 22.558 145.215 23.964 146.548 25.0204C147.88 26.0749 149.57 26.6022 151.585 26.6022C153.599 26.6022 155.289 26.1001 156.622 25.0706C157.954 24.0412 158.636 22.6854 158.636 20.9762V20.7753C158.636 20.1477 158.043 19.8464 156.859 19.8464C155.673 19.8464 155.082 20.1477 155.082 20.7753V20.8507C155.082 22.7839 153.63 24.0393 151.587 24.0393C149.483 24.0393 148.091 22.7588 148.091 20.7251V14.1953C148.091 12.1616 149.483 10.8811 151.587 10.8811C153.632 10.8811 155.082 12.1365 155.082 14.0697V14.145C155.082 14.7727 155.675 15.074 156.859 15.074C158.045 15.074 158.636 14.7727 158.636 14.145V13.9442C158.636 12.2369 157.954 10.8811 156.622 9.84975C155.289 8.82034 153.599 8.31819 151.585 8.31819C149.57 8.31819 147.88 8.84545 146.548 9.89996C145.215 10.9545 144.533 12.3605 144.533 14.0948V20.8256Z" fill="#332781"/>
<path d="M141.703 57.662C141.703 59.5818 140.409 60.646 138.506 60.646C136.604 60.646 135.31 59.5837 135.31 57.662V51.7637C135.31 49.844 136.604 48.7798 138.506 48.7798C140.409 48.7798 141.703 49.842 141.703 51.7637V57.662ZM141.703 46.551C140.731 45.8306 139.437 45.4888 137.819 45.4888C135.916 45.4888 134.259 46.0373 132.842 47.1015C131.467 48.1637 130.779 49.7068 130.779 51.7309V57.6987C130.779 59.6532 131.548 61.1964 133.044 62.2934C134.541 63.3904 136.362 63.9389 138.506 63.9389C140.65 63.9389 142.471 63.3904 143.968 62.2934C145.465 61.1964 146.234 59.6532 146.234 57.6987V39.4553C146.234 38.6325 145.465 38.2211 143.968 38.2211C142.471 38.2211 141.703 38.6325 141.703 39.4553V46.551ZM126.571 51.7289C126.571 49.7744 125.802 48.2313 124.305 47.1343C122.808 46.0373 120.987 45.4888 118.843 45.4888C116.7 45.4888 114.838 46.0373 113.341 47.1343C111.844 48.2313 111.116 49.7744 111.116 51.7289V57.6968C111.116 59.6513 111.844 61.1945 113.341 62.2915C114.838 63.3885 116.7 63.937 118.843 63.937C120.987 63.937 122.808 63.3885 124.305 62.2915C125.802 61.1945 126.571 59.6513 126.571 57.6968V51.7289ZM122.038 57.662C122.038 59.549 120.663 60.646 118.841 60.646C117.02 60.646 115.645 59.549 115.645 57.662V51.7637C115.645 49.8768 117.02 48.7798 118.841 48.7798C120.663 48.7798 122.038 49.8768 122.038 51.7637V57.662ZM106.908 51.7289C106.908 49.7744 106.139 48.2313 104.642 47.1343C103.145 46.0373 101.324 45.4888 99.1803 45.4888C97.0365 45.4888 95.1747 46.0373 93.6779 47.1343C92.1811 48.2313 91.453 49.7744 91.453 51.7289V57.6968C91.453 59.6513 92.1811 61.1945 93.6779 62.2915C95.1747 63.3885 97.0365 63.937 99.1803 63.937C101.324 63.937 103.145 63.3885 104.642 62.2915C106.139 61.1945 106.908 59.6513 106.908 57.6968V51.7289ZM102.375 57.662C102.375 59.549 101 60.646 99.1784 60.646C97.3571 60.646 95.982 59.549 95.982 57.662V51.7637C95.982 49.8768 97.3571 48.7798 99.1784 48.7798C101 48.7798 102.375 49.8768 102.375 51.7637V57.662ZM87.1635 49.1912C88.0133 49.1912 88.4575 48.6427 88.4575 47.5457C88.4575 46.4487 88.0539 45.9002 87.2041 45.9002H82.4703V43.739C82.4703 42.4701 83.4013 41.4407 84.898 41.4407C85.7073 41.4407 86.4354 41.6454 87.0824 42.024C87.3663 42.1958 87.6888 42.2634 88.0133 42.2634C89.1064 42.2634 89.9543 41.2012 89.9543 40.3437C89.9543 40.0694 89.8326 39.83 89.6298 39.6581C88.5367 38.6982 86.9588 38.2173 84.815 38.2173C80.4463 38.2173 77.9375 40.4808 77.9375 44.0132V45.9002H75.2259C74.3761 45.9002 73.9319 46.4487 73.9319 47.5457C73.9319 48.6427 74.3761 49.1912 75.2259 49.1912H77.9375V62.5657C77.9375 63.3885 78.7062 63.7998 80.203 63.7998C81.6997 63.7998 82.4684 63.3885 82.4684 62.5657V49.1912H87.1635Z" fill="#332781"/>
</svg>
