<svg width="48" height="48" viewBox="0 0 48 48" fill="none" xmlns="http://www.w3.org/2000/svg">
<rect width="48" height="48" rx="24" fill="#53BFCD"/>
<path d="M16.4631 19.3686L30.4007 19.3836C30.8979 19.3842 31.2481 20.0562 31.2982 20.8882L31.9962 32.4954C32.0462 33.3275 31.5959 34 31.0987 34H15.9001C15.4029 34 14.962 33.328 15.0026 32.4954L15.5657 20.9582C15.6063 20.1256 15.9659 19.3681 16.4631 19.3686Z" stroke="white" stroke-width="2" stroke-linecap="round" stroke-linejoin="round"/>
<path d="M27.887 18.5049C27.887 17.7127 27.6836 16.9346 27.2972 16.2489C26.9108 15.5632 26.3552 14.9943 25.6863 14.5995C25.0175 14.2046 24.259 13.9978 23.4875 14C22.716 14.0021 21.9586 14.2131 21.2919 14.6117C20.6251 15.0102 20.0725 15.5823 19.6898 16.2701C19.307 16.9579 19.1077 17.7372 19.1119 18.5293" stroke="white" stroke-width="2" stroke-linecap="round" stroke-linejoin="round"/>
</svg>
