<svg width="14" height="13" viewBox="0 0 14 13" fill="none" xmlns="http://www.w3.org/2000/svg">
<path d="M12.375 4.53125C12.9844 4.625 13.2188 5.375 12.7734 5.82031L10.3125 8.23438L10.8984 11.6328C10.9922 12.2422 10.3359 12.7109 9.79688 12.4297L6.75 10.8125L3.67969 12.4297C3.14062 12.7109 2.48438 12.2422 2.57812 11.6328L3.16406 8.23438L0.703125 5.82031C0.257812 5.375 0.492188 4.625 1.10156 4.53125L4.54688 4.03906L6.07031 0.921875C6.35156 0.359375 7.14844 0.382812 7.40625 0.921875L8.95312 4.03906L12.375 4.53125ZM9.09375 7.83594L11.4609 5.53906L8.20312 5.07031L6.75 2.11719L5.27344 5.07031L2.01562 5.53906L4.38281 7.83594L3.82031 11.0703L6.75 9.54688L9.65625 11.0703L9.09375 7.83594Z" fill="#AEAEAE"/>
</svg>
