<svg width="31" height="31" viewBox="0 0 31 31" fill="none" xmlns="http://www.w3.org/2000/svg">
<g clip-path="url(#clip0_809_8078)">
<mask id="path-1-inside-1_809_8078" fill="white">
<path d="M30.9989 14.8718L30.9617 13.8428L29.9458 14.0107C29.924 14.0144 29.9029 14.0173 29.8813 14.0206L29.4503 7.43237H26.6354V4.42737H25.0209V2.34298L28.2712 1.78577L27.965 0L22.1312 1.00017L22.4373 2.78594L23.209 2.65365V4.42737H21.3783V7.43237H18.5562L18.3255 11.4828C17.0894 12.5549 16.3097 14.1395 16.3224 15.8946C16.3302 16.9685 16.6409 18.0092 17.1961 18.9035L14.5757 18.9075V9.68023C14.5757 7.61861 12.8985 5.9414 10.8369 5.9414H10.0979C10.1583 5.45818 10.6315 3.4413 10.6113 3.09376C10.515 1.4478 9.20264 0.121275 7.55855 0.00811328C6.63582 -0.0552187 5.75692 0.255871 5.08339 0.88465C4.41926 1.50465 4.03829 2.38119 4.03829 3.28951C4.03829 3.55574 4.48356 5.47386 4.54465 5.94146H3.81839C1.75683 5.9414 0 7.61861 0 9.67684V31H30.9935L30.1321 17.8534C31.0449 16.5128 31.0017 14.9476 30.9989 14.8718ZM27.8883 15.7909C28.2214 15.8606 28.5993 15.9032 29.0258 15.9032C29.035 15.9032 29.0441 15.9032 29.0532 15.9031C28.9406 16.3185 28.7344 16.7941 28.3573 17.1705C28.1468 17.3807 27.8932 17.5454 27.5994 17.6658C27.7893 17.0886 27.889 16.4785 27.889 15.852C27.889 15.8316 27.8885 15.8113 27.8883 15.7909ZM23.1901 6.23923H24.8236V7.43237H23.1901V6.23923ZM20.2678 9.24424H21.3783H26.6355H27.7532L28.062 13.9645C27.8008 13.8902 27.6111 13.7951 27.4828 13.714C27.1909 12.9795 26.7471 12.3066 26.1665 11.7341C25.0559 10.6388 23.5854 10.0482 22.0237 10.0692C21.3866 10.0781 20.7742 10.1911 20.2025 10.3916L20.2678 9.24424ZM12.7638 13.759H1.87665L1.88349 11.7882H12.7638V13.759H12.7638ZM3.81839 7.75327H6.43577L6.41948 6.83138C6.3989 5.66198 5.8501 4.5504 5.8501 3.28951C5.8501 2.87555 6.01691 2.49187 6.3197 2.20911C6.62219 1.92672 7.01811 1.78722 7.43401 1.81568C8.15887 1.86557 8.80236 2.47219 8.80236 3.19948C8.80236 4.185 8.23619 5.64061 8.23377 6.84555L8.23189 7.75333H10.8367C11.8993 7.75333 12.7637 8.61776 12.7637 9.68029V9.97649H1.89033L1.89142 9.68029C1.89142 8.6177 2.75585 7.75327 3.81839 7.75327ZM1.82422 27.7259H3.90037V25.9141H1.831L1.83778 24.1024H3.90031V22.2906H1.84462L1.8514 20.4785H3.90037V18.6666H1.85824L1.86987 15.5708H12.7638V18.8896C12.3368 18.8294 11.9423 18.6338 11.6316 18.3236C11.2522 17.9448 11.0433 17.441 11.0433 16.9049H9.23146V23.1756C9.23146 25.5897 10.3281 27.7517 12.0482 29.1881H1.81871L1.82422 27.7259ZM17.0381 29.1881C13.7325 29.1881 11.0433 26.491 11.0433 23.1756V20.1544C11.6399 20.524 12.3286 20.7216 13.0479 20.7216H13.0539L22.0421 20.7079L19.7811 19.0723C18.7591 18.3329 18.1434 17.14 18.1343 15.8815C18.1185 13.7058 19.8746 11.9111 22.0489 11.8809C22.0679 11.8807 22.0868 11.8806 22.1058 11.8806C23.1568 11.8806 24.1451 12.2854 24.8942 13.0242C25.657 13.7765 26.0772 14.7808 26.0772 15.8521C26.0772 16.9295 25.6526 17.938 24.8817 18.6918L24.4417 19.1219L26.0103 22.8679L26.0286 22.9089C26.2887 23.4528 26.5345 24.538 26.5345 25.1419C26.5345 26.2144 26.1134 27.2283 25.3488 27.9968C24.5843 28.765 23.5747 29.1882 22.5061 29.1882L17.0381 29.1881ZM26.7255 29.1881C27.729 28.1357 28.3463 26.7098 28.3463 25.1419C28.3463 24.2754 28.0454 22.9396 27.6734 22.1489L26.6495 19.7034C27.3009 19.6625 27.8892 19.5255 28.4107 19.2929L29.059 29.1882L26.7255 29.1881Z"/>
</mask>
<path d="M30.9989 14.8718L30.9617 13.8428L29.9458 14.0107C29.924 14.0144 29.9029 14.0173 29.8813 14.0206L29.4503 7.43237H26.6354V4.42737H25.0209V2.34298L28.2712 1.78577L27.965 0L22.1312 1.00017L22.4373 2.78594L23.209 2.65365V4.42737H21.3783V7.43237H18.5562L18.3255 11.4828C17.0894 12.5549 16.3097 14.1395 16.3224 15.8946C16.3302 16.9685 16.6409 18.0092 17.1961 18.9035L14.5757 18.9075V9.68023C14.5757 7.61861 12.8985 5.9414 10.8369 5.9414H10.0979C10.1583 5.45818 10.6315 3.4413 10.6113 3.09376C10.515 1.4478 9.20264 0.121275 7.55855 0.00811328C6.63582 -0.0552187 5.75692 0.255871 5.08339 0.88465C4.41926 1.50465 4.03829 2.38119 4.03829 3.28951C4.03829 3.55574 4.48356 5.47386 4.54465 5.94146H3.81839C1.75683 5.9414 0 7.61861 0 9.67684V31H30.9935L30.1321 17.8534C31.0449 16.5128 31.0017 14.9476 30.9989 14.8718ZM27.8883 15.7909C28.2214 15.8606 28.5993 15.9032 29.0258 15.9032C29.035 15.9032 29.0441 15.9032 29.0532 15.9031C28.9406 16.3185 28.7344 16.7941 28.3573 17.1705C28.1468 17.3807 27.8932 17.5454 27.5994 17.6658C27.7893 17.0886 27.889 16.4785 27.889 15.852C27.889 15.8316 27.8885 15.8113 27.8883 15.7909ZM23.1901 6.23923H24.8236V7.43237H23.1901V6.23923ZM20.2678 9.24424H21.3783H26.6355H27.7532L28.062 13.9645C27.8008 13.8902 27.6111 13.7951 27.4828 13.714C27.1909 12.9795 26.7471 12.3066 26.1665 11.7341C25.0559 10.6388 23.5854 10.0482 22.0237 10.0692C21.3866 10.0781 20.7742 10.1911 20.2025 10.3916L20.2678 9.24424ZM12.7638 13.759H1.87665L1.88349 11.7882H12.7638V13.759H12.7638ZM3.81839 7.75327H6.43577L6.41948 6.83138C6.3989 5.66198 5.8501 4.5504 5.8501 3.28951C5.8501 2.87555 6.01691 2.49187 6.3197 2.20911C6.62219 1.92672 7.01811 1.78722 7.43401 1.81568C8.15887 1.86557 8.80236 2.47219 8.80236 3.19948C8.80236 4.185 8.23619 5.64061 8.23377 6.84555L8.23189 7.75333H10.8367C11.8993 7.75333 12.7637 8.61776 12.7637 9.68029V9.97649H1.89033L1.89142 9.68029C1.89142 8.6177 2.75585 7.75327 3.81839 7.75327ZM1.82422 27.7259H3.90037V25.9141H1.831L1.83778 24.1024H3.90031V22.2906H1.84462L1.8514 20.4785H3.90037V18.6666H1.85824L1.86987 15.5708H12.7638V18.8896C12.3368 18.8294 11.9423 18.6338 11.6316 18.3236C11.2522 17.9448 11.0433 17.441 11.0433 16.9049H9.23146V23.1756C9.23146 25.5897 10.3281 27.7517 12.0482 29.1881H1.81871L1.82422 27.7259ZM17.0381 29.1881C13.7325 29.1881 11.0433 26.491 11.0433 23.1756V20.1544C11.6399 20.524 12.3286 20.7216 13.0479 20.7216H13.0539L22.0421 20.7079L19.7811 19.0723C18.7591 18.3329 18.1434 17.14 18.1343 15.8815C18.1185 13.7058 19.8746 11.9111 22.0489 11.8809C22.0679 11.8807 22.0868 11.8806 22.1058 11.8806C23.1568 11.8806 24.1451 12.2854 24.8942 13.0242C25.657 13.7765 26.0772 14.7808 26.0772 15.8521C26.0772 16.9295 25.6526 17.938 24.8817 18.6918L24.4417 19.1219L26.0103 22.8679L26.0286 22.9089C26.2887 23.4528 26.5345 24.538 26.5345 25.1419C26.5345 26.2144 26.1134 27.2283 25.3488 27.9968C24.5843 28.765 23.5747 29.1882 22.5061 29.1882L17.0381 29.1881ZM26.7255 29.1881C27.729 28.1357 28.3463 26.7098 28.3463 25.1419C28.3463 24.2754 28.0454 22.9396 27.6734 22.1489L26.6495 19.7034C27.3009 19.6625 27.8892 19.5255 28.4107 19.2929L29.059 29.1882L26.7255 29.1881Z" fill="black" stroke="white" stroke-width="0.6" mask="url(#path-1-inside-1_809_8078)"/>
<path d="M22.6389 14.923L22.6389 14.923C22.6213 14.5295 22.9958 14.1738 23.3949 14.1738C23.8124 14.1738 24.1321 14.5152 24.151 14.9364L24.151 14.9364C24.1686 15.3299 23.794 15.6856 23.3949 15.6856C22.9774 15.6856 22.6577 15.3442 22.6389 14.923Z" fill="black" stroke="white" stroke-width="0.3"/>
<path d="M20.9906 26.0037H21.1406V25.8537V25.5783C21.1406 24.6484 20.3842 23.8921 19.4544 23.8921H15.8714H15.7214V24.0421V24.3175C15.7214 25.2474 16.4777 26.0037 17.4076 26.0037H20.9906ZM19.4544 22.3802C21.2177 22.3802 22.6525 23.815 22.6525 25.5783V27.5156H17.4076C15.6443 27.5156 14.2096 26.0808 14.2096 24.3175V22.3802H19.4544Z" fill="black" stroke="white" stroke-width="0.3"/>
</g>
<defs>
<clipPath id="clip0_809_8078">
<rect width="31" height="31" fill="white"/>
</clipPath>
</defs>
</svg>
