<svg width="31" height="31" viewBox="0 0 31 31" fill="none" xmlns="http://www.w3.org/2000/svg">
<g clip-path="url(#clip0_809_8048)">
<path d="M6.48438 18.4844C7.90987 18.4844 8.98438 17.8394 8.98438 16.9844C8.98438 16.1294 7.90987 15.4844 6.48438 15.4844C5.05887 15.4844 3.98438 16.1294 3.98438 16.9844C3.98438 17.8394 5.05887 18.4844 6.48438 18.4844ZM6.48438 16.4844C7.45237 16.4844 7.98438 16.8599 7.98438 16.9844C7.98438 17.1089 7.45237 17.4844 6.48438 17.4844C5.51638 17.4844 4.98438 17.1089 4.98438 16.9844C4.98438 16.8599 5.51638 16.4844 6.48438 16.4844Z" fill="black"/>
<path d="M15.2839 26.5844L14.0839 25.6844C12.8809 24.7814 11.0864 24.7819 9.88443 25.6844L9.17542 26.2159C8.71292 25.4644 7.89493 24.9844 6.98393 24.9844C6.82343 24.9844 6.67242 25.0614 6.57792 25.1924C6.48392 25.3229 6.45842 25.4904 6.50942 25.6429L6.95693 26.9844L6.50942 28.3264C6.45792 28.4789 6.48392 28.6464 6.57792 28.7769C6.67242 28.9074 6.82343 28.9844 6.98393 28.9844C7.89493 28.9844 8.71342 28.5039 9.17542 27.7529L9.88392 28.2844C10.4854 28.7359 11.2309 28.9844 11.9839 28.9844C12.7369 28.9844 13.4824 28.7354 14.0834 28.2844L15.2834 27.3844C15.4094 27.2899 15.4834 27.1419 15.4834 26.9844C15.4834 26.8269 15.4099 26.6789 15.2839 26.5844ZM7.74243 27.7914L7.95843 27.1429C7.99293 27.0399 7.99293 26.9294 7.95843 26.8264L7.74243 26.1779C8.06043 26.3519 8.31543 26.6334 8.45443 26.9849C8.31543 27.3354 8.06043 27.6174 7.74243 27.7914ZM13.4834 27.4844C12.6249 28.1294 11.3434 28.1299 10.4839 27.4844L9.81743 26.9844L10.4844 26.4844C11.3429 25.8394 12.6244 25.8389 13.4839 26.4844L14.1504 26.9844L13.4834 27.4844Z" fill="black"/>
<path d="M22.9844 0.484375C20.0444 0.484375 14.4844 1.00688 14.4844 2.98438V13.6694C13.3559 13.5469 12.1689 13.4844 10.9844 13.4844C5.76638 13.4844 0.484375 14.6864 0.484375 16.9844V27.9844C0.484375 30.2824 5.76638 31.4844 10.9844 31.4844C16.2024 31.4844 21.4844 30.2824 21.4844 27.9844V27.4459C21.9789 27.4689 22.4794 27.4844 22.9844 27.4844C25.9244 27.4844 31.4844 26.9619 31.4844 24.9844V2.98438C31.4844 1.00688 25.9244 0.484375 22.9844 0.484375ZM22.9844 1.48438C27.8559 1.48438 30.4844 2.54888 30.4844 2.98438C30.4844 3.41987 27.8559 4.48438 22.9844 4.48438C18.1129 4.48438 15.4844 3.41987 15.4844 2.98438C15.4844 2.54888 18.1129 1.48438 22.9844 1.48438ZM10.9844 14.4844C16.8699 14.4844 20.4844 15.9404 20.4844 16.9844C20.4844 18.0284 16.8699 19.4844 10.9844 19.4844C5.09888 19.4844 1.48438 18.0284 1.48438 16.9844C1.48438 15.9404 5.09888 14.4844 10.9844 14.4844ZM21.4844 16.9844C21.4844 16.5079 21.2544 16.0789 20.8474 15.6979C21.1219 15.5594 21.4239 15.4844 21.7344 15.4844H22.2344C22.6259 15.4844 23.0054 15.5989 23.3309 15.8164L23.5829 15.9844C24.0729 16.3114 24.6444 16.4844 25.2344 16.4844C25.8244 16.4844 26.3954 16.3114 26.8859 15.9844L26.9569 15.9369C26.7314 17.9299 25.0369 19.4844 22.9844 19.4844C22.4619 19.4844 21.9599 19.3809 21.4844 19.1874V16.9844ZM26.3309 15.1524C25.6794 15.5869 24.7889 15.5869 24.1374 15.1524L23.8859 14.9844C23.3959 14.6574 22.8244 14.4844 22.2344 14.4844H21.7344C21.1444 14.4844 20.5734 14.6574 20.0829 14.9844L19.9499 15.0729C19.6839 14.9294 19.3884 14.7954 19.0669 14.6714C19.4444 12.8294 21.0639 11.4844 22.9844 11.4844C24.9434 11.4844 26.5744 12.9009 26.9159 14.7624L26.3309 15.1524ZM3.98438 29.6119V22.6469C5.87787 23.1824 8.38037 23.4844 10.9844 23.4844C13.5889 23.4844 16.0914 23.1824 17.9844 22.6469V29.6119C16.3439 30.1134 13.9544 30.4844 10.9844 30.4844C8.01437 30.4844 5.62488 30.1134 3.98438 29.6119ZM18.9844 29.2524V21.9689C18.9844 21.8079 18.9069 21.6564 18.7754 21.5624C18.6439 21.4684 18.4759 21.4439 18.3234 21.4954C16.4744 22.1239 13.7999 22.4844 10.9844 22.4844C8.16988 22.4844 5.49487 22.1239 3.64538 21.4954C3.49237 21.4434 3.32438 21.4754 3.19338 21.5699C3.06188 21.6639 2.98438 21.8234 2.98438 21.9844V29.2524C2.01087 28.8384 1.48438 28.3819 1.48438 27.9844V18.5664C3.25887 19.8304 7.13788 20.4844 10.9844 20.4844C14.8309 20.4844 18.7099 19.8304 20.4844 18.5664V27.9844C20.4844 28.3819 19.9579 28.8384 18.9844 29.2524ZM22.9844 26.4844C22.4789 26.4844 21.9784 26.4684 21.4844 26.4449V22.4459C21.9789 22.4689 22.4794 22.4844 22.9844 22.4844C25.1544 22.4844 28.7489 22.1989 30.4844 21.2549V24.9844C30.4844 25.4199 27.8559 26.4844 22.9844 26.4844ZM22.9844 21.4844C22.4789 21.4844 21.9784 21.4684 21.4844 21.4449V20.2484C21.9669 20.4004 22.4674 20.4844 22.9844 20.4844C25.7414 20.4844 27.9844 18.2414 27.9844 15.4844C27.9844 12.7274 25.7414 10.4844 22.9844 10.4844C20.6259 10.4844 18.6334 12.1099 18.1174 14.3519C17.3274 14.1214 16.4359 13.9359 15.4844 13.7969V8.25488C17.2199 9.19888 20.8144 9.48438 22.9844 9.48438C25.1544 9.48438 28.7489 9.19888 30.4844 8.25488V19.9844C30.4844 20.4199 27.8559 21.4844 22.9844 21.4844ZM22.9844 8.48438C18.1129 8.48438 15.4844 7.41988 15.4844 6.98438V4.25488C17.2199 5.19888 20.8144 5.48438 22.9844 5.48438C25.1544 5.48438 28.7489 5.19888 30.4844 4.25488V6.98438C30.4844 7.41988 27.8559 8.48438 22.9844 8.48438Z" fill="black"/>
</g>
<defs>
<clipPath id="clip0_809_8048">
<rect width="31" height="31" fill="white"/>
</clipPath>
</defs>
</svg>
