<svg width="31" height="31" viewBox="0 0 31 31" fill="none" xmlns="http://www.w3.org/2000/svg">
<g clip-path="url(#clip0_809_7999)">
<path d="M13.2626 14.2925C13.2626 13.2505 12.4147 12.4026 11.3724 12.4026C10.3303 12.4026 9.48242 13.2505 9.48242 14.2925C9.48242 15.3348 10.3303 16.1827 11.3724 16.1827C12.4147 16.1827 13.2626 15.3348 13.2626 14.2925ZM10.3906 14.2925C10.3906 13.7514 10.831 13.3108 11.3724 13.3108C11.9138 13.3108 12.3544 13.7512 12.3544 14.2925C12.3544 14.8339 11.9138 15.2743 11.3724 15.2743C10.831 15.2743 10.3906 14.8339 10.3906 14.2925Z" fill="black"/>
<path d="M18.2623 20.3546C19.3043 20.3546 20.1522 19.5067 20.1522 18.4647C20.1522 17.4224 19.3043 16.5745 18.2623 16.5745C17.22 16.5745 16.3721 17.4224 16.3721 18.4647C16.3721 19.5067 17.22 20.3546 18.2623 20.3546ZM18.2623 17.4829C18.8034 17.4829 19.244 17.9233 19.244 18.4647C19.244 19.0058 18.8036 19.4464 18.2623 19.4464C17.7207 19.4464 17.2803 19.006 17.2803 18.4647C17.2803 17.9233 17.7207 17.4829 18.2623 17.4829Z" fill="black"/>
<path d="M30.719 12.1146L22.8867 8.88218C22.442 8.69864 21.9286 8.81666 21.609 9.17592L19.7806 11.2298V10.6111C19.7806 10.5579 19.7704 10.5032 19.7541 10.4578C18.3343 6.49626 15.8632 4.6562 14.8668 4.04908C14.5272 3.84213 14.1083 3.81824 13.7462 3.98522L11.8024 4.88089C11.4925 5.02374 11.3142 5.34563 11.3584 5.68171C11.4116 6.08662 11.1725 6.36428 10.9308 6.48916C10.8149 6.54923 10.4077 6.71763 10.0314 6.36925C9.73668 6.09679 9.31332 6.0282 8.95241 6.19447L0.263946 10.1986C0.10572 10.2714 0 10.433 0 10.6111V17.8826C0 18.454 0.464744 18.9187 1.03615 18.9187H9.61132C9.86226 18.9187 10.0654 18.7153 10.0654 18.4646C10.0654 18.2137 9.86226 18.0103 9.61132 18.0103H8.40914C8.30768 16.7544 7.25379 15.7635 5.97237 15.7635C4.69072 15.7635 3.63706 16.7544 3.5356 18.0103H1.03615C0.965674 18.0103 0.908201 17.9531 0.908201 17.8826V11.0652H18.8724V12.2501L13.7448 18.0103H11.7307C11.4798 18.0103 11.2766 18.2137 11.2766 18.4646C11.2766 18.7153 11.4798 18.9187 11.7307 18.9187H12.9364L12.6394 19.2525C12.4135 19.506 12.4017 19.8832 12.611 20.1493C12.8333 20.4322 12.8823 20.8 12.7415 21.1332C12.4932 21.7214 11.8092 21.8915 11.3215 21.5885C11.0375 21.412 10.6695 21.4653 10.4469 21.7153L9.84949 22.3867C9.40982 22.8805 9.58933 23.6624 10.2007 23.9148L17.8178 27.0583C17.9133 27.0982 18.0252 27.1051 18.1328 27.0699C18.1333 27.0696 18.1335 27.0696 18.134 27.0696L30.038 23.1185C30.6135 22.9274 30.9999 22.3919 30.9999 21.7857V18.9798C30.9999 18.7291 30.7968 18.5257 30.5458 18.5257C30.2949 18.5257 30.0917 18.7291 30.0917 18.9798V21.7857C30.0917 21.9998 29.9553 22.189 29.7521 22.2564L27.9395 22.8581C27.689 22.1076 26.9802 21.5651 26.1467 21.5651C25.1047 21.5651 24.2568 22.4127 24.2568 23.455C24.2568 23.6594 24.2892 23.859 24.3523 24.0487L19.4585 25.673L30.0917 13.7276V16.8604C30.0917 17.1113 30.2949 17.3145 30.5458 17.3145C30.7968 17.3145 30.9999 17.1113 30.9999 16.8604V12.5344C30.9999 12.3563 30.8907 12.1855 30.719 12.1146ZM5.97237 16.6717C6.75262 16.6717 7.39924 17.2563 7.49692 18.0103H4.44782C4.5455 17.2561 5.19188 16.6717 5.97237 16.6717ZM9.33248 7.01918C9.35873 7.00736 9.39066 7.01374 9.41455 7.03597C9.94504 7.52697 10.7042 7.62891 11.3483 7.2959C11.9651 6.97685 12.3187 6.34489 12.2695 5.66587L14.1263 4.80993C14.2134 4.76996 14.3136 4.7754 14.3943 4.8246C15.2566 5.35012 17.3246 6.88697 18.6659 10.1567H2.52452L9.33248 7.01918ZM26.1467 22.4733C26.5793 22.4733 26.9476 22.7545 27.0779 23.144L25.2146 23.7625C25.1818 23.6641 25.165 23.5605 25.165 23.455C25.165 22.9137 25.6054 22.4733 26.1467 22.4733ZM26.2373 11.2475C26.0562 11.739 25.5857 12.0803 25.037 12.0803C24.1061 12.0803 23.4874 11.112 23.8715 10.2712L26.2373 11.2475ZM10.5278 22.9905L11.0074 22.4517C11.9724 22.9262 13.1514 22.4972 13.5781 21.4865C13.8262 20.8993 13.7682 20.256 13.4281 19.7321L22.2874 9.77973C22.3505 9.70878 22.4524 9.6856 22.5402 9.72155L23.0331 9.92495C22.3983 11.3788 23.473 12.9885 25.037 12.9885C25.9637 12.9885 26.7595 12.4187 27.0772 11.5942L29.7812 12.7101L17.866 26.0957L10.5472 23.0752C10.5129 23.061 10.503 23.0184 10.5278 22.9905Z" fill="black"/>
<path d="M5.44434 13.0459C5.44434 13.7843 6.04507 14.3853 6.78346 14.3853C7.52208 14.3853 8.12282 13.7843 8.12282 13.0459C8.12282 12.3075 7.52208 11.7068 6.78346 11.7068C6.04507 11.7066 5.44434 12.3075 5.44434 13.0459ZM7.21462 13.0459C7.21462 13.2836 7.02115 13.4768 6.78346 13.4768C6.54577 13.4768 6.35254 13.2836 6.35254 13.0459C6.35254 12.8082 6.54577 12.615 6.78346 12.615C7.02115 12.615 7.21462 12.8082 7.21462 13.0459Z" fill="black"/>
<path d="M23.0501 17.9434C23.7887 17.9434 24.3894 17.3426 24.3894 16.604C24.3894 15.8656 23.7887 15.2649 23.0501 15.2649C22.3117 15.2649 21.7109 15.8656 21.7109 16.604C21.7109 17.3426 22.3117 17.9434 23.0501 17.9434ZM23.0501 16.1731C23.2878 16.1731 23.4812 16.3666 23.4812 16.604C23.4812 16.8417 23.2878 17.0352 23.0501 17.0352C22.8126 17.0352 22.6191 16.8417 22.6191 16.604C22.6191 16.3666 22.8126 16.1731 23.0501 16.1731Z" fill="black"/>
<path d="M18.4168 23.0403C18.4168 22.3017 17.8158 21.7009 17.0774 21.7009C16.339 21.7009 15.7383 22.3017 15.7383 23.0403C15.7383 23.7787 16.339 24.3794 17.0774 24.3794C17.8158 24.3794 18.4168 23.7787 18.4168 23.0403ZM17.0774 23.4712C16.8397 23.4712 16.6465 23.2777 16.6465 23.0403C16.6465 22.8026 16.8397 22.6091 17.0774 22.6091C17.3151 22.6091 17.5083 22.8026 17.5083 23.0403C17.5083 23.278 17.3151 23.4712 17.0774 23.4712Z" fill="black"/>
<path d="M13.6878 6.40723C12.9494 6.40723 12.3486 7.00796 12.3486 7.74659C12.3486 8.48497 12.9494 9.08571 13.6878 9.08571C14.4264 9.08571 15.0271 8.48497 15.0271 7.74659C15.0271 7.00796 14.4264 6.40723 13.6878 6.40723ZM13.6878 8.17751C13.4501 8.17751 13.2568 7.98404 13.2568 7.74659C13.2568 7.50889 13.4501 7.31543 13.6878 7.31543C13.9255 7.31543 14.1189 7.50889 14.1189 7.74659C14.1189 7.98404 13.9255 8.17751 13.6878 8.17751Z" fill="black"/>
</g>
<defs>
<clipPath id="clip0_809_7999">
<rect width="31" height="31" fill="white"/>
</clipPath>
</defs>
</svg>
