<svg width="31" height="31" viewBox="0 0 31 31" fill="none" xmlns="http://www.w3.org/2000/svg">
<g clip-path="url(#clip0_809_8053)">
<path d="M30.3945 12.5029H25.4297V11.2213C25.4297 10.8869 25.1586 10.6158 24.8242 10.6158H11.7461C11.4118 10.6158 11.1406 10.8869 11.1406 11.2213C11.1406 11.5557 11.4118 11.8268 11.7461 11.8268H24.2188V16.4687C24.2188 20.5464 22.0417 24.3363 18.5263 26.3984H6.90343C3.38802 24.3363 1.21094 20.5464 1.21094 16.4687V11.8268H5.26758C5.60192 11.8268 5.87305 11.5558 5.87305 11.2214C5.87305 10.887 5.60192 10.6159 5.26758 10.6159H0.605469C0.271129 10.6159 0 10.887 0 11.2214V16.4687C0 18.7574 0.615156 21.0015 1.77899 22.9583C2.56386 24.2781 3.58226 25.4435 4.77485 26.3984H0.605469C0.271129 26.3984 0 26.6695 0 27.0039C0 29.2074 1.79261 31 3.99609 31H22.8867C25.0902 31 26.8828 29.2074 26.8828 27.0039C26.8828 26.6695 26.6117 26.3984 26.2773 26.3984H20.6548C21.7525 25.5195 22.7021 24.4619 23.4583 23.2701H25.1673C28.3835 23.2701 31 20.6536 31 17.4375V13.1084C31 12.774 30.7289 12.5029 30.3945 12.5029ZM25.6056 27.6094C25.3284 28.8549 24.2146 29.789 22.8867 29.789H3.99609C2.66824 29.789 1.55448 28.8549 1.27724 27.6094H6.74123H18.6885H25.6056ZM25.4297 16.4687V16.1357H27.3672V17.4375C27.3672 18.6505 26.3803 19.6373 25.1673 19.6373H25.0298C25.2941 18.6077 25.4297 17.5431 25.4297 16.4687ZM29.7891 17.4375C29.7891 19.9859 27.7158 22.0592 25.1673 22.0592H24.1368C24.3302 21.6644 24.5028 21.2602 24.6537 20.8483H25.1673C27.0481 20.8483 28.5781 19.3182 28.5781 17.4375V15.5303C28.5781 15.1959 28.307 14.9248 27.9727 14.9248H25.4297V13.7138H29.7891V17.4375Z" fill="black"/>
<path d="M13.2927 3.35087L12.9777 2.95531C12.5153 2.37479 12.5146 1.56328 12.9761 0.981909C13.184 0.719983 13.1402 0.339143 12.8782 0.131286C12.6162 -0.0766925 12.2355 -0.032796 12.0275 0.22913C11.2137 1.25455 11.2149 2.68582 12.0305 3.70979L12.3455 4.10534C12.9499 4.86399 12.9508 5.92447 12.3477 6.68427L12.0249 7.09103C11.817 7.35295 11.8608 7.73379 12.1227 7.94165C12.2341 8.02999 12.3669 8.07292 12.4987 8.07292C12.6771 8.07292 12.8538 7.99445 12.9734 7.84381L13.2962 7.43705C14.2517 6.23326 14.2503 4.55296 13.2927 3.35087Z" fill="black"/>
<path d="M16.6492 4.71219L16.3342 4.3167C15.8717 3.73612 15.871 2.92461 16.3325 2.34324C16.5404 2.08131 16.4966 1.70047 16.2347 1.49261C15.9727 1.28464 15.5919 1.32853 15.384 1.59046C14.5701 2.61588 14.5713 4.04715 15.387 5.07118L15.702 5.46673C16.3062 6.22544 16.3072 7.28598 15.7041 8.04572L15.3813 8.45242C15.1734 8.71434 15.2172 9.09518 15.4792 9.30304C15.5905 9.39138 15.7233 9.43425 15.8552 9.43425C16.0335 9.43425 16.2103 9.35572 16.3299 9.20514L16.6526 8.79844C17.6081 7.59471 17.6067 5.91441 16.6492 4.71219Z" fill="black"/>
<path d="M9.93727 4.71219L9.62225 4.3167C9.15979 3.73618 9.15913 2.92461 9.62055 2.34323C9.82847 2.08131 9.78464 1.70047 9.52271 1.49255C9.26072 1.28463 8.87994 1.32859 8.67203 1.59039C7.85822 2.61582 7.85943 4.04714 8.67505 5.07111L8.99008 5.46667C9.59434 6.22538 9.59524 7.28592 8.99226 8.0456L8.66942 8.45229C8.4615 8.71422 8.50528 9.09506 8.76721 9.30298C8.87855 9.39131 9.01127 9.43424 9.1432 9.43424C9.32157 9.43424 9.49831 9.35577 9.61783 9.20519L9.94073 8.79844C10.8962 7.59471 10.8948 5.91441 9.93727 4.71219Z" fill="black"/>
<path d="M9.09896 10.7931C8.98635 10.6805 8.83014 10.6157 8.6709 10.6157C8.51166 10.6157 8.35545 10.6805 8.24283 10.7931C8.13027 10.9063 8.06543 11.062 8.06543 11.2212C8.06543 11.3804 8.13021 11.5366 8.24283 11.6499C8.35545 11.7625 8.51166 11.8267 8.6709 11.8267C8.83014 11.8267 8.98635 11.7625 9.09896 11.6499C9.21213 11.5366 9.27637 11.381 9.27637 11.2212C9.27637 11.062 9.21213 10.9057 9.09896 10.7931Z" fill="black"/>
<path d="M21.9177 15.8633C21.5834 15.8633 21.3122 16.1343 21.3122 16.4688C21.3122 18.7162 20.4006 20.9249 18.8112 22.5285C18.5758 22.7659 18.5775 23.1493 18.815 23.3847C18.933 23.5018 19.0871 23.5602 19.2412 23.5602C19.3971 23.5601 19.5529 23.5003 19.6713 23.3808C21.4837 21.5523 22.5232 19.033 22.5232 16.4688C22.5232 16.1343 22.252 15.8633 21.9177 15.8633Z" fill="black"/>
<path d="M17.7942 24.1719C17.6299 23.8806 17.2606 23.7777 16.9694 23.942L16.9556 23.9498C16.6643 24.1141 16.5614 24.4834 16.7257 24.7746C16.837 24.9719 17.0422 25.0827 17.2536 25.0827C17.3543 25.0827 17.4565 25.0575 17.5505 25.0045L17.5643 24.9967C17.8556 24.8324 17.9585 24.4631 17.7942 24.1719Z" fill="black"/>
</g>
<defs>
<clipPath id="clip0_809_8053">
<rect width="31" height="31" fill="white"/>
</clipPath>
</defs>
</svg>
