<svg width="31" height="31" viewBox="0 0 31 31" fill="none" xmlns="http://www.w3.org/2000/svg">
<g clip-path="url(#clip0_809_7953)">
<path d="M26.3503 0H21.1837C20.8983 0 20.667 0.23134 20.667 0.516667V2.06667C20.667 2.31213 20.8398 2.5238 21.0802 2.57299L21.5747 2.67214C21.996 2.75766 22.3923 2.93804 22.7337 3.19915V3.30258C22.7347 4.29378 22.2392 5.21965 21.4135 5.7686L21.9872 6.62837C22.796 6.08925 23.38 5.27338 23.629 4.3339C23.6928 4.47568 23.7448 4.62275 23.7841 4.77336C23.8407 5.0037 24.0468 5.16566 24.2837 5.16667H25.317V6.64073L23.9179 11.3041L24.9078 11.6013L26.2181 7.23333H28.5023L29.4503 12.4464V24.2833C29.4503 25.1393 28.7563 25.8333 27.9003 25.8333H26.5658V26.8667H27.9003C29.3265 26.8649 30.4819 25.7095 30.4837 24.2833V12.4C30.4837 12.369 30.4806 12.3379 30.4748 12.3074L29.4503 6.67176V5.16667H30.4837C30.769 5.16667 31.0003 4.93533 31.0003 4.65C30.9976 2.08307 28.9173 0.00277507 26.3503 0ZM28.417 6.2H26.3503V5.16667H28.417V6.2ZM28.9337 4.13333H24.6643C24.1969 2.86412 23.105 1.92766 21.7793 1.65898L21.7003 1.64309V1.03333H26.3503C28.1473 1.0356 29.6711 2.35502 29.9304 4.13333H28.9337Z" fill="black"/>
<path d="M2.58333 26.8667H6.2V25.8333H2.58333C1.72735 25.8333 1.03333 25.1393 1.03333 24.2833V16.8853C1.03333 16.357 1.107 15.8315 1.25231 15.3239L2.04699 12.542C2.07575 12.4419 2.07323 12.3354 2.03993 12.2368L1.13248 9.51494C0.880453 8.75659 1.11835 7.92155 1.7324 7.40993L3.80361 5.68333H8.5964L10.0947 6.93262L10.7564 6.13895L9.3 4.92423V3.61667C9.3 3.47968 9.24551 3.34824 9.14863 3.25137L8.26667 2.3694V0.516667C8.26667 0.23134 8.03533 0 7.75 0H4.65C4.36467 0 4.13333 0.23134 4.13333 0.516667V2.3694L3.25137 3.25137C3.15449 3.34824 3.1 3.47968 3.1 3.61667V4.92423L1.07042 6.61601C0.130176 7.40009 -0.233105 8.68066 0.1549 9.8419L1.01113 12.4119L0.258334 15.0396C0.0867844 15.6398 -0.000251732 16.2609 5.46855e-07 16.8853V24.2833C0.0017665 25.7095 1.1572 26.8649 2.58333 26.8667ZM5.16667 1.03333H7.23333V2.06667H5.16667V1.03333ZM4.13333 3.8306L4.86393 3.1H7.53607L8.26667 3.8306V4.65H4.13333V3.8306Z" fill="black"/>
<path d="M9.29961 8.78334C9.29961 7.62437 7.93756 6.71667 6.19961 6.71667C4.46166 6.71667 3.09961 7.62437 3.09961 8.78334C3.09961 9.94231 4.46166 10.85 6.19961 10.85C7.93756 10.85 9.29961 9.94231 9.29961 8.78334ZM4.13294 8.78334C4.13294 8.29569 5.01693 7.75001 6.19961 7.75001C7.38229 7.75001 8.26628 8.29569 8.26628 8.78334C8.26628 9.271 7.38229 9.81667 6.19961 9.81667C5.01693 9.81667 4.13294 9.271 4.13294 8.78334Z" fill="black"/>
<path d="M5.63136 17.1368L5.97849 16.164L2.75664 15.0134C2.59846 14.9569 2.42262 14.9808 2.28538 15.0777C2.14814 15.1746 2.06641 15.332 2.06641 15.5V21.7C2.06817 23.1262 3.22361 24.2816 4.64974 24.2834H5.68307V23.25H4.64974C3.79376 23.25 3.09974 22.556 3.09974 21.7V16.2331L5.63136 17.1368Z" fill="black"/>
<path d="M19.5408 16.7425C20.9725 18.6315 21.435 21.0829 20.7896 23.3638C20.5426 24.167 20.9887 25.0192 21.7894 25.2743C22.5901 25.5293 23.4469 25.0919 23.71 24.2937C24.869 21.0115 24.2643 17.3646 22.1083 14.6319L21.9017 14.368C21.3396 13.649 20.3022 13.5194 19.5805 14.0776C18.8584 14.6362 18.7235 15.6728 19.278 16.3974L19.5408 16.7425ZM19.9854 15.2467C20.0396 15.0123 20.2238 14.8299 20.4589 14.7777C20.6938 14.7258 20.9377 14.813 21.0863 15.0025L21.2929 15.2664C23.2309 17.7218 23.7746 20.9994 22.7329 23.9491C22.6638 24.1148 22.5134 24.2326 22.3358 24.2604C22.1585 24.2881 21.9794 24.2218 21.8628 24.085C21.7685 23.9599 21.7382 23.7977 21.7818 23.6473C22.5155 21.0532 21.9895 18.265 20.361 16.1163L20.0948 15.7672C19.9826 15.6188 19.9422 15.4278 19.9854 15.2467Z" fill="black"/>
<path d="M9.38693 30.7701C9.48279 30.9137 9.644 31 9.81681 31H22.2168C22.3737 31 22.5223 30.9288 22.6202 30.8062L23.9119 29.1911C26.1579 26.3825 27.1892 22.7934 26.7762 19.2211C26.3635 15.6486 24.5408 12.3891 21.7135 10.1671L19.6335 8.53229V6.71664C19.6335 6.43131 19.4021 6.19998 19.1168 6.19998H18.6001V4.13331C18.6001 3.56265 18.1375 3.09998 17.5668 3.09998H13.4335C12.8628 3.09998 12.4001 3.56265 12.4001 4.13331V6.19998H11.8835C11.5981 6.19998 11.3668 6.43131 11.3668 6.71664V8.59208L10.6776 9.3966C5.52883 15.4359 5.00232 24.1549 9.38693 30.7701ZM13.4335 4.13331H17.5668V6.19998H13.4335V4.13331ZM11.4619 10.0687L12.2755 9.1196C12.356 9.026 12.4001 8.90667 12.4001 8.78331V7.23331H18.6001V8.26664H13.4335V9.29998H18.9379L21.0755 10.9791C23.6863 13.0312 25.3693 16.0409 25.7505 19.3397C26.1317 22.6382 25.1793 25.9524 23.1056 28.5458L21.9688 29.9666H10.0958C6.12496 23.7555 6.67947 15.6788 11.4619 10.0687Z" fill="black"/>
<path d="M14.7249 26.8666C16.7184 26.8679 18.5792 25.8676 19.6776 24.2043C19.7503 24.0948 19.7785 23.9621 19.7566 23.8327C19.1304 20.1129 17.7242 17.1925 15.5753 15.1528C15.4908 15.0723 15.3816 15.0226 15.2653 15.0123C15.0866 14.9941 14.9078 14.9833 14.7249 14.9833C11.4435 14.9833 8.7832 17.6436 8.7832 20.9249C8.7832 24.2063 11.4435 26.8666 14.7249 26.8666ZM14.7249 16.0166C14.8152 16.0166 14.9052 16.0201 14.9941 16.0259C16.8655 17.8673 18.1117 20.4802 18.7023 23.7986C17.3443 25.6791 14.8553 26.3522 12.7346 25.4125C10.614 24.4727 9.44064 22.177 9.92123 19.9078C10.4018 17.6388 12.4054 16.0159 14.7249 16.0166Z" fill="black"/>
</g>
<defs>
<clipPath id="clip0_809_7953">
<rect width="31" height="31" fill="white"/>
</clipPath>
</defs>
</svg>
