<svg width="31" height="31" viewBox="0 0 31 31" fill="none" xmlns="http://www.w3.org/2000/svg">
<g clip-path="url(#clip0_809_8017)">
<path d="M7.75 15.5H6.78125V16.4688H7.75V15.5Z" fill="black"/>
<path d="M5.8125 16.4688H4.84375V17.4375H5.8125V16.4688Z" fill="black"/>
<path d="M7.26562 18.4062H6.29688V19.375H7.26562V18.4062Z" fill="black"/>
<path d="M5.32812 14.5312H4.35938V15.5H5.32812V14.5312Z" fill="black"/>
<path d="M30.2248 10.9245L28.1716 6.81847C28.37 6.61355 28.5037 6.35464 28.5557 6.07415C28.6078 5.79365 28.576 5.50403 28.4642 5.24154C28.3525 4.97905 28.1658 4.75534 27.9276 4.59841C27.6893 4.44148 27.4101 4.35831 27.1248 4.3593H25.1873C24.9023 4.35879 24.6233 4.4423 24.3855 4.59942C24.1476 4.75653 23.9613 4.98026 23.8499 5.24266C23.7384 5.50506 23.7068 5.79448 23.759 6.07474C23.8111 6.35501 23.9447 6.6137 24.143 6.81847L22.0897 10.9245C21.5808 11.9479 21.3155 13.0753 21.3147 14.2183V24.3214C21.315 24.8066 21.4688 25.2793 21.7541 25.6718H20.3436V19.3749C20.3426 19.3173 20.3311 19.2604 20.3097 19.2068C20.2933 19.1734 20.2772 19.1398 20.2612 19.1061L18.4061 16.3234V15.0155C18.4061 14.8871 18.355 14.7639 18.2642 14.673C18.1734 14.5822 18.0502 14.5312 17.9217 14.5312H13.078C12.9495 14.5312 12.8263 14.5822 12.7354 14.673C12.6446 14.7639 12.5936 14.8871 12.5936 15.0155V16.3234L10.7375 19.1075C10.728 19.1248 10.7196 19.1426 10.7123 19.1608C10.6767 19.2267 10.6575 19.3001 10.6561 19.3749V25.6718H8.61201L8.25164 24.2298L8.32962 23.9634C9.87306 18.6972 10.6565 13.2376 10.6561 7.74992C10.6561 7.62146 10.605 7.49826 10.5142 7.40742C10.4234 7.31658 10.3002 7.26555 10.1717 7.26555H7.77647L8.57326 2.56711L12.2458 1.43028L11.959 0.505127L8.00364 1.7306C7.91809 1.7571 7.84156 1.8068 7.78256 1.87418C7.72356 1.94156 7.6844 2.02398 7.66942 2.11228L6.79319 7.26555H5.76873C5.68458 6.75631 5.46633 6.27867 5.13642 5.88173C4.8065 5.48479 4.37683 5.18287 3.89157 5.00701C3.40631 4.83116 2.88297 4.78771 2.37535 4.88113C1.86773 4.97455 1.39414 5.20147 1.00328 5.53856C0.612425 5.87566 0.318391 6.31077 0.151409 6.79915C-0.0155723 7.28754 -0.0494762 7.81159 0.0531829 8.31742C0.155842 8.82325 0.39136 9.29262 0.735525 9.67727C1.07969 10.0619 1.52008 10.348 2.01143 10.506C2.22614 15.0653 2.98173 19.5829 4.26233 23.9639L4.34031 24.2298L3.98139 25.6718H0.484201C0.355736 25.6718 0.232534 25.7228 0.141696 25.8137C0.0508578 25.9045 -0.00017445 26.0277 -0.00017445 26.1562V28.0937C-0.00017445 28.2221 0.0508578 28.3453 0.141696 28.4362C0.232534 28.527 0.355736 28.578 0.484201 28.578H1.45295V29.5468C1.45295 29.6753 1.50398 29.7985 1.59482 29.8893C1.68566 29.9801 1.80886 30.0312 1.93733 30.0312H29.0623C29.1908 30.0312 29.314 29.9801 29.4048 29.8893C29.4957 29.7985 29.5467 29.6753 29.5467 29.5468V28.578H30.5155C30.6439 28.578 30.7671 28.527 30.858 28.4362C30.9488 28.3453 30.9998 28.2221 30.9998 28.0937V26.1562C30.9991 26.0349 30.9526 25.9183 30.8696 25.8298C30.7866 25.7413 30.6733 25.6875 30.5523 25.6791C30.8417 25.286 30.9985 24.811 30.9998 24.3228V14.2178C30.999 13.0749 30.7337 11.9478 30.2248 10.9245ZM22.2811 16.4687H30.0311V20.3437H22.2811V16.4687ZM25.1873 5.32805H27.1248C27.2533 5.32805 27.3765 5.37908 27.4673 5.46992C27.5582 5.56076 27.6092 5.68396 27.6092 5.81242C27.6092 5.94089 27.5582 6.06409 27.4673 6.15493C27.3765 6.24577 27.2533 6.2968 27.1248 6.2968H25.1873C25.0589 6.2968 24.9357 6.24577 24.8448 6.15493C24.754 6.06409 24.703 5.94089 24.703 5.81242C24.703 5.68396 24.754 5.56076 24.8448 5.46992C24.9357 5.37908 25.0589 5.32805 25.1873 5.32805ZM22.9592 11.3575L25.0023 7.26555H27.3099L29.3554 11.3575C29.7987 12.2459 30.03 13.225 30.0311 14.2178V15.4999H22.2811V14.2178C22.283 13.2248 22.5151 12.2457 22.9592 11.3575ZM22.2811 24.3214V21.3124H30.0311V24.3214C30.0308 24.6794 29.8885 25.0226 29.6354 25.2758C29.3823 25.529 29.0391 25.6714 28.6811 25.6718H23.631C23.273 25.6714 22.9298 25.529 22.6767 25.2758C22.4236 25.0226 22.2813 24.6794 22.2811 24.3214ZM13.3371 16.953H17.6626L18.9544 18.8905H12.0453L13.3371 16.953ZM11.6248 19.8593H19.3748V22.7655H11.6248V19.8593ZM13.5623 15.4999H17.4373V15.9843H13.5623V15.4999ZM11.6248 23.7343H19.3748V25.6718H11.6248V23.7343ZM9.68733 8.2343C9.67473 9.6913 9.60062 11.1454 9.47614 12.5937H6.87069L7.61178 8.2343H9.68733ZM5.88934 12.5937H3.1192C2.99472 11.1454 2.92061 9.6913 2.90801 8.2343H6.6285L5.88934 12.5937ZM0.968576 7.74992C0.967989 7.27896 1.13931 6.82397 1.45039 6.47035C1.76146 6.11674 2.1909 5.88882 2.6581 5.82936C3.1253 5.76991 3.59813 5.88301 3.98786 6.14744C4.37758 6.41187 4.6574 6.80945 4.77479 7.26555H2.4217C2.29324 7.26555 2.17003 7.31658 2.0792 7.40742C1.98836 7.49826 1.93733 7.62146 1.93733 7.74992C1.93733 8.31422 1.95089 8.87755 1.96736 9.44088C1.66531 9.27359 1.41345 9.02862 1.23785 8.73132C1.06224 8.43403 0.969281 8.09521 0.968576 7.74992ZM3.21123 13.5624H9.38217C9.03083 16.9918 8.36722 20.382 7.39962 23.6907L7.38703 23.7343H5.20734L5.19475 23.6912C4.22687 20.3823 3.56294 16.992 3.21123 13.5624ZM5.22187 24.703H7.37153L7.61372 25.6718H4.97969L5.22187 24.703ZM28.578 29.0624H2.4217V28.578H28.578V29.0624ZM30.0311 27.6093H0.968576V26.6405H30.0311V27.6093Z" fill="black"/>
</g>
<defs>
<clipPath id="clip0_809_8017">
<rect width="31" height="31" fill="white"/>
</clipPath>
</defs>
</svg>
