<svg width="31" height="31" viewBox="0 0 31 31" fill="none" xmlns="http://www.w3.org/2000/svg">
<g clip-path="url(#clip0_809_7981)">
<path d="M26.4601 4.5398C23.5326 1.6123 19.6402 0 15.5 0C11.3598 0 7.46743 1.6123 4.53987 4.5398C1.61224 7.46743 0 11.3598 0 15.5C0 19.6402 1.61224 23.5326 4.53987 26.4602C7.46743 29.3877 11.3598 31 15.5 31C19.6402 31 23.5326 29.3877 26.4601 26.4602C29.3878 23.5326 31 19.6402 31 15.5C31 11.3598 29.3878 7.46743 26.4601 4.5398ZM25.6039 25.6039C22.9051 28.3028 19.3168 29.7891 15.5 29.7891C11.6832 29.7891 8.09494 28.3028 5.39612 25.6039C2.69724 22.9051 1.21094 19.3168 1.21094 15.5C1.21094 11.6832 2.69724 8.09494 5.39612 5.39612C8.095 2.6973 11.6832 1.21094 15.5 1.21094C19.3168 1.21094 22.905 2.6973 25.6039 5.39612C28.3028 8.09494 29.7891 11.6832 29.7891 15.5C29.7891 19.3168 28.3028 22.9051 25.6039 25.6039Z" fill="black"/>
<path d="M25.5105 7.46538C25.4027 7.33145 25.2431 7.24965 25.0714 7.24032C24.8999 7.23112 24.7322 7.29518 24.6106 7.41676L20.8195 11.2079C20.785 11.1929 20.7495 11.1799 20.712 11.1714C20.088 11.0309 19.457 11.0178 18.8503 11.122L23.5832 6.38922C23.7047 6.26764 23.7689 6.1001 23.7596 5.92845C23.7503 5.75674 23.6685 5.59708 23.5345 5.48937C19.265 2.05436 13.2838 1.71336 8.65097 4.64074C8.36828 4.81936 8.28393 5.19335 8.46255 5.47605C8.64116 5.75874 9.01522 5.84302 9.29779 5.66447C13.3012 3.13464 18.4166 3.3003 22.2359 6.02394L18.0362 10.2236C17.9586 8.67698 17.1442 7.27611 15.8234 6.44098C15.6257 6.31601 15.3739 6.31601 15.1763 6.44098C13.7866 7.31976 12.9569 8.82465 12.9569 10.4667C12.9569 10.7727 12.9858 11.074 13.0416 11.3673C12.1791 11.0362 11.2254 10.9603 10.2877 11.1714C10.0596 11.2229 9.88146 11.401 9.83006 11.6291C9.50704 13.063 9.85482 14.534 10.7616 15.6594C10.6035 15.6788 10.4453 15.7059 10.2877 15.7414C10.0596 15.7928 9.88146 15.9709 9.83006 16.1991C9.66253 16.9427 9.6756 17.6963 9.85319 18.4066L6.02372 22.2361C3.30056 18.4173 3.13467 13.3024 5.66347 9.29928C5.84202 9.01659 5.75762 8.64259 5.47492 8.46404C5.19229 8.28542 4.81829 8.36982 4.63968 8.65252C1.71327 13.285 2.05469 19.2657 5.48915 23.5347C5.59693 23.6686 5.75659 23.7504 5.92824 23.7598C5.93914 23.7604 5.95003 23.7607 5.96093 23.7607C6.12108 23.7607 6.27517 23.6971 6.38906 23.5833L10.3469 19.6254C10.553 19.9817 10.8071 20.3148 11.1073 20.6149C11.1583 20.666 11.2107 20.7153 11.2636 20.7637L7.41654 24.6107C7.29496 24.7323 7.23084 24.8999 7.24011 25.0715C7.24937 25.2432 7.33117 25.4029 7.46516 25.5106C9.74481 27.3447 12.5751 28.3356 15.4984 28.3356C15.7172 28.3356 15.9367 28.33 16.1564 28.3189C19.3342 28.1573 22.3244 26.8282 24.5762 24.5763C26.828 22.3245 28.1571 19.3343 28.3187 16.1565C28.4792 13.0023 27.4818 9.91571 25.5105 7.46538ZM20.0542 12.2869C20.1743 13.3557 19.8076 14.4174 19.0361 15.1888C18.2645 15.9603 17.2029 16.327 16.1342 16.207C16.0141 15.1382 16.3808 14.0765 17.1523 13.3051C17.9238 12.5335 18.9854 12.1668 20.0542 12.2869ZM17.1523 17.875C17.9238 17.1035 18.9854 16.7368 20.0542 16.8569C20.1743 17.9256 19.8076 18.9873 19.0361 19.7588C18.2645 20.5303 17.2029 20.897 16.1342 20.7769C16.0142 19.7081 16.3808 18.6464 17.1523 17.875ZM15.4999 7.69491C16.3404 8.36571 16.8319 9.37569 16.8319 10.4667C16.8319 11.5578 16.3404 12.5678 15.4999 13.2386C14.6593 12.5678 14.1678 11.5578 14.1678 10.4667C14.1678 9.37569 14.6593 8.36571 15.4999 7.69491ZM10.9455 12.2869C12.0142 12.1669 13.0759 12.5335 13.8473 13.3051C14.6188 14.0765 14.9855 15.1382 14.8654 16.207C13.7968 16.3268 12.735 15.9603 11.9635 15.1888C11.1921 14.4173 10.8255 13.3557 10.9455 12.2869ZM10.9455 16.8568C12.0143 16.7367 13.0759 17.1034 13.8474 17.8749C14.6189 18.6464 14.9856 19.7081 14.8655 20.7768C13.7968 20.8969 12.7351 20.5302 11.9636 19.7587C11.1921 18.9873 10.8255 17.9256 10.9455 16.8568ZM27.1094 16.0951C26.963 18.9727 25.7593 21.6808 23.7199 23.7202C21.6805 25.7596 18.9726 26.9632 16.0948 27.1096C13.4647 27.2428 10.8874 26.4888 8.76389 24.976L12.2697 21.4702C12.9452 21.8243 13.6963 22.0106 14.4641 22.0106C14.6071 22.0106 14.7506 22.0038 14.8943 21.9909V24.0473C14.8943 24.3816 15.1654 24.6528 15.4998 24.6528C15.8342 24.6528 16.1053 24.3816 16.1053 24.0473V21.9909C16.2489 22.0038 16.3925 22.0106 16.5354 22.0106C17.7825 22.0106 18.9865 21.5208 19.8923 20.615C21.0534 19.4539 21.5309 17.8031 21.1695 16.1991C21.1181 15.9709 20.94 15.7928 20.7119 15.7414C20.5542 15.7059 20.3961 15.6788 20.238 15.6593C20.9703 14.7504 21.3376 13.6163 21.2817 12.4581L24.9757 8.76411C26.4887 10.8876 27.2431 13.4651 27.1094 16.0951Z" fill="black"/>
<path d="M6.85254 7.4577C7.18693 7.4577 7.45801 7.18663 7.45801 6.85223C7.45801 6.51784 7.18693 6.24677 6.85254 6.24677C6.51815 6.24677 6.24707 6.51784 6.24707 6.85223C6.24707 7.18663 6.51815 7.4577 6.85254 7.4577Z" fill="black"/>
</g>
<defs>
<clipPath id="clip0_809_7981">
<rect width="31" height="31" fill="white"/>
</clipPath>
</defs>
</svg>
