<svg width="31" height="31" viewBox="0 0 31 31" fill="none" xmlns="http://www.w3.org/2000/svg">
<path d="M5.34565 17.322C5.10299 17.322 4.87899 17.28 4.67365 17.196C4.47299 17.1167 4.31199 16.993 4.19065 16.825C4.07399 16.6523 4.01565 16.433 4.01565 16.167C4.01565 16.0177 4.03665 15.8567 4.07865 15.684C4.14399 15.4087 4.25132 15.1333 4.40065 14.858C4.55465 14.5827 4.73665 14.3237 4.94665 14.081C5.16132 13.8383 5.39465 13.6237 5.64665 13.437C5.89865 13.2457 6.15765 13.0963 6.42365 12.989C6.69432 12.877 6.96265 12.821 7.22865 12.821C7.30799 12.821 7.38965 12.828 7.47365 12.842C7.66032 12.8747 7.79799 12.9447 7.88665 13.052C7.97999 13.1547 8.02665 13.2737 8.02665 13.409C8.02665 13.5677 7.97532 13.7263 7.87265 13.885C7.76999 14.0437 7.63465 14.1953 7.46665 14.34C7.30332 14.48 7.12365 14.606 6.92765 14.718C6.73632 14.83 6.54732 14.921 6.36065 14.991C6.17399 15.061 6.00832 15.1007 5.86365 15.11C5.77499 15.1147 5.73065 15.089 5.73065 15.033C5.73065 15.005 5.74465 14.977 5.77265 14.949C5.80532 14.9163 5.84965 14.8977 5.90565 14.893C6.26965 14.8603 6.60799 14.7507 6.92065 14.564C7.23799 14.3727 7.48065 14.1137 7.64865 13.787C7.68599 13.717 7.71399 13.647 7.73265 13.577C7.75599 13.5023 7.76765 13.4323 7.76765 13.367C7.76765 13.2643 7.73732 13.178 7.67665 13.108C7.62065 13.0333 7.52032 12.996 7.37565 12.996C7.21699 12.996 7.03032 13.045 6.81565 13.143C6.60099 13.2363 6.37465 13.3693 6.13665 13.542C5.90332 13.7147 5.67232 13.92 5.44365 14.158C5.21965 14.3913 5.01665 14.648 4.83465 14.928C4.65732 15.2033 4.51965 15.495 4.42165 15.803C4.36099 15.9897 4.33065 16.1623 4.33065 16.321C4.33065 16.6057 4.42865 16.8157 4.62465 16.951C4.82065 17.0817 5.07499 17.147 5.38765 17.147C5.65832 17.147 5.95465 17.1003 6.27665 17.007C6.60332 16.9137 6.92065 16.7713 7.22865 16.58C7.53665 16.384 7.79565 16.1367 8.00565 15.838C8.01965 15.8193 8.03599 15.81 8.05465 15.81C8.07332 15.81 8.08965 15.8193 8.10365 15.838C8.12232 15.8567 8.12465 15.8753 8.11065 15.894C7.86799 16.23 7.58799 16.503 7.27065 16.713C6.95799 16.923 6.63365 17.077 6.29765 17.175C5.96165 17.273 5.64432 17.322 5.34565 17.322ZM9.84091 17.07C9.76158 17.07 9.68691 17.0513 9.61691 17.014C9.55158 16.9767 9.50258 16.9067 9.46991 16.804C9.45591 16.762 9.44891 16.7037 9.44891 16.629C9.44891 16.5263 9.46291 16.412 9.49091 16.286C9.51891 16.16 9.54924 16.0527 9.58191 15.964C9.55858 15.9733 9.51424 16.0153 9.44891 16.09C9.38824 16.16 9.31124 16.2463 9.21791 16.349C9.12924 16.447 9.02891 16.5473 8.91691 16.65C8.80958 16.748 8.69758 16.8297 8.58091 16.895C8.46424 16.9603 8.34991 16.993 8.23791 16.993C8.16324 16.993 8.08391 16.972 7.99991 16.93C7.91591 16.8833 7.84824 16.825 7.79691 16.755C7.72691 16.6617 7.69191 16.566 7.69191 16.468C7.69191 16.342 7.73391 16.2113 7.81791 16.076C7.90658 15.9407 8.01858 15.81 8.15391 15.684C8.29391 15.5533 8.44091 15.4367 8.59491 15.334C8.75358 15.2267 8.90291 15.138 9.04291 15.068C9.18758 14.9933 9.30424 14.9443 9.39291 14.921C9.48624 14.893 9.59124 14.879 9.70791 14.879C9.77324 14.879 9.84091 14.8883 9.91091 14.907C9.98091 14.921 10.0392 14.9467 10.0859 14.984C10.1232 15.0027 10.1536 15.0283 10.1769 15.061C10.2002 15.0937 10.2119 15.1287 10.2119 15.166C10.2119 15.2033 10.1956 15.215 10.1629 15.201C10.1256 15.145 10.0742 15.11 10.0089 15.096C9.94824 15.0773 9.88524 15.068 9.81991 15.068C9.63324 15.068 9.42791 15.1287 9.20391 15.25C8.97991 15.3713 8.77924 15.5137 8.60191 15.677C8.54591 15.7237 8.46891 15.8053 8.37091 15.922C8.27758 16.034 8.19124 16.1577 8.11191 16.293C8.03258 16.4283 7.99291 16.552 7.99291 16.664C7.99291 16.7247 8.00924 16.7783 8.04191 16.825C8.06058 16.8577 8.09091 16.874 8.13291 16.874C8.19824 16.874 8.28458 16.839 8.39191 16.769C8.50391 16.699 8.61824 16.615 8.73491 16.517C8.85158 16.4143 8.95658 16.3163 9.04991 16.223C9.14791 16.1297 9.21791 16.062 9.25991 16.02C9.28324 15.9967 9.32758 15.95 9.39291 15.88C9.46291 15.8053 9.53758 15.726 9.61691 15.642C9.69624 15.558 9.76624 15.4857 9.82691 15.425C9.89224 15.3643 9.93424 15.334 9.95291 15.334C9.97624 15.334 10.0136 15.341 10.0649 15.355C10.1209 15.3643 10.1676 15.3807 10.2049 15.404C10.2422 15.4273 10.2492 15.4577 10.2259 15.495C10.1046 15.6723 10.0066 15.859 9.93191 16.055C9.86191 16.2463 9.81991 16.398 9.80591 16.51C9.80124 16.5287 9.79891 16.5473 9.79891 16.566C9.79891 16.58 9.79891 16.5963 9.79891 16.615C9.79891 16.8017 9.86424 16.895 9.99491 16.895C10.0649 16.895 10.1582 16.853 10.2749 16.769C10.3916 16.685 10.5106 16.5847 10.6319 16.468C10.7532 16.3513 10.8629 16.2393 10.9609 16.132C11.0636 16.02 11.1336 15.936 11.1709 15.88C11.1849 15.866 11.1989 15.859 11.2129 15.859C11.2316 15.859 11.2479 15.8683 11.2619 15.887C11.2759 15.901 11.2759 15.9197 11.2619 15.943C11.2106 16.027 11.1359 16.1273 11.0379 16.244C10.9399 16.3607 10.8302 16.4773 10.7089 16.594C10.5876 16.7107 10.4686 16.811 10.3519 16.895C10.2912 16.9417 10.2142 16.9813 10.1209 17.014C10.0276 17.0513 9.93424 17.07 9.84091 17.07ZM11.9838 17.084C11.9045 17.084 11.8345 17.0653 11.7738 17.028C11.7131 16.9953 11.6711 16.93 11.6478 16.832C11.6338 16.7807 11.6268 16.7293 11.6268 16.678C11.6268 16.538 11.6618 16.4027 11.7318 16.272C11.8065 16.1367 11.8928 16.013 11.9908 15.901C12.0888 15.7843 12.1728 15.6863 12.2428 15.607C12.2801 15.5697 12.3221 15.5207 12.3688 15.46C12.4201 15.3993 12.4458 15.3387 12.4458 15.278C12.4458 15.2407 12.4271 15.2057 12.3898 15.173C12.3525 15.1357 12.2848 15.11 12.1868 15.096C12.1308 15.0867 12.0771 15.0797 12.0258 15.075C11.9791 15.0657 11.9301 15.061 11.8788 15.061C11.7481 15.2383 11.6198 15.418 11.4938 15.6C11.3725 15.7773 11.2418 15.9523 11.1018 16.125C11.0691 16.1577 11.0411 16.174 11.0178 16.174C10.9898 16.174 10.9758 16.16 10.9758 16.132C10.9758 16.104 10.9898 16.076 11.0178 16.048C11.2698 15.74 11.4868 15.411 11.6688 15.061C11.6455 15.061 11.6105 15.061 11.5638 15.061C11.5171 15.0563 11.4798 15.0517 11.4518 15.047C11.4191 15.0377 11.3935 15.0237 11.3748 15.005C11.3561 14.9863 11.3468 14.9677 11.3468 14.949C11.3468 14.921 11.3585 14.9047 11.3818 14.9C11.4425 14.8813 11.5078 14.8533 11.5778 14.816C11.6478 14.7787 11.7131 14.7297 11.7738 14.669C11.8391 14.6037 11.8998 14.536 11.9558 14.466C12.0118 14.3913 12.0561 14.3353 12.0888 14.298C12.1215 14.2747 12.1565 14.263 12.1938 14.263C12.2171 14.263 12.2381 14.27 12.2568 14.284C12.2801 14.298 12.2918 14.319 12.2918 14.347C12.2918 14.3797 12.2778 14.4217 12.2498 14.473C12.2078 14.5383 12.1611 14.6107 12.1098 14.69C12.0631 14.7693 12.0188 14.8417 11.9768 14.907C12.0608 14.9117 12.1448 14.9163 12.2288 14.921C12.3128 14.9257 12.3991 14.928 12.4878 14.928C12.5345 14.928 12.5788 14.928 12.6208 14.928C12.6675 14.9233 12.7141 14.921 12.7608 14.921C12.9008 14.921 12.9708 14.956 12.9708 15.026C12.9708 15.0727 12.9451 15.131 12.8938 15.201C12.8471 15.2663 12.7888 15.3387 12.7188 15.418C12.5601 15.6 12.4248 15.7913 12.3128 15.992C12.2008 16.1927 12.1261 16.3467 12.0888 16.454C12.0515 16.566 12.0328 16.65 12.0328 16.706C12.0328 16.818 12.0771 16.874 12.1658 16.874C12.2451 16.874 12.3408 16.8343 12.4528 16.755C12.5695 16.6757 12.6885 16.58 12.8098 16.468C12.9311 16.3513 13.0408 16.2393 13.1388 16.132C13.2368 16.02 13.3068 15.936 13.3488 15.88C13.3581 15.866 13.3721 15.859 13.3908 15.859C13.4095 15.859 13.4258 15.8683 13.4398 15.887C13.4538 15.901 13.4538 15.9197 13.4398 15.943C13.3885 16.0223 13.3138 16.1227 13.2158 16.244C13.1178 16.3607 13.0081 16.4773 12.8868 16.594C12.7655 16.7107 12.6465 16.811 12.5298 16.895C12.4691 16.9417 12.3851 16.9837 12.2778 17.021C12.1751 17.063 12.0771 17.084 11.9838 17.084ZM12.085 19.394C12.029 19.394 12.001 19.3707 12.001 19.324C12.001 19.3053 12.008 19.2797 12.022 19.247C12.078 19.1257 12.1573 18.9437 12.26 18.701C12.3626 18.463 12.477 18.1877 12.603 17.875C12.7243 17.567 12.848 17.2497 12.974 16.923C13.086 16.6337 13.1933 16.3513 13.296 16.076C13.4033 15.8007 13.492 15.5533 13.562 15.334C13.632 15.11 13.667 14.9373 13.667 14.816C13.667 14.7787 13.6926 14.7577 13.744 14.753C13.7953 14.7437 13.8443 14.739 13.891 14.739C14.045 14.739 14.122 14.7903 14.122 14.893C14.122 14.977 14.0753 15.0867 13.982 15.222C13.898 15.3573 13.8256 15.4973 13.765 15.642C13.7043 15.782 13.6436 15.9267 13.583 16.076C13.695 15.9267 13.8 15.7797 13.898 15.635C13.996 15.4903 14.1103 15.3667 14.241 15.264C14.3436 15.1847 14.444 15.1217 14.542 15.075C14.6446 15.0237 14.7543 14.998 14.871 14.998C14.9923 14.998 15.1136 15.0283 15.235 15.089C15.3563 15.145 15.4263 15.236 15.445 15.362C15.4496 15.376 15.452 15.3923 15.452 15.411C15.452 15.425 15.452 15.439 15.452 15.453C15.452 15.6163 15.403 15.7773 15.305 15.936C15.2116 16.09 15.0996 16.2277 14.969 16.349C14.8383 16.4703 14.717 16.5683 14.605 16.643C14.5116 16.699 14.3973 16.7597 14.262 16.825C14.1313 16.8903 13.9913 16.9463 13.842 16.993C13.6973 17.0397 13.5573 17.063 13.422 17.063C13.338 17.063 13.268 17.0537 13.212 17.035C13.1513 17.175 13.0813 17.3547 13.002 17.574C12.9226 17.798 12.848 18.0173 12.778 18.232C12.7453 18.3253 12.7336 18.4 12.743 18.456C12.7523 18.5167 12.7406 18.5913 12.708 18.68C12.68 18.7733 12.6496 18.862 12.617 18.946C12.5843 19.0347 12.547 19.1187 12.505 19.198C12.4956 19.2167 12.4676 19.2423 12.421 19.275C12.3696 19.3077 12.3136 19.3357 12.253 19.359C12.1876 19.3823 12.1316 19.394 12.085 19.394ZM13.268 16.923C13.4173 16.923 13.5736 16.888 13.737 16.818C13.9003 16.748 14.0613 16.6547 14.22 16.538C14.3786 16.4213 14.521 16.2953 14.647 16.16C14.7776 16.02 14.8826 15.8847 14.962 15.754C15.0553 15.6047 15.102 15.467 15.102 15.341C15.102 15.1963 15.039 15.124 14.913 15.124C14.8803 15.124 14.8406 15.131 14.794 15.145C14.7473 15.1543 14.6936 15.1753 14.633 15.208C14.3856 15.3387 14.1826 15.4927 14.024 15.67C13.8653 15.8427 13.73 16.034 13.618 16.244C13.506 16.454 13.3893 16.6803 13.268 16.923ZM17.7979 17.07C17.7186 17.07 17.6439 17.0513 17.5739 17.014C17.5086 16.9767 17.4596 16.9067 17.4269 16.804C17.4129 16.762 17.4059 16.7037 17.4059 16.629C17.4059 16.5263 17.4199 16.412 17.4479 16.286C17.4759 16.16 17.5063 16.0527 17.5389 15.964C17.5156 15.9733 17.4713 16.0153 17.4059 16.09C17.3453 16.16 17.2683 16.2463 17.1749 16.349C17.0863 16.447 16.9859 16.5473 16.8739 16.65C16.7666 16.748 16.6546 16.8297 16.5379 16.895C16.4213 16.9603 16.3069 16.993 16.1949 16.993C16.1203 16.993 16.0409 16.972 15.9569 16.93C15.8729 16.8833 15.8053 16.825 15.7539 16.755C15.6839 16.6617 15.6489 16.566 15.6489 16.468C15.6489 16.342 15.6909 16.2113 15.7749 16.076C15.8636 15.9407 15.9756 15.81 16.1109 15.684C16.2509 15.5533 16.3979 15.4367 16.5519 15.334C16.7106 15.2267 16.8599 15.138 16.9999 15.068C17.1446 14.9933 17.2613 14.9443 17.3499 14.921C17.4433 14.893 17.5483 14.879 17.6649 14.879C17.7303 14.879 17.7979 14.8883 17.8679 14.907C17.9379 14.921 17.9963 14.9467 18.0429 14.984C18.0803 15.0027 18.1106 15.0283 18.1339 15.061C18.1573 15.0937 18.1689 15.1287 18.1689 15.166C18.1689 15.2033 18.1526 15.215 18.1199 15.201C18.0826 15.145 18.0313 15.11 17.9659 15.096C17.9053 15.0773 17.8423 15.068 17.7769 15.068C17.5903 15.068 17.3849 15.1287 17.1609 15.25C16.9369 15.3713 16.7363 15.5137 16.5589 15.677C16.5029 15.7237 16.4259 15.8053 16.3279 15.922C16.2346 16.034 16.1483 16.1577 16.0689 16.293C15.9896 16.4283 15.9499 16.552 15.9499 16.664C15.9499 16.7247 15.9663 16.7783 15.9989 16.825C16.0176 16.8577 16.0479 16.874 16.0899 16.874C16.1553 16.874 16.2416 16.839 16.3489 16.769C16.4609 16.699 16.5753 16.615 16.6919 16.517C16.8086 16.4143 16.9136 16.3163 17.0069 16.223C17.1049 16.1297 17.1749 16.062 17.2169 16.02C17.2403 15.9967 17.2846 15.95 17.3499 15.88C17.4199 15.8053 17.4946 15.726 17.5739 15.642C17.6533 15.558 17.7233 15.4857 17.7839 15.425C17.8493 15.3643 17.8913 15.334 17.9099 15.334C17.9333 15.334 17.9706 15.341 18.0219 15.355C18.0779 15.3643 18.1246 15.3807 18.1619 15.404C18.1993 15.4273 18.2063 15.4577 18.1829 15.495C18.0616 15.6723 17.9636 15.859 17.8889 16.055C17.8189 16.2463 17.7769 16.398 17.7629 16.51C17.7583 16.5287 17.7559 16.5473 17.7559 16.566C17.7559 16.58 17.7559 16.5963 17.7559 16.615C17.7559 16.8017 17.8213 16.895 17.9519 16.895C18.0219 16.895 18.1153 16.853 18.2319 16.769C18.3486 16.685 18.4676 16.5847 18.5889 16.468C18.7103 16.3513 18.8199 16.2393 18.9179 16.132C19.0206 16.02 19.0906 15.936 19.1279 15.88C19.1419 15.866 19.1559 15.859 19.1699 15.859C19.1886 15.859 19.2049 15.8683 19.2189 15.887C19.2329 15.901 19.2329 15.9197 19.2189 15.943C19.1676 16.027 19.0929 16.1273 18.9949 16.244C18.8969 16.3607 18.7873 16.4773 18.6659 16.594C18.5446 16.7107 18.4256 16.811 18.3089 16.895C18.2483 16.9417 18.1713 16.9813 18.0779 17.014C17.9846 17.0513 17.8913 17.07 17.7979 17.07ZM19.8428 17.077C19.7588 17.091 19.6748 17.098 19.5908 17.098C19.3855 17.098 19.2151 17.049 19.0798 16.951C18.9445 16.853 18.8768 16.7107 18.8768 16.524C18.8768 16.412 18.9095 16.2767 18.9748 16.118C19.0215 16.0107 19.1078 15.887 19.2338 15.747C19.3598 15.607 19.5068 15.4717 19.6748 15.341C19.8428 15.2057 20.0131 15.096 20.1858 15.012C20.3585 14.9233 20.5148 14.879 20.6548 14.879C20.7061 14.879 20.7528 14.886 20.7948 14.9C20.8461 14.9187 20.8905 14.9443 20.9278 14.977C20.9651 15.0097 20.9838 15.0587 20.9838 15.124C20.9838 15.138 20.9838 15.152 20.9838 15.166C20.9838 15.18 20.9791 15.1963 20.9698 15.215C20.9698 15.229 20.9581 15.2593 20.9348 15.306C20.9161 15.3527 20.8928 15.3947 20.8648 15.432C20.8415 15.4647 20.8205 15.4717 20.8018 15.453C20.7831 15.439 20.7738 15.4203 20.7738 15.397C20.7738 15.3737 20.7785 15.348 20.7878 15.32C20.8018 15.2873 20.8088 15.2593 20.8088 15.236C20.8088 15.2033 20.7995 15.173 20.7808 15.145C20.7668 15.1123 20.7411 15.096 20.7038 15.096C20.6151 15.096 20.5008 15.1357 20.3608 15.215C20.2208 15.2943 20.0761 15.4017 19.9268 15.537C19.7821 15.6677 19.6515 15.8123 19.5348 15.971C19.4181 16.1297 19.3365 16.2883 19.2898 16.447C19.2758 16.4843 19.2665 16.5217 19.2618 16.559C19.2571 16.5917 19.2548 16.6243 19.2548 16.657C19.2548 16.7597 19.2875 16.8343 19.3528 16.881C19.4228 16.923 19.5068 16.944 19.6048 16.944C19.7121 16.944 19.8218 16.9277 19.9338 16.895C20.2511 16.8017 20.5078 16.6733 20.7038 16.51C20.9045 16.3467 21.1051 16.1367 21.3058 15.88C21.3245 15.8567 21.3408 15.8473 21.3548 15.852C21.3688 15.8567 21.3805 15.859 21.3898 15.859C21.4038 15.8637 21.4108 15.8777 21.4108 15.901C21.4108 15.9103 21.4085 15.922 21.4038 15.936C21.3991 15.95 21.3945 15.9617 21.3898 15.971C21.1891 16.2417 20.9675 16.4797 20.7248 16.685C20.4821 16.8857 20.1881 17.0163 19.8428 17.077ZM22.0235 17.077C21.9395 17.091 21.8555 17.098 21.7715 17.098C21.5661 17.098 21.3958 17.049 21.2605 16.951C21.1251 16.853 21.0575 16.7107 21.0575 16.524C21.0575 16.412 21.0901 16.2767 21.1555 16.118C21.2021 16.0107 21.2885 15.887 21.4145 15.747C21.5405 15.607 21.6875 15.4717 21.8555 15.341C22.0235 15.2057 22.1938 15.096 22.3665 15.012C22.5391 14.9233 22.6955 14.879 22.8355 14.879C22.8868 14.879 22.9335 14.886 22.9755 14.9C23.0268 14.9187 23.0711 14.9443 23.1085 14.977C23.1458 15.0097 23.1645 15.0587 23.1645 15.124C23.1645 15.138 23.1645 15.152 23.1645 15.166C23.1645 15.18 23.1598 15.1963 23.1505 15.215C23.1505 15.229 23.1388 15.2593 23.1155 15.306C23.0968 15.3527 23.0735 15.3947 23.0455 15.432C23.0221 15.4647 23.0011 15.4717 22.9825 15.453C22.9638 15.439 22.9545 15.4203 22.9545 15.397C22.9545 15.3737 22.9591 15.348 22.9685 15.32C22.9825 15.2873 22.9895 15.2593 22.9895 15.236C22.9895 15.2033 22.9801 15.173 22.9615 15.145C22.9475 15.1123 22.9218 15.096 22.8845 15.096C22.7958 15.096 22.6815 15.1357 22.5415 15.215C22.4015 15.2943 22.2568 15.4017 22.1075 15.537C21.9628 15.6677 21.8321 15.8123 21.7155 15.971C21.5988 16.1297 21.5171 16.2883 21.4705 16.447C21.4565 16.4843 21.4471 16.5217 21.4425 16.559C21.4378 16.5917 21.4355 16.6243 21.4355 16.657C21.4355 16.7597 21.4681 16.8343 21.5335 16.881C21.6035 16.923 21.6875 16.944 21.7855 16.944C21.8928 16.944 22.0025 16.9277 22.1145 16.895C22.4318 16.8017 22.6885 16.6733 22.8845 16.51C23.0851 16.3467 23.2858 16.1367 23.4865 15.88C23.5051 15.8567 23.5215 15.8473 23.5355 15.852C23.5495 15.8567 23.5611 15.859 23.5705 15.859C23.5845 15.8637 23.5915 15.8777 23.5915 15.901C23.5915 15.9103 23.5891 15.922 23.5845 15.936C23.5798 15.95 23.5751 15.9617 23.5705 15.971C23.3698 16.2417 23.1481 16.4797 22.9055 16.685C22.6628 16.8857 22.3688 17.0163 22.0235 17.077ZM24.4841 14.564C24.4235 14.564 24.3605 14.5593 24.2951 14.55C24.2298 14.536 24.1971 14.4917 24.1971 14.417C24.1971 14.403 24.2275 14.3703 24.2881 14.319C24.3535 14.2677 24.4188 14.2163 24.4841 14.165C24.5541 14.109 24.5961 14.0763 24.6101 14.067C24.6895 14.0017 24.7385 13.969 24.7571 13.969C24.7805 13.969 24.7805 13.9993 24.7571 14.06C24.7338 14.1207 24.7221 14.1743 24.7221 14.221C24.7221 14.2443 24.7081 14.284 24.6801 14.34C24.6521 14.396 24.6195 14.4473 24.5821 14.494C24.5448 14.5407 24.5121 14.564 24.4841 14.564ZM23.7211 17.07C23.6371 17.07 23.5601 17.0513 23.4901 17.014C23.4248 16.9767 23.3758 16.9067 23.3431 16.804C23.3385 16.79 23.3338 16.776 23.3291 16.762C23.3291 16.748 23.3291 16.7317 23.3291 16.713C23.3291 16.6197 23.3501 16.503 23.3921 16.363C23.4341 16.223 23.4855 16.0877 23.5461 15.957C23.5181 15.9943 23.4855 16.041 23.4481 16.097C23.4108 16.1483 23.3571 16.216 23.2871 16.3C23.2685 16.3187 23.2475 16.328 23.2241 16.328C23.1915 16.328 23.1751 16.3093 23.1751 16.272C23.1751 16.244 23.1845 16.2207 23.2031 16.202C23.3245 16.048 23.4318 15.9103 23.5251 15.789C23.6231 15.6677 23.6955 15.565 23.7421 15.481C23.7421 15.4763 23.7398 15.474 23.7351 15.474C23.7351 15.4693 23.7351 15.4647 23.7351 15.46C23.7351 15.446 23.7421 15.425 23.7561 15.397C23.7935 15.285 23.8308 15.1917 23.8681 15.117C23.9101 15.0377 23.9545 14.9933 24.0011 14.984C24.0105 14.984 24.0198 14.984 24.0291 14.984C24.0385 14.9793 24.0478 14.977 24.0571 14.977C24.1085 14.977 24.1551 14.9887 24.1971 15.012C24.2391 15.0353 24.2601 15.0703 24.2601 15.117C24.2601 15.159 24.2438 15.2103 24.2111 15.271C24.1831 15.3317 24.1458 15.4063 24.0991 15.495C23.9965 15.7097 23.9031 15.9057 23.8191 16.083C23.7398 16.2557 23.6955 16.398 23.6861 16.51C23.6815 16.5287 23.6791 16.5473 23.6791 16.566C23.6791 16.58 23.6791 16.5963 23.6791 16.615C23.6791 16.8017 23.7398 16.895 23.8611 16.895C23.9358 16.895 24.0315 16.8553 24.1481 16.776C24.2648 16.692 24.3838 16.5917 24.5051 16.475C24.6265 16.3537 24.7361 16.2393 24.8341 16.132C24.9368 16.02 25.0068 15.936 25.0441 15.88C25.0581 15.866 25.0721 15.859 25.0861 15.859C25.1048 15.859 25.1188 15.866 25.1281 15.88C25.1421 15.894 25.1445 15.9127 25.1351 15.936C25.0931 16.0153 25.0208 16.1157 24.9181 16.237C24.8201 16.3537 24.7081 16.4727 24.5821 16.594C24.4608 16.7107 24.3418 16.811 24.2251 16.895C24.1645 16.9417 24.0875 16.9813 23.9941 17.014C23.9055 17.0513 23.8145 17.07 23.7211 17.07ZM25.5032 17.077C25.3726 17.077 25.2582 17.0467 25.1602 16.986C24.9969 16.888 24.9152 16.7107 24.9152 16.454C24.9152 16.3467 24.9339 16.223 24.9712 16.083C25.0039 15.9663 25.0622 15.8403 25.1462 15.705C25.2302 15.565 25.3282 15.432 25.4402 15.306C25.5569 15.18 25.6829 15.0773 25.8182 14.998C25.9536 14.9187 26.0889 14.879 26.2242 14.879C26.2802 14.879 26.3292 14.886 26.3712 14.9C26.4272 14.9187 26.4739 14.9537 26.5112 15.005C26.5532 15.0517 26.5742 15.1123 26.5742 15.187C26.5742 15.2663 26.5532 15.3107 26.5112 15.32C26.4739 15.3293 26.4552 15.32 26.4552 15.292C26.4552 15.2827 26.4552 15.2733 26.4552 15.264C26.4599 15.2547 26.4622 15.2477 26.4622 15.243C26.4622 15.2057 26.4506 15.173 26.4272 15.145C26.4086 15.1123 26.3712 15.096 26.3152 15.096C26.2406 15.096 26.1472 15.1357 26.0352 15.215C25.9279 15.2943 25.8159 15.4017 25.6992 15.537C25.5872 15.6677 25.4869 15.8123 25.3982 15.971C25.3142 16.1297 25.2582 16.2883 25.2302 16.447C25.2256 16.4703 25.2209 16.4937 25.2162 16.517C25.2162 16.5357 25.2162 16.5567 25.2162 16.58C25.2162 16.6873 25.2396 16.7783 25.2862 16.853C25.3376 16.923 25.4169 16.958 25.5242 16.958C25.6549 16.958 25.7809 16.909 25.9022 16.811C26.0236 16.7083 26.1309 16.587 26.2242 16.447C26.3222 16.307 26.3946 16.1833 26.4412 16.076C26.4786 15.992 26.5042 15.9197 26.5182 15.859C26.5322 15.7983 26.5392 15.747 26.5392 15.705C26.5392 15.6677 26.5346 15.635 26.5252 15.607C26.5206 15.579 26.5136 15.5557 26.5042 15.537C26.4949 15.509 26.4902 15.488 26.4902 15.474C26.4902 15.4367 26.5042 15.4063 26.5322 15.383C26.5649 15.3597 26.5976 15.348 26.6302 15.348C26.6582 15.348 26.6886 15.3573 26.7212 15.376C26.7586 15.3853 26.8099 15.3923 26.8752 15.397C26.9406 15.4017 27.0106 15.404 27.0852 15.404C27.1646 15.404 27.2439 15.4017 27.3232 15.397C27.4072 15.3923 27.4796 15.383 27.5402 15.369C27.5496 15.3643 27.5636 15.362 27.5822 15.362C27.6149 15.362 27.6312 15.3713 27.6312 15.39C27.6312 15.4087 27.6149 15.425 27.5822 15.439C27.4189 15.5137 27.2719 15.5533 27.1412 15.558C27.0152 15.5627 26.9056 15.565 26.8122 15.565C26.8216 15.6817 26.7959 15.8077 26.7352 15.943C26.6746 16.0737 26.6116 16.1903 26.5462 16.293C26.4669 16.4097 26.3759 16.5287 26.2732 16.65C26.1706 16.7713 26.0562 16.874 25.9302 16.958C25.8042 17.0373 25.6619 17.077 25.5032 17.077Z" fill="black"/>
<circle cx="15.5" cy="15.5" r="15.25" stroke="black" stroke-width="0.5"/>
</svg>
