<svg width="31" height="31" viewBox="0 0 31 31" fill="none" xmlns="http://www.w3.org/2000/svg">
<g clip-path="url(#clip0_809_7972)">
<path d="M15.5075 29.1704C18.4932 29.1704 21.4894 28.1941 23.9852 26.2124C24.4499 25.8434 24.4864 25.1503 24.0677 24.7316L21.703 22.3669C21.703 22.3669 11.1931 11.857 11.1931 11.857C11.1929 11.8567 11.1926 11.8565 11.1924 11.8563L6.26885 6.93276C5.84938 6.51324 5.15625 6.5515 4.788 7.01529C0.473994 12.4486 0.925308 20.2504 5.8377 25.1628C8.49364 27.8187 11.9934 29.1704 15.5075 29.1704ZM20.9277 22.876V23.4255C20.9277 23.943 20.5068 24.364 19.9893 24.364H11.0117C10.4926 24.364 10.0732 23.9398 10.0732 23.4255V16.9314C10.2257 16.9629 10.3817 16.9791 10.5386 16.9791C11.1637 16.9791 11.7608 16.7237 12.1925 16.275C12.6243 16.7238 13.2213 16.9791 13.8464 16.9791C14.1848 16.9791 14.5142 16.9056 14.816 16.7644L20.9277 22.876ZM14.0986 16.047C14.016 16.0622 13.9318 16.0709 13.8464 16.0709C13.4479 16.0709 13.0682 15.8991 12.8047 15.5993C12.6495 15.4229 12.4263 15.3217 12.1925 15.3217C11.9587 15.3217 11.7355 15.4229 11.5804 15.5993C11.3168 15.899 10.9371 16.0709 10.5386 16.0709C10.3793 16.0709 10.2219 16.043 10.0732 15.99V15.5082C10.0732 14.5704 10.3694 13.6476 10.915 12.8634L14.0986 16.047ZM5.4993 7.58007C5.53049 7.54077 5.59055 7.53884 5.62663 7.57498L10.2651 12.2135C9.55369 13.1766 9.16504 14.3311 9.16504 15.5082V23.4256V23.4258C9.16504 24.4405 9.99059 25.2723 11.0117 25.2723H19.9893C20.8952 25.2723 21.6504 24.6163 21.806 23.7544L23.4255 25.3739C23.462 25.4104 23.4595 25.4703 23.4204 25.5013C18.3486 29.5282 11.0658 29.1065 6.47998 24.5206C1.89393 19.9346 1.47241 12.6518 5.4993 7.58007Z" fill="black"/>
<path d="M24.732 24.0673C25.1513 24.4865 25.8444 24.4487 26.2129 23.9847C27.8985 21.8618 28.9042 19.3067 29.1213 16.5958C29.1413 16.3458 28.9548 16.1269 28.7048 16.1068C28.4536 16.0871 28.236 16.2733 28.216 16.5232C28.0133 19.0538 27.0747 21.4386 25.5016 23.4198C25.4707 23.4588 25.4109 23.4617 25.3742 23.425L21.836 19.8867V16.2789V15.508C21.836 13.8115 21.0496 12.2105 19.6784 11.1154C19.0395 10.605 18.686 9.74042 18.623 8.54432C19.2209 8.37043 19.6594 7.81794 19.6594 7.16465C19.6594 6.37233 19.0148 5.72775 18.2225 5.72775H16.5601C16.3093 5.72775 16.106 5.93107 16.106 6.18185C16.106 6.43264 16.3093 6.63595 16.5601 6.63595H18.2225C18.514 6.63595 18.7512 6.87311 18.7512 7.16465C18.7512 7.45618 18.514 7.6934 18.2225 7.6934C17.7831 7.6934 14.0226 7.6934 12.7785 7.6934C12.487 7.6934 12.2498 7.45624 12.2498 7.16465C12.2498 6.87311 12.487 6.63595 12.7785 6.63595H14.441C14.6918 6.63595 14.8951 6.43264 14.8951 6.18185C14.8951 5.93107 14.6918 5.72775 14.441 5.72775H12.7785C11.9862 5.72775 11.3416 6.37233 11.3416 7.16465C11.3416 7.81825 11.7804 8.37092 12.3787 8.54456C12.3466 9.15021 12.2388 9.67291 12.0568 10.1074L7.57546 5.6261C7.53901 5.58965 7.54144 5.52977 7.58061 5.49871C15.6036 -0.871588 27.4109 4.40481 28.2157 14.4766C28.2357 14.7266 28.4538 14.9129 28.7045 14.8931C28.9545 14.8731 29.141 14.6543 29.121 14.4042C28.257 3.59306 15.5976 -2.02633 7.01571 4.78759C6.55186 5.15583 6.5136 5.84885 6.93312 6.26837L24.732 24.0673ZM20.9278 18.9786L18.4955 16.5463C18.6074 16.4657 18.7122 16.3749 18.8084 16.275C19.2402 16.7237 19.8372 16.979 20.4623 16.979C20.6192 16.979 20.7752 16.9629 20.9278 16.9313V18.9786ZM13.2852 8.60166H17.7156C17.7943 10.0642 18.2629 11.1472 19.1117 11.8251C20.2659 12.7469 20.9278 14.0893 20.9278 15.5081V15.9899C20.779 16.0428 20.6216 16.0708 20.4623 16.0708C20.0638 16.0708 19.6841 15.899 19.4206 15.5993C19.2654 15.4228 19.0422 15.3216 18.8084 15.3216C18.5746 15.3216 18.3514 15.4228 18.1962 15.5993C18.0937 15.7159 17.9728 15.8139 17.8391 15.89L12.7381 10.7888C13.0549 10.1932 13.2383 9.46058 13.2852 8.60166Z" fill="black"/>
<path d="M15.5 31C24.0669 31 31 24.0676 31 15.5C31 6.93314 24.0676 0 15.5 0C6.93314 0 0 6.93241 0 15.5C0 24.0669 6.93241 31 15.5 31ZM15.5 0.9082C23.546 0.9082 30.0918 7.45408 30.0918 15.5C30.0918 23.5459 23.546 30.0918 15.5 30.0918C7.45402 30.0918 0.9082 23.5459 0.9082 15.5C0.9082 7.45408 7.45402 0.9082 15.5 0.9082Z" fill="black"/>
</g>
<defs>
<clipPath id="clip0_809_7972">
<rect width="31" height="31" fill="white"/>
</clipPath>
</defs>
</svg>
