<svg width="31" height="31" viewBox="0 0 31 31" fill="none" xmlns="http://www.w3.org/2000/svg">
<path d="M30.0042 15.5001C30.6652 15.0462 31 14.5581 31 14.0469C31 13.4878 30.7558 12.9588 30.3299 12.5955C29.9044 12.2325 29.34 12.0755 28.7822 12.1645C28.0273 12.285 27.4212 12.8489 27.2382 13.6012C27.2052 13.7367 27.0746 13.835 26.9275 13.835H23.5205C23.435 13.0712 22.8358 12.456 22.0603 12.3691C20.2164 12.1612 18.7517 11.3821 16.9862 10.1923C16.7783 10.0523 16.496 10.1072 16.3558 10.3152C16.2157 10.5232 16.2707 10.8054 16.4787 10.9455C18.306 12.1769 19.9372 13.0437 21.9587 13.2716C22.3373 13.3141 22.6227 13.6373 22.6227 14.0234V16.9769C22.6227 17.363 22.3373 17.6862 21.9585 17.7287C19.2242 18.0369 17.1914 19.5049 14.1143 21.7269C13.9125 21.8726 13.7059 22.0217 13.4938 22.1744C11.3295 23.7332 8.68739 24.4674 6.87001 24.808C7.30892 24.2898 7.70865 23.6102 8.05516 22.7825C8.87254 20.8299 9.32264 18.2436 9.32264 15.5002C9.32264 12.7567 8.87248 10.1705 8.05516 8.21791C7.70865 7.39017 7.30898 6.71053 6.87007 6.19237C8.68721 6.53301 11.329 7.26714 13.4939 8.82592C13.9659 9.16571 14.4549 9.52015 14.8812 9.82621C15.085 9.97243 15.3686 9.92593 15.5149 9.72219C15.6612 9.51845 15.6146 9.23473 15.4109 9.08845C14.9872 8.78426 14.5073 8.43642 14.0246 8.08888C10.9356 5.86445 6.40453 4.99512 4.66132 4.99512C4.66108 4.99512 4.6609 4.99512 4.66066 4.99512C4.65938 4.99512 4.65805 4.99512 4.65678 4.99512C3.33989 4.99778 2.1364 6.14194 1.26749 8.21766C0.450166 10.1702 0 12.7565 0 15.5C0 18.3846 0.490611 21.064 1.38138 23.0447C1.48425 23.2735 1.75301 23.3755 1.98176 23.2726C2.21051 23.1698 2.31253 22.9009 2.20966 22.6722C1.38259 20.8331 0.908203 18.2189 0.908203 15.5C0.908203 12.8741 1.3333 10.4125 2.10528 8.56841C2.81192 6.88037 3.73968 5.90986 4.65224 5.90344C5.89593 5.96841 6.73602 7.41826 7.21749 8.56841C7.9894 10.4125 8.41456 12.8742 8.41456 15.5C8.41456 18.1258 7.98946 20.5875 7.21749 22.4316C6.73602 23.5818 5.89599 25.0314 4.65236 25.0966C4.13929 25.0931 3.63057 24.7967 3.14026 24.2152C2.97866 24.0235 2.69216 23.9991 2.5004 24.1609C2.30865 24.3225 2.28431 24.609 2.44603 24.8007C3.10932 25.5874 3.87415 26.0036 4.65799 26.0048C4.65914 26.0048 4.66035 26.0049 4.6615 26.0049C4.66344 26.0049 4.66538 26.0048 4.66732 26.0048C6.41561 26.0003 10.9235 25.1449 14.0247 22.9113C14.237 22.7584 14.4439 22.609 14.646 22.4631C17.7121 20.249 19.5629 18.9126 22.0601 18.6311C22.8358 18.5441 23.435 17.9288 23.5205 17.165H23.9691C24.2198 17.165 24.4232 16.9617 24.4232 16.7109C24.4232 16.4602 24.2198 16.2568 23.9691 16.2568H23.531V14.7432H26.9275C27.4971 14.7432 27.9878 14.3618 28.1206 13.8159C28.2154 13.4262 28.5388 13.123 28.9254 13.0614C29.225 13.0135 29.5144 13.0935 29.7406 13.2865C29.9639 13.4769 30.0919 13.7541 30.0919 14.0469C30.0919 14.2026 29.8923 14.5079 29.3296 14.856C29.1046 14.9952 28.9703 15.236 28.9702 15.5001C28.9702 15.7641 29.1045 16.0049 29.3294 16.1442C29.8921 16.4925 30.0918 16.7976 30.0918 16.9531C30.0918 17.504 29.6436 17.9521 29.0928 17.9521C28.6295 17.9521 28.2294 17.6379 28.1197 17.1879C27.9862 16.6397 27.4952 16.2568 26.9257 16.2568H25.9141C25.6633 16.2568 25.46 16.4602 25.46 16.7109C25.46 16.9617 25.6633 17.165 25.9141 17.165H26.9257C27.0751 17.165 27.2032 17.2628 27.2374 17.4029C27.4465 18.2611 28.2095 18.8604 29.0928 18.8604C30.1444 18.8604 31 18.0048 31 16.9531C31 16.4422 30.6652 15.9542 30.0042 15.5001Z" fill="black"/>
<path d="M4.54102 18.5601C5.72858 18.5601 6.14551 16.704 6.14551 15.5C6.14551 14.284 5.72368 12.4398 4.54102 12.4398C3.35345 12.4398 2.93652 14.2959 2.93652 15.5C2.93652 16.716 3.35835 18.5601 4.54102 18.5601ZM4.54102 13.3481C4.74306 13.3481 5.2373 14.1022 5.2373 15.5C5.2373 16.8979 4.74306 17.652 4.54102 17.652C4.33897 17.652 3.84473 16.8979 3.84473 15.5C3.84473 14.1022 4.33897 13.3481 4.54102 13.3481Z" fill="black"/>
</svg>
