<svg width="31" height="31" viewBox="0 0 31 31" fill="none" xmlns="http://www.w3.org/2000/svg">
<g clip-path="url(#clip0_809_7995)">
<path d="M19.7678 11.4532C18.947 10.0308 18.8411 9.06117 18.8689 8.55384C19.5393 8.23013 19.9893 7.54273 19.9893 6.77092C19.9893 5.84682 19.3525 5.06878 18.4948 4.85201V1.47598C18.4948 0.662111 17.8327 0 17.0188 0H13.9803C13.1664 0 12.5043 0.662111 12.5043 1.47598V4.85201C11.6465 5.06872 11.0098 5.84676 11.0098 6.77092C11.0098 7.54273 11.4597 8.23013 12.1301 8.55384C12.1579 9.06124 12.052 10.031 11.2313 11.4532C9.34858 14.7157 7.72266 17.5332 7.72266 21.5068C7.72266 25.9275 9.86115 28.7106 11.1359 29.9761C11.8204 30.6556 13.2886 31.0001 15.4996 31.0001C17.7106 31.0001 19.1787 30.6556 19.8633 29.9761C21.138 28.7106 23.2765 25.9275 23.2765 21.5068C23.2765 17.5332 21.6505 14.7157 19.7678 11.4532ZM13.9803 1.3418H17.0188C17.0928 1.3418 17.153 1.40198 17.153 1.47598V4.79177H13.8461V1.47598C13.8461 1.40198 13.9063 1.3418 13.9803 1.3418ZM18.9179 29.0238C18.6089 29.3305 17.5487 29.6583 15.4995 29.6583C13.4504 29.6583 12.3901 29.3305 12.0812 29.0239C10.9545 27.9053 9.06439 25.4415 9.06439 21.5068C9.06439 17.8926 10.5335 15.3469 12.3934 12.1239C13.2501 10.6394 13.4745 9.50283 13.4778 8.72492H14.9666C15.3371 8.72492 15.6375 8.42456 15.6375 8.05402C15.6375 7.68348 15.3371 7.38312 14.9666 7.38312H12.8121C12.5423 7.30563 12.3515 7.05632 12.3515 6.77099C12.3515 6.41957 12.6375 6.13363 12.9889 6.13363H18.0101C18.3615 6.13363 18.6475 6.41957 18.6475 6.77099C18.6475 7.07437 18.4319 7.33716 18.1348 7.3958C17.8797 7.44625 17.6767 7.63947 17.6139 7.89186C17.4505 8.54753 17.3621 9.96924 18.6056 12.1239C20.4655 15.3469 21.9346 17.8926 21.9346 21.5068C21.9347 25.4414 20.0445 27.9053 18.9179 29.0238Z" fill="black"/>
<path d="M18.8204 16.7641C18.2295 15.7356 17.0122 14.0103 15.4991 14.0103C13.986 14.0103 12.7687 15.7357 12.1778 16.7641C11.2917 18.3064 10.7412 20.1238 10.7412 21.5068C10.7412 24.6458 12.1745 26.6662 13.0289 27.5913C13.1167 27.6863 13.23 27.7539 13.3552 27.786C13.7025 27.8749 14.3563 27.981 15.4991 27.981C16.6421 27.981 17.2958 27.8749 17.643 27.786C17.7683 27.7538 17.8816 27.6863 17.9693 27.5913C18.8237 26.6662 20.257 24.6457 20.257 21.5068C20.257 20.1238 19.7065 18.3065 18.8204 16.7641ZM15.4991 15.3521C16.0776 15.3521 16.8624 16.1306 17.5338 17.225H13.4645C14.1359 16.1306 14.9206 15.3521 15.4991 15.3521ZM17.1221 26.5265C16.8481 26.5765 16.3375 26.6392 15.4992 26.6392C14.6608 26.6392 14.1503 26.5765 13.8762 26.5265C13.0273 25.5509 12.0831 23.9225 12.0831 21.5068C12.0831 20.5807 12.3604 19.5324 12.7731 18.5668H18.2252C18.6379 19.5324 18.9152 20.5807 18.9152 21.5068C18.9152 23.9225 17.971 25.5509 17.1221 26.5265Z" fill="black"/>
</g>
<defs>
<clipPath id="clip0_809_7995">
<rect width="31" height="31" fill="white"/>
</clipPath>
</defs>
</svg>
