<svg width="31" height="31" viewBox="0 0 31 31" fill="none" xmlns="http://www.w3.org/2000/svg">
<g clip-path="url(#clip0_809_8028)">
<path d="M30.9907 8.23365L30.8519 7.23463C30.8171 6.98392 30.6861 6.76231 30.4829 6.61118C30.28 6.45981 30.0303 6.39738 29.7798 6.43593L13.5275 8.92166C13.5845 8.42215 13.7273 8.11705 13.9094 7.73035C13.9402 7.66508 13.9719 7.59483 14.0038 7.52009L28.9094 3.04294C29.1519 2.97009 29.3505 2.80666 29.4693 2.58292C29.5875 2.35918 29.6109 2.1028 29.5348 1.86133L29.2316 0.899435C29.1554 0.657957 28.9894 0.461416 28.764 0.345999C28.5386 0.230345 28.282 0.210714 28.0414 0.290182L23.5993 1.75726C23.3616 1.83578 23.2325 2.09216 23.311 2.33009C23.3895 2.56779 23.6457 2.69692 23.8838 2.6184L28.326 1.15132C28.3293 1.15014 28.339 1.14706 28.3506 1.15321C28.3626 1.15912 28.3655 1.16882 28.3664 1.1719L28.6699 2.13402C28.6708 2.1371 28.6739 2.1468 28.6675 2.15862C28.6613 2.17045 28.6516 2.17328 28.6486 2.17423L14.3654 6.46431C14.3716 6.44137 14.3768 6.41795 14.3827 6.39501C14.3879 6.37396 14.3931 6.35315 14.3981 6.3321C14.4071 6.29473 14.4158 6.25736 14.4243 6.21976C14.4295 6.1961 14.4347 6.17245 14.4399 6.14857C14.4475 6.11309 14.4548 6.07761 14.4617 6.04214C14.4674 6.01423 14.4728 5.98608 14.478 5.9577C14.4839 5.92554 14.4898 5.89361 14.4955 5.86144C14.5012 5.82857 14.5066 5.79522 14.5118 5.76187C14.5144 5.74484 14.5177 5.72781 14.5203 5.71102L21.864 3.2856C22.1017 3.20708 22.2308 2.95046 22.1523 2.71277C22.0738 2.47484 21.8174 2.3457 21.5795 2.42422L14.474 4.77112C14.4246 4.68551 14.3593 4.6084 14.2791 4.54502C14.0705 4.38064 13.7954 4.33192 13.5433 4.41541L12.7964 4.66209C12.4942 4.76166 12.2827 5.03081 12.2576 5.34774C12.2532 5.40379 12.2475 5.45701 12.2411 5.50857L11.2423 5.8385C11.2023 5.76897 11.1522 5.70487 11.0914 5.64929C10.8814 5.45701 10.5829 5.39315 10.3123 5.48255L9.48101 5.75714C9.25632 5.83117 9.07847 6.00098 8.99285 6.22212C8.93703 6.36592 8.87176 6.50617 8.80766 6.6424L7.741 6.9948C7.71474 6.94916 7.684 6.90564 7.64805 6.86519C7.43874 6.62892 7.10975 6.54023 6.81009 6.63909L5.89692 6.94064C5.66514 7.01727 5.48515 7.19205 5.40309 7.42005C5.35697 7.54729 5.31723 7.67643 5.28128 7.80698L4.26121 8.14401C4.21864 8.07022 4.16329 8.00258 4.0966 7.94392C3.88445 7.75802 3.5978 7.70008 3.33007 7.78853L2.58175 8.03569C2.28705 8.13313 2.07608 8.39613 2.04416 8.70572C2.03824 8.76343 2.03304 8.82209 2.02831 8.88145L1.02834 9.21186C0.543257 9.37198 0.273635 9.89869 0.42713 10.3859L0.497847 10.6099C0.579916 10.8705 0.767943 11.0701 0.999723 11.1777C0.890455 11.3565 0.839605 11.5725 0.870352 11.7946L0.902754 12.0273C0.967794 12.4944 1.3727 12.8369 1.83342 12.8369C1.87174 12.8369 1.91029 12.8345 1.94931 12.8298L2.87265 12.7141C2.98807 13.0268 3.06044 13.3716 3.06044 13.9168C3.06044 14.7578 2.88897 15.1225 2.65128 15.6275C2.50512 15.9382 2.34358 16.2824 2.21846 16.7263H0.71591C0.51393 16.7263 0.320464 16.8121 0.184943 16.9616C0.0496586 17.1113 -0.0165645 17.3124 0.00353897 17.5134C0.278128 20.2621 1.47913 25.3348 6.43025 28.5405V29.3165C6.43025 30.08 7.05157 30.7013 7.81526 30.7013H19.6373C20.4007 30.7013 21.022 30.08 21.022 29.3165V28.5372C25.9687 25.3315 27.1694 20.261 27.444 17.5132C27.4641 17.3124 27.3979 17.1113 27.2624 16.9616C27.1271 16.8121 26.9336 16.7263 26.7319 16.7263H13.8891C13.896 16.7116 13.9023 16.6977 13.9094 16.6825C14.1961 16.0728 14.5532 15.3141 14.5532 13.9168C14.5532 12.6469 14.2583 11.9045 13.9894 11.322L30.1776 9.29464C30.4288 9.26318 30.6521 9.13523 30.806 8.93419C30.9602 8.7334 31.0257 8.48459 30.9907 8.23365ZM1.36277 10.3372L1.29229 10.1132C1.28708 10.0964 1.29631 10.0787 1.31263 10.0732L2.0179 9.84027C2.01909 9.86345 2.02074 9.88568 2.02216 9.90862C2.02311 9.92257 2.02382 9.93653 2.02476 9.95048C2.02713 9.98359 2.02949 10.0165 2.03233 10.0493C2.03233 10.0512 2.03257 10.0529 2.0328 10.0548C2.03588 10.0919 2.03872 10.1293 2.0425 10.1659L1.4025 10.3582C1.38571 10.3632 1.36821 10.3537 1.36277 10.3372ZM1.83674 11.9298C1.81947 11.9317 1.80339 11.9197 1.80102 11.9024L1.76886 11.6697C1.76626 11.6524 1.77832 11.6363 1.79558 11.6337L2.36392 11.5469C2.36581 11.5521 2.36794 11.5571 2.37007 11.5625C2.38639 11.6056 2.40318 11.6475 2.41997 11.6886C2.42281 11.6955 2.42541 11.7026 2.42849 11.7094C2.44717 11.7553 2.46633 11.8 2.48549 11.8438C2.48596 11.8452 2.48667 11.8468 2.48738 11.8482L1.83674 11.9298ZM12.3664 7.81455C12.3667 7.81384 12.3669 7.81313 12.3672 7.81242C12.4142 7.67335 12.466 7.54375 12.5197 7.41981C12.5197 7.41958 12.5199 7.41934 12.5199 7.41887C12.5736 7.29517 12.6292 7.17715 12.6838 7.06103C12.6895 7.04873 12.6954 7.03619 12.7011 7.02389C12.7099 7.00521 12.7188 6.98629 12.7276 6.96737C12.7342 6.95341 12.7406 6.93946 12.7472 6.92527C12.7635 6.88979 12.7801 6.85408 12.7962 6.81789C12.7983 6.81316 12.8004 6.8082 12.8028 6.80323C12.8172 6.77059 12.8317 6.73724 12.8461 6.70366C12.8503 6.69396 12.8544 6.68403 12.8586 6.67409C12.8742 6.63672 12.8896 6.59888 12.9047 6.5601C12.9083 6.55134 12.9114 6.54236 12.9149 6.53361C12.927 6.50191 12.9388 6.46975 12.9504 6.43711C12.9546 6.42457 12.9591 6.41204 12.9636 6.39927C12.9769 6.36072 12.9896 6.32146 13.0019 6.28101C13.0064 6.26658 13.0107 6.25168 13.015 6.23678C13.0239 6.20604 13.0327 6.17458 13.0412 6.14289C13.0452 6.12728 13.0495 6.11167 13.0535 6.09582C13.0642 6.05302 13.0743 6.00902 13.0838 5.96385C13.0852 5.95723 13.0869 5.95132 13.0883 5.94446C13.089 5.94162 13.089 5.93878 13.0897 5.93571C13.1171 5.8016 13.1394 5.65733 13.1547 5.49887L13.6552 5.33355C13.6479 5.39693 13.6401 5.46032 13.6308 5.52347C13.6294 5.53387 13.6278 5.54381 13.6263 5.55398C13.6181 5.60908 13.6093 5.66372 13.5996 5.71859C13.597 5.73396 13.5944 5.74933 13.5916 5.76447C13.58 5.82762 13.5679 5.89077 13.5547 5.95344C13.554 5.95676 13.553 5.96007 13.5523 5.96338C13.5398 6.0218 13.5263 6.07974 13.5121 6.13769C13.5076 6.1559 13.5031 6.17387 13.4986 6.19208C13.4842 6.24908 13.4693 6.30585 13.4534 6.36237C13.4516 6.36899 13.4497 6.37585 13.4478 6.38248C13.431 6.44066 13.4135 6.4986 13.3953 6.55655C13.3917 6.5679 13.3879 6.57973 13.3844 6.59108C13.3645 6.65281 13.3437 6.71406 13.3222 6.77508C13.3208 6.77934 13.3193 6.78336 13.3177 6.78738C13.2945 6.85242 13.2704 6.91723 13.2448 6.98132C13.2446 6.98203 13.2446 6.9825 13.2444 6.98321C13.1914 7.11732 13.1387 7.23817 13.0887 7.34413C12.834 7.8855 12.5935 8.39684 12.5935 9.44033C12.5935 9.4453 12.5937 9.44955 12.5937 9.45428V9.45499C12.5937 9.5075 12.5947 9.55858 12.5961 9.60872C12.5968 9.6416 12.5985 9.67306 12.5996 9.70498C12.6006 9.72367 12.6013 9.74259 12.6022 9.76104C12.6041 9.7977 12.6065 9.83365 12.6091 9.86912C12.6098 9.8774 12.6105 9.88568 12.611 9.89396C12.637 10.2253 12.6914 10.4959 12.7626 10.7333C12.7633 10.7362 12.7643 10.739 12.7652 10.7418C12.7898 10.8234 12.8163 10.9015 12.8444 10.9765C12.8449 10.9774 12.8454 10.9786 12.8456 10.9795C12.9194 11.1761 13.0031 11.3551 13.0887 11.5372C13.3629 12.1198 13.6462 12.7224 13.6462 13.9168C13.6462 15.1114 13.3629 15.7138 13.0887 16.2966C13.0239 16.4347 12.9575 16.5754 12.896 16.7263H12.3809C12.4724 16.4631 12.5793 16.236 12.6838 16.0135C12.9386 15.4721 13.1791 14.9605 13.1791 13.9168C13.1791 12.8733 12.9386 12.3617 12.6838 11.8201C12.5632 11.564 12.4409 11.3036 12.3418 10.9911C12.3416 10.9902 12.3414 10.9895 12.3411 10.9888C12.2137 10.5855 12.1444 10.1477 12.1297 9.65011C12.1297 9.64964 12.1295 9.64893 12.1295 9.64822C12.1276 9.58105 12.1266 9.51199 12.1266 9.44057C12.1264 8.72867 12.2271 8.22703 12.3664 7.81455ZM10.8391 16.6825C11.1257 16.0728 11.4826 15.3141 11.4826 13.9168C11.4826 12.8962 11.2922 12.2165 11.0779 11.6865L11.6042 11.6207C11.6893 11.8367 11.7792 12.028 11.8629 12.2063C12.1006 12.711 12.2721 13.0757 12.2721 13.9168C12.2721 14.7578 12.1006 15.1225 11.8629 15.6275C11.7167 15.9382 11.5552 16.2824 11.4303 16.7263H10.8187C10.8256 16.7114 10.832 16.6974 10.8391 16.6825ZM10.6886 10.8211C10.6856 10.8137 10.6822 10.8064 10.6792 10.7988C10.6707 10.7785 10.6621 10.7579 10.6539 10.7371C10.6463 10.7184 10.639 10.6998 10.6319 10.6811C10.6198 10.6496 10.608 10.6177 10.5969 10.5853C10.594 10.5775 10.5914 10.5694 10.5888 10.5616C10.5614 10.4793 10.5363 10.3932 10.515 10.3L11.2565 10.1868C11.2572 10.1922 11.2582 10.1974 11.2586 10.2028C11.2678 10.2885 11.2785 10.3712 11.2906 10.4512C11.2917 10.4597 11.2929 10.4682 11.2943 10.4767C11.3073 10.5607 11.3218 10.6416 11.3376 10.7196C11.3388 10.7262 11.3397 10.7331 11.3409 10.7395L10.6886 10.8211ZM11.2205 6.80086L11.9109 6.57287C11.9083 6.57807 11.906 6.58304 11.9036 6.58824C11.8934 6.61047 11.883 6.6327 11.8724 6.65494C11.8693 6.66156 11.8662 6.66818 11.8629 6.67504C11.7972 6.81458 11.7279 6.9624 11.66 7.1237C11.6583 7.12725 11.6569 7.1308 11.6553 7.13458C11.6347 7.18425 11.6139 7.2351 11.5935 7.28737C11.5921 7.29115 11.5907 7.2947 11.5893 7.29848L10.9505 7.49029C11.0434 7.28571 11.1375 7.06126 11.2205 6.80086ZM10.5176 8.56737L11.3064 8.33038C11.2596 8.60805 11.2288 8.92 11.2213 9.27453L10.4304 9.39539C10.4332 9.05458 10.4644 8.79252 10.5176 8.56737ZM9.0962 8.71282C9.09644 8.71164 9.09668 8.71069 9.09691 8.70975C9.15155 8.25304 9.25585 7.90182 9.37505 7.59885C9.37647 7.5953 9.37765 7.59199 9.37907 7.58845C9.39918 7.53783 9.41975 7.4884 9.44033 7.44015C9.44388 7.43211 9.44719 7.42431 9.45074 7.41627C9.45759 7.40018 9.46469 7.38434 9.47155 7.36849C9.4751 7.36092 9.47841 7.35288 9.48195 7.34531C9.49165 7.32332 9.50159 7.30156 9.51128 7.28004C9.51365 7.27507 9.51601 7.2701 9.51838 7.26514C9.52666 7.24692 9.53493 7.22871 9.54321 7.21074C9.56663 7.1606 9.5898 7.11069 9.61322 7.06103C9.6785 6.92243 9.75181 6.76681 9.81851 6.60078L10.389 6.41228C10.2854 6.77059 10.1501 7.06363 10.0276 7.32403C10.0245 7.33089 10.0212 7.33751 10.0181 7.34437C10.0139 7.35288 10.0101 7.3614 10.0061 7.37015C9.99637 7.39025 9.98691 7.41059 9.97745 7.43117C9.9694 7.44819 9.96136 7.46546 9.95332 7.48273C9.94765 7.49502 9.94197 7.50732 9.93629 7.51986C9.92565 7.5428 9.91524 7.56598 9.90484 7.58916C9.90247 7.59412 9.90011 7.59933 9.89798 7.60453C9.69269 8.06312 9.52287 8.56405 9.52287 9.44033C9.52287 9.63001 9.53091 9.80148 9.54558 9.95947V9.96231C9.54581 9.96349 9.54581 9.96467 9.54605 9.96562C9.54818 9.98809 9.55078 10.0091 9.55314 10.0309C9.55575 10.0555 9.55835 10.0803 9.56119 10.1042C9.56521 10.1354 9.56946 10.1657 9.57396 10.1957C9.57538 10.2064 9.57703 10.2173 9.57869 10.2279C9.63167 10.5718 9.71823 10.8452 9.81969 11.0943C9.82324 11.1028 9.82655 11.1115 9.8301 11.1198C9.83436 11.1304 9.83885 11.1406 9.84334 11.151C9.85375 11.1763 9.86439 11.2012 9.87527 11.2258C9.8774 11.2305 9.87929 11.2352 9.88142 11.2399C9.9221 11.3324 9.96325 11.4202 10.0032 11.5053C10.0032 11.5055 10.0035 11.5058 10.0035 11.5058C10.0084 11.5162 10.0132 11.5266 10.0181 11.5368C10.2922 12.1195 10.5756 12.7219 10.5756 13.9165C10.5756 15.1114 10.2922 15.7138 10.0181 16.2963C9.95308 16.4344 9.88686 16.5752 9.82513 16.7261H9.31001C9.40178 16.4628 9.50844 16.2358 9.61298 16.0132C9.8677 15.4718 10.1085 14.9605 10.1085 13.9165C10.1085 12.8728 9.86794 12.3615 9.61322 11.8199C9.53801 11.6602 9.46209 11.4987 9.39161 11.3241C9.39161 11.3239 9.39161 11.3237 9.39137 11.3234C9.227 10.9164 9.1331 10.5335 9.08698 10.0822C9.08675 10.0808 9.08651 10.0794 9.08627 10.078C9.06664 9.88521 9.05576 9.67424 9.05576 9.44033C9.05576 9.16976 9.07043 8.92946 9.0962 8.71282ZM8.79253 12.2063C9.02998 12.711 9.20145 13.0757 9.20145 13.9168C9.20145 14.7578 9.02998 15.1225 8.79253 15.6275C8.64636 15.9382 8.48459 16.2826 8.35971 16.7263H7.74809C7.75495 16.7114 7.76157 16.6974 7.76843 16.6825C8.05532 16.0728 8.41222 15.3138 8.41222 13.9168C8.41222 13.1174 8.29538 12.5273 8.14165 12.0543L8.68988 11.9857C8.72441 12.0616 8.75894 12.1351 8.79253 12.2063ZM7.67454 10.9488C7.67406 10.9481 7.67383 10.9474 7.67335 10.9467C7.64332 10.8802 7.6147 10.8145 7.58774 10.7478L8.2521 10.6463C8.25352 10.6539 8.25541 10.6612 8.25683 10.669C8.2696 10.7357 8.28332 10.8007 8.29774 10.8637C8.30105 10.8778 8.3046 10.892 8.30791 10.9065C8.32352 10.972 8.33984 11.0354 8.35711 11.0969C8.35853 11.1021 8.35971 11.1075 8.36113 11.1127L7.78428 11.1848C7.77908 11.1735 7.77364 11.1621 7.76843 11.151C7.76749 11.1491 7.76678 11.1472 7.76583 11.1453C7.73438 11.0784 7.70363 11.0131 7.67454 10.9488ZM7.65372 7.97893L8.36846 7.74289C8.3512 7.80202 8.33511 7.86398 8.3195 7.92689C8.31832 7.93139 8.31714 7.93588 8.31596 7.94037C8.29538 8.0241 8.27622 8.11114 8.25872 8.20219C8.25777 8.2074 8.25683 8.21284 8.25564 8.21804C8.25021 8.24689 8.24477 8.27504 8.23956 8.3046L7.45411 8.5404C7.50378 8.33913 7.57142 8.16364 7.65372 7.97893ZM8.15063 9.27832C8.14969 9.33153 8.14898 9.38522 8.14898 9.44057C8.14898 9.5451 8.15111 9.64586 8.15489 9.74354L7.37653 9.8625C7.36731 9.75654 7.36211 9.64089 7.36045 9.51554L8.15063 9.27832ZM6.95081 7.33774L6.95862 7.34153C6.95744 7.34342 6.95602 7.34555 6.95483 7.34744L6.94798 7.34437C6.94868 7.342 6.94963 7.33987 6.95081 7.33774ZM5.98703 9.28731C5.98774 9.2568 5.98892 9.22747 5.98987 9.1979C5.99058 9.17969 5.99105 9.16101 5.99176 9.14303C5.99342 9.10732 5.99531 9.07279 5.99744 9.0385C5.99815 9.02738 5.99862 9.01626 5.99933 9.00538C6.00169 8.96896 6.00453 8.93349 6.00737 8.89872C6.00808 8.8902 6.00879 8.88193 6.0095 8.87365C6.01281 8.8377 6.01612 8.80269 6.01991 8.7684C6.02062 8.76178 6.02133 8.75492 6.02227 8.7483C6.03315 8.65133 6.04616 8.56098 6.06035 8.47607C6.0639 8.4555 6.06721 8.43492 6.07099 8.41458C6.07407 8.39802 6.07714 8.38194 6.08022 8.36586C6.08637 8.33464 6.09251 8.30366 6.09937 8.27267C6.14195 8.07519 6.1909 7.91412 6.23608 7.7838L6.8354 7.58584C6.62656 8.04964 6.45225 8.55223 6.45225 9.44057C6.45225 10.3317 6.62774 10.8348 6.83752 11.3C6.83776 11.3005 6.838 11.301 6.83823 11.3014C6.85597 11.3402 6.87347 11.379 6.89145 11.4176C6.89216 11.4187 6.89263 11.4202 6.89334 11.4213C6.91108 11.4599 6.92929 11.4984 6.9475 11.537C6.94939 11.541 6.95105 11.5448 6.95294 11.5486C6.9747 11.5949 6.9967 11.642 7.01893 11.6898C7.01987 11.6919 7.02082 11.694 7.02177 11.6962C7.04636 11.7494 7.07096 11.8035 7.09532 11.8589H7.09556C7.3148 12.3575 7.50496 12.9386 7.50496 13.9168C7.50496 15.1112 7.22138 15.7138 6.9475 16.2966C6.88246 16.4344 6.81624 16.5754 6.75451 16.7261H6.23939C6.33115 16.4628 6.43782 16.2358 6.5426 16.0132C6.79732 15.4718 7.03785 14.9603 7.03785 13.9168C7.03785 12.8733 6.79732 12.3617 6.54236 11.8201C6.51871 11.7695 6.49482 11.7186 6.47117 11.6676C6.47117 11.6676 6.47117 11.6673 6.47093 11.6673C6.45367 11.6299 6.43617 11.5919 6.41866 11.5526C6.41819 11.5514 6.41772 11.5502 6.41724 11.5493C6.29118 11.2688 6.15992 10.9348 6.07738 10.5027C6.07691 10.5011 6.07643 10.4994 6.07596 10.4978C6.02629 10.2355 5.99365 9.93606 5.98679 9.58271C5.98679 9.58247 5.98679 9.58224 5.98679 9.582C5.98585 9.53564 5.98514 9.48858 5.98514 9.44033C5.98538 9.38877 5.98585 9.33768 5.98703 9.28731ZM5.7886 12.3489C5.99082 12.7858 6.13107 13.1571 6.13107 13.9168C6.13107 14.7578 5.95936 15.1225 5.7219 15.6275C5.57574 15.9382 5.4142 16.2824 5.28909 16.7263H4.67747C4.68457 16.7116 4.69095 16.6977 4.69805 16.6825C4.9847 16.0728 5.34159 15.3141 5.34159 13.9168C5.34159 13.3139 5.27513 12.83 5.17651 12.4256L5.7886 12.3489ZM5.28696 11.0997C5.28838 11.1049 5.29003 11.1096 5.29145 11.1146C5.30848 11.1747 5.32598 11.2328 5.34419 11.2894C5.34632 11.2955 5.34845 11.3017 5.35034 11.3078C5.3695 11.3665 5.38913 11.4235 5.40923 11.4788C5.40971 11.4798 5.41018 11.4812 5.41042 11.4821L4.87921 11.5488C4.87898 11.5484 4.87874 11.5479 4.87874 11.5476C4.82387 11.4199 4.76829 11.3007 4.71484 11.1872L5.28696 11.0997ZM5.11809 10.208L4.99014 10.2274L5.1162 10.1896C5.11667 10.1957 5.11738 10.2019 5.11809 10.208ZM4.29172 9.27264C4.29196 9.26531 4.29196 9.25798 4.29219 9.25088C4.29409 9.1979 4.29692 9.14635 4.30047 9.09597C4.30071 9.09266 4.30094 9.08935 4.30118 9.08603L5.10343 8.82114C5.10224 8.8332 5.10177 8.84574 5.10082 8.8578C5.0987 8.88666 5.0968 8.91575 5.09491 8.94484C5.09136 8.99924 5.08829 9.05434 5.08592 9.10992C5.08451 9.13949 5.08332 9.16929 5.08261 9.19909C5.0819 9.2173 5.08096 9.23504 5.08048 9.25348L4.28959 9.49094C4.28935 9.47391 4.28888 9.45783 4.28888 9.44057C4.28888 9.38286 4.29006 9.32728 4.29172 9.27264ZM2.99115 10.4174C2.99091 10.4157 2.99091 10.4143 2.99067 10.4126C2.96513 10.2636 2.94645 10.1097 2.93367 9.94883C2.93367 9.94623 2.93344 9.94339 2.9332 9.94079C2.9306 9.9072 2.92823 9.87314 2.92634 9.83909C2.92563 9.82679 2.92492 9.81449 2.92421 9.80195C2.92303 9.77641 2.92161 9.75039 2.92067 9.72438C2.91996 9.71019 2.91948 9.696 2.91901 9.68157C2.91806 9.65508 2.91735 9.62812 2.91688 9.60116C2.91665 9.58815 2.91617 9.57514 2.91594 9.56213C2.91523 9.52192 2.91475 9.48148 2.91475 9.44057C2.91475 9.4013 2.91546 9.36252 2.91617 9.32373C2.91665 9.29535 2.91735 9.2672 2.91806 9.23929C2.92185 9.11371 2.92871 8.99096 2.93935 8.8727L3.42893 8.71116C3.42349 8.74901 3.41923 8.78803 3.41497 8.82705C3.41355 8.83983 3.41166 8.85236 3.41024 8.86537C3.40551 8.91054 3.40173 8.95714 3.39842 9.00373C3.39724 9.01934 3.39558 9.03448 3.39463 9.05009C3.39156 9.09597 3.38943 9.14303 3.38754 9.19057C3.38683 9.2076 3.38565 9.22416 3.38517 9.24166C3.38304 9.30646 3.3821 9.37269 3.3821 9.44057C3.3821 9.50466 3.38304 9.56734 3.3847 9.62883C3.40953 10.4673 3.6004 10.9415 3.81491 11.4038C3.81704 11.4083 3.81917 11.4131 3.8213 11.4178C3.83998 11.4575 3.85843 11.4973 3.87735 11.5372C3.8783 11.5391 3.87924 11.541 3.88019 11.5431C3.90313 11.5919 3.92631 11.6411 3.94925 11.6912C3.94973 11.6919 3.9502 11.6929 3.95043 11.6938C4.02352 11.8518 4.09613 12.0164 4.16164 12.1969C4.16164 12.1971 4.16188 12.1971 4.16188 12.1973C4.31797 12.6276 4.43481 13.15 4.43481 13.9168C4.43481 15.1114 4.15147 15.7138 3.87735 16.2966C3.81231 16.4347 3.74609 16.5754 3.68436 16.7263H3.16924C3.26101 16.4631 3.36767 16.236 3.47245 16.0135C3.72693 15.4721 3.9677 14.9605 3.9677 13.9168C3.9677 12.8749 3.72788 12.3634 3.47363 11.8229C3.47316 11.822 3.47292 11.8211 3.47245 11.8201C3.45967 11.7934 3.44714 11.7664 3.4346 11.7395C3.43011 11.7302 3.42585 11.7208 3.42136 11.7113C3.40811 11.6829 3.39487 11.6541 3.38139 11.625C3.37855 11.6188 3.37571 11.6127 3.37287 11.6065C3.35868 11.5756 3.34473 11.5441 3.33054 11.5122C3.32888 11.5084 3.32699 11.5044 3.32534 11.5003C3.31044 11.4665 3.29554 11.4322 3.28087 11.3972C3.28016 11.3956 3.27969 11.3941 3.27898 11.3925C3.21678 11.2442 3.15789 11.0864 3.10633 10.9124C3.10609 10.9112 3.10562 10.9102 3.10538 10.9091C3.06092 10.7591 3.02213 10.5969 2.99115 10.4174ZM26.5193 17.6333C26.2198 20.2716 25.0238 24.8968 20.4684 27.8147H11.1872C10.9367 27.8147 10.7338 28.0178 10.7338 28.2683C10.7338 28.5187 10.9367 28.7217 11.1872 28.7217H20.115V29.3163C20.115 29.58 19.9007 29.7943 19.6373 29.7943H7.81526C7.55179 29.7943 7.33727 29.58 7.33727 29.3163V28.7217H9.07705C9.32751 28.7217 9.53068 28.5187 9.53068 28.2683C9.53068 28.0178 9.32751 27.8147 9.07705 27.8147H6.97919C2.42376 24.8963 1.22796 20.2716 0.928534 17.6333H26.5193ZM30.0863 8.38241C30.078 8.39306 30.0681 8.39424 30.0648 8.39471L13.6256 10.4533C13.5769 10.2856 13.5372 10.0886 13.5164 9.84098L29.9172 7.3323C29.9205 7.33183 29.9305 7.33041 29.9411 7.33845C29.9517 7.34626 29.9532 7.35619 29.9536 7.3595L30.0925 8.35876C30.0929 8.36184 30.0944 8.37201 30.0863 8.38241Z" fill="black"/>
</g>
<defs>
<clipPath id="clip0_809_8028">
<rect width="31" height="31" fill="white"/>
</clipPath>
</defs>
</svg>
