<svg width="31" height="31" viewBox="0 0 31 31" fill="none" xmlns="http://www.w3.org/2000/svg">
<path d="M13.1161 20.1193C15.2731 20.1919 18.3238 18.1091 17.3344 15.7001C17.1796 15.3238 16.933 14.9924 16.6171 14.7359C16.3013 14.4795 15.9263 14.3062 15.5262 14.232L13.742 13.9022C13.5167 13.8608 13.3034 13.7696 13.1177 13.6355C12.932 13.5013 12.7785 13.3275 12.6684 13.1266L11.7556 11.5185C11.5803 11.2074 11.3396 10.938 11.0501 10.7289C10.7912 10.5427 10.4979 10.41 10.1872 10.3384C9.87642 10.2668 9.55455 10.2579 9.24033 10.3121C8.93835 10.3654 8.65023 10.4791 8.39325 10.6464C8.13627 10.8137 7.91572 11.0311 7.74482 11.2857C6.50137 13.1151 6.61926 15.6234 8.03078 17.3849C8.80373 18.4259 9.84683 19.255 11.061 19.6917C11.7145 19.9486 12.419 20.1295 13.1161 20.1193ZM11.7538 13.2809C12.1286 14.0447 12.7424 14.6137 13.5857 14.7597L13.915 14.8208C12.8453 15.944 11.1364 14.6229 11.7539 13.2809H11.7538ZM8.95394 17.1433C7.59654 15.6705 7.34206 13.4061 8.46587 11.7754C8.59594 11.5814 8.77197 11.4225 8.9783 11.313C9.18462 11.2035 9.41483 11.1467 9.64842 11.1477C9.92414 11.1497 10.1944 11.225 10.4315 11.3657C10.6686 11.5065 10.864 11.7077 10.9978 11.9488L11.2755 12.4379C10.0585 13.8238 11.125 16.1271 12.9735 16.1111C13.7443 16.1154 14.4933 15.6841 14.8459 14.9926L15.3688 15.0895C15.6262 15.1378 15.8674 15.2499 16.0703 15.4154C16.2732 15.581 16.4315 15.7947 16.5305 16.0371C17.1239 17.4148 15.4859 18.6863 14.3225 19.0599C13.4717 19.3338 12.5536 19.3131 11.716 19.0014C10.6411 18.6602 9.66652 18.0379 8.95394 17.1433ZM4.27264 10.4518C6.323 11.1738 8.88141 9.83011 9.4701 7.7645C10.2101 5.31774 8.51207 2.71283 6.09304 1.65901C3.3645 0.44559 1.83024 1.24596 1.24372 4.16668C0.703946 6.74852 1.84901 9.64212 4.27264 10.4518ZM2.09985 4.32731C2.16716 3.96322 2.27134 3.60693 2.41076 3.26393C2.37195 4.12878 2.45315 5.19537 2.90967 6.10878C2.96323 6.20888 3.05373 6.28413 3.16191 6.31853C3.2701 6.35294 3.38744 6.34379 3.48898 6.29302C3.59052 6.24225 3.66825 6.15388 3.70565 6.04669C3.74304 5.9395 3.73714 5.82195 3.68921 5.71904C3.28482 4.91014 3.24019 3.91535 3.29251 3.13514L4.05691 4.6137C4.08322 4.66456 4.11928 4.70975 4.16305 4.74667C4.20682 4.78359 4.25743 4.81154 4.312 4.8289C4.36657 4.84627 4.42402 4.85271 4.48108 4.84787C4.53814 4.84303 4.59369 4.827 4.64455 4.8007C4.69541 4.77439 4.7406 4.73832 4.77752 4.69456C4.81445 4.65079 4.84239 4.60017 4.85975 4.54561C4.87712 4.49104 4.88356 4.43359 4.87872 4.37653C4.87388 4.31947 4.85785 4.26392 4.83155 4.21306L4.02803 2.65943C4.72147 3.04366 5.56768 3.64125 6.03776 4.45494C6.07609 4.52121 6.13119 4.57621 6.19753 4.61442C6.26386 4.65263 6.33908 4.6727 6.41564 4.67261C6.73999 4.6806 6.96474 4.29843 6.79266 4.0187C6.31852 3.19817 5.55672 2.57599 4.85552 2.1357C6.25876 2.49825 7.70728 3.58059 8.28248 4.73697C8.95921 6.05889 8.96805 7.40067 8.11458 8.48991C8.23253 7.91665 8.27285 7.25512 8.07014 6.64741C7.87185 6.10648 7.07844 6.37083 7.2438 6.92314C7.43621 7.501 7.31887 8.18784 7.16073 8.71823L6.48926 7.41944C6.43497 7.31896 6.34341 7.24381 6.23428 7.21013C6.12515 7.17646 6.00716 7.18695 5.90569 7.23936C5.80421 7.29177 5.72736 7.38191 5.69165 7.49039C5.65595 7.59888 5.66424 7.71704 5.71475 7.81947L6.38597 9.11778C5.86212 8.93971 5.23455 8.63789 4.87478 8.14649C4.5207 7.69239 3.84578 8.18596 4.17177 8.66114C4.55079 9.17875 5.11473 9.52901 5.65117 9.76466C2.96192 9.88388 1.54864 6.84067 2.09985 4.32731ZM28.1592 18.342C30.8033 15.5137 30.3314 10.811 26.889 9.233C24.7308 8.37548 21.7351 9.79978 20.5814 12.2418C19.8967 13.6939 19.7732 14.6455 19.6741 15.4103C19.507 16.695 19.4179 16.7605 18.5099 17.4665C14.0309 20.7034 13.144 27.1925 19.3057 29.5018C20.7992 30.0637 22.4202 30.0043 23.8218 29.2529C26.4361 27.9471 28.0407 23.8889 27.3741 21.3308C27.1132 20.0653 27.3256 19.2462 28.1595 18.342H28.1592ZM26.5139 21.4699C27.2409 24.4499 24.908 29.0629 21.3617 29.0038C21.7193 28.5578 21.0953 28.018 20.7042 28.434C20.5702 28.5858 20.4285 28.7344 20.2874 28.8832C19.5972 28.7299 18.9468 28.4333 18.3308 28.0619C18.3271 27.8551 18.3228 27.6482 18.3271 27.4437C18.3211 26.8611 17.4795 26.8615 17.4556 27.4273C14.1138 24.6923 16.325 20.0029 19.0451 18.1544C20.1107 17.3258 20.336 17.0827 20.5386 15.5221C20.6294 14.818 20.7433 13.9418 21.3697 12.6133C22.1928 10.9014 24.0812 9.74166 25.7667 9.85948C25.7235 9.89714 25.6881 9.94296 25.6626 9.99432C25.6371 10.0457 25.6219 10.1016 25.618 10.1588C25.6142 10.216 25.6216 10.2734 25.64 10.3278C25.6583 10.3821 25.6872 10.4323 25.725 10.4754C25.9739 10.7575 26.2275 10.61 26.4833 10.3916C26.5237 10.6672 26.6407 10.9105 26.9495 10.9154C27.0555 10.915 27.1576 10.8757 27.2365 10.805C27.3155 10.7343 27.3657 10.6371 27.3778 10.5319C29.617 12.3725 29.4029 15.7477 27.4954 17.777C26.345 19.129 26.274 19.9866 26.5139 21.4699ZM26.868 15.917C26.6415 16.4913 26.3756 17.0493 26.0722 17.587C25.7765 18.0818 25.0439 17.6672 25.3123 17.1605C25.5958 16.6581 25.8444 16.1366 26.0561 15.5999C26.2814 15.0712 27.0612 15.3733 26.868 15.9171V15.917ZM25.3322 18.9488C25.316 19.5618 25.2657 20.1734 25.1816 20.7808C25.084 21.3499 24.2564 21.2324 24.3186 20.6607C24.3982 20.0855 24.4457 19.5062 24.4608 18.9256C24.4942 18.3503 25.33 18.3731 25.3322 18.949V18.9488ZM27.5808 12.2652C27.5816 12.8912 27.52 13.5157 27.3969 14.1295C27.2653 14.692 26.4464 14.5249 26.5424 13.9584C26.6524 13.4128 26.7082 12.8576 26.7093 12.301C26.7203 11.728 27.5521 11.6862 27.5808 12.2654V12.2652ZM23.4701 26.0052C23.177 26.5447 22.8526 27.0667 22.4986 27.5684C22.1543 28.0301 21.4673 27.5433 21.7863 27.0663C22.1207 26.5924 22.4271 26.0995 22.7041 25.5899C22.9937 25.0922 23.7293 25.4903 23.4701 26.0052ZM24.8229 22.5861C24.6671 23.1806 24.4758 23.7652 24.2501 24.3369C24.0197 24.8674 23.2444 24.5561 23.4399 24.016C23.6529 23.4771 23.8331 22.9258 23.9795 22.3651C24.143 21.8124 24.9513 22.0244 24.8229 22.5861ZM23.385 12.6422C23.7129 12.1251 24.0771 11.6318 24.4748 11.1662C24.8618 10.7396 25.4981 11.2835 25.1369 11.7326C24.7661 12.1667 24.4266 12.6266 24.1212 13.109C24.0818 13.1711 24.0274 13.2222 23.963 13.2576C23.8985 13.2929 23.8262 13.3114 23.7527 13.3113C23.4212 13.3198 23.1967 12.9207 23.385 12.6422ZM20.1144 20.8742C19.8252 21.3677 19.5693 21.8801 19.3484 22.4078C19.1112 22.9339 18.336 22.6055 18.5441 22.0716C18.7801 21.5078 19.0536 20.9605 19.3628 20.4333C19.6683 19.9452 20.3908 20.368 20.1144 20.8742ZM21.8493 15.9517C22.036 15.3722 22.2571 14.8044 22.5112 14.2512C22.7687 13.7365 23.5276 14.085 23.3027 14.6163C23.0628 15.1382 22.8542 15.674 22.678 16.2208C22.6619 16.277 22.6347 16.3295 22.5979 16.375C22.5611 16.4205 22.5155 16.4581 22.4639 16.4856C22.4122 16.5131 22.3556 16.5299 22.2973 16.5351C22.239 16.5402 22.1803 16.5336 22.1246 16.5156C22.0689 16.4975 22.0175 16.4685 21.9733 16.4301C21.9291 16.3918 21.893 16.3449 21.8673 16.2924C21.8416 16.2398 21.8267 16.1826 21.8236 16.1242C21.8205 16.0657 21.8292 16.0073 21.8491 15.9523L21.8493 15.9517ZM18.7952 24.0305C18.6477 24.5846 18.5351 25.1473 18.4582 25.7154C18.3613 26.2846 17.5342 26.1695 17.5943 25.5976C17.6765 24.9931 17.7965 24.3944 17.9535 23.805C17.9867 23.6971 18.0604 23.6063 18.1592 23.5516C18.2579 23.497 18.374 23.4828 18.483 23.512C18.5921 23.5412 18.6855 23.6116 18.7437 23.7083C18.8019 23.805 18.8203 23.9205 18.7951 24.0305H18.7952ZM22.082 18.2863C21.7273 18.657 21.3921 19.046 21.0778 19.4516C21.0371 19.5045 20.9849 19.5473 20.925 19.5767C20.8652 19.6061 20.7993 19.6213 20.7327 19.6212C20.3843 19.6319 20.1629 19.1917 20.3884 18.9188C20.688 18.5308 21.0165 18.1465 21.3659 17.775C21.446 17.1553 22.3295 17.2785 22.2317 17.8916C22.2044 18.0201 22.1846 18.1922 22.082 18.2863ZM16.8757 11.2689C17.709 11.281 18.5524 11.0287 19.3041 10.6302C20.3344 10.1265 21.2011 9.34142 21.8037 8.36573C22.4918 7.34933 22.8532 6.15534 22.7267 4.92C22.5603 3.1504 21.3402 0.816077 19.2739 1.15338C18.8814 1.21913 18.5126 1.38516 18.2031 1.63537C17.8936 1.88558 17.6541 2.21148 17.5076 2.5815C17.3391 2.99546 16.8192 4.27645 16.822 4.26913C16.5089 5.07325 15.8094 5.13809 14.9829 5.38276C14.847 5.49847 13.9222 5.51046 13.2399 6.12785C10.862 8.62136 14.3346 11.3663 16.8757 11.269V11.2689ZM13.825 6.77359C14.2905 6.35206 15.6206 6.15776 15.4406 6.15776C16.063 5.98054 17.1605 5.80199 17.6318 4.59208C17.7214 4.37048 18.2152 3.15482 18.3152 2.90827C18.7127 1.87425 20.0937 1.68214 20.8011 2.52126C22.013 3.87884 22.2438 6.03667 21.2594 7.5857C20.7186 8.55373 19.9195 9.37111 18.9241 9.84567C18.9302 9.85124 15.9834 11.5394 13.7276 8.95146C13.1667 8.30772 13.2105 7.33074 13.825 6.77371V6.77359ZM19.794 4.05806C19.4725 3.58119 20.1506 3.09137 20.502 3.54947C21.1438 4.4429 21.3357 5.5199 21.0718 6.75076C21.0602 6.80713 21.0376 6.86065 21.0053 6.90824C20.973 6.95583 20.9315 6.99654 20.8833 7.02801C20.8352 7.05949 20.7812 7.08111 20.7247 7.09163C20.6681 7.10215 20.61 7.10136 20.5537 7.08931C20.4975 7.07725 20.4442 7.05417 20.3969 7.02139C20.3496 6.98862 20.3092 6.94679 20.2782 6.89834C20.2472 6.84989 20.226 6.79577 20.216 6.73911C20.206 6.68245 20.2073 6.62436 20.2199 6.56821C20.4327 5.57434 20.2935 4.75296 19.794 4.05818V4.05806ZM7.91266 29.8799C7.99012 29.8799 8.06617 29.8592 8.13305 29.8202C11.7785 27.6918 12.321 24.7988 9.76176 21.4661C9.90159 21.2212 10.0204 20.9649 10.117 20.6999C10.139 20.6386 10.1471 20.5732 10.1406 20.5083C10.1342 20.4435 10.1133 20.381 10.0797 20.3252C10.046 20.2694 10.0004 20.2219 9.94601 20.186C9.89167 20.15 9.83001 20.1267 9.76551 20.1176C9.6736 20.1055 7.63342 19.8437 5.61139 20.3334C5.13465 18.7734 3.58477 18.2375 2.41107 17.9714C2.35442 17.9563 2.29532 17.9528 2.23731 17.9612C2.17929 17.9695 2.12354 17.9894 2.0734 18.0197C2.02326 18.0501 1.97975 18.0902 1.94548 18.1378C1.9112 18.1853 1.88687 18.2393 1.87393 18.2964C1.86099 18.3536 1.85971 18.4128 1.87017 18.4705C1.88062 18.5281 1.9026 18.5831 1.93479 18.6321C1.96697 18.6811 2.0087 18.723 2.05749 18.7555C2.10627 18.788 2.1611 18.8103 2.21871 18.8211C3.72136 19.162 4.50944 19.7008 4.77899 20.5861C2.77937 21.3452 1.28889 23.0991 1.22295 23.178C1.18103 23.2286 1.15104 23.288 1.1352 23.3518C1.11936 23.4156 1.11808 23.4822 1.13146 23.5466C1.14483 23.6109 1.17252 23.6714 1.21246 23.7237C1.25241 23.7759 1.30359 23.8184 1.36221 23.8482C1.52769 23.9306 1.68801 23.9991 1.84568 24.0601C1.8748 27.807 3.9188 29.77 7.91266 29.8799ZM5.41607 21.2883C6.77734 20.8773 8.26667 20.8857 9.06456 20.9319C8.65732 21.6981 8.09648 22.0218 7.23054 22.0218C7.14973 22.0176 7.06935 22.0358 6.99824 22.0744C6.92713 22.113 6.86806 22.1705 6.82754 22.2405C6.50864 22.8172 7.86991 23.3103 6.64456 25.4495C5.57476 25.0313 5.07561 24.3508 4.99163 23.2248C4.98517 23.1417 4.95505 23.0622 4.90482 22.9957C4.85459 22.9292 4.78635 22.8784 4.70819 22.8495C4.63003 22.8205 4.54521 22.8146 4.46376 22.8323C4.38232 22.85 4.30765 22.8907 4.2486 22.9495C3.73117 23.4682 3.11638 23.584 2.30142 23.3027C2.89435 22.715 4.06666 21.6959 5.41607 21.2883ZM2.71846 24.2933C3.28112 24.3717 3.78899 24.2913 4.24424 24.0403C4.54298 25.2089 5.4527 26.0805 6.83232 26.4125C6.905 26.4125 6.97651 26.3943 7.04036 26.3596C7.10421 26.3248 7.15836 26.2747 7.1979 26.2137C8.00045 24.9754 8.22114 23.865 7.86343 22.8397C8.36712 22.7563 8.83456 22.5248 9.20624 22.1748C11.2726 25.0041 10.8228 27.1776 7.79998 29.0045C4.4455 28.8716 2.81958 27.3666 2.71846 24.2933Z" fill="black"/>
</svg>
