<svg width="31" height="31" viewBox="0 0 31 31" fill="none" xmlns="http://www.w3.org/2000/svg">
<path d="M17.3756 19.3667C17.3453 19.3666 17.3151 19.3695 17.2867 19.3733C15.9301 19.4906 14.8535 21.1783 14.8535 23.2417C14.8535 23.5984 15.1429 23.8879 15.4996 23.8879C15.8563 23.8879 16.1457 23.5984 16.1457 23.2417C16.1457 22.4707 16.3425 21.7327 16.685 21.218C16.8988 20.8973 17.1524 20.6958 17.3756 20.6637V20.658C17.7323 20.658 18.0218 20.3686 18.0218 20.0129C18.0218 19.6562 17.7323 19.3667 17.3756 19.3667Z" fill="black"/>
<path d="M27.161 16.2036C27.1676 15.7655 27.1317 15.1415 26.9481 14.4803C26.7579 13.7962 26.3871 12.9969 25.671 12.346C27.1458 12.2329 28.7286 12.1856 30.3236 12.2618V12.2608C30.334 12.2613 30.3435 12.2627 30.3539 12.2627C30.7105 12.2627 31 11.9732 31 11.6165C31 11.2702 30.7266 10.9884 30.3851 10.9722V10.9718C27.2698 10.8232 24.2311 11.1217 21.8916 11.4788C17.2162 2.39828 5.20042 1.94604 5.20042 1.94604C8.52195 8.08449 15.1632 10.829 19.1678 11.9699C18.2937 12.153 17.726 12.2982 17.5738 12.3379C16.7375 12.2079 15.9267 12.1477 15.1433 12.1477C5.56184 12.1477 0 21.1423 0 21.1423C0.807904 21.252 1.59879 21.3041 2.36885 21.3041C9.79626 21.3041 15.413 16.52 17.8074 14.063C18.0071 15.1661 17.4044 16.6543 16.9806 17.4584C14.6987 17.7535 12.9164 20.2304 12.9164 23.2416C12.9164 26.4516 14.9409 29.0541 17.4375 29.0541C19.9341 29.0541 21.9587 26.4516 21.9587 23.2416C21.9587 20.4422 20.4185 18.1045 18.3685 17.553C18.5189 17.2237 18.6844 16.8188 18.8225 16.3762C19.1924 15.1935 19.2322 14.1619 18.9474 13.3388C19.9095 13.1274 21.4951 12.8148 23.4146 12.5744C24.5953 12.8966 25.3616 13.6411 25.6927 14.7886C25.8478 15.326 25.8753 15.8421 25.8696 16.1902C23.6606 16.5729 21.9587 19.0061 21.9587 21.9502C21.9587 25.1601 23.9822 27.7628 26.4788 27.7628C28.9754 27.7628 30.9999 25.1601 30.9999 21.9502C31 19.0384 29.3341 16.626 27.161 16.2036ZM13.6429 15.9793C12.0375 17.1594 10.3658 18.0979 8.67623 18.7678C6.62423 19.5815 4.53535 19.9996 2.46543 20.0128C3.07946 19.2891 3.89111 18.4253 4.88448 17.5691C6.28746 16.3587 7.77557 15.3975 9.30818 14.7116C11.1937 13.8673 13.1567 13.4391 15.1434 13.4391C15.6041 13.4391 16.0686 13.4623 16.536 13.5082C15.8056 14.2296 14.8284 15.1079 13.6429 15.9793ZM19.6143 19.9248C20.2927 20.797 20.6664 21.9748 20.6664 23.2416C20.6664 24.5083 20.2927 25.6871 19.6143 26.5594C19.0108 27.3352 18.2379 27.7628 17.4375 27.7628C16.6371 27.7628 15.8642 27.3352 15.2607 26.5594C14.5814 25.6871 14.2087 24.5083 14.2087 23.2416C14.2087 21.9748 14.5814 20.797 15.2607 19.9248C15.8642 19.1481 16.6371 18.7204 17.4375 18.7204C18.2379 18.7204 19.0108 19.1481 19.6143 19.9248ZM16.1177 9.53391C14.0895 8.67914 12.2816 7.63794 10.7443 6.43889C9.63169 5.57093 8.66013 4.61728 7.83702 3.58849C8.98085 3.80605 10.3933 4.15469 11.8804 4.71192C13.9324 5.48059 15.7252 6.49145 17.2076 7.71605C18.3306 8.64318 19.2785 9.69848 20.0438 10.8702C18.9426 10.5779 17.5766 10.1484 16.1177 9.53391ZM28.6567 25.2671C28.0522 26.0429 27.2792 26.4705 26.4789 26.4705C25.6785 26.4705 24.9056 26.0429 24.302 25.2671C23.6237 24.3948 23.25 23.2171 23.25 21.9503C23.25 20.6825 23.6237 19.5058 24.302 18.6335C24.9056 17.8568 25.6785 17.4291 26.4789 17.4291C27.2792 17.4291 28.0521 17.8567 28.6567 18.6335C29.335 19.5058 29.7087 20.6826 29.7087 21.9503C29.7087 23.2171 29.335 24.3948 28.6567 25.2671Z" fill="black"/>
<path d="M26.4177 18.0752C26.3875 18.0752 26.3582 18.078 26.3288 18.0818C24.9722 18.1991 23.8965 19.886 23.8965 21.9502C23.8965 22.3059 24.1851 22.5954 24.5417 22.5954C24.8983 22.5954 25.1879 22.3059 25.1879 21.9502C25.1879 21.1782 25.3847 20.4402 25.7271 19.9267C25.9409 19.6059 26.1944 19.4035 26.4177 19.3713V19.3666C26.7744 19.3666 27.0638 19.078 27.0638 18.7204C27.0639 18.3647 26.7744 18.0752 26.4177 18.0752Z" fill="black"/>
</svg>
