<svg width="31" height="31" viewBox="0 0 31 31" fill="none" xmlns="http://www.w3.org/2000/svg">
<g clip-path="url(#clip0_809_7987)">
<path d="M30.0137 17.7924L27.7648 9.6875H28.0938C28.2223 9.6875 28.3455 9.63647 28.4363 9.54563C28.5271 9.45479 28.5782 9.33159 28.5782 9.20312V6.29688C28.5782 6.16841 28.5271 6.04521 28.4363 5.95437C28.3455 5.86353 28.2223 5.8125 28.0938 5.8125H27.6094V4.35938C27.6094 4.23091 27.5584 4.10771 27.4675 4.01687C27.3767 3.92603 27.2535 3.875 27.125 3.875H26.9472L26.6369 1.39306C26.6223 1.27591 26.5654 1.16815 26.4768 1.09001C26.3883 1.01188 26.2743 0.968754 26.1563 0.96875H24.2188C24.1007 0.968754 23.9867 1.01188 23.8982 1.09001C23.8097 1.16815 23.7528 1.27591 23.7382 1.39306L23.4279 3.875H23.25C23.1216 3.875 22.9984 3.92603 22.9075 4.01687C22.8167 4.10771 22.7657 4.23091 22.7657 4.35938V5.8125H22.2813C22.1528 5.8125 22.0296 5.86353 21.9388 5.95437C21.8479 6.04521 21.7969 6.16841 21.7969 6.29688V9.20312C21.7969 9.33159 21.8479 9.45479 21.9388 9.54563C22.0296 9.63647 22.1528 9.6875 22.2813 9.6875H22.6128L21.2693 14.5239C21.1623 13.9566 20.855 13.4467 20.4035 13.087L18.8907 11.8766V10.5729C19.1738 10.4725 19.4188 10.2869 19.5923 10.0417C19.7657 9.79641 19.859 9.50351 19.8594 9.20312V8.23438C19.859 7.84912 19.7057 7.47977 19.4333 7.20736C19.1609 6.93494 18.7915 6.7817 18.4063 6.78125H12.5938C12.2085 6.7817 11.8392 6.93494 11.5668 7.20736C11.2944 7.47977 11.1411 7.84912 11.1407 8.23438V9.20312C11.1411 9.50351 11.2344 9.79641 11.4078 10.0417C11.5813 10.2869 11.8263 10.4725 12.1094 10.5729V11.8766L10.5965 13.087C10.1042 13.479 9.78498 14.0483 9.70722 14.6728C8.65297 12.9487 8.16327 10.0688 7.93677 7.73759C8.28667 7.69185 8.60802 7.5205 8.84099 7.25547C9.07396 6.99043 9.20268 6.64975 9.20316 6.29688V5.32812C9.20271 4.94287 9.04947 4.57352 8.77706 4.30111C8.50464 4.02869 8.13529 3.87545 7.75004 3.875H3.87504C3.48978 3.87545 3.12044 4.02869 2.84802 4.30111C2.5756 4.57352 2.42236 4.94287 2.42191 5.32812V6.29688C2.42233 6.6498 2.55101 6.99055 2.78399 7.25565C3.01697 7.52076 3.33836 7.69214 3.68831 7.73789C3.44933 10.195 2.91937 13.2628 1.74264 14.943C1.2353 15.6697 0.965011 16.5354 0.968789 17.4217V27.6094C0.96951 28.2515 1.2249 28.8671 1.67894 29.3211C2.13297 29.7751 2.74856 30.0305 3.39066 30.0312H8.23441C8.61057 30.0312 8.98154 29.9435 9.31787 29.775C9.6542 29.6066 9.94662 29.362 10.1719 29.0608C10.3972 29.362 10.6896 29.6066 11.026 29.775C11.3623 29.9435 11.7333 30.0312 12.1094 30.0312H18.8907C19.2668 30.0312 19.6378 29.9435 19.9741 29.775C20.3104 29.6066 20.6029 29.362 20.8282 29.0608C21.0535 29.362 21.3459 29.6066 21.6822 29.775C22.0185 29.9435 22.3895 30.0312 22.7657 30.0312H27.6094C28.2515 30.0305 28.8671 29.7751 29.3211 29.3211C29.7752 28.8671 30.0306 28.2515 30.0313 27.6094V17.9219C30.0313 17.8781 30.0254 17.8345 30.0137 17.7924ZM23.08 11.625H27.297L28.9098 17.4375H21.4654L23.08 11.625ZM21.3125 18.4062H29.0625V25.1875H21.3125V18.4062ZM24.6464 1.9375H25.7287L25.9709 3.875H24.4042L24.6464 1.9375ZM23.7344 4.84375H26.6407V5.8125H23.7344V4.84375ZM22.7657 6.78125H27.6094V8.71875H22.7657V6.78125ZM26.7594 9.6875L27.0282 10.6562H23.3491L23.6182 9.6875H26.7594ZM12.1094 8.23438C12.1096 8.10596 12.1606 7.98284 12.2514 7.89203C12.3422 7.80122 12.4654 7.75014 12.5938 7.75H18.4063C18.5347 7.75014 18.6578 7.80122 18.7486 7.89203C18.8394 7.98284 18.8905 8.10596 18.8907 8.23438V9.20312C18.8905 9.33154 18.8394 9.45466 18.7486 9.54547C18.6578 9.63628 18.5347 9.68736 18.4063 9.6875H12.5938C12.4654 9.68736 12.3422 9.63628 12.2514 9.54547C12.1606 9.45466 12.1096 9.33154 12.1094 9.20312V8.23438ZM9.68754 26.1562H1.93754V17.4375H9.68754V26.1562ZM7.0698 8.71875H4.55528C4.59543 8.38804 4.63024 8.06388 4.66021 7.75H6.96487C6.99484 8.06388 7.02953 8.38804 7.0698 8.71875ZM3.39066 6.29688V5.32812C3.39081 5.19971 3.44189 5.07659 3.53269 4.98578C3.6235 4.89497 3.74662 4.84389 3.87504 4.84375H7.75004C7.87846 4.84389 8.00158 4.89497 8.09238 4.98578C8.18319 5.07659 8.23427 5.19971 8.23441 5.32812V6.29688C8.23427 6.42529 8.18319 6.54841 8.09238 6.63922C8.00158 6.73003 7.87846 6.78111 7.75004 6.78125H3.87504C3.74662 6.78111 3.6235 6.73003 3.53269 6.63922C3.44189 6.54841 3.39081 6.42529 3.39066 6.29688ZM4.42371 9.6875H7.20136C7.5245 11.8241 8.09213 14.0747 9.08879 15.4984C9.29571 15.7941 9.45249 16.122 9.55282 16.4688H2.07226C2.17259 16.122 2.32937 15.7941 2.53629 15.4983C3.53295 14.0747 4.10058 11.8241 4.42371 9.6875ZM8.23441 29.0625H3.39066C3.00541 29.0621 2.63606 28.9088 2.36364 28.6364C2.09123 28.364 1.93799 27.9946 1.93754 27.6094V27.125H9.68754V27.6094C9.68709 27.9946 9.53385 28.364 9.26143 28.6364C8.98902 28.9088 8.61967 29.0621 8.23441 29.0625ZM18.8907 29.0625H12.1094C11.7242 29.0621 11.3548 28.9088 11.0824 28.6364C10.81 28.364 10.6567 27.9946 10.6563 27.6094V14.9781C10.6558 14.7601 10.7046 14.5448 10.799 14.3483C10.8935 14.1518 11.0311 13.9792 11.2017 13.8434L12.8965 12.4876C12.9532 12.4422 12.999 12.3847 13.0304 12.3192C13.0619 12.2537 13.0782 12.182 13.0782 12.1094V10.6562H17.9219V12.1094C17.9219 12.182 17.9382 12.2537 17.9697 12.3192C18.0011 12.3847 18.0469 12.4422 18.1036 12.4876L19.7983 13.8434C19.9689 13.9792 20.1065 14.1518 20.201 14.3483C20.2955 14.5448 20.3443 14.7601 20.3438 14.9781V27.6094C20.3433 27.9946 20.1901 28.364 19.9177 28.6364C19.6453 28.9088 19.2759 29.0621 18.8907 29.0625ZM27.6094 29.0625H22.7657C22.3804 29.0621 22.0111 28.9088 21.7386 28.6364C21.4662 28.364 21.313 27.9946 21.3125 27.6094V26.1562H29.0625V27.6094C29.0621 27.9946 28.9088 28.364 28.6364 28.6364C28.364 28.9088 27.9947 29.0621 27.6094 29.0625Z" fill="black"/>
<path d="M18.8906 14.5312H12.1094C11.9809 14.5312 11.8577 14.5823 11.7669 14.6731C11.676 14.764 11.625 14.8872 11.625 15.0156V26.6406C11.625 26.7691 11.676 26.8923 11.7669 26.9831C11.8577 27.074 11.9809 27.125 12.1094 27.125H18.8906C19.0191 27.125 19.1423 27.074 19.2331 26.9831C19.324 26.8923 19.375 26.7691 19.375 26.6406V15.0156C19.375 14.8872 19.324 14.764 19.2331 14.6731C19.1423 14.5823 19.0191 14.5312 18.8906 14.5312ZM18.4062 26.1562H12.5938V15.5H18.4062V26.1562Z" fill="black"/>
<path d="M3.39063 22.2812C3.39039 22.7066 3.50219 23.1246 3.71478 23.493C3.92737 23.8614 4.23325 24.1674 4.60164 24.38C4.97003 24.5927 5.38793 24.7046 5.81331 24.7045C6.23868 24.7043 6.65651 24.5922 7.02476 24.3792C7.39301 24.1663 7.69868 23.8602 7.91103 23.4916C8.12337 23.123 8.23489 22.705 8.23437 22.2796C8.23385 21.8543 8.12131 21.4365 7.90806 21.0685C7.69482 20.7004 7.38839 20.395 7.01962 20.183C7.18027 19.9442 7.26594 19.6628 7.26563 19.375C7.26563 19.2465 7.21459 19.1233 7.12376 19.0325C7.03292 18.9417 6.90971 18.8906 6.78125 18.8906C6.65279 18.8906 6.52958 18.9417 6.43875 19.0325C6.34791 19.1233 6.29688 19.2465 6.29688 19.375C6.29688 19.5035 6.24584 19.6267 6.15501 19.7175C6.06417 19.8083 5.94096 19.8594 5.8125 19.8594C5.68404 19.8594 5.56083 19.8083 5.47 19.7175C5.37916 19.6267 5.32813 19.5035 5.32813 19.375C5.32813 19.2465 5.27709 19.1233 5.18626 19.0325C5.09542 18.9417 4.97221 18.8906 4.84375 18.8906C4.71529 18.8906 4.59208 18.9417 4.50125 19.0325C4.41041 19.1233 4.35938 19.2465 4.35938 19.375C4.35907 19.6628 4.44473 19.9442 4.60538 20.183C4.23643 20.3952 3.92991 20.7009 3.71666 21.0692C3.50341 21.4376 3.39096 21.8556 3.39063 22.2812ZM5.8125 20.8281C6.0999 20.8281 6.38085 20.9133 6.61981 21.073C6.85878 21.2327 7.04503 21.4596 7.15501 21.7252C7.265 21.9907 7.29377 22.2829 7.2377 22.5647C7.18164 22.8466 7.04324 23.1055 6.84002 23.3088C6.63679 23.512 6.37787 23.6504 6.09599 23.7065C5.81411 23.7625 5.52194 23.7337 5.25641 23.6238C4.99089 23.5138 4.76394 23.3275 4.60427 23.0886C4.4446 22.8496 4.35938 22.5687 4.35938 22.2812C4.35982 21.896 4.51306 21.5266 4.78548 21.2542C5.0579 20.9818 5.42725 20.8286 5.8125 20.8281Z" fill="black"/>
<path d="M14.5312 18.8906H16.4688C16.5972 18.8906 16.7204 18.8396 16.8113 18.7488C16.9021 18.6579 16.9531 18.5347 16.9531 18.4062C16.9531 18.2778 16.9021 18.1546 16.8113 18.0637C16.7204 17.9729 16.5972 17.9219 16.4688 17.9219H14.5312C14.4028 17.9219 14.2796 17.9729 14.1887 18.0637C14.0979 18.1546 14.0469 18.2778 14.0469 18.4062C14.0469 18.5347 14.0979 18.6579 14.1887 18.7488C14.2796 18.8396 14.4028 18.8906 14.5312 18.8906Z" fill="black"/>
<path d="M14.5312 23.7344H16.4688C16.5972 23.7344 16.7204 23.6833 16.8113 23.5925C16.9021 23.5017 16.9531 23.3785 16.9531 23.25C16.9531 23.1215 16.9021 22.9983 16.8113 22.9075C16.7204 22.8167 16.5972 22.7656 16.4688 22.7656H14.5312C14.4028 22.7656 14.2796 22.8167 14.1887 22.9075C14.0979 22.9983 14.0469 23.1215 14.0469 23.25C14.0469 23.3785 14.0979 23.5017 14.1887 23.5925C14.2796 23.6833 14.4028 23.7344 14.5312 23.7344Z" fill="black"/>
<path d="M14.5312 21.3125H16.4688C16.5972 21.3125 16.7204 21.2615 16.8113 21.1706C16.9021 21.0798 16.9531 20.9566 16.9531 20.8281C16.9531 20.6997 16.9021 20.5765 16.8113 20.4856C16.7204 20.3948 16.5972 20.3438 16.4688 20.3438H14.5312C14.4028 20.3438 14.2796 20.3948 14.1887 20.4856C14.0979 20.5765 14.0469 20.6997 14.0469 20.8281C14.0469 20.9566 14.0979 21.0798 14.1887 21.1706C14.2796 21.2615 14.4028 21.3125 14.5312 21.3125Z" fill="black"/>
<path d="M25.1875 19.8594C23.8521 19.8594 22.7656 20.7285 22.7656 21.7969C22.7656 22.8652 23.8521 23.7344 25.1875 23.7344C26.5229 23.7344 27.6094 22.8652 27.6094 21.7969C27.6094 20.7285 26.5229 19.8594 25.1875 19.8594ZM25.1875 22.7656C24.3998 22.7656 23.7344 22.322 23.7344 21.7969C23.7344 21.2718 24.3998 20.8281 25.1875 20.8281C25.9752 20.8281 26.6406 21.2718 26.6406 21.7969C26.6406 22.322 25.9752 22.7656 25.1875 22.7656Z" fill="black"/>
</g>
<defs>
<clipPath id="clip0_809_7987">
<rect width="31" height="31" fill="white"/>
</clipPath>
</defs>
</svg>
