<svg width="31" height="31" viewBox="0 0 31 31" fill="none" xmlns="http://www.w3.org/2000/svg">
<path d="M16.4688 7.26562C16.7363 7.26562 16.9531 7.04876 16.9531 6.78125C16.9531 6.51374 16.7363 6.29688 16.4688 6.29688C16.2012 6.29688 15.9844 6.51374 15.9844 6.78125C15.9844 7.04876 16.2012 7.26562 16.4688 7.26562Z" fill="black"/>
<path d="M21.4215 18.4187L21.4076 18.4156C20.068 18.1702 18.7134 18.0165 17.3529 17.9555C17.6559 17.6678 17.9029 17.3264 18.0815 16.9487C18.1012 16.9503 18.121 16.952 18.1409 16.9529C18.1482 16.9529 18.1555 16.9534 18.1629 16.9534H23.7344C25.6995 16.9534 27.3302 16.3107 28.4501 15.0946C29.4845 13.9713 30.0312 12.4363 30.0312 10.6562C30.0312 10.6427 30.0308 10.6294 30.0307 10.6159H30.0312L30.0307 10.6151C30.018 8.9529 29.3493 7.36293 28.1701 6.19132C26.9909 5.01971 25.3967 4.36129 23.7344 4.35938H13.0781C12.6929 4.35894 12.3235 4.20571 12.0511 3.93329C11.7787 3.66087 11.6254 3.29151 11.625 2.90625V1.9375C11.625 1.80904 11.574 1.68583 11.4831 1.595C11.3923 1.50416 11.2691 1.45313 11.1406 1.45312C11.0122 1.45313 10.889 1.50416 10.7981 1.595C10.7073 1.68583 10.6562 1.80904 10.6562 1.9375V2.90625C10.657 3.46698 10.852 4.01013 11.2081 4.4433C11.5641 4.87647 12.0593 5.1729 12.6093 5.28217C12.6244 5.50269 12.6512 5.72225 12.6895 5.93995C12.3733 6.07367 12.0262 6.11715 11.6868 6.06559C11.5255 6.04124 11.3722 5.9789 11.2397 5.88371C11.1071 5.78852 10.9991 5.66319 10.9245 5.51806L10.6285 4.68209C10.6076 4.62163 10.575 4.5659 10.5325 4.51811C10.49 4.47032 10.4385 4.43142 10.3809 4.40365C10.3233 4.37587 10.2608 4.35978 10.1969 4.3563C10.1331 4.35282 10.0691 4.36201 10.0089 4.38336C9.94859 4.4047 9.89313 4.43777 9.84569 4.48065C9.79826 4.52354 9.75978 4.57539 9.73249 4.63322C9.7052 4.69105 9.68962 4.75372 9.68667 4.8176C9.68372 4.88148 9.69345 4.94531 9.71529 5.00541L10.0221 5.8719C10.0287 5.89068 10.0365 5.90904 10.0455 5.92687C10.1858 6.21181 10.3919 6.45933 10.6466 6.64907C10.9013 6.83881 11.1975 6.96533 11.5107 7.01823C11.6585 7.04524 11.8085 7.0587 11.9587 7.05843C12.291 7.05616 12.6205 6.99704 12.9329 6.88364C13.3595 8.12457 14.1626 9.20155 15.2302 9.96459C16.2977 10.7276 17.5767 11.1387 18.8889 11.1406H18.891H18.893H23.7344C23.995 11.1407 24.2451 11.2431 24.431 11.4257C24.6168 11.6084 24.7235 11.8568 24.728 12.1174C24.7326 12.3779 24.6346 12.6299 24.4552 12.8189C24.2758 13.0079 24.0293 13.1189 23.7689 13.128C23.7653 13.128 23.7615 13.128 23.7579 13.1286L18.1408 13.453C18.0129 13.4589 17.8859 13.4787 17.7623 13.5121C17.4472 13.0786 17.0342 12.7256 16.5569 12.4818C16.0796 12.2381 15.5516 12.1105 15.0156 12.1094H14.0469C13.9184 12.1094 13.7952 12.1604 13.7044 12.2512C13.6135 12.3421 13.5625 12.4653 13.5625 12.5938C13.5628 13.179 13.7146 13.7543 14.0031 14.2636C14.2916 14.7728 14.7069 15.1988 15.2088 15.5C14.747 15.7776 14.3579 16.1611 14.0738 16.6188C13.7896 17.0765 13.6185 17.5954 13.5746 18.1323C11.5186 18.4919 9.48037 19.3109 7.48965 20.5802C7.30835 20.6959 7.13719 20.8268 6.97803 20.9714C6.50296 20.1885 5.83415 19.5411 5.03611 19.0918C4.23807 18.6425 3.33771 18.4064 2.42188 18.4062H1.45312C1.32466 18.4062 1.20146 18.4573 1.11062 18.5481C1.01978 18.639 0.96875 18.7622 0.96875 18.8906C0.969729 19.9108 1.26319 20.9093 1.81434 21.7678C2.3655 22.6263 3.15124 23.3088 4.07844 23.7344C3.15124 24.1599 2.3655 24.8424 1.81434 25.7009C1.26319 26.5594 0.969729 27.5579 0.96875 28.5781C0.96875 28.7066 1.01978 28.8298 1.11062 28.9206C1.20146 29.0115 1.32466 29.0625 1.45312 29.0625H2.42188C3.3377 29.0624 4.23804 28.8263 5.03608 28.377C5.83411 27.9276 6.5029 27.2803 6.97797 26.4973C7.13713 26.642 7.30829 26.7728 7.48959 26.8885C10.256 28.6525 13.1141 29.5469 15.9844 29.5469C17.8032 29.544 19.6181 29.3788 21.4075 29.0531L21.4214 29.0501C27.8508 27.5667 29.884 24.1207 29.9674 23.9747C30.0093 23.9015 30.0312 23.8187 30.0312 23.7344C30.0312 23.6501 30.0093 23.5673 29.9674 23.4941C29.884 23.3481 27.8508 19.9024 21.4215 18.4187ZM26.2427 15.5057C25.1086 15.2067 24.8097 14.2887 24.7313 13.8279C25.1733 13.5686 25.4956 13.146 25.6288 12.6512C25.7839 12.6636 25.935 12.6698 26.082 12.6698C27.1136 12.6768 28.1223 12.3656 28.9706 11.7787C28.7116 13.325 27.8847 14.7811 26.2427 15.5057H26.2427ZM23.0926 10.1719H20.1267C20.4222 9.77867 20.6507 9.33947 20.8033 8.87193C20.8234 8.81158 20.8314 8.74786 20.8269 8.68441C20.8224 8.62096 20.8055 8.55901 20.777 8.50212C20.7486 8.44522 20.7092 8.39448 20.6611 8.3528C20.6131 8.31112 20.5573 8.27932 20.4969 8.2592C20.4366 8.23908 20.3729 8.23105 20.3094 8.23556C20.246 8.24007 20.184 8.25703 20.1271 8.28548C20.0702 8.31393 20.0195 8.35331 19.9778 8.40136C19.9361 8.44942 19.9043 8.50522 19.8842 8.56557C19.7314 9.04836 19.4714 9.49039 19.1239 9.85867C19.0134 9.97407 18.8916 10.078 18.7601 10.1687C17.4544 10.1354 16.2063 9.62421 15.2523 8.73203C14.2984 7.83986 13.7049 6.6287 13.5843 5.32812H23.7344C24.3928 5.32752 25.0455 5.44956 25.6592 5.68802C25.4885 8.19762 23.5785 9.80254 23.0926 10.1719ZM24.4254 10.2978C25.2367 9.50096 26.3334 8.09639 26.5869 6.15786C27.3135 6.61869 27.9178 7.24857 28.3481 7.99369C28.7784 8.73882 29.0219 9.57702 29.0578 10.4367C28.6339 10.8908 27.5026 11.8497 25.6435 11.6797C25.5684 11.3675 25.4182 11.0785 25.2059 10.8376C24.9936 10.5968 24.7257 10.4115 24.4254 10.2978ZM20.7825 14.2709L23.7929 14.097C23.911 14.6729 24.2254 15.3851 24.8788 15.8981C24.5002 15.9568 24.1175 15.9857 23.7344 15.9844H21.4743C21.2066 15.7653 20.5458 15.1214 20.7825 14.2709ZM18.1907 14.4204L19.7831 14.3285C19.6966 14.969 19.8969 15.5366 20.1863 15.9844H18.1751C17.9742 15.9729 17.7854 15.8845 17.6479 15.7375C17.5105 15.5905 17.4349 15.3962 17.4369 15.195C17.4389 14.9937 17.5184 14.801 17.6587 14.6568C17.7991 14.5126 17.9896 14.4279 18.1907 14.4204ZM14.5797 13.0781H15.0156C15.3851 13.0789 15.7496 13.1639 16.0813 13.3266C16.4131 13.4893 16.7034 13.7255 16.9302 14.0171C16.6872 14.2812 16.5316 14.6138 16.4845 14.9695C16.0162 14.8764 15.5858 14.6473 15.2471 14.3109C14.9083 13.9745 14.6761 13.5457 14.5797 13.0781ZM16.6607 16.0025C16.7825 16.2398 16.9568 16.4462 17.1704 16.6059C16.9665 17.0019 16.6576 17.3341 16.2776 17.5662C15.8975 17.7983 15.4609 17.9213 15.0156 17.9219H14.5797C14.6822 17.4244 14.9382 16.9717 15.3116 16.6274C15.6849 16.2831 16.1569 16.0645 16.661 16.0025H16.6607ZM2.42188 28.0938H1.9642C2.07526 27.1152 2.5138 26.2029 3.20863 25.505C3.90347 24.807 4.8138 24.3644 5.79185 24.249C5.86242 24.7637 6.04018 25.2579 6.31365 25.6995C5.94983 26.4195 5.39346 27.0244 4.70641 27.4471C4.01935 27.8698 3.22853 28.0936 2.42188 28.0938ZM5.79185 23.2197C4.8138 23.1043 3.90347 22.6617 3.20863 21.9638C2.5138 21.2659 2.07526 20.3536 1.9642 19.375H2.42188C3.22853 19.3751 4.01935 19.599 4.70641 20.0216C5.39346 20.4443 5.94983 21.0493 6.31365 21.7692C6.04018 22.2109 5.86242 22.705 5.79185 23.2197ZM22.7491 27.6836C22.2702 27.836 21.7585 27.9779 21.2112 28.1044C19.486 28.414 17.7371 28.5725 15.9844 28.5781C13.3015 28.5781 10.6188 27.7348 8.01035 26.0715C7.61656 25.8217 7.29226 25.4765 7.06755 25.0679C6.84285 24.6593 6.72503 24.2005 6.72503 23.7342C6.72503 23.2679 6.84285 22.8091 7.06755 22.4005C7.29226 21.9919 7.61656 21.6467 8.01035 21.3969C10.6188 19.7339 13.3015 18.8906 15.9844 18.8906C17.7371 18.8967 19.486 19.0552 21.2113 19.3644C21.7586 19.4909 22.2702 19.6328 22.7492 19.7851C22.5201 20.2821 21.7969 21.9896 21.7969 23.7344C21.7969 25.4792 22.5201 27.1868 22.7491 27.6836ZM27.4392 25.2727C26.6499 25.9045 25.4246 26.6975 23.669 27.3634C23.554 27.1231 22.7656 25.4138 22.7656 23.7344C22.7656 22.0619 23.5537 20.3473 23.6691 20.1053C25.4247 20.7713 26.6499 21.5645 27.4392 22.1961C28.2512 22.8462 28.7329 23.4241 28.9621 23.7344C28.7325 24.0452 28.2512 24.6229 27.4392 25.2727Z" fill="black"/>
<path d="M26.1562 23.7344C26.4238 23.7344 26.6406 23.5175 26.6406 23.25C26.6406 22.9825 26.4238 22.7656 26.1562 22.7656C25.8887 22.7656 25.6719 22.9825 25.6719 23.25C25.6719 23.5175 25.8887 23.7344 26.1562 23.7344Z" fill="black"/>
<path d="M17.9081 21.5849C17.8892 21.5075 17.8514 21.4359 17.7982 21.3765C17.7449 21.3172 17.6779 21.2719 17.6029 21.2447L13.8664 19.8884C13.7521 19.847 13.6264 19.85 13.5142 19.8969C13.4021 19.9438 13.3116 20.0312 13.2609 20.1416C13.2337 20.2009 12.5938 21.6184 12.5938 23.7343C12.5938 25.8503 13.2335 27.2678 13.2607 27.3271C13.3115 27.4375 13.4019 27.5249 13.5141 27.5718C13.6262 27.6187 13.7519 27.6217 13.8662 27.5803L17.6027 26.224C17.6777 26.1968 17.7448 26.1515 17.798 26.0922C17.8513 26.0328 17.8891 25.9613 17.908 25.8838C17.927 25.8063 17.9265 25.7254 17.9067 25.6482C17.8868 25.571 17.8482 25.4998 17.7943 25.4411C17.7893 25.4357 17.2992 24.8701 17.2992 23.7343C17.2992 22.6061 17.7775 22.0467 17.7943 22.0276C17.8482 21.9688 17.8869 21.8977 17.9067 21.8205C17.9266 21.7433 17.9271 21.6624 17.9081 21.5849ZM16.6861 25.4622C16.6947 25.4809 16.7032 25.499 16.7118 25.5167L13.9872 26.5056C13.7515 25.7643 13.6131 24.9955 13.5755 24.2185H14.0469C14.1753 24.2185 14.2985 24.1675 14.3894 24.0766C14.4802 23.9858 14.5313 23.8626 14.5313 23.7341C14.5313 23.6057 14.4802 23.4825 14.3894 23.3916C14.2985 23.3008 14.1753 23.2498 14.0469 23.2498H13.5755C13.6131 22.4728 13.7515 21.7039 13.9872 20.9626L16.7118 21.9516C16.7032 21.9694 16.6946 21.9876 16.6861 22.0061C16.4515 22.5519 16.3305 23.1398 16.3305 23.734C16.3305 24.3281 16.4515 24.916 16.6861 25.4618L16.6861 25.4622Z" fill="black"/>
<path d="M1.68323 14.236C1.68929 14.24 1.69534 14.244 1.7014 14.2477L3.39102 15.2864V16.4688C3.39145 16.854 3.54469 17.2234 3.81711 17.4958C4.08953 17.7682 4.45888 17.9214 4.84414 17.9219C5.14112 17.9219 5.39597 17.8163 5.66582 17.7045C5.98279 17.5732 6.31053 17.4375 6.78164 17.4375C7.25276 17.4375 7.5805 17.5732 7.89746 17.7045C8.16732 17.8163 8.42246 17.9219 8.71914 17.9219C9.1044 17.9214 9.47376 17.7682 9.74618 17.4958C10.0186 17.2234 10.1718 16.854 10.1723 16.4688V15.2864L11.8618 14.2477C11.8679 14.244 11.8739 14.24 11.88 14.236C12.6054 13.7441 12.8134 12.6823 12.3341 11.9174C11.3369 10.3253 9.23312 8.71875 6.78164 8.71875C4.33016 8.71875 2.2264 10.3253 1.22901 11.9174C0.749841 12.6823 0.95782 13.7441 1.68323 14.236ZM9.20352 16.4688C9.20337 16.5972 9.1523 16.7203 9.06149 16.8111C8.97068 16.9019 8.84756 16.953 8.71914 16.9531C8.61482 16.9531 8.45419 16.8865 8.26819 16.8095C7.92095 16.6657 7.44548 16.4688 6.78164 16.4688C6.11781 16.4688 5.64233 16.6657 5.2951 16.8095C5.1091 16.8865 4.94846 16.9531 4.84414 16.9531C4.71572 16.953 4.5926 16.9019 4.5018 16.8111C4.41099 16.7203 4.35991 16.5972 4.35977 16.4688V15.5H5.32712H5.32888H5.33094H8.23235H8.2344H8.23616H9.20352V16.4688ZM2.04996 12.4317C2.90561 11.0658 4.70059 9.6875 6.78164 9.6875C8.8627 9.6875 10.6577 11.0658 11.5133 12.4317C11.7147 12.7531 11.6334 13.2256 11.3438 13.429L9.55094 14.5312H9.01849L9.63673 13.2948C9.693 13.18 9.70164 13.0477 9.66076 12.9266C9.61987 12.8055 9.53279 12.7054 9.41847 12.6483C9.30416 12.5911 9.17188 12.5814 9.05047 12.6214C8.92906 12.6613 8.82836 12.7476 8.7703 12.8615L7.93542 14.5312H7.26602V12.5938C7.26602 12.4653 7.21498 12.3421 7.12415 12.2512C7.03331 12.1604 6.91011 12.1094 6.78164 12.1094C6.65318 12.1094 6.52998 12.1604 6.43914 12.2512C6.3483 12.3421 6.29727 12.4653 6.29727 12.5938V14.5312H5.62786L4.79298 12.8615C4.76483 12.8041 4.72561 12.7528 4.67756 12.7107C4.62951 12.6685 4.57358 12.6363 4.51302 12.6158C4.45245 12.5954 4.38843 12.5871 4.32466 12.5915C4.26088 12.5959 4.19861 12.6129 4.14143 12.6415C4.08426 12.6701 4.03331 12.7097 3.99152 12.7581C3.94973 12.8065 3.91793 12.8627 3.89796 12.9234C3.87798 12.9841 3.87022 13.0482 3.87513 13.1119C3.88004 13.1757 3.89752 13.2378 3.92655 13.2948L4.5448 14.5312H4.01235L2.21937 13.4293C1.92984 13.2256 1.84859 12.7531 2.04996 12.4317Z" fill="black"/>
</svg>
