<svg width="31" height="31" viewBox="0 0 31 31" fill="none" xmlns="http://www.w3.org/2000/svg">
<g clip-path="url(#clip0_809_8036)">
<path d="M28.163 18.5573H2.83748C2.34285 18.5573 1.94043 18.9597 1.94043 19.4543C1.94043 25.8206 7.11982 31 13.4861 31H17.5142C23.8806 31 29.06 25.8206 29.06 19.4543C29.06 18.9597 28.6576 18.5573 28.163 18.5573ZM26.9675 24.3234H25.6334C25.3819 24.3234 25.1781 24.5272 25.1781 24.7787C25.1781 25.0301 25.3819 25.2339 25.6334 25.2339H26.4375C24.5396 28.1541 21.2489 30.0894 17.5143 30.0894H13.4862C9.75159 30.0894 6.46087 28.1541 4.56297 25.2339H23.4481C23.6996 25.2339 23.9034 25.0301 23.9034 24.7787C23.9034 24.5272 23.6996 24.3234 23.4481 24.3234H4.03295C3.27996 22.8673 2.85326 21.2165 2.85101 19.4678H28.1494C28.1472 21.2164 27.7205 22.8673 26.9675 24.3234Z" fill="black"/>
<path d="M2.95414 5.19773C3.2995 5.54308 3.75873 5.73333 4.24717 5.73333C4.3395 5.73333 4.4308 5.72647 4.52047 5.71312C4.4838 6.32042 4.69651 6.9401 5.15951 7.4031L6.82594 9.06959C7.25501 9.49865 7.81866 9.71319 8.38225 9.71319C8.47743 9.71319 8.5725 9.70657 8.66702 9.69431C8.5813 10.3474 8.78837 11.032 9.28907 11.5327C9.70326 11.9468 10.254 12.175 10.8398 12.175C11.4255 12.175 11.9763 11.9468 12.3905 11.5327L14.1458 9.77729C14.5601 9.3631 14.7882 8.81238 14.7882 8.22657C14.7882 7.64076 14.5601 7.09004 14.1459 6.67585C13.7317 6.26165 13.1809 6.03352 12.5952 6.03352C12.4981 6.03352 12.4022 6.04038 12.3076 6.0527C12.392 5.39878 12.1841 4.71403 11.6828 4.21278L10.0164 2.54635C9.55332 2.08329 8.93364 1.87064 8.32634 1.90725C8.33969 1.81758 8.34655 1.72628 8.34655 1.63395C8.34655 1.14551 8.15636 0.686337 7.81101 0.340922L7.7358 0.265708C7.56448 0.0943364 7.33666 0 7.09432 0C6.85211 0 6.62428 0.0943364 6.45297 0.265647L5.34885 1.36982C5.17105 1.54763 5.17105 1.83592 5.34885 2.01366C5.52672 2.19147 5.81495 2.19147 5.99276 2.01366L7.09183 0.90949L7.16711 0.984765C7.34042 1.15814 7.43597 1.3887 7.43597 1.63389C7.43597 1.87908 7.34048 2.10958 7.16705 2.28301L4.89623 4.55382C4.72292 4.7272 4.49236 4.82269 4.24717 4.82269C4.00198 4.82269 3.77142 4.7272 3.59811 4.55382L3.52289 4.48353L4.627 3.37942C4.80481 3.20161 4.80481 2.91338 4.627 2.73557C4.44914 2.55777 4.16091 2.55777 3.9831 2.73557L2.87893 3.83968C2.70768 4.011 2.61328 4.23876 2.61328 4.48104C2.61328 4.72331 2.70768 4.95108 2.87893 5.12239L2.95414 5.19773ZM13.502 7.31969C13.7442 7.5619 13.8777 7.88395 13.8777 8.22651C13.8777 8.56907 13.7443 8.89111 13.502 9.13333L11.7467 10.8887C11.5045 11.131 11.1824 11.2644 10.8399 11.2644C10.4972 11.2644 10.1752 11.131 9.93303 10.8887C9.433 10.3887 9.433 9.57514 9.93303 9.07511L9.93831 9.06983C9.93837 9.06971 9.93849 9.06965 9.93862 9.06952L10.5194 8.48869L11.6885 7.31969C11.9307 7.07747 12.2528 6.94404 12.5953 6.94404C12.9379 6.94404 13.2598 7.07747 13.502 7.31969ZM9.37248 3.19014L11.0389 4.85656C11.542 5.35963 11.542 6.17824 11.0389 6.68131L10.6043 7.11602L9.29417 8.42605C9.05056 8.66948 8.72675 8.80351 8.38231 8.80351C8.03762 8.80351 7.71358 8.66929 7.46997 8.42562L5.80354 6.75913C5.30041 6.25607 5.30041 5.43745 5.80354 4.93439L7.54779 3.19007C7.79935 2.93851 8.12971 2.81273 8.46013 2.81273C8.79049 2.81285 9.12097 2.93863 9.37248 3.19014Z" fill="black"/>
<path d="M18.6105 14.6694C19.0247 15.0836 19.5755 15.3118 20.1612 15.3118C20.747 15.3118 21.2978 15.0836 21.7119 14.6694C22.1261 14.2552 22.3543 13.7045 22.3543 13.1187C22.3543 13.0217 22.3474 12.9258 22.3351 12.8312C22.4292 12.8433 22.524 12.8499 22.6188 12.8499C23.1822 12.8498 23.746 12.6353 24.175 12.2063L25.8415 10.5398C26.3049 10.0765 26.5175 9.45628 26.4805 8.84856C26.5711 8.86216 26.6624 8.86914 26.7538 8.86914C27.2221 8.86914 27.6904 8.69091 28.0469 8.33445L28.1221 8.25923C28.2933 8.08792 28.3877 7.86015 28.3877 7.61788C28.3877 7.3756 28.2933 7.14778 28.1221 6.97653L24.5481 3.40249C24.3767 3.23118 24.1489 3.13684 23.9066 3.13684C23.6644 3.13684 23.4366 3.23118 23.2653 3.40249L23.1901 3.4777C22.8447 3.82306 22.6545 4.28229 22.6545 4.77073C22.6545 4.86306 22.6614 4.95436 22.6747 5.04403C22.0674 5.00736 21.4478 5.22007 20.9847 5.68307L19.3182 7.34956C18.8167 7.85111 18.6088 8.53635 18.6935 9.19064C18.0404 9.10498 17.3558 9.31199 16.8551 9.81263C16.0001 10.6677 16.0001 12.059 16.8551 12.9141L18.6105 14.6694ZM23.8339 4.12161L23.904 4.04621L27.4781 7.61545L27.403 7.69066C27.0449 8.04858 26.4625 8.04858 26.1047 7.69066L23.8339 5.41985C23.6605 5.24648 23.565 5.01592 23.565 4.77073C23.565 4.52554 23.6605 4.29498 23.8339 4.12161ZM19.962 7.99346L21.6285 6.32698C21.8722 6.0833 22.1963 5.94908 22.5409 5.94908C22.8855 5.94908 23.2096 6.0833 23.4532 6.32698L25.1975 8.07129C25.7006 8.57435 25.7006 9.39297 25.1975 9.89604L23.531 11.5625C23.2873 11.8062 22.9633 11.9404 22.6186 11.9404C22.274 11.9404 21.95 11.8062 21.7064 11.5625L20.8342 10.6904L19.9618 9.81791C19.459 9.31478 19.459 8.49641 19.962 7.99346ZM17.4989 10.4565C17.749 10.2065 18.0774 10.0815 18.4057 10.0815C18.7342 10.0815 19.0626 10.2065 19.3126 10.4565L19.3172 10.4611C19.3175 10.4614 19.3178 10.4618 19.3181 10.4621L21.0624 12.2064C21.0625 12.2065 21.0626 12.2065 21.0627 12.2067L21.068 12.212C21.3102 12.4542 21.4436 12.7762 21.4436 13.1188C21.4436 13.4613 21.3103 13.7834 21.068 14.0256C20.8258 14.2678 20.5037 14.4012 20.1612 14.4012C19.8186 14.4012 19.4966 14.2678 19.2543 14.0256L17.4989 12.2702C16.999 11.7701 16.999 10.9566 17.4989 10.4565Z" fill="black"/>
<path d="M14.2345 12.3015C14.2642 12.3015 14.2939 12.2984 14.3237 12.2924C14.3522 12.2863 14.3814 12.2778 14.4086 12.2663C14.4359 12.2547 14.4627 12.2408 14.4869 12.2244C14.5118 12.208 14.5356 12.1886 14.5562 12.1679C14.5775 12.1467 14.5963 12.1236 14.6132 12.0987C14.6291 12.0738 14.6436 12.0477 14.6545 12.0204C14.666 11.9925 14.6752 11.964 14.6807 11.9348C14.6867 11.9057 14.6898 11.8753 14.6898 11.8462C14.6898 11.8164 14.6867 11.7861 14.6807 11.757C14.6752 11.7278 14.6661 11.6993 14.6545 11.672C14.6436 11.644 14.6291 11.6179 14.6132 11.593C14.5963 11.5682 14.5774 11.5451 14.5562 11.5238C14.5356 11.5032 14.5119 11.4838 14.4869 11.4674C14.4627 11.451 14.4359 11.437 14.4086 11.4255C14.3814 11.414 14.3522 11.4055 14.3237 11.3994C14.2648 11.3879 14.2041 11.3879 14.1452 11.3994C14.1167 11.4055 14.0876 11.414 14.0603 11.4255C14.033 11.437 14.0062 11.451 13.982 11.4674C13.9571 11.4838 13.9334 11.5032 13.9127 11.5238C13.8915 11.5451 13.8727 11.5682 13.8557 11.593C13.8393 11.6179 13.8254 11.644 13.8138 11.672C13.8029 11.6993 13.7938 11.7278 13.7883 11.757C13.7823 11.7861 13.7793 11.8164 13.7793 11.8462C13.7793 11.8753 13.7823 11.9057 13.7883 11.9348C13.7938 11.964 13.8029 11.9925 13.8138 12.0204C13.8254 12.0477 13.8393 12.0738 13.8557 12.0987C13.8727 12.1236 13.8915 12.1467 13.9127 12.1679C13.9334 12.1886 13.957 12.208 13.982 12.2244C14.0062 12.2408 14.033 12.2547 14.0603 12.2663C14.0876 12.2778 14.1168 12.2863 14.1452 12.2924C14.175 12.2984 14.2047 12.3015 14.2345 12.3015Z" fill="black"/>
<path d="M11.5376 13.5393C11.5212 13.5144 11.5024 13.4914 11.4811 13.4701C11.4598 13.4489 11.4368 13.43 11.4119 13.4137C11.387 13.3973 11.3609 13.3833 11.3336 13.3718C11.3056 13.3602 11.2771 13.3517 11.248 13.3457C11.0999 13.3159 10.9427 13.3645 10.8376 13.4701C10.8163 13.4914 10.7975 13.5144 10.7806 13.5393C10.7641 13.5642 10.7502 13.5903 10.7387 13.6176C10.7278 13.6455 10.7187 13.6741 10.7132 13.7032C10.7071 13.7324 10.7041 13.7621 10.7041 13.7918C10.7041 13.8216 10.7072 13.8519 10.7132 13.8811C10.7187 13.9102 10.7278 13.9388 10.7387 13.9661C10.7502 13.9934 10.7642 14.0201 10.7806 14.045C10.7975 14.0699 10.8164 14.0929 10.8376 14.1142C10.922 14.1986 11.0391 14.2471 11.1593 14.2471C11.1891 14.2471 11.2188 14.2441 11.248 14.2386C11.2771 14.2326 11.3056 14.2241 11.3336 14.2125C11.3609 14.201 11.387 14.187 11.4119 14.1707C11.4368 14.1543 11.4598 14.1348 11.4811 14.1142C11.5024 14.0929 11.5212 14.0699 11.5376 14.045C11.554 14.0201 11.5685 13.9934 11.5795 13.9661C11.5909 13.9388 11.5994 13.9102 11.6056 13.8811C11.6116 13.8513 11.6146 13.8216 11.6146 13.7918C11.6146 13.7621 11.6116 13.7324 11.6056 13.7032C11.5994 13.6741 11.591 13.6455 11.5795 13.6176C11.5685 13.5903 11.5539 13.5642 11.5376 13.5393Z" fill="black"/>
<path d="M19.0543 16.824C19.027 16.8131 18.9985 16.804 18.9693 16.7985C18.9104 16.7864 18.8504 16.7864 18.7915 16.7985C18.7623 16.804 18.7338 16.8131 18.7065 16.824C18.6786 16.8356 18.6525 16.8495 18.6276 16.8659C18.6027 16.8829 18.5796 16.9017 18.5584 16.923C18.4734 17.0074 18.4248 17.1251 18.4248 17.2447C18.4248 17.2745 18.4278 17.3042 18.4339 17.334C18.44 17.3625 18.4484 17.3916 18.46 17.4189C18.4709 17.4463 18.4855 17.473 18.5019 17.4973C18.5183 17.5221 18.537 17.5458 18.5584 17.5665C18.5796 17.5877 18.6026 17.6065 18.6276 17.6235C18.6525 17.6399 18.6786 17.6539 18.7065 17.6648C18.7338 17.6763 18.7623 17.6854 18.7915 17.6909C18.8206 17.697 18.8504 17.7 18.8801 17.7C19.0003 17.7 19.1175 17.6514 19.2024 17.5665C19.2231 17.5458 19.2425 17.5221 19.259 17.4973C19.2753 17.473 19.2893 17.4463 19.3008 17.4189C19.3123 17.3916 19.3208 17.3625 19.3269 17.334C19.3324 17.3042 19.3354 17.2745 19.3354 17.2447C19.3354 17.1245 19.2869 17.0074 19.2025 16.923C19.1813 16.9017 19.1582 16.8829 19.1333 16.8659C19.1083 16.8495 19.0816 16.8356 19.0543 16.824Z" fill="black"/>
<path d="M14.0277 14.6223C14.0168 14.5949 14.0022 14.5682 13.9859 14.5439C13.9694 14.5191 13.9507 14.4954 13.9294 14.4747C13.9087 14.4535 13.8851 14.4347 13.8602 14.4177C13.8353 14.4013 13.8092 14.3873 13.7819 14.3758C13.7539 14.3649 13.7254 14.3558 13.6963 14.3503C13.638 14.3382 13.5773 14.3382 13.5184 14.3503C13.4893 14.3558 13.4607 14.3649 13.4335 14.3758C13.4062 14.3873 13.3794 14.4013 13.3545 14.4177C13.3296 14.4347 13.3065 14.4535 13.2853 14.4747C13.2009 14.5591 13.1523 14.6763 13.1523 14.7965C13.1523 14.8262 13.1554 14.856 13.1609 14.8851C13.167 14.9142 13.1755 14.9428 13.187 14.9707C13.1985 14.998 13.2125 15.0247 13.2289 15.049C13.2458 15.0739 13.2647 15.0976 13.2853 15.1182C13.3066 15.1395 13.3296 15.1583 13.3546 15.1753C13.3794 15.1917 13.4062 15.2056 13.4335 15.2166C13.4608 15.2281 13.4894 15.2372 13.5185 15.2427C13.5482 15.2487 13.5779 15.2518 13.6077 15.2518C13.7273 15.2518 13.8444 15.2032 13.9295 15.1182C13.9507 15.0976 13.9695 15.0739 13.986 15.049C14.0023 15.0247 14.0169 14.998 14.0278 14.9707C14.0393 14.9428 14.0478 14.9142 14.0539 14.8851C14.06 14.856 14.063 14.8262 14.063 14.7965C14.063 14.7667 14.06 14.737 14.0539 14.7072C14.0477 14.6781 14.0393 14.6496 14.0277 14.6223Z" fill="black"/>
<path d="M14.6882 16.824C14.6609 16.8356 14.6341 16.8495 14.6099 16.8659C14.585 16.8829 14.5614 16.9017 14.5407 16.923C14.5194 16.9436 14.5007 16.9667 14.4837 16.9922C14.4672 17.0165 14.4533 17.0432 14.4418 17.0705C14.4308 17.0978 14.4217 17.127 14.4163 17.1555C14.4102 17.1852 14.4072 17.215 14.4072 17.2447C14.4072 17.2745 14.4103 17.3042 14.4163 17.3334C14.4217 17.3625 14.4308 17.391 14.4418 17.4189C14.4533 17.4463 14.4673 17.473 14.4837 17.4973C14.5007 17.5221 14.5195 17.5458 14.5407 17.5665C14.5614 17.5877 14.585 17.6065 14.6099 17.6229C14.6341 17.6393 14.6609 17.6539 14.6882 17.6648C14.7155 17.6763 14.7447 17.6854 14.7732 17.6909C14.8029 17.697 14.8327 17.7 14.8625 17.7C14.8921 17.7 14.9219 17.697 14.9517 17.6909C14.9802 17.6854 15.0094 17.6763 15.0367 17.6648C15.0639 17.6539 15.0907 17.6393 15.115 17.6229C15.1405 17.6065 15.1636 17.5877 15.1842 17.5665C15.2054 17.5458 15.2243 17.5221 15.2412 17.4973C15.2577 17.473 15.2716 17.4463 15.2831 17.4189C15.294 17.391 15.3031 17.3625 15.3086 17.3334C15.3147 17.3042 15.3177 17.2745 15.3177 17.2447C15.3177 17.215 15.3147 17.1852 15.3086 17.1555C15.3031 17.127 15.294 17.0978 15.2831 17.0705C15.2716 17.0432 15.2576 17.0165 15.2412 16.9922C15.2243 16.9667 15.2054 16.9436 15.1842 16.923C15.1636 16.9017 15.1405 16.8829 15.115 16.8659C15.0907 16.8495 15.0639 16.8356 15.0367 16.824C15.0094 16.8131 14.9802 16.804 14.9517 16.7985C14.8928 16.7864 14.8321 16.7864 14.7732 16.7985C14.7447 16.804 14.7155 16.8131 14.6882 16.824Z" fill="black"/>
<path d="M15.7602 14.9707C15.7717 14.998 15.7857 15.0247 15.8021 15.049C15.8185 15.0739 15.8379 15.0976 15.8586 15.1182C15.8798 15.1395 15.9028 15.1583 15.9278 15.1747C15.9527 15.1911 15.9794 15.2056 16.0067 15.2166C16.034 15.2281 16.0626 15.2372 16.0917 15.2427C16.1214 15.2487 16.1511 15.2518 16.1809 15.2518C16.2107 15.2518 16.2404 15.2487 16.2696 15.2427C16.2987 15.2372 16.3272 15.2281 16.3552 15.2166C16.3825 15.2056 16.4086 15.1911 16.4335 15.1747C16.4584 15.1583 16.4814 15.1395 16.5027 15.1182C16.5233 15.0976 16.5427 15.0739 16.5592 15.049C16.5756 15.0247 16.5895 14.998 16.601 14.9707C16.6126 14.9434 16.6211 14.9142 16.6271 14.8851C16.6333 14.856 16.6362 14.8262 16.6362 14.7965C16.6362 14.7667 16.6332 14.737 16.6271 14.7072C16.6211 14.6787 16.6126 14.6496 16.601 14.6223C16.5895 14.5949 16.5755 14.5682 16.5592 14.5439C16.5427 14.5191 16.5233 14.4954 16.5027 14.4747C16.4814 14.4535 16.4584 14.4347 16.4335 14.4177C16.4086 14.4013 16.3825 14.3873 16.3552 14.3758C16.3272 14.3649 16.2987 14.3558 16.2696 14.3503C16.2113 14.3382 16.1506 14.3382 16.0917 14.3503C16.0626 14.3558 16.034 14.3649 16.0067 14.3758C15.9794 14.3873 15.9527 14.4013 15.9278 14.4177C15.9029 14.4347 15.8798 14.4535 15.8586 14.4747C15.8379 14.4954 15.8185 14.5191 15.8021 14.5439C15.7857 14.5682 15.7717 14.5949 15.7602 14.6223C15.7487 14.6496 15.7402 14.6787 15.7341 14.7072C15.7286 14.737 15.7256 14.7667 15.7256 14.7965C15.7256 14.8262 15.7286 14.856 15.7341 14.8851C15.7402 14.9142 15.7487 14.9434 15.7602 14.9707Z" fill="black"/>
<path d="M12.6041 16.9922C12.5876 16.9674 12.5688 16.9437 12.5476 16.923C12.442 16.8168 12.2847 16.7689 12.1366 16.7986C12.1075 16.8041 12.0789 16.8132 12.0516 16.8241C12.0243 16.8356 11.9975 16.8496 11.9727 16.866C11.9478 16.883 11.9247 16.9018 11.9035 16.923C11.8828 16.9437 11.864 16.9674 11.847 16.9922C11.8305 17.0165 11.8166 17.0432 11.8051 17.0706C11.7936 17.0979 11.7851 17.127 11.7796 17.1555C11.7735 17.1853 11.7705 17.215 11.7705 17.2448C11.7705 17.2745 11.7736 17.3043 11.7796 17.334C11.7851 17.3626 11.7936 17.3917 11.8051 17.419C11.8166 17.4463 11.8306 17.473 11.847 17.4973C11.8639 17.5222 11.8828 17.5459 11.9035 17.5665C11.9247 17.5878 11.9477 17.6066 11.9727 17.6236C11.9975 17.64 12.0243 17.6539 12.0516 17.6649C12.0789 17.6764 12.1075 17.6855 12.1366 17.691C12.1663 17.697 12.1961 17.7001 12.2258 17.7001C12.2555 17.7001 12.2853 17.697 12.3144 17.691C12.3436 17.6855 12.3721 17.6764 12.4 17.6649C12.4273 17.6539 12.4534 17.64 12.4783 17.6236C12.5032 17.6066 12.5269 17.5878 12.5476 17.5665C12.5688 17.5459 12.5876 17.5222 12.6041 17.4973C12.6204 17.473 12.635 17.4463 12.6459 17.419C12.6574 17.3917 12.6659 17.3626 12.672 17.334C12.6781 17.3043 12.6811 17.2745 12.6811 17.2448C12.6811 17.215 12.6781 17.1853 12.672 17.1555C12.6659 17.127 12.6575 17.0979 12.6459 17.0706C12.635 17.0432 12.6204 17.0165 12.6041 16.9922Z" fill="black"/>
</g>
<defs>
<clipPath id="clip0_809_8036">
<rect width="31" height="31" fill="white"/>
</clipPath>
</defs>
</svg>
