<svg width="31" height="31" viewBox="0 0 31 31" fill="none" xmlns="http://www.w3.org/2000/svg">
<path d="M29.0606 4.39666C29.0612 4.38897 29.0625 1.45311 29.0625 1.45311C29.0625 1.37054 29.0414 1.28935 29.0012 1.21724C28.961 1.14512 28.903 1.08449 28.8328 1.04108C28.7625 0.997677 28.6824 0.972947 28.5999 0.969239C28.5174 0.965531 28.4353 0.982968 28.3615 1.0199L27.6094 1.39595L26.8573 1.0199C26.79 0.986261 26.7158 0.96875 26.6406 0.96875C26.5654 0.96875 26.4913 0.986261 26.424 1.0199L25.6719 1.39595L24.9198 1.0199C24.8525 0.986261 24.7783 0.96875 24.7031 0.96875C24.6279 0.96875 24.5538 0.986261 24.4865 1.0199L23.7344 1.39595L22.9823 1.0199C22.915 0.986261 22.8408 0.96875 22.7656 0.96875C22.6904 0.96875 22.6163 0.986261 22.549 1.0199L21.7969 1.39595L21.0448 1.0199C20.9775 0.986261 20.9033 0.96875 20.8281 0.96875C20.7529 0.96875 20.6788 0.986261 20.6115 1.0199L19.8594 1.39595L19.1073 1.0199C19.04 0.986261 18.9658 0.96875 18.8906 0.96875C18.8154 0.96875 18.7413 0.986261 18.674 1.0199L17.9219 1.39595L17.1698 1.0199C17.1025 0.986261 17.0283 0.96875 16.9531 0.96875C16.8779 0.96875 16.8038 0.986261 16.7365 1.0199L15.9844 1.39595L15.2323 1.0199C15.165 0.986261 15.0908 0.96875 15.0156 0.96875C14.9404 0.96875 14.8663 0.986261 14.799 1.0199L14.0469 1.39595L13.2948 1.0199C13.2209 0.982968 13.1389 0.965531 13.0564 0.969239C12.9739 0.972947 12.8937 0.997677 12.8235 1.04108C12.7533 1.08449 12.6953 1.14512 12.6551 1.21724C12.6149 1.28935 12.5938 1.37054 12.5938 1.45311V4.06001L12.1094 4.3022L11.3573 3.92615C11.29 3.89251 11.2158 3.875 11.1406 3.875C11.0654 3.875 10.9913 3.89251 10.924 3.92615L10.1719 4.3022L9.41976 3.92615C9.3525 3.89251 9.27833 3.875 9.20312 3.875C9.12792 3.875 9.05375 3.89251 8.98649 3.92615L8.23438 4.3022L7.48226 3.92615C7.415 3.89251 7.34083 3.875 7.26562 3.875C7.19042 3.875 7.11625 3.89251 7.04899 3.92615L6.29688 4.3022L5.54476 3.92615C5.4775 3.89251 5.40333 3.875 5.32812 3.875C5.25292 3.875 5.17875 3.89251 5.11149 3.92615L4.35938 4.3022L3.60726 3.92615C3.54 3.89251 3.46583 3.875 3.39062 3.875C3.31542 3.875 3.24125 3.89251 3.17399 3.92615L2.42188 4.3022L1.66976 3.92615C1.59591 3.88922 1.51385 3.87178 1.43137 3.87549C1.34889 3.8792 1.26873 3.90393 1.19849 3.94733C1.12825 3.99074 1.07028 4.05137 1.03007 4.12349C0.989861 4.1956 0.968753 4.27679 0.96875 4.35936C0.96875 4.35936 0.982676 6.89627 0.983221 6.89869L1.45312 8.77837V22.2216C1.45312 22.2216 0.96875 24.2084 0.96875 24.2143C0.96875 24.2158 0.96875 26.6406 0.96875 26.6406C0.968753 26.7232 0.989861 26.8044 1.03007 26.8765C1.07028 26.9486 1.12825 27.0092 1.19849 27.0526C1.26873 27.096 1.34889 27.1208 1.43137 27.1245C1.51385 27.1282 1.59591 27.1107 1.66976 27.0738L2.42188 26.6978L3.17399 27.0738C3.24125 27.1075 3.31542 27.125 3.39062 27.125C3.46583 27.125 3.54 27.1075 3.60726 27.0738L4.35938 26.6978L5.11149 27.0738C5.17875 27.1075 5.25292 27.125 5.32812 27.125C5.40333 27.125 5.4775 27.1075 5.54476 27.0738L6.29688 26.6978L7.04899 27.0738C7.11611 27.1075 7.19016 27.1251 7.26526 27.1251H7.26562V29.547C7.26562 29.6261 7.28502 29.7041 7.32212 29.774C7.35922 29.8439 7.41289 29.9037 7.47844 29.9481C7.54398 29.9925 7.61941 30.0201 7.69811 30.0286C7.77681 30.0371 7.85639 30.0261 7.92988 29.9967L10.2652 29.0625H19.2606L21.0959 29.9801C21.1697 30.017 21.2518 30.0344 21.3343 30.0307C21.4167 30.027 21.4969 30.0023 21.5671 29.9589C21.6374 29.9155 21.6953 29.8548 21.7356 29.7827C21.7758 29.7106 21.7969 29.6294 21.7969 29.5469V25.729L22.549 26.1051C22.6163 26.1387 22.6904 26.1562 22.7656 26.1562C22.8408 26.1562 22.915 26.1387 22.9823 26.1051L23.7344 25.729L24.4865 26.1051C24.5538 26.1387 24.6279 26.1562 24.7031 26.1562C24.7783 26.1562 24.8525 26.1387 24.9198 26.1051L25.6719 25.729L26.424 26.1051C26.4913 26.1387 26.5654 26.1562 26.6406 26.1562C26.7158 26.1562 26.79 26.1387 26.8573 26.1051L27.6094 25.729L28.3615 26.1051C28.4353 26.142 28.5174 26.1594 28.5999 26.1557C28.6824 26.152 28.7625 26.1273 28.8328 26.0839C28.903 26.0405 28.961 25.9798 29.0012 25.9077C29.0414 25.8356 29.0625 25.7544 29.0625 25.6719C29.0625 25.6719 29.0581 22.7 29.0577 22.6971L28.581 19.3607L28.8192 16.5034C28.9816 14.547 28.9876 12.5807 28.8374 10.6234L28.581 7.28722C28.581 7.28722 29.0598 4.40665 29.0606 4.39666ZM21.7969 22.2812V20.8281C21.7969 20.7455 21.7758 20.6643 21.7356 20.5922C21.6953 20.5201 21.6374 20.4595 21.5671 20.4161C21.4969 20.3727 21.4167 20.3479 21.3343 20.3442C21.2518 20.3405 21.1697 20.358 21.0959 20.3949L19.2606 21.3125H16.9531V17.8932C17.7893 18.6418 18.8243 19.1322 19.9331 19.3054C21.0419 19.4785 22.1772 19.327 23.2018 18.869C24.2264 18.4111 25.0965 17.6663 25.707 16.7247C26.3176 15.783 26.6425 14.6848 26.6425 13.5625C26.6425 12.4402 26.3176 11.3419 25.707 10.4003C25.0965 9.45863 24.2264 8.71387 23.2018 8.25592C22.1772 7.79797 21.0419 7.64643 19.9331 7.81959C18.8243 7.99275 17.7893 8.48321 16.9531 9.23175V8.77837L17.423 6.89869C17.4236 6.89645 17.4238 6.89409 17.4243 6.89185C17.4271 6.87993 17.4375 4.84373 17.4375 4.84373H28.0064C28.0064 4.84373 27.6078 7.26373 27.6108 7.30272L27.8717 10.6977C28.0179 12.6036 28.0118 14.5181 27.8536 16.4231C27.8536 16.4231 27.6094 19.4075 27.6142 19.4435L28.0199 22.2812H21.7969ZM7.47845 20.427C7.4129 20.4714 7.35922 20.5311 7.32212 20.6011C7.28502 20.671 7.26562 20.7489 7.26562 20.8281V23.7344H2.07349L2.4074 22.3987C2.41703 22.3603 2.42188 8.71873 2.42188 8.71873C2.42188 8.67914 2.07349 7.26561 2.07349 7.26561H16.3328C16.3328 7.26561 15.9844 8.67914 15.9844 8.71873V21.3125H10.2652L7.92988 20.3784C7.85639 20.349 7.77682 20.338 7.69812 20.3465C7.61942 20.355 7.54399 20.3826 7.47845 20.427ZM16.9531 10.6568C17.563 9.84335 18.4134 9.24245 19.3838 8.93921C20.3542 8.63597 21.3954 8.64576 22.3599 8.96719C23.3245 9.28862 24.1634 9.90541 24.7579 10.7302C25.3524 11.5549 25.6723 12.5458 25.6723 13.5625C25.6723 14.5792 25.3524 15.5701 24.7579 16.3948C24.1634 17.2196 23.3245 17.8363 22.3599 18.1578C21.3954 18.4792 20.3542 18.489 19.3838 18.1858C18.4134 17.8825 17.563 17.2816 16.9531 16.4682V10.6568ZM13.8302 2.3707C13.8975 2.40433 13.9717 2.42184 14.0469 2.42184C14.1221 2.42184 14.1962 2.40433 14.2635 2.3707L15.0156 1.99464L15.7677 2.3707C15.835 2.40433 15.9092 2.42184 15.9844 2.42184C16.0596 2.42184 16.1337 2.40433 16.201 2.3707L16.9531 1.99464L17.7052 2.3707C17.7725 2.40433 17.8467 2.42184 17.9219 2.42184C17.9971 2.42184 18.0712 2.40433 18.1385 2.3707L18.8906 1.99464L19.6427 2.3707C19.71 2.40433 19.7842 2.42184 19.8594 2.42184C19.9346 2.42184 20.0087 2.40433 20.076 2.3707L20.8281 1.99464L21.5802 2.3707C21.6475 2.40433 21.7217 2.42184 21.7969 2.42184C21.8721 2.42184 21.9462 2.40433 22.0135 2.3707L22.7656 1.99464L23.5177 2.3707C23.585 2.40433 23.6592 2.42184 23.7344 2.42184C23.8096 2.42184 23.8837 2.40433 23.951 2.3707L24.7031 1.99464L25.4552 2.3707C25.5225 2.40433 25.5967 2.42184 25.6719 2.42184C25.7471 2.42184 25.8212 2.40433 25.8885 2.3707L26.6406 1.99464L27.3927 2.3707C27.46 2.40433 27.5342 2.42184 27.6094 2.42184C27.6846 2.42184 27.7587 2.40433 27.826 2.3707L28.0938 2.23683V3.87498H27.125V2.90623H26.1562V3.87498H25.1875V2.90623H24.2188V3.87498H23.25V2.90623H22.2812V3.87498H21.3125V2.90623H20.3438V3.87498H19.375V2.90623H18.4062V3.87498H17.4375V2.90623H16.4688V3.87498H15.5V2.90623H14.5312V3.87498H13.5625V2.23683L13.8302 2.3707ZM2.20524 5.27695C2.2725 5.31058 2.34667 5.32809 2.42188 5.32809C2.49708 5.32809 2.57125 5.31058 2.63851 5.27695L3.39062 4.90089L4.14274 5.27695C4.21 5.31058 4.28417 5.32809 4.35938 5.32809C4.43458 5.32809 4.50875 5.31058 4.57601 5.27695L5.32812 4.90089L6.08024 5.27695C6.1475 5.31058 6.22167 5.32809 6.29688 5.32809C6.37208 5.32809 6.44625 5.31058 6.51351 5.27695L7.26562 4.90089L8.01774 5.27695C8.085 5.31058 8.15917 5.32809 8.23438 5.32809C8.30958 5.32809 8.38375 5.31058 8.45101 5.27695L9.20312 4.90089L9.95524 5.27695C10.0225 5.31058 10.0967 5.32809 10.1719 5.32809C10.2471 5.32809 10.3212 5.31058 10.3885 5.27695L11.1406 4.90089L11.8927 5.27695C11.96 5.31058 12.0342 5.32809 12.1094 5.32809C12.1846 5.32809 12.2587 5.31058 12.326 5.27695L13.0781 4.90089L13.8302 5.27695C13.8975 5.31058 13.9717 5.32809 14.0469 5.32809C14.1221 5.32809 14.1962 5.31058 14.2635 5.27695L15.0156 4.90089L15.7677 5.27695C15.835 5.31058 15.9092 5.32809 15.9844 5.32809C16.0596 5.32809 16.1337 5.31058 16.201 5.27695L16.4688 5.14308V6.29686H1.9375V5.14308L2.20524 5.27695ZM6.51351 25.723C6.44625 25.6894 6.37208 25.6719 6.29688 25.6719C6.22167 25.6719 6.1475 25.6894 6.08024 25.723L5.32812 26.0991L4.57601 25.723C4.50875 25.6894 4.43458 25.6719 4.35938 25.6719C4.28417 25.6719 4.21 25.6894 4.14274 25.723L3.39062 26.0991L2.63851 25.723C2.57125 25.6894 2.49708 25.6719 2.42188 25.6719C2.34667 25.6719 2.2725 25.6894 2.20524 25.723L1.9375 25.8569V24.7031H7.26562V26.0991L6.51351 25.723ZM19.5916 28.1449C19.5244 28.1112 19.4502 28.0937 19.375 28.0937H10.1719C10.1103 28.0937 10.0492 28.1055 9.99199 28.1284L8.23438 28.8314V27.6094H9.20312V26.6406H8.23438V25.6719H9.20312V24.7031H8.23438V23.7344H9.20312V22.7656H8.23438V21.5435L9.99199 22.2466C10.0492 22.2695 10.1103 22.2812 10.1719 22.2812H19.375C19.4502 22.2812 19.5244 22.2637 19.5916 22.2301L20.8281 21.6118V22.7656H19.8594V23.7344H20.8281V24.7031H19.8594V25.6719H20.8281V26.6406H19.8594V27.6094H20.8281V28.7631L19.5916 28.1449ZM28.0938 24.8881L27.826 24.7543C27.7587 24.7206 27.6846 24.7031 27.6094 24.7031C27.5342 24.7031 27.46 24.7206 27.3927 24.7543L26.6406 25.1303L25.8885 24.7543C25.8212 24.7206 25.7471 24.7031 25.6719 24.7031C25.5967 24.7031 25.5225 24.7206 25.4552 24.7543L24.7031 25.1303L23.951 24.7543C23.8837 24.7206 23.8096 24.7031 23.7344 24.7031C23.6592 24.7031 23.585 24.7206 23.5177 24.7543L22.7656 25.1303L22.0135 24.7543C21.9463 24.7206 21.8721 24.7031 21.7969 24.7031V23.25H22.2812V24.2187H23.25V23.25H24.2188V24.2187H25.1875V23.25H26.1562V24.2187H27.125V23.25H28.0938V24.8881Z" fill="black"/>
<path d="M19.6172 16.4688C19.977 16.4677 20.3324 16.3884 20.6586 16.2365C21.1005 16.4247 21.5823 16.5004 22.0606 16.4569C22.539 16.4134 22.9991 16.2519 23.3998 15.987C23.8005 15.7221 24.1293 15.362 24.3568 14.9388C24.5842 14.5157 24.7032 14.0429 24.7031 13.5625C24.7031 13.434 24.6521 13.3108 24.5613 13.22C24.4704 13.1292 24.3472 13.0781 24.2188 13.0781H22.2435C22.0316 11.7055 20.9349 10.6562 19.6172 10.6562C18.1482 10.6562 16.9531 11.96 16.9531 13.5625C16.9531 15.165 18.1482 16.4688 19.6172 16.4688ZM21.7969 15.5C21.3674 15.4995 20.9503 15.3566 20.6108 15.0936C20.2713 14.8307 20.0286 14.4625 19.9207 14.0469H23.673C23.5651 14.4625 23.3224 14.8307 22.9829 15.0936C22.6434 15.3566 22.2263 15.4995 21.7969 15.5ZM19.6172 11.625C20.4057 11.625 21.0703 12.2434 21.2589 13.0781H19.375C19.2465 13.0781 19.1233 13.1292 19.0325 13.22C18.9417 13.3108 18.8906 13.434 18.8906 13.5625C18.8901 14.2776 19.1544 14.9676 19.6326 15.4995C19.6274 15.4995 19.6223 15.5 19.6172 15.5C18.6824 15.5 17.9219 14.6308 17.9219 13.5625C17.9219 12.4942 18.6824 11.625 19.6172 11.625Z" fill="black"/>
<path d="M14.5313 22.7656C14.0522 22.7656 13.584 22.9077 13.1857 23.1738C12.7875 23.4399 12.477 23.8181 12.2937 24.2607C12.1104 24.7032 12.0625 25.1902 12.1559 25.66C12.2494 26.1298 12.48 26.5613 12.8187 26.9C13.1574 27.2387 13.589 27.4694 14.0588 27.5628C14.5286 27.6563 15.0155 27.6083 15.4581 27.425C15.9006 27.2417 16.2788 26.9313 16.545 26.533C16.8111 26.1347 16.9531 25.6665 16.9531 25.1875C16.9524 24.5454 16.697 23.9298 16.243 23.4758C15.7889 23.0217 15.1734 22.7663 14.5313 22.7656ZM14.5313 26.6406C14.2439 26.6406 13.9629 26.5554 13.7239 26.3957C13.485 26.2361 13.2987 26.0091 13.1887 25.7436C13.0788 25.4781 13.05 25.1859 13.106 24.904C13.1621 24.6221 13.3005 24.3632 13.5037 24.16C13.707 23.9568 13.9659 23.8184 14.2478 23.7623C14.5296 23.7062 14.8218 23.735 15.0873 23.845C15.3529 23.955 15.5798 24.1412 15.7395 24.3802C15.8992 24.6192 15.9844 24.9001 15.9844 25.1875C15.9839 25.5728 15.8307 25.9421 15.5583 26.2145C15.2859 26.4869 14.9165 26.6402 14.5313 26.6406Z" fill="black"/>
<path d="M12.8284 17.4374H12.957C13.5028 17.4368 14.0261 17.2197 14.412 16.8338C14.7979 16.4479 15.015 15.9246 15.0156 15.3788V11.6249C15.0156 11.5373 14.9918 11.4512 14.9468 11.376C14.9017 11.3008 14.8371 11.2392 14.7598 11.1979C14.6825 11.1565 14.5954 11.1369 14.5078 11.1411C14.4203 11.1454 14.3355 11.1733 14.2625 11.2219L14.1157 11.3198C13.5901 11.6707 12.999 11.9117 12.378 12.0282C11.964 11.5882 11.4631 11.2391 10.9071 11.0029C10.351 10.7667 9.75196 10.6487 9.14788 10.6564C8.54381 10.664 7.94792 10.7971 7.39801 11.0472C6.8481 11.2973 6.35618 11.659 5.95345 12.1093H5.44922C4.90343 12.1099 4.38017 12.327 3.99425 12.7129C3.60832 13.0989 3.39123 13.6221 3.39063 14.1679V18.4062C3.39062 18.5012 3.41859 18.5942 3.47105 18.6735C3.5235 18.7527 3.59812 18.8148 3.68561 18.852C3.7731 18.8892 3.86959 18.8998 3.96307 18.8825C4.05654 18.8652 4.14286 18.8208 4.21128 18.7548C4.66805 18.3136 5.20967 17.9697 5.8033 17.7441C6.23193 18.2781 6.78034 18.7037 7.40409 18.9863C8.02784 19.269 8.7094 19.4007 9.39354 19.3708C10.0777 19.3409 10.7452 19.1503 11.3419 18.8144C11.9387 18.4785 12.4479 18.0068 12.8284 17.4374ZM9.20312 11.6249C9.8187 11.6245 10.4227 11.7919 10.9502 12.1093H7.45586C7.98328 11.7917 8.58745 11.6242 9.20312 11.6249ZM4.35938 14.1679C4.35971 13.879 4.47464 13.6019 4.67895 13.3976C4.88327 13.1933 5.16028 13.0784 5.44922 13.0781H11.5083C12.3896 13.079 13.259 12.8737 14.0469 12.4786V15.3788C14.0465 15.6678 13.9316 15.9448 13.7273 16.1491C13.523 16.3534 13.246 16.4683 12.957 16.4687H7.47451C6.36723 16.4665 5.28383 16.7904 4.35938 17.3999V14.1679ZM6.87274 17.4768C7.07229 17.4509 7.27329 17.4378 7.47451 17.4374H11.5747C10.9485 18.0515 10.1086 18.3987 9.23165 18.406C8.35469 18.4134 7.50907 18.0803 6.87274 17.4768Z" fill="black"/>
</svg>
