<svg width="31" height="31" viewBox="0 0 31 31" fill="none" xmlns="http://www.w3.org/2000/svg">
<g clip-path="url(#clip0_809_7977)">
<path d="M10.9639 8.18851L8.50641 5.73097C10.5518 4.26102 12.9586 3.48692 15.4998 3.48692C15.7511 3.48692 15.9548 3.28318 15.9548 3.03191C15.9548 2.78064 15.7511 2.5769 15.4998 2.5769C12.5805 2.5769 9.82579 3.52682 7.53336 5.32392C7.32181 5.48969 7.30213 5.8135 7.49231 6.00368L24.996 23.5074C25.1863 23.6976 25.51 23.6781 25.6759 23.4664C27.473 21.1739 28.4229 18.4192 28.4229 15.5C28.4229 12.3777 27.2943 9.36342 25.2452 7.01251C23.216 4.68454 20.4244 3.15779 17.3845 2.71344C17.136 2.67687 16.9047 2.84912 16.8685 3.09785C16.8321 3.34646 17.0042 3.5775 17.2528 3.61383C20.0779 4.02676 22.6727 5.4461 24.5592 7.61041C26.4639 9.79561 27.5129 12.5975 27.5129 15.5C27.5129 18.0411 26.7388 20.4479 25.2688 22.4933L24.1872 21.4117C24.3434 21.3356 24.4432 21.1773 24.4432 21.0031V15.7646C24.4432 15.5876 24.3373 15.4306 24.1812 15.3526L20.1989 13.4869V8.53768C20.1989 8.36071 20.093 8.20371 19.9369 8.12566L15.6927 6.13724C15.5704 6.07996 15.429 6.07996 15.3067 6.13724L11.0625 8.12566C11.045 8.13384 11.0279 8.14322 11.0113 8.1537C11.0101 8.15442 11.0092 8.15533 11.0081 8.156C11.0025 8.15963 10.9974 8.16393 10.9919 8.1678C10.9825 8.17464 10.9728 8.18106 10.9639 8.18851ZM15.0447 12.2693L12.3092 9.5338L15.0447 10.8155V12.2693ZM15.9548 10.8155L19.289 9.25335V13.4869L17.2279 14.4525L15.9547 13.1793V10.8155H15.9548ZM20.6204 17.8449L23.5332 16.4803V20.7138L23.5033 20.7279L20.6204 17.8449ZM19.9361 17.1606L17.9123 15.1368L19.744 14.2786L22.9159 15.7646L19.9361 17.1606ZM15.4998 7.05168L18.6715 8.53768L15.4998 10.0237L12.328 8.53762L15.4998 7.05168Z" fill="black"/>
<path d="M26.4602 4.5398C23.5326 1.6123 19.6403 0 15.5 0C11.3597 0 7.46743 1.6123 4.5398 4.5398C1.61224 7.46743 0 11.3598 0 15.5C0 20.2104 2.10509 24.61 5.77551 27.5706C5.97113 27.7284 6.25746 27.6977 6.41537 27.5021C6.57315 27.3066 6.54245 27.0201 6.34689 26.8623C2.8916 24.0753 0.909959 19.9339 0.909959 15.5C0.909959 11.6028 2.42757 7.93897 5.18324 5.1833C7.93897 2.42757 11.6028 0.909959 15.5 0.909959C19.3972 0.909959 23.061 2.42757 25.8167 5.1833C28.5724 7.93897 30.09 11.6028 30.09 15.5C30.09 19.3972 28.5723 23.061 25.8167 25.8167C23.061 28.5724 19.3972 30.09 15.5 30.09C12.785 30.09 10.1357 29.3393 7.8384 27.919C7.62461 27.7868 7.34427 27.8529 7.21216 28.0667C7.07999 28.2804 7.14617 28.5608 7.35984 28.6929C9.80103 30.2022 12.6158 31 15.5 31C19.6403 31 23.5326 29.3877 26.4602 26.4602C29.3878 23.5326 31 19.6402 31 15.5C31 11.3598 29.3878 7.46743 26.4602 4.5398Z" fill="black"/>
<path d="M5.65456 7.36037C5.52463 7.36825 5.40426 7.4314 5.32392 7.53384C3.52701 9.82621 2.57715 12.5809 2.57715 15.5C2.57715 22.6258 8.37445 28.4231 15.5002 28.4231C18.4192 28.4231 21.1739 27.4733 23.4664 25.6763C23.6779 25.5105 23.6977 25.1867 23.5074 24.9965L6.0038 7.49279C5.91165 7.4007 5.78444 7.35226 5.65456 7.36037ZM15.5002 27.5132C8.8762 27.5132 3.48711 22.1241 3.48711 15.5C3.48711 12.959 4.2612 10.5522 5.73097 8.50695L10.7397 13.5156L6.81888 15.3526C6.6617 15.4262 6.55677 15.591 6.55677 15.7646V17.6328C6.55677 17.884 6.76045 18.0878 7.01178 18.0878C7.26311 18.0878 7.46679 17.884 7.46679 17.6328V16.4803L10.801 18.0424V22.276L7.46679 20.7139V19.4527C7.46679 19.2015 7.26311 18.9977 7.01178 18.9977C6.76045 18.9977 6.55677 19.2015 6.55677 19.4527V21.0032C6.55677 21.1797 6.65892 21.3403 6.81876 21.4152L11.063 23.4036C11.1832 23.4603 11.3289 23.4603 11.4491 23.4036L15.5002 21.5055L19.5514 23.4035C19.6716 23.4602 19.8173 23.4602 19.9375 23.4035L20.4074 23.1834L22.4933 25.2692C20.4479 26.7391 18.0412 27.5132 15.5002 27.5132ZM13.4478 16.2238L11.256 17.2506L8.08413 15.7646L11.4239 14.1999L13.4478 16.2238ZM19.2894 22.2759L15.9552 20.7137V18.7311L19.2894 22.0653V22.2759ZM15.0452 20.7138L11.7109 22.2759V18.0424L14.132 16.9081L15.0452 17.8212V20.7138Z" fill="black"/>
</g>
<defs>
<clipPath id="clip0_809_7977">
<rect width="31" height="31" fill="white"/>
</clipPath>
</defs>
</svg>
