<svg width="32" height="31" viewBox="0 0 32 31" fill="none" xmlns="http://www.w3.org/2000/svg">
<g clip-path="url(#clip0_809_7947)">
<path d="M15.636 17.4678C16.8604 16.5258 17.8354 15.3138 18.4988 13.8997C19.8951 13.8268 20.5178 12.087 20.6865 10.9302C22.0613 12.0247 24.0651 12.1183 25.5343 11.1537C26.4561 10.5486 27.0859 9.62158 27.308 8.54337C27.441 7.89719 27.4168 7.24345 27.2461 6.62525C28.239 6.89049 29.423 6.97488 30.3225 6.38435C30.9974 5.94135 31.2028 4.97539 30.7545 4.29507C31.1677 3.31288 30.4359 2.21124 29.3727 2.20289C28.9143 1.50906 27.9756 1.31605 27.2799 1.77279C26.3226 2.40122 25.9699 3.61517 25.8412 4.49831C24.4817 3.4158 22.5229 3.26984 20.9936 4.27388C19.937 4.96752 19.2525 6.12637 19.1492 7.38518C18.9366 6.52475 18.6061 5.69622 18.1584 4.90855C16.874 2.64885 14.7886 1.02835 12.2862 0.345428C9.78379 -0.337437 7.16422 -0.000878199 4.91002 1.29317C0.258022 3.96354 -1.37022 9.92986 1.28029 14.593C2.56465 16.8527 4.65011 18.4733 7.15247 19.1562C7.99941 19.3873 8.85948 19.5016 9.71453 19.5016C10.9489 19.5016 12.1722 19.2625 13.3282 18.7931L19.8851 30.329C20.7444 31.8405 23.0319 30.4805 22.1949 29.0076L15.636 17.4678ZM18.7496 12.8956C18.0429 13.3593 17.9455 12.2859 17.4194 12.2859C16.9584 12.2859 16.1916 12.0056 16.6851 11.3555C16.8271 11.1684 16.803 10.9039 16.6296 10.7456C16.3689 10.5076 16.4005 10.0013 16.7037 9.8023C17.5225 9.26468 19.1072 9.44661 19.8501 10.0293C19.8423 10.5065 19.7441 12.2427 18.7496 12.8956ZM26.8018 4.27721C26.9242 3.69309 27.1929 2.91608 27.7782 2.53182C28.0564 2.3491 28.4319 2.42617 28.6149 2.70339C28.6411 2.74305 28.6624 2.7867 28.6799 2.83689C28.7569 3.058 28.9896 3.18429 29.2169 3.12829C29.4719 3.06574 29.7092 3.19131 29.8661 3.38075C30.0056 3.59192 29.9961 3.86969 29.8426 4.07191C29.6209 4.36403 29.8477 4.57012 29.9958 4.79425C30.1687 5.11864 30.1115 5.39556 29.824 5.62508C28.8278 6.279 27.1863 5.68102 26.7451 5.50018L26.6773 5.39756C26.6804 5.19486 26.6999 4.76361 26.8018 4.27721ZM20.1093 7.06727C20.2824 6.22712 20.7734 5.5046 21.4919 5.03291C22.0362 4.67552 22.6503 4.50473 23.2579 4.50473C24.3061 4.50473 25.3352 5.01317 25.9535 5.94947C26.4261 6.66502 26.5912 7.52116 26.4185 8.36017C26.2454 9.20032 25.7544 9.92284 25.0358 10.3945C23.5525 11.3683 21.551 10.9571 20.5743 9.47797C20.1016 8.76241 19.9365 7.90628 20.1093 7.06727ZM7.39156 18.28C5.12386 17.6612 3.23395 16.1924 2.06983 14.1442C-0.334271 9.91461 1.14255 4.50285 5.36198 2.08065C7.40524 0.907751 9.77931 0.602614 12.0469 1.22148C14.3146 1.84029 16.2046 3.30907 17.3687 5.35724C17.9517 6.38308 18.3168 7.48478 18.4582 8.63915C17.722 8.5467 16.8874 8.59538 16.2052 9.04321C15.5305 9.48621 15.3248 10.4522 15.7732 11.1325C15.5812 11.589 15.6227 12.1215 15.9038 12.5471C16.184 12.9631 16.6517 13.2207 17.155 13.2246C17.1723 13.2507 17.1903 13.276 17.2088 13.3006C15.2913 15.8825 11.9896 17.0419 8.87256 16.1913C7.28391 15.7578 5.95984 14.7288 5.14426 13.2939C4.32833 11.8583 4.11891 10.1884 4.55464 8.59168C4.7092 8.0253 3.83308 7.78622 3.67852 8.3526C3.1791 10.1826 3.41927 12.0968 4.35472 13.7426C5.29053 15.3891 6.8101 16.5699 8.63342 17.0675C9.39438 17.2751 10.165 17.3755 10.9274 17.3755C12.9794 17.3755 14.9701 16.6479 16.5421 15.3264C15.8637 16.1631 15.0336 16.8714 14.0765 17.4208C12.0334 18.5937 9.65926 18.899 7.39156 18.28ZM21.2471 30.0365C21.0129 30.1434 20.8221 30.0913 20.6747 29.8802L14.1557 18.4108C14.2809 18.3459 14.4055 18.2791 14.5287 18.2084C14.6507 18.1383 14.7705 18.0656 14.8888 17.991L21.4054 29.4562C21.521 29.6597 21.45 29.9199 21.2471 30.0365Z" fill="black"/>
<path d="M4.8146 6.89374C5.01015 7.05055 5.29598 7.01918 5.4529 6.82351C6.66358 5.31351 8.64733 4.66576 10.5068 5.17311C11.4813 5.43907 12.2935 6.07029 12.7938 6.95059C13.2946 7.83149 13.423 8.8563 13.1556 9.83613C12.7273 11.4055 11.1083 12.3353 9.54688 11.9094C8.34595 11.5816 7.63687 10.3329 7.96629 9.12572C8.09724 8.64591 8.43622 8.22399 8.87304 7.99701C9.25077 7.80079 9.66542 7.76725 10.0407 7.90257C10.5044 8.06979 10.7784 8.36306 10.8123 8.72843C10.8409 9.03587 10.6904 9.35953 10.4546 9.49812C10.319 9.57773 9.82405 9.606 9.79384 9.36444C10.0232 9.44102 10.2744 9.32369 10.3615 9.09557C10.4509 8.86126 10.3335 8.59887 10.0992 8.50945C9.6699 8.34556 9.20463 8.52005 8.99279 8.92423C8.7973 9.29711 8.85324 9.8486 9.33831 10.1811C9.85063 10.5323 10.4252 10.5688 10.9146 10.2811C11.4556 9.96327 11.7779 9.30559 11.7166 8.64452C11.6492 7.91928 11.1507 7.33752 10.3487 7.04831C9.73232 6.82605 9.05957 6.87679 8.45432 7.19113C7.78678 7.53798 7.28954 8.15594 7.09011 8.88657C6.62883 10.5768 7.62367 12.3258 9.30768 12.7854C9.64387 12.8771 9.98206 12.9209 10.315 12.9209C12.007 12.9209 13.5636 11.79 14.0316 10.0752C14.3627 8.86199 14.2034 7.59289 13.5833 6.50178C12.9627 5.40995 11.955 4.62695 10.7458 4.29699C8.53715 3.69429 6.18142 4.463 4.74431 6.25543C4.5875 6.45111 4.61892 6.73687 4.8146 6.89374Z" fill="black"/>
<path d="M28.4869 25.8829C29.8079 24.7537 30.3232 22.8583 29.628 21.1662C29.5327 20.9342 29.2674 20.8235 29.0354 20.9187C28.8035 21.014 28.6927 21.2794 28.788 21.5113C29.4622 23.1522 28.6788 25.0387 27.0417 25.7172L27.0397 25.718C26.2478 26.0456 25.3762 26.0451 24.5857 25.7162C23.7937 25.3868 23.1776 24.7675 22.8509 23.9725C22.1766 22.3313 22.9605 20.4443 24.5982 19.7661C25.5617 19.3672 26.6625 19.4632 27.5433 20.0227C27.7549 20.1572 28.0355 20.0946 28.1701 19.8829C28.3046 19.6712 28.242 19.3906 28.0303 19.2561C27.2702 18.7731 26.3821 18.5598 25.5059 18.6274C25.8969 17.823 26.29 16.6184 25.8548 15.5592C25.7014 15.1857 25.4117 14.8946 25.0393 14.7396C24.6675 14.585 24.2578 14.5845 23.8856 14.7383C23.4739 14.463 22.9431 14.4027 22.4719 14.5977C22.0008 14.7928 21.6671 15.2112 21.569 15.6976C20.8007 16.0159 20.4329 16.9009 20.7492 17.6706C21.1844 18.7298 22.3093 19.3067 23.1519 19.6008C21.8309 20.7299 21.3156 22.6254 22.0108 24.3175C22.4299 25.3374 23.2204 26.1319 24.2368 26.5547C24.7452 26.7662 25.2797 26.8719 25.8144 26.8719C25.9204 26.8719 26.0262 26.8666 26.1319 26.8583C25.7412 27.6627 25.3492 28.8662 25.7839 29.9244C25.9374 30.298 26.227 30.5891 26.5995 30.744C26.9711 30.8986 27.3807 30.8991 27.7532 30.7453C28.0027 30.9121 28.2958 31 28.5928 31C28.7861 31 28.9812 30.9628 29.1668 30.8859C29.6379 30.6908 29.9716 30.2724 30.0697 29.7861C30.838 29.4678 31.2059 28.5828 30.8895 27.8131C30.4544 26.7539 29.3295 26.1769 28.4869 25.8829ZM21.5893 17.3254C21.4628 17.0176 21.6097 16.6636 21.9168 16.5364C21.9605 16.5183 22.0074 16.5058 22.0601 16.4981C22.2918 16.4643 22.4599 16.2599 22.4482 16.0261C22.4354 15.7708 22.5846 15.534 22.8193 15.4368C22.893 15.4063 22.9702 15.3916 23.0468 15.3916C23.2136 15.3916 23.3774 15.4615 23.4934 15.5911C23.6502 15.7661 23.9146 15.7926 24.1029 15.6523C24.1457 15.6204 24.1879 15.596 24.2317 15.5779C24.3797 15.5167 24.5426 15.5167 24.6905 15.5781C24.8384 15.6397 24.9537 15.7556 25.0148 15.9043C25.4676 17.0066 24.5688 18.5046 24.3074 18.9035L24.1943 18.9503C23.7273 18.852 22.0414 18.4259 21.5893 17.3254ZM29.7219 28.9471C29.6782 28.9652 29.6313 28.9778 29.5787 28.9855C29.347 29.0193 29.1789 29.2236 29.1906 29.4575C29.2034 29.7128 29.0542 29.9496 28.8195 30.0468C28.5857 30.1436 28.3148 30.0817 28.1454 29.8925C28.0561 29.7928 27.9321 29.7413 27.8069 29.7413C27.7123 29.7413 27.617 29.7708 27.5359 29.8312C27.493 29.8631 27.4508 29.8875 27.407 29.9056C27.2589 29.9669 27.0959 29.9668 26.9483 29.9054C26.8003 29.8438 26.6851 29.728 26.624 29.5792C26.1711 28.4768 27.0699 26.9789 27.3314 26.58L27.4445 26.5332C27.9115 26.6316 29.5974 27.0576 30.0495 28.1581C30.176 28.4661 30.0291 28.8199 29.7219 28.9471Z" fill="black"/>
<path d="M16.2464 27.7358C16.5557 26.9786 16.1714 26.0722 15.4215 25.7659C14.3644 25.3341 13.1654 25.7306 12.3636 26.125C12.4958 24.3652 11.4448 22.6705 9.81585 22.0051C8.12543 21.3145 6.23594 21.8372 5.11293 23.1641C4.81676 22.3211 4.23778 21.1974 3.18034 20.7654C2.41035 20.4508 1.52734 20.8226 1.21209 21.5943V21.5944C0.727139 21.6947 0.310724 22.0305 0.117713 22.503C-0.0752978 22.9755 -0.0131807 23.5068 0.262835 23.918V23.9181C0.110206 24.2916 0.111841 24.7022 0.267376 25.0741C0.896296 26.5778 3.03147 26.077 4.14558 25.5291C4.09745 26.1703 4.19976 26.818 4.45477 27.4276C4.87984 28.4439 5.67483 29.2327 6.69329 29.6488C8.32207 30.3142 10.2605 29.8322 11.3964 28.4902C11.6927 29.3332 12.2717 30.4565 13.3289 30.8884C14.1295 31.2155 14.9342 30.7853 15.2972 30.0594C15.7821 29.9591 16.1985 29.6233 16.3916 29.1509C16.5846 28.6783 16.5224 28.1471 16.2465 27.7359C16.2464 27.7359 16.2464 27.7358 16.2464 27.7358ZM1.43101 25.0473C1.09445 24.9098 0.968403 24.4157 1.17746 24.1316C1.31622 23.9431 1.28892 23.6799 1.11437 23.5239C0.700561 23.154 0.989593 22.4463 1.54411 22.472C1.77792 22.4826 1.98171 22.3141 2.01465 22.0824C2.06423 21.7334 2.50026 21.4686 2.83682 21.6061C3.93683 22.0554 4.36686 23.7464 4.46585 24.2122C3.86187 24.9229 2.32675 25.4131 1.43101 25.0473ZM8.24307 29.0458C7.84058 29.0458 7.43149 28.9694 7.03669 28.8081C6.24321 28.4839 5.62379 27.8692 5.2925 27.0772C4.96103 26.2847 4.9577 25.4096 5.28312 24.6131C5.79283 23.3654 6.99812 22.608 8.26607 22.608C8.66856 22.608 9.07765 22.6845 9.47245 22.8457C10.2659 23.1699 10.8853 23.7846 11.2166 24.5766C11.5481 25.369 11.5514 26.2441 11.226 27.0407C10.7162 28.2884 9.51096 29.0459 8.24307 29.0458ZM15.5508 28.8074C15.4545 29.0432 15.2195 29.1932 14.965 29.1818C14.7306 29.1701 14.5274 29.3396 14.4944 29.5715C14.4448 29.9204 14.0088 30.1852 13.6722 30.0478C12.5722 29.5985 12.1422 27.9074 12.0432 27.4416C12.5853 26.7192 14.2297 26.2601 15.078 26.6066C15.4146 26.7442 15.5406 27.2382 15.3316 27.5223C15.1928 27.7108 15.2201 27.974 15.3946 28.13C15.5898 28.3044 15.6189 28.5723 15.5508 28.8074Z" fill="black"/>
</g>
<defs>
<clipPath id="clip0_809_7947">
<rect width="31" height="31" fill="white" transform="translate(0.00390625)"/>
</clipPath>
</defs>
</svg>
