<svg width="31" height="31" viewBox="0 0 31 31" fill="none" xmlns="http://www.w3.org/2000/svg">
<g clip-path="url(#clip0_809_8024)">
<path d="M27.4637 10.9989C28.8026 10.8729 29.8539 9.74235 29.8539 8.37011C29.8539 6.91415 28.6699 5.72946 27.2146 5.72946H27.121C27.0129 5.11264 26.7383 4.56772 26.3211 4.15761C25.7658 3.61174 24.9775 3.33265 24.0411 3.3485L23.8366 3.35229C21.0367 3.4029 20.4544 3.41354 15.8375 1.04606C12.9232 -0.448924 9.55789 -0.427875 7.05466 1.10141C5.29549 2.17588 4.2151 3.83926 4.02519 5.72922H3.85017C2.39491 5.72922 1.21094 6.91391 1.21094 8.37011C1.21094 9.74235 2.26223 10.8729 3.60112 10.9989L3.0361 23.8732C1.62176 26.3611 1.27432 28.2626 2.00325 29.5268C2.37505 30.1712 3.20615 30.9394 5.0559 30.9394H26.0106C27.8603 30.9394 28.6917 30.1712 29.0632 29.5268C29.7919 28.2626 29.4438 26.3606 28.0287 23.873L27.4637 10.9989ZM2.42069 8.37011C2.42069 7.58111 3.06187 6.93922 3.85017 6.93922H13.1157C13.4497 6.93922 13.7205 6.66841 13.7205 6.33422C13.7205 6.00027 13.4497 5.72946 13.1157 5.72946H5.24345C5.43124 4.26924 6.29759 2.98144 7.6852 2.13378C9.8313 0.822797 12.7435 0.81854 15.2855 2.12266C20.173 4.62874 20.9537 4.61431 23.8585 4.5618L24.0627 4.55802C24.6743 4.54738 25.1501 4.703 25.4732 5.0204C25.6596 5.20346 25.7979 5.44872 25.8793 5.72922H17.9491C17.6151 5.72922 17.3443 6.00027 17.3443 6.33422C17.3443 6.66817 17.6151 6.93898 17.9491 6.93898H27.2146C28.0029 6.93898 28.6441 7.58111 28.6441 8.37011C28.6441 9.15911 28.0029 9.801 27.2146 9.801H3.85017C3.06187 9.80124 2.42069 9.15935 2.42069 8.37011ZM28.015 28.9225C27.6304 29.5897 26.7128 29.7297 26.0106 29.7297H5.0559C4.3537 29.7297 3.43604 29.5897 3.05123 28.9225C2.5555 28.063 2.94835 26.4389 4.1574 24.3495C4.20635 24.2651 4.23402 24.1702 4.23828 24.073L4.81135 11.011H26.2532L26.8265 24.073C26.8308 24.1705 26.8585 24.2653 26.9072 24.3495C28.1172 26.4391 28.5107 28.0632 28.015 28.9225Z" fill="black"/>
<path d="M19.4521 16.3748C19.0259 15.9481 18.3698 15.8476 17.5959 16.0853C17.6049 15.9637 17.6104 15.841 17.6104 15.7173C17.6104 13.9304 16.6915 12.5305 15.5184 12.5305C14.3463 12.5305 13.4281 13.9304 13.4281 15.7173C13.4281 15.841 13.4336 15.9637 13.4426 16.0853C12.6687 15.8476 12.0124 15.9481 11.5864 16.3748C10.9694 16.9923 11.05 18.0774 11.7482 19.2155C11.6914 19.2569 11.637 19.3023 11.5864 19.3532C10.7565 20.1835 11.222 21.9016 12.6692 23.3502C13.3416 24.0212 14.1027 24.5086 14.8169 24.7262C14.8484 24.739 14.8808 24.7506 14.9134 24.7615V26.3605C14.9134 26.6945 15.1842 26.9653 15.5184 26.9653C15.8524 26.9653 16.1232 26.6945 16.1232 26.3605V24.7617C16.1563 24.7508 16.1889 24.7392 16.2206 24.726C16.9356 24.5084 17.6969 24.0212 18.3698 23.3497C19.8166 21.9016 20.282 20.1835 19.4521 19.3532C19.4015 19.3023 19.3473 19.2569 19.2903 19.2155C19.9885 18.0772 20.0694 16.9923 19.4521 16.3748ZM18.5964 17.2298C18.7485 17.3818 18.6579 18.0947 17.9935 18.9693C17.8294 18.996 17.6589 19.0386 17.4822 19.0996C17.0345 19.2541 16.5688 19.5137 16.1234 19.8531V18.5138C16.1826 18.4485 16.2455 18.382 16.3131 18.3135C16.5567 18.0698 16.8192 17.8534 17.0825 17.6761C17.083 17.6758 17.0834 17.6756 17.0837 17.6751C17.3533 17.4937 17.6239 17.3527 17.8769 17.2655C18.2627 17.1321 18.5202 17.1536 18.5964 17.2298ZM15.5184 13.7403C15.8697 13.7403 16.4006 14.5288 16.4006 15.7173C16.4006 16.0985 16.3455 16.4644 16.2414 16.7875C15.9938 16.967 15.7509 17.1716 15.5191 17.397C15.2878 17.1716 15.0449 16.967 14.7968 16.7872C14.6928 16.4642 14.6379 16.0983 14.6379 15.7173C14.6379 14.5288 15.1679 13.7403 15.5184 13.7403ZM12.4421 17.2298C12.5183 17.1536 12.7761 17.1321 13.1618 17.2655C13.4118 17.3518 13.6791 17.4904 13.9454 17.6685C13.948 17.6704 13.9506 17.6723 13.9534 17.6742C14.2171 17.8515 14.4794 18.0675 14.7223 18.3101C14.7883 18.3771 14.8522 18.445 14.9134 18.5133V19.852C14.4686 19.513 14.0036 19.2538 13.5563 19.0996C13.3797 19.0386 13.2091 18.996 13.045 18.9693C12.3806 18.0947 12.2901 17.3818 12.4421 17.2298ZM13.5244 22.4945C12.431 21.4002 12.2676 20.3827 12.4421 20.2081C12.5185 20.1318 12.7761 20.1102 13.1618 20.2432C13.6623 20.4158 14.232 20.7978 14.7252 21.2914C14.7895 21.3555 14.8522 21.4224 14.9134 21.4905V23.4746C14.4589 23.2811 13.9664 22.9356 13.5244 22.4945ZM17.5148 22.494C17.0721 22.9358 16.5787 23.2816 16.1234 23.4751V21.4907C16.1835 21.4245 16.2469 21.3581 16.3133 21.2914C16.8065 20.7978 17.3762 20.4158 17.8767 20.2432C18.2624 20.1102 18.5202 20.1318 18.5964 20.2081C18.7709 20.3827 18.6075 21.4002 17.5148 22.494Z" fill="black"/>
<path d="M15.5325 6.93925H15.5446C15.8785 6.93925 16.1493 6.66844 16.1493 6.33425C16.1493 6.0003 15.8785 5.72949 15.5446 5.72949H15.5325C15.1983 5.72949 14.9277 6.0003 14.9277 6.33425C14.9277 6.66844 15.1983 6.93925 15.5325 6.93925Z" fill="black"/>
</g>
<defs>
<clipPath id="clip0_809_8024">
<rect width="31" height="31" fill="white"/>
</clipPath>
</defs>
</svg>
