<svg width="81" height="80" viewBox="0 0 81 80" fill="none" xmlns="http://www.w3.org/2000/svg">
<path d="M56.725 45.75C57.1625 45.75 57.6 46.1875 57.6 46.625V48.375C57.6 48.8672 57.1625 49.25 56.725 49.25H54.1C54.1 52.1484 51.7484 54.5 48.85 54.5C45.9516 54.5 43.6 52.1484 43.6 49.25H36.6C36.6 52.1484 34.2484 54.5 31.35 54.5C28.4516 54.5 26.1 52.1484 26.1 49.25V42.25H34.4125C34.6313 42.25 34.85 42.0859 34.85 41.8125V40.9375C34.85 40.7188 34.6313 40.5 34.4125 40.5H23.0375C22.7641 40.5 22.6 40.3359 22.6 40.0625V39.1875C22.6 38.9688 22.7641 38.75 23.0375 38.75H36.1625C36.3813 38.75 36.6 38.5859 36.6 38.3125V37.4375C36.6 37.2188 36.3813 37 36.1625 37H24.7875C24.5141 37 24.35 36.8359 24.35 36.5625V35.6875C24.35 35.4688 24.5141 35.25 24.7875 35.25H37.9125C38.1313 35.25 38.35 35.0859 38.35 34.8125V33.9375C38.35 33.7188 38.1313 33.5 37.9125 33.5H23.0375C22.7641 33.5 22.6 33.3359 22.6 33.0625V32.1875C22.6 31.9688 22.7641 31.75 23.0375 31.75H26.1V29.125C26.1 27.7031 27.2484 26.5 28.725 26.5H42.725C44.1469 26.5 45.35 27.7031 45.35 29.125V31.75H47.7563C48.4125 31.75 49.1234 32.0781 49.6156 32.5703L55.0297 37.9844C55.5219 38.4766 55.85 39.1875 55.85 39.8438V45.75H56.725ZM31.35 51.875C32.7719 51.875 33.975 50.7266 33.975 49.25C33.975 47.8281 32.7719 46.625 31.35 46.625C29.8734 46.625 28.725 47.8281 28.725 49.25C28.725 50.7266 29.8734 51.875 31.35 51.875ZM48.85 51.875C50.2719 51.875 51.475 50.7266 51.475 49.25C51.475 47.8281 50.2719 46.625 48.85 46.625C47.3734 46.625 46.225 47.8281 46.225 49.25C46.225 50.7266 47.3734 51.875 48.85 51.875ZM53.225 40.5V39.8438L47.7563 34.375H45.35V40.5H53.225Z" fill="#474747" fill-opacity="0.35"/>
<rect x="1" y="1" width="79" height="78" rx="39" stroke="#474747" stroke-opacity="0.35" stroke-width="2"/>
</svg>
