<svg width="81" height="80" viewBox="0 0 81 80" fill="none" xmlns="http://www.w3.org/2000/svg">
<path d="M59.1154 38.375C59.7169 38.5938 60.0998 39.1406 60.0998 39.6875C60.0998 46.5234 55.6154 50.2969 52.8263 51.3906C52.5529 51.5 52.1154 51.6094 51.5685 51.3906C48.0685 50.0234 44.3498 45.8125 44.3498 39.6875C44.3498 39.1406 44.7326 38.5938 45.2794 38.375L51.5685 35.9141C52.1154 35.6953 52.6076 35.8047 52.8263 35.9141L59.1154 38.375ZM52.2248 48.8203C54.0841 47.8906 57.0919 45.2656 57.4201 40.5078L52.2248 38.4844V48.8203ZM37.3498 37.5C33.4669 37.5 30.3498 34.3828 30.3498 30.5C30.3498 26.6719 33.4669 23.5 37.3498 23.5C41.1779 23.5 44.3498 26.6719 44.3498 30.5C44.3498 34.3828 41.1779 37.5 37.3498 37.5ZM42.5998 39.6875C42.5998 44.9375 45.0607 48.9844 48.0138 51.2812C47.6857 51.4453 47.3029 51.5 46.9748 51.5H27.7248C26.2482 51.5 25.0998 50.3516 25.0998 48.875V46.6328C25.0998 42.5859 28.381 39.25 32.4279 39.25H33.3576C34.5607 39.8516 35.9279 40.125 37.3498 40.125C38.7716 40.125 40.0841 39.8516 41.2873 39.25H42.2169C42.381 39.25 42.4904 39.3047 42.6544 39.3047C42.5998 39.4688 42.5998 39.5781 42.5998 39.6875Z" fill="#474747" fill-opacity="0.35"/>
<rect x="1.88989" y="1" width="78" height="78" rx="39" stroke="#474747" stroke-opacity="0.35" stroke-width="2"/>
</svg>
