<svg width="81" height="80" viewBox="0 0 81 80" fill="none" xmlns="http://www.w3.org/2000/svg">
<path d="M26.81 35.6875V34.8125C26.81 34.1016 27.3568 33.5 28.1225 33.5H47.81V30.875C47.81 29.7266 49.1771 29.125 49.9975 30L54.3725 34.375C54.9193 34.8672 54.9193 35.6875 54.3725 36.1797L49.9975 40.5547C49.1771 41.375 47.81 40.8281 47.81 39.625V37H28.1225C27.3568 37 26.81 36.4531 26.81 35.6875ZM53.4975 44C54.2084 44 54.81 44.6016 54.81 45.3125V46.1875C54.81 46.9531 54.2084 47.5 53.4975 47.5H33.81V50.125C33.81 51.3281 32.3881 51.875 31.5678 51.0547L27.1928 46.6797C26.6459 46.1875 26.6459 45.3672 27.1928 44.875L31.5678 40.5C32.3881 39.625 33.81 40.2266 33.81 41.375V44H53.4975Z" fill="#474747" fill-opacity="0.35"/>
<rect x="1.70996" y="1" width="78" height="78" rx="39" stroke="#474747" stroke-opacity="0.35" stroke-width="2"/>
</svg>
