<svg width="32" height="14" viewBox="0 0 32 14" fill="none" xmlns="http://www.w3.org/2000/svg">
<g clip-path="url(#clip0_783_895)">
<path d="M32.001 3.83325L27.824 13.1663H26.532L28.084 9.90025L25.334 3.83225H26.694L28.684 8.48325H28.709L30.636 3.83325H32.001ZM14.647 6.72025V10.5003H13.334V1.16725H16.808C17.6327 1.14465 18.4357 1.43267 19.058 1.97425C19.673 2.47925 20.011 3.19425 20.001 3.94825C20.0053 4.32836 19.9226 4.70442 19.7591 5.04761C19.5957 5.39081 19.3559 5.69205 19.058 5.92825C18.454 6.45825 17.704 6.71925 16.808 6.71925H14.648L14.647 6.72025ZM14.642 2.32025V5.57425H16.84C17.3185 5.59141 17.7845 5.41931 18.137 5.09525C18.477 4.79325 18.663 4.38125 18.663 3.95525C18.663 3.52225 18.475 3.11025 18.137 2.81325C17.9644 2.64899 17.7608 2.52066 17.5382 2.43568C17.3155 2.35071 17.0782 2.31079 16.84 2.31825L14.642 2.31925V2.32025ZM22.632 3.83425C23.464 3.83425 24.126 4.06825 24.61 4.53225C25.094 4.99625 25.334 5.63225 25.334 6.43825V10.2983H24.251V9.42825H24.204C23.735 10.1413 23.115 10.5003 22.339 10.5003C21.672 10.5003 21.12 10.2973 20.672 9.88525C20.4559 9.69387 20.2839 9.45787 20.1679 9.19355C20.0519 8.92922 19.9946 8.64287 20 8.35425C20 7.70725 20.234 7.19225 20.708 6.80625C21.178 6.42625 21.808 6.23325 22.593 6.23325C23.265 6.23325 23.817 6.36325 24.249 6.61825V6.34825C24.2506 6.15136 24.2099 5.95642 24.1299 5.77653C24.0499 5.59663 23.9323 5.43594 23.785 5.30525C23.4886 5.02782 23.097 4.87495 22.691 4.87825C22.061 4.87825 21.561 5.15425 21.191 5.70625L20.196 5.06025C20.743 4.24225 21.556 3.83125 22.628 3.83125L22.631 3.83325L22.632 3.83425ZM21.167 8.38025C21.1647 8.52846 21.1975 8.6751 21.2626 8.80823C21.3278 8.94135 21.4235 9.05718 21.542 9.14625C21.792 9.34925 22.105 9.45925 22.422 9.45325C22.896 9.45325 23.354 9.25525 23.693 8.90625C24.053 8.57325 24.256 8.10425 24.256 7.61425C23.902 7.32225 23.412 7.17625 22.782 7.17625C22.318 7.17625 21.938 7.29125 21.632 7.52025C21.324 7.75425 21.167 8.03725 21.167 8.38025ZM5.44402 1.16725C6.79041 1.15101 8.09241 1.64842 9.08502 2.55825L7.53302 4.08025C6.96606 3.55425 6.21725 3.26856 5.44402 3.28325C4.76937 3.28648 4.11248 3.49978 3.56463 3.89351C3.01678 4.28724 2.60518 4.84184 2.38702 5.48025C2.15797 6.14165 2.15797 6.86085 2.38702 7.52225C2.60501 8.16085 3.01654 8.71567 3.5644 9.10959C4.11227 9.5035 4.76924 9.71695 5.44402 9.72025C6.17802 9.72025 6.80902 9.53825 7.29802 9.21525C7.57935 9.03205 7.82045 8.7935 8.00663 8.51413C8.19282 8.23476 8.3202 7.92042 8.38102 7.59025H5.44302V5.53825H10.573C10.636 5.89825 10.667 6.25825 10.667 6.62125C10.667 8.24625 10.073 9.62125 9.04702 10.5483C8.14702 11.3613 6.91202 11.8343 5.44302 11.8343C4.44035 11.8393 3.45572 11.5676 2.59741 11.0493C1.7391 10.531 1.04036 9.78598 0.578016 8.89625C0.197965 8.15475 -0.000244141 7.33348 -0.000244141 6.50025C-0.000244141 5.66703 0.197965 4.84575 0.578016 4.10425C1.03979 3.21514 1.73771 2.47052 2.5951 1.95221C3.45248 1.43389 4.43615 1.16195 5.43802 1.16625L5.44402 1.16725Z" fill="#474747"/>
</g>
<defs>
<clipPath id="clip0_783_895">
<rect width="32" height="13" fill="white" transform="translate(0 0.5)"/>
</clipPath>
</defs>
</svg>
