<svg width="32" height="20" viewBox="0 0 32 20" fill="none" xmlns="http://www.w3.org/2000/svg">
<g clip-path="url(#clip0_783_889)">
<path d="M15.125 18.0413L15.364 18.2343C13.7438 19.3152 11.8387 19.8899 9.891 19.8853C4.427 19.8853 0 15.4653 0 10.0003C0 4.54128 4.427 0.115281 9.885 0.115281C11.912 0.115281 13.797 0.719281 15.36 1.76028C15.283 1.82424 15.2096 1.89234 15.14 1.96428C13.9856 2.96107 13.0594 4.1947 12.4242 5.58134C11.789 6.96797 11.4598 8.4751 11.459 10.0003C11.4597 11.5249 11.7874 13.0316 12.42 14.4187C13.0525 15.8058 13.9753 17.0412 15.126 18.0413H15.125ZM22.115 0.115281C20.1674 0.109289 18.2618 0.681824 16.64 1.76028C16.719 1.82828 16.797 1.89628 16.86 1.96428C18.0144 2.96107 18.9406 4.1947 19.5758 5.58134C20.211 6.96797 20.5402 8.4751 20.541 10.0003C20.541 13.0803 19.202 16.0113 16.874 18.0413C16.794 18.1063 16.715 18.1713 16.635 18.2343C18.2549 19.3159 20.1602 19.8906 22.108 19.8853C27.572 19.8853 31.999 15.4653 31.999 10.0003C31.999 4.54128 27.573 0.115281 22.115 0.115281ZM16 2.23528C14.8224 3.15819 13.8704 4.33712 13.2161 5.68268C12.5619 7.02824 12.2226 8.5051 12.224 10.0013C12.2222 11.4982 12.5613 12.976 13.2155 14.3224C13.8698 15.6688 14.822 16.8486 16 17.7723C16.131 17.6733 16.251 17.5693 16.375 17.4603C17.4439 16.5339 18.301 15.3882 18.8878 14.1012C19.4746 12.8141 19.7776 11.4158 19.776 10.0013C19.7772 8.50514 19.4378 7.02835 18.7836 5.68283C18.1294 4.3373 17.1775 3.15834 16 2.23528Z" fill="#474747"/>
</g>
<defs>
<clipPath id="clip0_783_889">
<rect width="32" height="20" fill="white"/>
</clipPath>
</defs>
</svg>
