<svg width="32" height="10" viewBox="0 0 32 10" fill="none" xmlns="http://www.w3.org/2000/svg">
<g clip-path="url(#clip0_783_886)">
<path d="M23.26 0.494834C22.5153 0.225619 21.7289 0.0898723 20.937 0.0938343C18.38 0.0938343 16.573 1.38583 16.562 3.23383C16.541 4.59383 17.843 5.35983 18.827 5.81783C19.838 6.28683 20.176 6.57783 20.171 6.99483C20.166 7.63483 19.363 7.92183 18.624 7.92183C17.597 7.92183 17.04 7.78183 16.181 7.42183L15.862 7.27083L15.498 9.40683C16.123 9.66183 17.243 9.88583 18.399 9.90683C21.123 9.90683 22.899 8.62583 22.919 6.65083C22.94 5.56783 22.243 4.74583 20.758 4.06783C19.862 3.63083 19.301 3.33283 19.301 2.88483C19.301 2.48883 19.78 2.07283 20.78 2.07283C21.4436 2.05621 22.1034 2.17849 22.717 2.43183L22.962 2.54083L23.321 0.483834L23.26 0.493834V0.494834ZM29.907 0.269834H27.907C27.282 0.269834 26.818 0.436834 26.542 1.05683L22.698 9.76983H25.417L25.965 8.34283L29.282 8.34783C29.365 8.68083 29.599 9.76783 29.599 9.76783H32L29.907 0.271834V0.269834ZM12.88 0.192834H15.469L13.849 9.69683H11.26L12.88 0.186834V0.192834ZM6.297 5.42683L6.562 6.74983L9.098 0.269834H11.843L7.759 9.75583H5.026L2.786 1.72483C2.76884 1.65812 2.73826 1.59561 2.69614 1.54111C2.65402 1.48661 2.60123 1.44126 2.541 1.40783C1.73643 0.988997 0.882874 0.671895 0 0.463834L0.031 0.263834H4.208C4.771 0.285834 5.229 0.463834 5.385 1.06783L6.297 5.43183V5.42683ZM26.703 6.40083L27.74 3.73983C27.724 3.76483 27.953 3.19283 28.083 2.83283L28.26 3.64983L28.86 6.39483H26.703V6.40083Z" fill="#474747"/>
</g>
<defs>
<clipPath id="clip0_783_886">
<rect width="32" height="10" fill="white"/>
</clipPath>
</defs>
</svg>
